<?xml version="1.0" encoding="UTF-8" standalone="no"?>
<svg
   xmlns:dc="http://purl.org/dc/elements/1.1/"
   xmlns:cc="http://creativecommons.org/ns#"
   xmlns:rdf="http://www.w3.org/1999/02/22-rdf-syntax-ns#"
   xmlns:svg="http://www.w3.org/2000/svg"
   xmlns="http://www.w3.org/2000/svg"
   xmlns:sodipodi="http://sodipodi.sourceforge.net/DTD/sodipodi-0.dtd"
   xmlns:inkscape="http://www.inkscape.org/namespaces/inkscape"
   sodipodi:docname="ludolacra.svg"
   inkscape:version="1.0 (4035a4fb49, 2020-05-01)"
   id="svg8"
   version="1.1"
   viewBox="0 0 210 297"
   height="297mm"
   width="210mm">
  <defs
     id="defs2" />
  <sodipodi:namedview
     inkscape:snap-global="false"
     inkscape:window-maximized="1"
     inkscape:window-y="-8"
     inkscape:window-x="-8"
     inkscape:window-height="1017"
     inkscape:window-width="1920"
     showgrid="false"
     inkscape:document-rotation="0"
     inkscape:current-layer="layer1"
     inkscape:document-units="mm"
     inkscape:cy="608.08631"
     inkscape:cx="-147.34998"
     inkscape:zoom="0.49497475"
     inkscape:pageshadow="2"
     inkscape:pageopacity="0.0"
     borderopacity="1.0"
     bordercolor="#666666"
     pagecolor="#ffffff"
     id="base" />
  <metadata
     id="metadata5">
    <rdf:RDF>
      <cc:Work
         rdf:about="">
        <dc:format>image/svg+xml</dc:format>
        <dc:type
           rdf:resource="http://purl.org/dc/dcmitype/StillImage" />
        <dc:title></dc:title>
      </cc:Work>
    </rdf:RDF>
  </metadata>
  <g
     id="layer1"
     inkscape:groupmode="layer"
     inkscape:label="Layer 1">
    <path
       id="path847"
       d="m -139.79002,70.153773 c -13.94414,-1.42373 -24.44784,-4.16393 -28.03543,-7.31388 -1.38268,-1.21401 -2.18812,-2.76608 -2.39353,-4.61236 -0.33636,-3.02309 1.55247,-8.42251 4.47244,-12.78499 4.43475,-6.625573 11.82216,-14.518653 16.44058,-17.565953 3.46,-2.28295 8.69503,-4.77156 11.4852,-5.45978 1.22363,-0.30183 2.23567,-0.57949 2.24896,-0.61704 0.52688,-1.48802 3.27702,-4.920687 4.9778,-6.213181 2.17588,-1.653539 2.4043,-1.766174 7.87867,-3.884942 6.44059,-2.4927344 6.63994,-2.5365474 7.52308,-1.653409 0.37345,0.373449 0.679,0.898177 0.679,1.166063 0,0.452536 0.23098,0.479377 3.25809,0.378599 3.33672,-0.111084 3.86431,0.02039 4.20696,1.048321 0.0763,0.229009 0.44666,0.195112 1.39367,-0.127567 0.72988,-0.248695 2.11282,-0.439449 3.18595,-0.439449 2.24047,0 2.873994,0.440623 2.727984,1.897369 l -0.0883,0.880756 2.11667,0.158329 c 2.46176,0.184144 2.89662,0.326696 3.96875,1.30101 0.69436,0.631016 1.25755,0.791916 4.49791,1.285021 4.11256,0.62583 4.6954,0.95082 5.04474,2.81293 0.19935,1.06263 0.12806,1.04892 2.7973,0.53814 2.94586,-0.5637 4.18309,-0.12725 4.19245,1.47894 0.005,0.86047 0.38547,1.18949 1.64827,1.42546 1.38071,0.25801 1.67518,0.72887 1.59493,2.55028 -0.0646,1.46534 -0.0355,1.54677 0.55191,1.54677 0.38866,0 0.97461,0.39495 1.57014,1.05833 0.52865,0.58888 1.1934,1.05833 1.49861,1.05833 1.05448,0 1.60686,0.91008 1.60686,2.64738 v 1.58904 l 2.3151,-0.14983 c 7.13434,-0.46174 9.63811,-1.4662 15.32041,-6.1462 3.65629,-3.01136 12.52042,-8.30218 15.6607,-9.34756 2.53256,-0.84308 4.36224,-0.44215 5.34613,1.17145 0.39335,0.64512 0.51425,1.33034 0.515,2.91896 0.001,2.31733 -0.38645,3.88793 -1.87415,7.59506 -0.55781,1.39 -1.14624,3.37826 -1.30762,4.41837 -0.27589,1.77816 -0.24364,2.07759 0.53995,5.01336 3.02237,11.323593 2.99638,11.202203 3.0185,14.102473 0.0178,2.32987 -0.0724,2.98069 -0.55863,4.03351 -0.78181,1.69271 -1.45367,1.97759 -3.73782,1.58489 -2.66867,-0.4588 -5.47375,-1.45634 -9.78016,-3.47802 -2.14163,-1.0054 -4.84637,-2.16618 -6.01053,-2.5795 -2.06673,-0.73377 -2.24466,-0.75131 -7.54063,-0.74318 -5.00808,0.008 -5.64383,0.0635 -8.29164,0.72815 -5.18352,1.30111 -8.52383,2.91075 -15.78289,7.60552 -8.24787,5.33428 -13.37463,7.56658 -20.117504,8.7596 -3.12812,0.55346 -4.13755,0.58746 -19.30797,0.65027 -11.83897,0.049 -16.90533,-0.0254 -19.45594,-0.28584 z m 37.31532,-3.68601 c 7.421344,-1.20181 10.521184,-2.54915 20.632884,-8.96802 9.591,-6.08835 13.93364,-7.71261 22.45626,-8.39921 6.52289,-0.5255 10.27201,0.28879 17.73578,3.85214 3.85766,1.84173 7.0964,3.04237 8.20679,3.04237 1.38019,0 1.26174,-2.09629 -0.50086,-8.86354 -2.62452,-10.076503 -2.58705,-9.887093 -2.39445,-12.104693 0.0979,-1.12779 0.0911,-2.05052 -0.0153,-2.05052 -0.10636,0 -0.72006,0.30866 -1.36379,0.68591 -0.93441,0.5476 -6.24624,2.48909 -6.81005,2.48909 -0.0747,0 -0.13582,-0.16665 -0.13582,-0.37033 0,-0.22812 0.78744,-0.62664 2.05052,-1.03777 2.57498,-0.83815 4.05442,-1.4556 4.56407,-1.90486 0.21828,-0.19241 0.79937,-0.38891 1.29132,-0.43667 0.84793,-0.0823 0.92878,-0.18314 1.55475,-1.93891 0.36317,-1.01865 0.99993,-2.80459 1.41503,-3.96875 0.45968,-1.28923 0.75691,-2.66164 0.76035,-3.51077 0.006,-1.38876 0.003,-1.39342 -0.72197,-1.21505 -1.41917,0.34924 -3.00897,1.15743 -7.00336,3.56023 -6.50731,3.91442 -8.74038,5.53121 -7.63956,5.53121 0.40101,0 1.89349,3.88008 1.69702,4.41182 -0.0982,0.26564 -0.45505,0.92709 -0.79311,1.46991 -0.75294,1.20899 -0.75803,1.39314 -0.063,2.27671 0.46754,0.59438 0.52581,0.9234 0.38228,2.1584 -0.0931,0.80142 -0.35016,2.02029 -0.57114,2.70861 -0.22098,0.688313 -0.33283,1.468753 -0.24855,1.734303 0.0843,0.26554 -0.0671,1.13113 -0.33646,1.92351 -0.44239,1.30147 -0.56398,1.4407 -1.25822,1.4407 -0.66559,0 -0.75733,-0.0886 -0.68509,-0.66146 0.0459,-0.3638 0.10744,-1.3163 0.13681,-2.11666 0.0294,-0.80037 0.26065,-1.918463 0.51397,-2.484663 0.25331,-0.5662 0.53557,-1.66753 0.62723,-2.4474 0.14029,-1.19364 0.0996,-1.41794 -0.25735,-1.41794 -0.59282,0 -1.04898,-0.97236 -0.84938,-1.81058 0.0921,-0.38663 0.48156,-1.3334 0.86553,-2.10392 l 0.69814,-1.40096 -0.7166,-1.46112 -0.7166,-1.46111 -0.72174,0.55455 c -1.43455,1.10221 -3.65124,2.58938 -4.54273,3.04768 -1.69788,0.87287 -4.56202,1.71192 -6.72474,1.97002 -7.15298,0.85364 -6.81907,0.84178 -8.68378,0.30852 -1.91055,-0.54637 -3.40763,-1.33462 -5.9957,-3.15687 -0.9225,-0.64954 -2.88703,-1.68452 -4.36562,-2.29997 -1.47859,-0.61545 -4.23616,-1.91255 -6.12793,-2.88245 l -3.43958,-1.76345 -8.86355,-1.97147 -8.863544,-1.97146 -5.42396,0.005 c -7.45398,0.007 -11.94027,0.33849 -17.99167,1.33061 -2.83765,0.46523 -5.21246,0.89398 -5.27736,0.95277 -0.0649,0.0588 0.71908,0.96662 1.74214,2.01739 4.21271,4.32679 6.06625,7.71126 6.83312,12.47693 0.43905,2.72843 0.53802,7.204543 0.17208,7.781993 -0.12435,0.19622 -0.44995,0.31407 -0.72356,0.2619 -0.42781,-0.0816 -0.52522,-0.44641 -0.69571,-2.60572 -0.51949,-6.579193 -1.35345,-9.383423 -3.87352,-13.024863 -1.19224,-1.72276 -3.74966,-4.57621 -4.85088,-5.41239 -0.22887,-0.17378 -0.46446,-0.46097 -0.52353,-0.6382 -0.13901,-0.41702 -5.43279,2.14823 -8.14861,3.94863 -3.92304,2.60071 -8.194,6.86519 -12.8206,12.80116 -2.83759,3.640653 -4.53089,6.371343 -5.61164,9.049563 l -0.8645,2.14232 3.36168,0.13229 c 3.34401,0.1316 3.36348,0.13608 3.706,0.85223 0.2908,0.60802 0.27991,0.84452 -0.0701,1.52135 -0.22794,0.44078 -0.50067,0.81657 -0.60607,0.83508 -0.10541,0.0185 -1.50133,0.10781 -3.10206,0.19844 l -2.91042,0.16478 0.0768,0.79375 c 0.0936,0.96772 0.7063,1.50775 3.04917,2.68769 2.50935,1.26378 7.57454,2.60132 13.80737,3.64603 4.56818,0.7657 6.7192,1.03338 12.7,1.58046 0.58208,0.0533 7.84489,0.0625 16.13958,0.0206 12.36082,-0.0625 15.55852,-0.15355 17.72709,-0.50472 z m -34.22024,-0.86092 c -0.19948,-0.35646 0.33845,-1.02566 2.77016,-3.44612 2.64571,-2.63347 3.08231,-2.96919 3.54171,-2.72333 1.02681,0.54954 0.71262,1.00892 -3.9166,5.72652 -0.94867,0.96677 -1.99394,1.16006 -2.39527,0.44293 z m 16.59622,-1.76461 c -1.69536,-1.17108 -6.98267,-4.9679 -7.44526,-5.34645 -0.56844,-0.46516 -0.60439,-1.33155 -0.0639,-1.53897 0.65279,-0.2505 1.4516,0.18828 4.94781,2.71779 3.17304,2.29571 4.0232,2.80592 3.45774,2.07513 -1.00245,-1.29554 -0.22648,-2.31511 1.76198,-2.31511 h 1.30628 l -0.15672,-0.96571 c -0.18767,-1.1565 0.34082,-1.68012 1.69577,-1.68012 0.48151,0 0.87547,-0.0926 0.87547,-0.20571 0,-0.56453 -0.95952,-1.43839 -2.13429,-1.94376 -0.92855,-0.39945 -1.3598,-0.75368 -1.47465,-1.21129 -0.21723,-0.86551 0.0795,-1.10118 1.63525,-1.29857 1.4017,-0.17785 2.61366,-0.76816 2.37382,-1.15623 -0.0802,-0.12983 -1.04563,-0.43624 -2.14532,-0.68089 -2.09491,-0.46608 -2.45675,-0.77555 -1.97004,-1.68496 0.26544,-0.49599 0.22209,-0.54921 -0.44265,-0.54337 -2.25439,0.0198 -5.51615,1.45998 -7.88532,3.48166 -2.10492,1.79621 -2.61961,2.11055 -3.13306,1.91352 -0.86077,-0.3303 -0.40121,-1.14415 1.65692,-2.93431 2.58001,-2.24409 3.66026,-2.79185 8.05919,-4.08655 6.511,-1.91633 6.69642,-1.95707 7.15902,-1.57315 0.67334,0.55882 0.50287,0.94484 -1.03994,2.35489 -0.80176,0.73275 -1.3673,1.38554 -1.25677,1.45064 0.11053,0.0651 0.61768,0.20357 1.127,0.30773 1.44927,0.29638 2.11667,0.83623 2.11667,1.71213 0,0.85494 -0.33922,1.27623 -1.70952,2.12312 l -0.9298,0.57465 0.81254,1.0111 c 0.65404,0.81387 0.81255,1.25916 0.81255,2.28273 0,1.06226 -0.11247,1.35355 -0.68309,1.76922 -0.50645,0.36892 -0.64404,0.65317 -0.53208,1.09925 0.21592,0.86032 -0.4428,1.38906 -1.99676,1.60279 -1.47631,0.20304 -1.78284,0.44148 -1.19488,0.92945 0.54778,0.45462 0.49163,1.22283 -0.13521,1.84966 -0.73995,0.73995 -2.32665,0.69864 -3.46881,-0.0903 z m 81.007244,-10.78144 c -0.65041,-0.12755 -1.98922,-0.77179 -2.99841,-1.44286 -1.00281,-0.66682 -2.70547,-1.61443 -3.78368,-2.10578 -1.48368,-0.67614 -1.92185,-0.99378 -1.80193,-1.30628 0.0872,-0.2271 0.20168,-0.41291 0.25452,-0.41291 0.3189,0 3.72539,1.84846 5.40496,2.93289 1.41043,0.91066 2.47772,1.38061 3.6837,1.62202 0.93385,0.18693 1.74682,0.48871 1.80659,0.67061 0.12518,0.38099 -0.76392,0.39565 -2.56575,0.0423 z m -113.047814,-3.1481 c -1.09415,-0.32982 -2.22441,-1.23136 -2.88617,-2.30211 -0.45549,-0.737 -0.59743,-1.36465 -0.59743,-2.64184 0,-1.428173 0.1146,-1.836833 0.77722,-2.771543 1.05037,-1.48171 2.24655,-2.07716 4.17268,-2.07716 2.64392,0 4.30563,1.25975 4.97806,3.77389 0.97241,3.635703 -2.76629,7.127493 -6.44436,6.018763 z m 114.355214,-0.99159 c -0.21828,-0.0841 -0.86315,-0.44592 -1.43304,-0.80394 -1.53494,-0.9643 -2.42205,-1.16571 -4.98311,-1.13142 -2.25918,0.0302 -3.03329,-0.27808 -1.60082,-0.63761 0.96738,-0.24279 4.02538,-0.20161 4.84197,0.0652 1.42721,0.46634 4.7505,2.24332 4.61263,2.4664 -0.16069,0.26001 -0.82118,0.27901 -1.43763,0.0414 z m -5.09323,-5.030183 c -3.22453,-0.0668 -3.9026,-0.14859 -3.9026,-0.47066 0,-0.32459 0.60863,-0.38932 3.63802,-0.38689 4.20532,0.003 5.62239,0.17807 5.62239,0.69316 0,0.23299 -0.25964,0.34138 -0.7276,0.30376 -0.40018,-0.0322 -2.48378,-0.0949 -4.63021,-0.13937 z m -3.29806,-2.54369 c -0.0787,-0.12541 -0.004,-0.31415 0.16653,-0.41943 0.23648,-0.14615 4.47881,-0.15071 7.82789,-0.008 0.14552,0.006 0.0283,0.18979 -0.26039,0.40803 -0.41848,0.31628 -1.24171,0.38167 -4.05792,0.32231 -1.94311,-0.041 -3.59736,-0.17708 -3.67611,-0.30249 z m 0.76992,-2.31082 c 0.0781,-0.23604 1.03207,-0.53812 2.61536,-0.82813 4.49531,-0.82341 4.8259,-0.85519 4.69116,-0.451 -0.16367,0.49104 -0.9826,0.68549 -6.13696,1.45721 -1.05021,0.15724 -1.26941,0.12386 -1.16956,-0.17808 z m 0.0688,-6.3054 c 0.0834,-0.13491 0.59641,-0.39108 1.14009,-0.56929 0.54368,-0.1782 1.23896,-0.48681 1.54507,-0.6858 0.43227,-0.281 6.55166,-2.46838 6.90552,-2.46838 0.0432,0 0.0785,0.16902 0.0785,0.37561 0,0.21943 -0.57759,0.56324 -1.38907,0.82686 -0.76398,0.24818 -2.71805,0.97213 -4.34237,1.60876 -2.82341,1.10661 -4.2642,1.44038 -3.93778,0.91224 z m 0.41285,-2.59899 c 0.01,-0.46673 0.50577,-0.91663 1.34532,-1.21972 1.68381,-0.60787 4.30326,-2.07665 6.0164,-3.37353 1.54468,-1.16935 2.6884,-1.63241 2.6884,-1.08844 0,0.47489 -3.88787,3.05911 -6.64388,4.41611 -2.99198,1.47319 -3.41368,1.62987 -3.40624,1.26558 z m -32.5478,-1.89235 c 0,-1.17111 -0.0706,-1.32404 -0.7276,-1.57523 -0.92127,-0.35224 -1.44272,-0.78222 -2.01472,-1.66132 -0.42474,-0.65277 -0.52448,-0.68085 -1.56762,-0.4413 -0.61271,0.14071 -1.797,0.20881 -2.63175,0.15134 -1.83934,-0.12663 -2.72769,-0.82571 -2.98506,-2.34906 -0.0957,-0.56621 -0.23953,-1.02948 -0.31972,-1.02948 -0.12092,0 -3.62198,-0.568 -7.41381,-1.2028 -0.59204,-0.0991 -0.97874,-0.37495 -1.24354,-0.88702 -0.36128,-0.69862 -0.5119,-0.75191 -2.51292,-0.88907 -2.386034,-0.16354 -3.527154,-0.67291 -4.396084,-1.962324 l -0.54692,-0.811565 -1.66901,0.627432 c -2.09449,0.787384 -3.78901,0.824264 -4.515,0.09827 -0.29105,-0.291042 -0.52917,-0.703874 -0.52917,-0.917405 0,-0.329649 -0.51543,-0.363584 -3.41541,-0.224869 l -3.41541,0.163368 -0.67437,-0.727647 -0.67435,-0.727648 -3.76689,1.487119 c -2.07179,0.817915 -4.32994,1.848423 -5.0181,2.290019 -1.48618,0.95367 -3.6409,3.20976 -3.20448,3.35524 0.16804,0.056 1.29223,-0.0914 2.4982,-0.32751 1.68636,-0.3302 4.36161,-0.45486 11.58539,-0.53983 l 9.39271,-0.11049 7.937514,1.82958 c 10.32419,2.3797 9.36552,2.07829 14.68437,4.61681 5.58883,2.66738 6.38584,3.02365 6.81302,3.0455 0.22191,0.0114 0.33073,-0.40984 0.33073,-1.28011 z"
       style="fill:#000000;stroke-width:0.264583" />
    <path
       id="path877"
       style="fill:#000000;stroke-width:0.264583"
       d="m -120.11814,117.35367 c -0.1222,-0.007 -0.24268,0.001 -0.35863,0.0243 -1.675,0.335 -11.22248,4.20564 -12.58838,5.10357 -0.79665,0.52371 -2.05367,1.55827 -2.79363,2.29908 -1.42493,1.42658 -3.29851,4.02773 -3.29851,4.57957 0,0.18107 -0.32742,0.39942 -0.7276,0.48472 -3.9762,0.84779 -9.03407,3.11109 -13.17336,5.89576 -4.90715,3.30127 -10.66844,9.3151 -15.78973,16.48065 -4.32859,6.05642 -6.31461,12.91549 -4.70307,16.24449 1.18902,2.45619 4.29342,4.51912 8.99376,5.97741 1.64665,0.51088 2.27307,0.88143 3.67988,2.17558 3.50688,3.22603 8.40337,6.84113 14.00535,10.34045 4.63315,2.89414 7.3396,4.27772 13.6679,6.98717 3.05594,1.30838 6.79605,2.98526 8.31112,3.72639 l 2.75435,1.34824 c 0,0 21.38046,13.51353 23.837307,10.72596 1.3576,-1.72786 -0.43245,-4.58967 -2.451527,-6.93343 2.813037,1.65427 5.836277,3.02213 7.081737,2.16163 1.67978,-1.81239 -0.95183,-5.68814 -1.30173,-6.18567 -0.006,-0.16006 -1.08335,-1.41189 -2.39985,-2.78898 -1.78159,-1.86358 -3.623707,-3.3741 -7.144267,-5.85752 -2.60918,-1.84053 -4.80997,-3.4532 -4.89066,-3.58376 -0.0807,-0.13055 0.0384,-0.50211 0.2651,-0.82579 0.22671,-0.32367 0.41238,-0.78508 0.41238,-1.02526 0,-0.24017 -0.66064,-1.70192 -1.46813,-3.24838 -1.11169,-2.12904 -1.36621,-2.81172 -1.04799,-2.81172 1.17406,0 5.86256,-0.62084 8.12508,-1.0759 4.914247,-0.98841 9.469937,-2.85801 14.757757,-6.05596 l 2.24327,-1.35651 2.38693,0.84543 c 5.02468,1.77904 10.28548,3.99163 16.27808,6.84661 7.06609,3.3664 10.49809,4.79218 13.30668,5.52783 5.31644,1.3925 7.05184,0.91221 7.10965,-1.96784 0.0172,-0.85941 -0.16536,-1.4669 -0.67128,-2.23139 -0.38228,-0.57767 -0.69505,-1.08583 -0.69505,-1.12913 0,-0.0434 0.47987,-0.0327 1.0666,0.0233 2.07642,0.19802 3.18313,-0.8073 3.24373,-2.94608 0.0359,-1.26519 -1.19754,-3.07728 -3.84059,-5.64203 -1.81219,-1.7585 -3.13583,-2.6845 -7.67964,-5.3728 -3.01956,-1.78649 -5.4901,-3.31187 -5.4901,-3.38997 0,-0.0786 1.27992,-0.0813 2.84427,-0.006 3.46542,0.16639 5.90958,0.92482 11.6334,3.60908 4.44373,2.08395 7.66126,3.17111 10.04383,3.39359 1.55906,0.14559 1.6782,0.11446 2.42828,-0.63562 1.02914,-1.02914 1.47527,-2.62642 1.46347,-5.23792 -0.008,-1.7533 -0.33971,-3.38846 -1.93373,-9.525 -2.12286,-8.17243 -2.21159,-9.11097 -1.13585,-12.03854 2.55572,-6.95466 2.54549,-6.91706 2.55798,-9.40408 0.018,-3.55672 -0.92764,-4.69828 -3.91655,-4.73098 -1.44387,-0.0158 -1.94205,0.1367 -4.40593,1.34824 -4.82281,2.37148 -11.03512,6.39936 -15.47813,10.03608 -3.16434,2.59009 -7.86814,4.33824 -11.67422,4.33824 -1.50715,0 -3.48369,-1.35301 -3.91191,-2.67788 -0.21366,-0.66105 -0.51359,-0.96673 -1.15032,-1.17253 -0.4737,-0.15312 -1.31186,-0.71867 -1.86293,-1.25678 -0.55107,-0.5381 -1.20565,-0.97823 -1.45417,-0.97823 -0.36936,0 -0.45166,-0.25642 -0.45166,-1.40457 0,-1.73394 -0.33854,-2.22125 -1.85518,-2.66857 -0.7987,-0.23556 -1.21416,-0.51401 -1.26866,-0.85059 -0.35555,-2.19665 -1.39506,-2.67416 -4.5191,-2.07636 -2.58558,0.49476 -2.67581,0.48913 -2.67581,-0.1571 0,-0.64055 -0.6054,-1.8821 -1.12964,-2.31717 -0.20379,-0.16914 -2.02695,-0.56564 -4.05195,-0.88108 -2.99027,-0.46581 -3.79596,-0.68518 -4.28863,-1.16944 -1.04457,-1.02674 -2.25938,-1.4397 -4.235917,-1.4397 h -1.85208 l 0.0259,-0.91364 c 0.0434,-1.53292 -0.62148,-1.99678 -2.86391,-1.99678 -1.05056,0 -2.41729,0.17874 -3.03702,0.39739 -1.10494,0.38985 -1.13879,0.38429 -1.76217,-0.28835 -0.62689,-0.67646 -0.68056,-0.68472 -3.86747,-0.60152 -3.16171,0.0825 -3.23352,0.0716 -3.31556,-0.50022 -0.11331,-0.78975 -1.05612,-1.51822 -1.91151,-1.56373 z m -2.42672,4.64106 0.71468,0.71417 0.71469,0.71469 3.41426,-0.1385 c 3.1129,-0.12626 3.41478,-0.0981 3.41478,0.31885 0,1.399 2.55738,1.82745 4.80901,0.80563 1.54984,-0.70333 1.67077,-0.68111 2.73523,0.49713 1.04838,1.16042 2.38516,1.61799 4.72581,1.61799 1.19724,0 1.48064,0.0889 1.61282,0.5054 0.28808,0.90765 0.856377,1.11618 4.749577,1.74459 2.11358,0.34116 3.965,0.69567 4.11448,0.78807 0.14949,0.0924 0.27182,0.45685 0.27182,0.80977 0,0.35292 0.33955,1.02183 0.75448,1.48621 0.65432,0.73231 0.96149,0.85858 2.3151,0.95188 0.85837,0.0592 2.063,-0.008 2.67684,-0.14883 1.08664,-0.24954 1.12945,-0.23328 1.62626,0.60875 0.30191,0.51171 0.95959,1.06279 1.61127,1.35031 0.88749,0.39154 1.07341,0.59065 0.95705,1.02371 -0.0794,0.2956 -0.1458,0.80532 -0.1478,1.13274 -0.002,0.32742 -0.0929,0.58496 -0.20206,0.57206 -0.50709,-0.0597 -3.42884,-1.37779 -6.68072,-3.01325 -1.96453,-0.98802 -4.04813,-1.96523 -4.63021,-2.17196 -0.58208,-0.20672 -4.74927,-1.23266 -9.260417,-2.27996 l -8.20208,-1.90428 -8.86355,0.0248 c -6.90354,0.0195 -9.52849,0.12521 -11.87059,0.47697 -1.65388,0.24842 -3.06043,0.39832 -3.12539,0.33332 -0.22512,-0.22513 1.50454,-1.96263 2.88923,-2.90267 0.76521,-0.51949 3.07482,-1.61376 5.13302,-2.43138 z m 85.199967,7.90185 c 0.43246,-0.0299 0.44176,0.1573 0.40204,1.39681 -0.0327,1.02091 -0.46444,2.59683 -1.43247,5.22552 -1.20174,3.26335 -1.46274,3.76411 -1.96164,3.76411 -0.31648,0 -1.27998,0.35214 -2.14095,0.78238 -0.86098,0.43024 -2.51723,1.09771 -3.6804,1.48363 -2.36556,0.78488 -2.75833,1.03214 -2.32647,1.464 0.35227,0.35227 5.37177,-1.25348 7.11894,-2.27738 0.61846,-0.36244 1.17782,-0.65888 1.24282,-0.65888 0.065,0 0.0621,1.0418 -0.006,2.31511 -0.11659,2.17494 -0.0267,2.69318 1.48466,8.56382 2.08066,8.08165 2.45556,9.90928 2.2531,10.98847 -0.13928,0.74241 -0.28005,0.88605 -0.86455,0.88005 -1.13134,-0.011 -4.3979,-1.22596 -8.50336,-3.1626 -2.11006,-0.99536 -4.78895,-2.14796 -5.95312,-2.56108 -1.47984,-0.52514 -1.93101,-0.77721 -1.49913,-0.83871 0.7651,-0.10902 1.42792,-1.5246 1.52342,-3.25355 0.0372,-0.67293 0.25537,-1.85543 0.48472,-2.62774 0.61226,-2.06168 0.55089,-3.90932 -0.15451,-4.66018 l -0.57103,-0.60824 0.83561,-1.34462 c 0.45976,-0.73959 0.83613,-1.56686 0.83613,-1.83864 0,-0.51415 -1.22972,-3.59078 -1.66502,-4.16564 -0.33121,-0.43739 0.189,-0.84391 4.70772,-3.67575 4.24126,-2.65794 8.68932,-5.03774 9.6573,-5.16712 0.0801,-0.0107 0.15061,-0.0195 0.21239,-0.0238 z m -81.292197,1.69602 c 0.86212,0.004 1.73841,0.0168 2.63084,0.0387 l 5.29167,0.13075 8.20209,1.87585 c 8.170557,1.86883 8.215287,1.88253 11.641657,3.63699 1.89177,0.96868 4.52474,2.20589 5.85081,2.74918 1.32607,0.54329 3.29061,1.57652 4.36563,2.29599 4.80219,3.21389 6.99135,3.98224 10.11669,3.5512 1.04048,-0.1435 2.72531,-0.33361 3.74396,-0.42271 4.20986,-0.36816 7.93615,-1.79833 11.26753,-4.3248 l 1.74253,-1.32137 0.68316,1.39268 0.68316,1.3932 -0.77205,1.53065 c -0.97754,1.93798 -1.01356,3.13783 -0.11213,3.72846 0.58174,0.38118 0.64106,0.56214 0.50023,1.52755 -0.0878,0.60229 -0.44273,1.73061 -0.78859,2.50786 -0.45126,1.01418 -0.55827,1.54516 -0.37879,1.88051 0.15978,0.29853 0.15009,0.82981 -0.0269,1.47071 -0.15235,0.55176 -0.22719,1.26323 -0.1664,1.5813 0.104,0.54402 0.0465,0.56586 -0.96893,0.36897 -0.59369,-0.11511 -2.80884,-0.21466 -4.92218,-0.22066 l -3.84214,-0.0114 -0.52348,-0.98857 c -0.79859,-1.50865 -4.39509,-4.96236 -7.96593,-7.64914 -6.25659,-4.7076 -11.24022,-7.06584 -16.10547,-7.62176 -1.99845,-0.22835 -2.75945,0.0681 -3.47266,1.35392 l -0.56275,1.01493 0.57309,1.19062 0.57361,1.19063 1.38699,-0.0749 c 1.84938,-0.0999 7.54798,1.67335 10.7363,3.34088 4.63046,2.4218 9.88842,7.64873 10.37249,10.311 0.0975,0.53636 0.39148,1.52557 0.65319,2.19831 l 0.47594,1.22318 -1.33273,1.495 c -1.6314,1.83039 -1.59731,2.14562 0.47955,4.38888 1.74049,1.87993 4.84329,4.25574 10.01541,7.66827 2.0373,1.34418 3.75137,2.48903 3.80907,2.54403 0.0577,0.055 -1.4901,-0.56378 -3.43958,-1.3746 -12.35525,-5.13879 -24.87673,-10.03424 -31.59032,-12.35118 -2.32833,-0.80353 -4.43106,-1.53999 -4.67258,-1.63659 -0.5851,-0.23408 -0.89178,-1.47321 -0.43615,-1.76217 0.19034,-0.12072 0.68165,-0.22124 1.0914,-0.22324 1.1923,-0.006 1.76837,-0.45138 1.76837,-1.36477 0,-0.64967 -0.38067,-1.205 -1.89704,-2.76883 -1.04323,-1.0759 -2.07596,-1.95595 -2.29547,-1.95595 -0.2195,0 0.57426,0.99726 1.76423,2.2164 2.33045,2.38757 2.64481,3.07526 1.40664,3.07526 -0.41625,0 -1.31737,0.0765 -2.00298,0.17054 -1.14632,0.15712 -1.23414,0.22095 -1.09037,0.79375 0.10877,0.43338 0.0428,0.62321 -0.21653,0.62321 -0.48929,0 -8.743067,-4.56592 -14.718477,-8.14213 -6.72595,-4.0254 -12.42395,-8.42822 -12.11348,-9.35964 0.0649,-0.19464 2.37008,-1.86833 5.12321,-3.71915 2.75312,-1.85081 5.04273,-3.54087 5.08806,-3.75585 0.0453,-0.21496 -0.17622,-0.64957 -0.49248,-0.96583 -0.52888,-0.52891 -0.77937,-0.5662 -3.12487,-0.46354 -3.20465,0.14027 -4.89362,0.88484 -7.42539,3.27319 -2.3211,2.1896 -3.29985,3.95528 -3.13624,5.65805 0.22832,2.37618 2.30983,5.50137 5.2064,7.81761 0.72792,0.58208 1.32905,1.13065 1.33635,1.21905 0.007,0.0885 -1.02836,0.43368 -2.30167,0.7674 -3.6087,0.94578 -5.78647,2.06028 -8.22379,4.20801 -2.20234,1.94068 -2.45677,2.35879 -1.77715,2.92282 0.56095,0.46555 1.19032,0.1705 3.02463,-1.41801 1.96516,-1.70183 4.14906,-2.90794 6.25956,-3.45767 2.22443,-0.57939 2.37598,-0.55079 2.37298,0.45321 -0.003,0.84751 0.0232,0.86527 1.98179,1.36632 1.09141,0.2792 2.04362,0.55777 2.11615,0.61857 0.31994,0.26814 -0.93577,0.81778 -2.24069,0.98082 -0.78429,0.098 -1.55668,0.33586 -1.71669,0.52865 -0.51251,0.61754 0.19375,1.56403 1.79007,2.39933 1.70485,0.8921 2.1473,1.71463 0.92295,1.71463 -1.50291,0 -2.5007,1.44014 -1.61283,2.32802 0.24695,0.2469 0.0249,0.31781 -0.99942,0.31781 -1.75505,0 -2.60211,0.5788 -2.39107,1.63401 0.18427,0.92136 0.44784,1.05521 -3.57549,-1.81798 -3.15596,-2.25378 -4.46531,-2.73528 -4.83278,-1.77767 -0.25816,0.67275 0.059,0.9883 3.47524,3.45716 5.10387,3.68852 5.73559,4.03954 6.82852,3.79305 0.51033,-0.11509 1.10308,-0.35454 1.31724,-0.53227 0.44073,-0.36577 0.52704,-1.72973 0.12505,-1.97818 -0.57042,-0.35253 -0.20598,-0.62001 1.08728,-0.79788 1.61394,-0.22197 2.43351,-0.90359 2.2009,-1.83038 -0.11782,-0.4694 -0.021,-0.71005 0.37103,-0.91984 1.10993,-0.59402 1.0339,-2.87645 -0.14263,-4.27467 -0.36958,-0.43922 -0.62758,-0.83255 -0.57309,-0.87385 0.0545,-0.0413 0.53182,-0.33508 1.0604,-0.65267 2.14825,-1.29078 1.87607,-3.14791 -0.55242,-3.77032 -1.3483,-0.34556 -1.63661,-0.59899 -0.97151,-0.85421 0.19994,-0.0767 1.24173,0.42097 2.3151,1.10588 6.5493,4.17909 15.463957,8.4772 21.464837,10.34924 1.56435,0.48801 2.84427,0.9653 2.84427,1.0604 0,0.29064 -4.24468,2.56914 -6.35,3.40858 -4.757567,1.89693 -9.259507,2.61432 -17.890377,2.8515 l -6.38152,0.1757 -2.83187,-2.48874 c -5.93697,-5.2172 -10.30304,-7.99451 -13.95419,-8.87594 -2.45698,-0.59315 -3.02059,-0.40625 -3.24269,1.07487 -0.14384,0.95913 -0.0535,1.41803 0.49247,2.49545 0.68413,1.35004 1.27555,1.71804 2.03657,1.26659 0.68323,-0.40531 5.76617,1.74703 8.69869,3.6835 4.45858,2.94419 9.13282,7.9863 10.30325,11.11457 0.3006,0.80341 0.79094,1.94053 1.08986,2.52646 l 0.54363,1.06505 -0.56017,1.6831 c -0.53278,1.60101 -0.53867,1.72612 -0.11782,2.56057 4.27455,5.17692 9.50968,9.56495 15.00739,13.41737 l -11.24479,-5.81153 -0.008,5.3e-4 c -1.03803,-0.74219 -14.94128,-7.56375 -19.47168,-9.53844 -2.51534,-1.09636 -3.35323,-1.58898 -3.63802,-2.13889 -0.53959,-1.04192 -0.47518,-1.19229 0.62218,-1.45314 0.9017,-0.21432 0.98375,-0.30734 0.90176,-1.01854 -0.0496,-0.43044 -0.31056,-1.13956 -0.58033,-1.57613 -0.58851,-0.95237 -3.9605,-4.32691 -3.9579,-3.961 0.001,0.14132 0.9535,1.30129 2.11667,2.57814 1.16317,1.27685 2.11511,2.49347 2.11511,2.70319 0,0.25835 -0.43128,0.43843 -1.33738,0.55862 -0.9814,0.13019 -1.29833,0.27316 -1.19062,0.53796 0.0807,0.19848 0.22702,0.56053 0.32504,0.80408 0.28626,0.71122 -0.31431,0.36703 -5.87199,-3.36362 -9.35636,-6.28053 -17.31016,-12.52093 -18.4366,-14.46475 l -0.45011,-0.7767 1.50844,-2.11149 c 0.82965,-1.16145 2.14205,-2.90725 2.91662,-3.87935 0.98838,-1.24044 1.36114,-1.91601 1.25005,-2.26602 -0.64641,-2.03665 -4.14765,-2.10416 -6.13348,-0.11833 -0.5268,0.52681 -1.18621,1.47433 -1.46554,2.10581 l -0.50798,1.14825 h -1.59318 c -1.86686,0 -1.85566,0.14956 -0.24288,-3.32951 2.89699,-6.24939 11.91906,-16.64556 17.80511,-20.51709 2.07645,-1.36579 7.4543,-4.19923 7.97006,-4.19923 0.0895,0 0.16278,0.18007 0.16278,0.40049 0,0.22042 0.3362,0.60738 0.74724,0.8599 0.93858,0.57661 3.43515,3.36655 4.62918,5.17332 2.40761,3.64314 3.22987,6.39387 3.52381,11.7874 0.17421,3.19665 0.34704,3.7393 1.19269,3.7393 0.81042,0 1.08924,-1.18713 0.93173,-3.96875 -0.41395,-7.31029 -2.33421,-11.71434 -7.34787,-16.85013 -0.90177,-0.92373 -1.59204,-1.72193 -1.53376,-1.77354 0.0583,-0.0517 2.35794,-0.47602 5.11028,-0.94361 5.33057,-0.90559 10.6716,-1.32233 16.70648,-1.29449 z m 79.686087,0.49557 c -0.45509,0.001 -1.1782,0.39877 -2.21226,1.20716 -1.5552,1.21581 -4.44772,2.83513 -6.17999,3.46026 -0.96464,0.34811 -1.67291,1.06383 -1.43454,1.44952 0.22608,0.36581 0.43306,0.29369 3.50366,-1.21956 3.09607,-1.52581 7.04167,-4.23405 6.7815,-4.65501 -0.0999,-0.1616 -0.25151,-0.24296 -0.45837,-0.24237 z m -0.4718,4.89583 c -0.62368,-0.0484 -6.24424,1.89014 -7.29361,2.53059 -0.45375,0.27693 -0.99697,0.50385 -1.20665,0.50385 -0.20967,0 -0.61204,0.17619 -0.89452,0.39171 -0.43365,0.33085 -0.45407,0.43114 -0.13074,0.64337 0.25547,0.16768 0.69583,0.11754 1.32292,-0.15038 0.51698,-0.22087 2.36874,-0.93119 4.11499,-1.5782 1.74625,-0.64701 3.44288,-1.28868 3.77031,-1.42627 0.61394,-0.25801 0.77114,-0.6508 0.36174,-0.90382 -0.009,-0.006 -0.0243,-0.009 -0.0444,-0.0109 z m -2.87166,8.38037 c -0.35818,-0.008 -0.84851,0.0518 -1.43661,0.18758 -0.75169,0.17357 -2.29286,0.47124 -3.42459,0.66146 -2.22035,0.37321 -2.46425,0.48163 -2.16628,0.96376 0.19453,0.31477 0.95267,0.26187 4.22403,-0.29507 2.51138,-0.42755 3.0267,-0.57275 3.32848,-0.93638 0.30103,-0.36271 0.0719,-0.56726 -0.52503,-0.58135 z m -64.085487,0.80098 c -0.0751,-0.003 -0.12704,0.008 -0.15193,0.0331 -0.0603,0.0603 1.71246,1.06982 3.93929,2.24379 4.126357,2.17538 5.525087,2.67698 4.591967,1.6459 -0.83771,-0.92566 -7.252507,-3.88476 -8.379327,-3.92276 z m 18.567337,0.22273 c -0.18145,-0.0211 -0.14321,0.30116 0.22272,0.92139 0.30542,0.51764 0.55552,1.29155 0.55552,1.71979 0,0.73473 -0.0608,0.77876 -1.08107,0.77876 -0.78545,0 -1.39155,-0.2228 -2.21537,-0.81442 -0.65021,-0.46695 -1.61783,-0.87925 -2.26756,-0.96635 l -1.13274,-0.15193 0.17208,1.42937 c 0.0947,0.78619 0.24988,1.77534 0.34468,2.19832 l 0.17208,0.76894 -1.36167,-0.16122 c -1.25579,-0.14875 -1.62949,-0.0131 -1.18546,0.43098 0.097,0.097 0.74657,0.17673 1.44332,0.17673 1.22838,0 1.27173,-0.027 1.43351,-0.88935 0.0917,-0.48915 0.0475,-1.3226 -0.0987,-1.85209 -0.3321,-1.20278 -0.24835,-1.20771 2.41587,-0.1359 1.69151,0.68054 2.21547,0.78631 2.91042,0.58807 0.77485,-0.22103 0.85424,-0.34401 0.92604,-1.43815 0.0592,-0.90123 -0.0598,-1.37309 -0.48215,-1.90996 -0.35606,-0.45266 -0.6304,-0.67661 -0.77152,-0.69298 z m -66.405767,1.55339 c -1.39806,-0.0159 -2.83349,0.43837 -3.81889,1.30328 -1.4776,1.29692 -1.93796,4.21036 -0.96635,6.11487 0.57516,1.1274 1.92415,2.28661 3.09438,2.65979 2.25785,0.72002 4.9172,-0.43689 6.10299,-2.65514 1.28255,-2.39924 0.31023,-5.67465 -2.0407,-6.874 -0.7071,-0.36073 -1.5326,-0.53929 -2.37143,-0.5488 z m 40.21977,0.14676 c -0.0156,0.002 -0.0233,0.007 -0.0233,0.0145 0,0.37894 5.46002,2.77383 8.46667,3.71347 3.89598,1.21756 3.96875,1.23621 3.96875,1.01751 0,-0.24608 -3.65191,-1.84291 -6.48229,-2.83445 -3.70191,-1.29686 -5.69521,-1.93928 -5.92988,-1.911 z m 65.956687,0.54984 c -1.73401,0.0175 -2.0758,0.19882 -1.88877,0.68006 0.21248,0.54674 6.80573,0.65241 7.80262,0.12506 1.04443,-0.55248 0.55483,-0.65512 -3.68401,-0.77308 -0.91929,-0.0256 -1.65183,-0.0379 -2.22984,-0.032 z m -1.40198,2.22415 c -1.0528,0.0181 -1.07797,0.14936 -1.07797,0.49196 0,0.53649 0.14005,0.55936 3.90261,0.64286 5.21628,0.11575 5.43398,0.10644 5.54695,-0.23823 0.17637,-0.53821 -0.79443,-0.69464 -5.15008,-0.82889 -1.58826,-0.049 -2.58982,-0.0786 -3.22151,-0.0677 z m -47.36351,1.32705 c -0.15475,0 -0.28112,0.3103 -0.28112,0.68988 0,0.71929 -0.13877,0.73433 -1.91823,0.20568 -0.76056,-0.22596 -0.52351,0.36067 0.26458,0.65474 0.40018,0.14928 1.02525,0.24875 1.38906,0.22065 0.53985,-0.0416 0.67644,-0.20923 0.74414,-0.91105 0.0466,-0.48301 -0.0404,-0.8599 -0.19843,-0.8599 z m -10.826727,0.83406 c -0.0326,-10e-4 -0.0377,0.0206 -0.0377,0.0512 0,0.23345 3.57811,2.77113 5.42396,3.84679 1.01865,0.59361 1.90545,1.08117 1.97094,1.08417 0.25507,0.01 -0.50103,-0.53394 -3.55844,-2.55901 -3.00008,-1.98713 -3.6576,-2.41854 -3.79873,-2.42311 z m 59.907447,1.03405 c -1.45965,0.0306 -2.53059,0.28814 -2.53059,0.66869 0,0.31195 0.4268,0.3811 2.18281,0.3545 2.66824,-0.0404 3.35019,0.12413 5.21828,1.25884 1.43454,0.87137 2.78536,1.0806 2.78536,0.4315 0,-0.17213 -0.99747,-0.81205 -2.2164,-1.42214 -1.66046,-0.83109 -2.63236,-1.1425 -3.87573,-1.2423 -0.5477,-0.044 -1.07718,-0.0593 -1.56373,-0.0491 z m -29.48037,0.95704 c -0.0246,-0.003 -0.0436,-0.002 -0.0568,0.001 -0.17676,0.0442 0.66483,0.62224 2.79517,2.03502 1.4541,0.96432 2.72711,1.75338 2.82877,1.75338 0.46306,0 0.48706,-0.61273 0.0434,-1.10329 -0.59234,-0.65498 -1.98658,-1.38449 -4.30775,-2.25361 -0.68348,-0.25592 -1.13061,-0.41462 -1.30276,-0.43253 z m 25.99066,0.87902 c -0.20018,0 -0.3638,0.1853 -0.3638,0.41186 0,0.25611 0.75572,0.75665 1.99833,1.32292 1.09923,0.50094 2.73634,1.41247 3.63802,2.02571 0.90168,0.61325 2.17548,1.26023 2.83032,1.43764 1.43321,0.38827 2.82538,0.44505 3.0241,0.12351 0.2533,-0.40985 -0.48032,-0.78408 -1.90893,-0.97359 -1.02598,-0.1361 -1.96578,-0.55199 -3.62562,-1.60507 -2.26846,-1.43922 -4.92653,-2.74298 -5.59242,-2.74298 z m -29.0897,0.34933 c -0.0172,0.003 -0.0324,0.0102 -0.045,0.0227 -0.061,0.061 0.10154,0.43517 0.36121,0.83147 0.2662,0.40652 0.51783,0.58282 0.57723,0.40463 0.10102,-0.30304 -0.63556,-1.30074 -0.89349,-1.25884 z m -5.78466,1.13998 c -0.13059,0.0428 1.56556,1.02289 5.14181,2.9745 2.69214,1.46913 4.92454,2.67329 4.96094,2.67529 0.62804,0.0411 -6.34373,-4.02465 -8.7974,-5.13044 -0.80923,-0.36469 -1.24598,-0.53879 -1.30535,-0.51935 z m -0.4811,3.58273 c -0.0415,-0.002 -0.0695,0.003 -0.0827,0.016 -0.0539,0.0539 2.78555,1.66215 6.3097,3.57395 3.52415,1.91179 6.64548,3.4806 6.93652,3.48661 0.29105,0.006 -0.66145,-0.62528 -2.11666,-1.4025 -1.45521,-0.77723 -3.62965,-2.0143 -4.83227,-2.74919 -1.94126,-1.18628 -5.59178,-2.89061 -6.2146,-2.92489 z m 24.51116,4.51239 1.34411,0.9927 c 0.73909,0.54599 3.00769,2.09275 5.04155,3.437 2.03385,1.34426 3.74744,2.4913 3.80804,2.5492 0.18614,0.17786 -0.0634,0.0886 -1.3007,-0.46405 -0.65484,-0.29253 -2.75603,-1.1702 -4.66897,-1.95079 -1.91294,-0.78059 -4.08958,-1.79604 -4.83743,-2.25619 l -1.3596,-0.83664 0.9865,-0.73536 z m -106.529927,0.73432 c 0.98906,0 0.99603,0.008 1.55442,1.71979 0.30856,0.94588 0.48642,1.71174 0.39533,1.70274 -0.33814,-0.0347 -2.48016,-1.51307 -2.70371,-1.86604 -0.12746,-0.20126 -0.23345,-0.63376 -0.23564,-0.96118 -0.004,-0.51242 0.1343,-0.59531 0.9896,-0.59531 z m 30.80639,3.20962 c -0.093,-0.006 0.0236,0.17447 0.33383,0.65371 0.97232,1.50218 1.14275,1.83416 1.30948,2.55281 0.15831,0.6824 0.11371,0.72761 -0.71624,0.72761 -0.61648,0 -1.07969,-0.21104 -1.52652,-0.69557 -0.60979,-0.66125 -2.01567,-1.4211 -2.6293,-1.4211 -0.37121,0 -0.0771,1.60825 0.57258,3.13056 0.26907,0.63052 0.48937,1.19607 0.48937,1.25677 0,0.0607 -0.41672,0.11059 -0.92604,0.11059 -0.87556,0 -1.14524,0.22161 -0.74982,0.61701 0.097,0.097 0.57326,0.17674 1.05833,0.17674 0.8011,0 0.88212,-0.0718 0.88212,-0.78393 0,-0.43118 -0.23663,-1.38368 -0.52555,-2.11667 -0.28892,-0.73299 -0.46443,-1.33273 -0.39016,-1.33273 0.0743,0 0.98412,0.42735 2.02158,0.94981 1.58241,0.79689 1.98698,0.904 2.51251,0.66456 0.51237,-0.23346 0.59647,-0.41837 0.46044,-1.01596 -0.29606,-1.30058 -1.20572,-2.98096 -1.77974,-3.28817 -0.2098,-0.11228 -0.34109,-0.18264 -0.39687,-0.18604 z m -13.41934,0.0765 c -0.16095,0.0434 0.82377,0.71656 3.57963,2.50011 3.56116,2.30473 4.83887,2.77871 2.91041,1.07952 -1.11788,-0.98498 -4.23087,-2.77389 -5.97017,-3.4308 -0.2851,-0.10767 -0.46622,-0.1633 -0.51987,-0.14883 z m -4.99969,2.09858 c -0.0382,-0.007 -0.0615,-0.007 -0.0692,5.3e-4 -0.24829,0.24829 4.85797,3.07855 7.3179,4.05608 1.53231,0.60892 2.84541,1.1107 2.91816,1.1157 0.45128,0.0292 -1.51542,-1.25542 -3.28145,-2.14354 -2.45847,-1.23634 -6.3117,-2.92425 -6.88537,-3.02876 z m 13.75316,4.52117 c -0.0846,0.0145 -0.14676,0.16805 -0.14676,0.49196 0,0.81024 0.009,0.80596 -0.90899,0.45682 -0.83571,-0.31774 -0.9038,0.0664 -0.0832,0.46923 0.99825,0.48999 1.66738,0.28649 1.56477,-0.47594 -0.0812,-0.6037 -0.28477,-0.9662 -0.42582,-0.94207 z m -8.06204,0.74001 c -0.1011,0.0735 2.84612,2.51792 4.60696,3.78323 2.37316,1.70529 2.51457,1.79628 2.51457,1.61437 0,-0.096 -6.12665,-4.79267 -6.87917,-5.27358 -0.1512,-0.0966 -0.22791,-0.13452 -0.24236,-0.12402 z m 33.78915,1.79007 h 1.53273 l 0.72812,1.48467 0.72812,1.48518 -0.56379,1.69395 -0.56379,1.69395 0.67128,1.14515 c 0.96958,1.65448 5.80461,6.17741 10.36422,9.69502 l 4.455547,3.3758 c -4.924597,-2.39185 -5.783747,-3.0049 -9.712587,-4.98735 l -5.24774,-2.64686 0.42426,-0.64803 c 0.5559,-0.8484 0.37312,-1.52652 -1.21595,-4.50876 -0.91329,-1.714 -1.28054,-2.70488 -1.28054,-3.45509 0,-0.73285 -0.28087,-1.5181 -0.92604,-2.5895 -0.50933,-0.84582 -0.92604,-1.58305 -0.92604,-1.63815 0,-0.0551 0.68939,-0.10025 1.5322,-0.10025 z m -10.74094,0.14211 c -0.0264,0.005 -0.0392,0.0183 -0.0377,0.0413 0.008,0.11708 1.15731,1.07612 2.5554,2.13114 1.39808,1.05503 2.64236,1.91823 2.76469,1.91823 0.47755,0 0.18122,-0.63758 -0.66818,-1.43867 -0.87292,-0.82328 -4.21895,-2.72196 -4.61419,-2.65204 z m -1.97404,1.31258 0.49454,0.86972 c 0.27223,0.47835 0.54046,0.73402 0.59583,0.56792 0.0554,-0.16609 -0.16746,-0.55745 -0.49506,-0.86971 z m -3.51503,1.57613 c -0.0701,0.0588 1.43406,1.11103 4.5098,3.15382 4.23467,2.81247 4.36717,2.89453 4.36717,2.71353 0,-0.16764 -6.41784,-4.55142 -7.80521,-5.33146 -0.68267,-0.38383 -1.03991,-0.56262 -1.07176,-0.53589 z m 0.26871,3.67471 c -0.0726,-0.0104 -0.0741,0.0271 0.0109,0.12093 0.1465,0.16168 2.70635,1.90375 5.68855,3.8716 4.82018,3.18067 6.08386,3.90002 6.08386,3.46335 0,-0.069 -0.38695,-0.32036 -0.85989,-0.55862 -0.47295,-0.23825 -2.26049,-1.43767 -3.97237,-2.66547 -2.4359,-1.74709 -6.44278,-4.15886 -6.951,-4.23179 z"
       sodipodi:nodetypes="ccssscsssssssccccccsssssssscccsscssccssscssscsccsssssssssscsssssscsssscscccccssssssssssscsssscsscccscscccssssssssccscsscsscccssssccccccsssscccccsscssssscccssccccssscccssssscscssssscssssssssssscssssscscssssssssssssssssssssssssscccsssssscccccccssssscsssssssccsssccssssssssssscscccsssssccsssssssccccssssscscsssscssssccccccsscscscsccssssscssssssssssssscsssccsssccssssscssssssssssssscssssssssssssssscccsccsscssscssssssccssssccccsscscscssssssssssssssssscsssssscscsssssscsssssssccccccccccccssssccscsssssccsccsssssscsssss" />
    <g
       transform="matrix(1.0691489,0,0,1.0691489,-44.070179,13.778326)"
       id="g944">
      <g
         transform="matrix(1.1369813,0,0,0.92053571,67.016534,-40.640071)"
         id="g915">
        <path
           style="color:#000000;clip-rule:nonzero;display:inline;overflow:visible;visibility:visible;opacity:1;isolation:auto;mix-blend-mode:normal;color-interpolation:sRGB;color-interpolation-filters:linearRGB;solid-color:#000000;solid-opacity:1;fill:#ffffff;fill-opacity:1;fill-rule:evenodd;stroke:none;stroke-width:0.264583px;stroke-linecap:butt;stroke-linejoin:miter;stroke-miterlimit:4;stroke-dasharray:none;stroke-dashoffset:0;stroke-opacity:1;color-rendering:auto;image-rendering:auto;shape-rendering:auto;text-rendering:auto;enable-background:accumulate"
           d="m 51.72503,166.38412 20.705011,5.60382 20.312483,14.29892 5.612662,16.97161 13.630744,9.75534 -0.53454,2.93997 -15.100727,-6.68174 -17.639789,-8.8199 -22.717908,-14.16528 -8.15172,-9.35443 -0.668176,-5.61267 z"
           id="path909" />
        <path
           id="path911"
           style="fill:#000000;stroke-width:0.999999"
           d="m 195.49609,628.85352 c -4.55183,-0.0878 -9.73553,1.72576 -13.48828,5.47851 -1.99108,1.99109 -4.48333,5.57229 -5.53906,7.95899 -7.60385,24.00736 4.41485,43.30526 20.08204,57.67173 13.25434,12.19287 31.76075,25.85626 52.9336,39.08203 17.51112,10.93848 27.74022,16.16776 51.6582,26.4082 11.55001,4.94506 25.68587,11.28287 31.41211,14.08399 l 10.41015,5.0957 c 0,0 80.80802,51.07476 90.09375,40.53907 5.13109,-6.5305 -1.63445,-17.34678 -9.26562,-26.20508 l -51.31836,-42.42969 1.60351,-2.44922 c 2.10106,-3.20655 1.41021,-5.76956 -4.5957,-17.04101 -3.4518,-6.47812 -4.83984,-10.22316 -4.83984,-13.0586 -2.75659,-16.50746 -19.33688,-29.72077 -30.43943,-39.45123 -22.43893,-19.71855 -38.94061,-30.21549 -52.74023,-33.54688 -9.28625,-2.24182 -11.4164,-1.53543 -12.25586,4.0625 -0.54362,3.62506 -0.20221,5.35951 1.86133,9.43165 2.58568,5.10251 4.82099,6.49337 7.69726,4.7871 2.5823,-1.53188 21.79341,6.60294 32.87696,13.92188 16.85132,11.12765 34.51772,30.18443 38.9414,42.00781 1.13612,3.03651 2.98938,7.33429 4.11914,9.54883 l 2.05469,4.02539 -2.11719,6.36133 c -2.01365,6.05106 -2.03591,6.52391 -0.44531,9.67773 16.15579,19.56631 35.94196,36.15257 56.72071,50.71289 l -42.5,-21.96484 -0.0312,0.002 c -3.92327,-2.80512 -56.471,-28.58738 -73.59375,-36.05078 -9.50682,-4.14372 -12.67364,-6.00558 -13.75,-8.08398 -2.03938,-3.93797 -1.79596,-4.5063 2.35156,-5.49219 3.40799,-0.81003 3.71808,-1.16161 3.4082,-3.84961 -0.18758,-1.62686 -1.17375,-4.307 -2.19336,-5.95703 -2.2243,-3.59951 -14.9688,-16.35367 -14.95898,-14.9707 0.004,0.53412 3.60377,4.91825 8,9.74414 4.39623,4.82589 7.99414,9.42415 7.99414,10.21679 0,0.97644 -1.63006,1.65707 -5.05469,2.11133 -3.70922,0.49206 -4.90709,1.03239 -4.5,2.0332 0.30512,0.75017 0.85805,2.11856 1.22852,3.03907 1.08192,2.68807 -1.18794,1.3872 -22.19336,-12.71289 -35.36261,-23.73744 -65.42423,-47.3232 -69.68164,-54.66992 l -1.70118,-2.93555 5.70118,-7.98047 c 3.13568,-4.38973 8.09594,-10.98803 11.02343,-14.66211 3.73562,-4.68828 5.14448,-7.24158 4.72461,-8.56445 -1.22156,-3.84879 -5.14152,-5.83799 -9.69336,-5.92578 z m 88.33594,43.9082 c -0.35142,-0.0227 0.0893,0.6594 1.26172,2.4707 3.67491,5.67753 4.31905,6.93228 4.94922,9.64844 0.59834,2.57915 0.42978,2.75 -2.70703,2.75 -2.32999,0 -4.08072,-0.79761 -5.76953,-2.62891 -2.30473,-2.49921 -7.61827,-5.37109 -9.9375,-5.37109 -1.40302,0 -0.29126,6.07842 2.16406,11.83203 1.01695,2.38307 1.84961,4.52058 1.84961,4.75 0,0.22942 -1.575,0.41797 -3.5,0.41797 -3.3092,0 -4.32847,0.83761 -2.83399,2.33203 0.36666,0.36661 2.16666,0.66797 4,0.66797 3.02779,0 3.33399,-0.27138 3.33399,-2.96289 0,-1.62966 -0.89435,-5.22965 -1.98633,-8 -1.09197,-2.77036 -1.75532,-5.03711 -1.47461,-5.03711 0.28071,0 3.71952,1.61519 7.64063,3.58984 5.98077,3.01187 7.50982,3.41669 9.49609,2.51172 1.93652,-0.88237 2.25437,-1.58123 1.74023,-3.83984 -1.11897,-4.91558 -4.55703,-11.26663 -6.72656,-12.42774 -0.79297,-0.42436 -1.28916,-0.69027 -1.5,-0.70312 z m -50.71875,0.28906 c -0.60832,0.16403 3.11347,2.70824 13.5293,9.44922 13.45951,8.71079 18.28866,10.50221 11,4.08008 -4.22507,-3.72276 -15.99072,-10.48399 -22.56446,-12.9668 -1.0775,-0.40694 -1.76207,-0.61719 -1.96484,-0.5625 z m -18.89648,7.93164 c -0.14453,-0.0265 -0.23254,-0.0265 -0.26172,0.002 -0.9384,0.93841 18.36084,11.63547 27.6582,15.33007 5.79142,2.30143 10.75431,4.1979 11.0293,4.2168 1.70561,0.11036 -5.72759,-4.74489 -12.40235,-8.10156 -9.29185,-4.67278 -23.85525,-11.05227 -26.02343,-11.44727 z m 51.98047,17.08789 c -0.31987,0.0548 -0.55469,0.63515 -0.55469,1.85938 0,3.06232 0.0351,3.04614 -3.43555,1.72656 -3.15859,-1.20091 -3.41593,0.25093 -0.31445,1.77344 3.77291,1.85193 6.30188,1.08279 5.91406,-1.79883 -0.30709,-2.2817 -1.07629,-3.65175 -1.60937,-3.56055 z m -30.47071,2.79688 c -0.38213,0.27779 10.75696,9.51655 17.41211,14.29883 8.96945,6.44519 9.50391,6.78909 9.50391,6.10156 0,-0.36284 -23.15586,-18.11403 -26,-19.93164 -0.57149,-0.3651 -0.86143,-0.50844 -0.91602,-0.46875 z m 87.11133,7.30078 v 0.002 c -0.0996,0.0189 -0.14821,0.0674 -0.14258,0.1543 0.0283,0.44251 4.37409,4.06721 9.65821,8.05469 5.2841,3.98751 9.98688,7.25 10.44921,7.25 1.80493,0 0.68496,-2.40976 -2.52539,-5.4375 -3.29921,-3.11161 -15.94563,-10.28771 -17.43945,-10.02344 z m -7.46094,4.96289 1.86914,3.28711 c 1.0289,1.80794 2.04268,2.77426 2.25196,2.14648 0.20923,-0.62774 -0.63293,-2.10691 -1.8711,-3.28711 z m -13.28515,5.95703 c -0.26483,0.22224 5.42007,4.19914 17.04492,11.91992 16.00507,10.62981 16.50586,10.93996 16.50586,10.25586 0,-0.6336 -24.25643,-17.20221 -29.5,-20.15039 -2.58017,-1.45069 -3.9304,-2.12642 -4.05078,-2.02539 z m 1.01562,13.88867 c -0.27443,-0.0393 -0.28017,0.1024 0.041,0.45703 0.55369,0.61108 10.2287,7.19527 21.5,14.63282 18.21801,12.02143 22.99414,14.74025 22.99414,13.08984 0,-0.26079 -1.46249,-1.21082 -3.25,-2.11133 -1.7875,-0.90047 -8.54358,-5.43371 -15.01367,-10.07422 -9.20656,-6.60317 -24.35066,-15.7185 -26.27149,-15.99414 z"
           transform="scale(0.26458333)"
           sodipodi:nodetypes="csccssccccccsccsssssscccccccssssscsssssssccsscccssssssssssssssssscsssssscscsssssscssssssscccsssscccsccsssssscssssss" />
        <path
           sodipodi:nodetypes="csccssccccccsccsssssscccccccssssscsssssssccsscccssssssssssssssssscsssssscscsssssscssssssscccsssscccsccsssssscssssss"
           d="m 195.49609,628.85352 c -4.55183,-0.0878 -9.73553,1.72576 -13.48828,5.47851 -1.99108,1.99109 -4.48333,5.57229 -5.53906,7.95899 -7.60385,24.00736 4.41485,43.30526 20.08204,57.67173 13.25434,12.19287 31.76075,25.85626 52.9336,39.08203 17.51112,10.93848 27.74022,16.16776 51.6582,26.4082 11.55001,4.94506 25.68587,11.28287 31.41211,14.08399 l 10.41015,5.0957 c 0,0 80.80802,51.07476 90.09375,40.53907 5.13109,-6.5305 -1.63445,-17.34678 -9.26562,-26.20508 l -51.31836,-42.42969 1.60351,-2.44922 c 2.10106,-3.20655 1.41021,-5.76956 -4.5957,-17.04101 -3.4518,-6.47812 -4.83984,-10.22316 -4.83984,-13.0586 -2.75659,-16.50746 -19.33688,-29.72077 -30.43943,-39.45123 -22.43893,-19.71855 -38.94061,-30.21549 -52.74023,-33.54688 -9.28625,-2.24182 -11.4164,-1.53543 -12.25586,4.0625 -0.54362,3.62506 -0.20221,5.35951 1.86133,9.43165 2.58568,5.10251 4.82099,6.49337 7.69726,4.7871 2.5823,-1.53188 21.79341,6.60294 32.87696,13.92188 16.85132,11.12765 34.51772,30.18443 38.9414,42.00781 1.13612,3.03651 2.98938,7.33429 4.11914,9.54883 l 2.05469,4.02539 -2.11719,6.36133 c -2.01365,6.05106 -2.03591,6.52391 -0.44531,9.67773 16.15579,19.56631 35.94196,36.15257 56.72071,50.71289 l -42.5,-21.96484 -0.0312,0.002 c -3.92327,-2.80512 -56.471,-28.58738 -73.59375,-36.05078 -9.50682,-4.14372 -12.67364,-6.00558 -13.75,-8.08398 -2.03938,-3.93797 -1.79596,-4.5063 2.35156,-5.49219 3.40799,-0.81003 3.71808,-1.16161 3.4082,-3.84961 -0.18758,-1.62686 -1.17375,-4.307 -2.19336,-5.95703 -2.2243,-3.59951 -14.9688,-16.35367 -14.95898,-14.9707 0.004,0.53412 3.60377,4.91825 8,9.74414 4.39623,4.82589 7.99414,9.42415 7.99414,10.21679 0,0.97644 -1.63006,1.65707 -5.05469,2.11133 -3.70922,0.49206 -4.90709,1.03239 -4.5,2.0332 0.30512,0.75017 0.85805,2.11856 1.22852,3.03907 1.08192,2.68807 -1.18794,1.3872 -22.19336,-12.71289 -35.36261,-23.73744 -65.42423,-47.3232 -69.68164,-54.66992 l -1.70118,-2.93555 5.70118,-7.98047 c 3.13568,-4.38973 8.09594,-10.98803 11.02343,-14.66211 3.73562,-4.68828 5.14448,-7.24158 4.72461,-8.56445 -1.22156,-3.84879 -5.14152,-5.83799 -9.69336,-5.92578 z m 88.33594,43.9082 c -0.35142,-0.0227 0.0893,0.6594 1.26172,2.4707 3.67491,5.67753 4.31905,6.93228 4.94922,9.64844 0.59834,2.57915 0.42978,2.75 -2.70703,2.75 -2.32999,0 -4.08072,-0.79761 -5.76953,-2.62891 -2.30473,-2.49921 -7.61827,-5.37109 -9.9375,-5.37109 -1.40302,0 -0.29126,6.07842 2.16406,11.83203 1.01695,2.38307 1.84961,4.52058 1.84961,4.75 0,0.22942 -1.575,0.41797 -3.5,0.41797 -3.3092,0 -4.32847,0.83761 -2.83399,2.33203 0.36666,0.36661 2.16666,0.66797 4,0.66797 3.02779,0 3.33399,-0.27138 3.33399,-2.96289 0,-1.62966 -0.89435,-5.22965 -1.98633,-8 -1.09197,-2.77036 -1.75532,-5.03711 -1.47461,-5.03711 0.28071,0 3.71952,1.61519 7.64063,3.58984 5.98077,3.01187 7.50982,3.41669 9.49609,2.51172 1.93652,-0.88237 2.25437,-1.58123 1.74023,-3.83984 -1.11897,-4.91558 -4.55703,-11.26663 -6.72656,-12.42774 -0.79297,-0.42436 -1.28916,-0.69027 -1.5,-0.70312 z m -50.71875,0.28906 c -0.60832,0.16403 3.11347,2.70824 13.5293,9.44922 13.45951,8.71079 18.28866,10.50221 11,4.08008 -4.22507,-3.72276 -15.99072,-10.48399 -22.56446,-12.9668 -1.0775,-0.40694 -1.76207,-0.61719 -1.96484,-0.5625 z m -18.89648,7.93164 c -0.14453,-0.0265 -0.23254,-0.0265 -0.26172,0.002 -0.9384,0.93841 18.36084,11.63547 27.6582,15.33007 5.79142,2.30143 10.75431,4.1979 11.0293,4.2168 1.70561,0.11036 -5.72759,-4.74489 -12.40235,-8.10156 -9.29185,-4.67278 -23.85525,-11.05227 -26.02343,-11.44727 z m 51.98047,17.08789 c -0.31987,0.0548 -0.55469,0.63515 -0.55469,1.85938 0,3.06232 0.0351,3.04614 -3.43555,1.72656 -3.15859,-1.20091 -3.41593,0.25093 -0.31445,1.77344 3.77291,1.85193 6.30188,1.08279 5.91406,-1.79883 -0.30709,-2.2817 -1.07629,-3.65175 -1.60937,-3.56055 z m -30.47071,2.79688 c -0.38213,0.27779 10.75696,9.51655 17.41211,14.29883 8.96945,6.44519 9.50391,6.78909 9.50391,6.10156 0,-0.36284 -23.15586,-18.11403 -26,-19.93164 -0.57149,-0.3651 -0.86143,-0.50844 -0.91602,-0.46875 z m 87.11133,7.30078 v 0.002 c -0.0996,0.0189 -0.14821,0.0674 -0.14258,0.1543 0.0283,0.44251 4.37409,4.06721 9.65821,8.05469 5.2841,3.98751 9.98688,7.25 10.44921,7.25 1.80493,0 0.68496,-2.40976 -2.52539,-5.4375 -3.29921,-3.11161 -15.94563,-10.28771 -17.43945,-10.02344 z m -7.46094,4.96289 1.86914,3.28711 c 1.0289,1.80794 2.04268,2.77426 2.25196,2.14648 0.20923,-0.62774 -0.63293,-2.10691 -1.8711,-3.28711 z m -13.28515,5.95703 c -0.26483,0.22224 5.42007,4.19914 17.04492,11.91992 16.00507,10.62981 16.50586,10.93996 16.50586,10.25586 0,-0.6336 -24.25643,-17.20221 -29.5,-20.15039 -2.58017,-1.45069 -3.9304,-2.12642 -4.05078,-2.02539 z m 1.01562,13.88867 c -0.27443,-0.0393 -0.28017,0.1024 0.041,0.45703 0.55369,0.61108 10.2287,7.19527 21.5,14.63282 18.21801,12.02143 22.99414,14.74025 22.99414,13.08984 0,-0.26079 -1.46249,-1.21082 -3.25,-2.11133 -1.7875,-0.90047 -8.54358,-5.43371 -15.01367,-10.07422 -9.20656,-6.60317 -24.35066,-15.7185 -26.27149,-15.99414 z"
           style="fill:#000000;stroke-width:0.999999"
           id="path913"
           transform="scale(0.26458333)" />
      </g>
      <g
         transform="translate(35.151786,-31.75)"
         id="g899">
        <path
           style="color:#000000;clip-rule:nonzero;display:inline;overflow:visible;visibility:visible;opacity:1;isolation:auto;mix-blend-mode:normal;color-interpolation:sRGB;color-interpolation-filters:linearRGB;solid-color:#000000;solid-opacity:1;fill:#ffffff;fill-opacity:1;fill-rule:evenodd;stroke:none;stroke-width:0.264583px;stroke-linecap:butt;stroke-linejoin:miter;stroke-miterlimit:4;stroke-dasharray:none;stroke-dashoffset:0;stroke-opacity:1;color-rendering:auto;image-rendering:auto;shape-rendering:auto;text-rendering:auto;enable-background:accumulate"
           d="m 51.72503,166.38412 20.705011,5.60382 20.312483,14.29892 5.612662,16.97161 13.630744,9.75534 -0.53454,2.93997 -15.100727,-6.68174 -17.639789,-8.8199 -22.717908,-14.16528 -8.15172,-9.35443 -0.668176,-5.61267 z"
           id="path893" />
        <path
           id="path895"
           style="fill:#000000;stroke-width:0.999999"
           d="m 195.49609,628.85352 c -4.55183,-0.0878 -9.73553,1.72576 -13.48828,5.47851 -1.99108,1.99109 -4.48333,5.57229 -5.53906,7.95899 -7.60385,24.00736 4.41485,43.30526 20.08204,57.67173 13.25434,12.19287 31.76075,25.85626 52.9336,39.08203 17.51112,10.93848 27.74022,16.16776 51.6582,26.4082 11.55001,4.94506 25.68587,11.28287 31.41211,14.08399 l 10.41015,5.0957 c 0,0 80.80802,51.07476 90.09375,40.53907 5.13109,-6.5305 -1.63445,-17.34678 -9.26562,-26.20508 l -51.31836,-42.42969 1.60351,-2.44922 c 2.10106,-3.20655 1.41021,-5.76956 -4.5957,-17.04101 -3.4518,-6.47812 -4.83984,-10.22316 -4.83984,-13.0586 -2.75659,-16.50746 -19.33688,-29.72077 -30.43943,-39.45123 -22.43893,-19.71855 -38.94061,-30.21549 -52.74023,-33.54688 -9.28625,-2.24182 -11.4164,-1.53543 -12.25586,4.0625 -0.54362,3.62506 -0.20221,5.35951 1.86133,9.43165 2.58568,5.10251 4.82099,6.49337 7.69726,4.7871 2.5823,-1.53188 21.79341,6.60294 32.87696,13.92188 16.85132,11.12765 34.51772,30.18443 38.9414,42.00781 1.13612,3.03651 2.98938,7.33429 4.11914,9.54883 l 2.05469,4.02539 -2.11719,6.36133 c -2.01365,6.05106 -2.03591,6.52391 -0.44531,9.67773 16.15579,19.56631 35.94196,36.15257 56.72071,50.71289 l -42.5,-21.96484 -0.0312,0.002 c -3.92327,-2.80512 -56.471,-28.58738 -73.59375,-36.05078 -9.50682,-4.14372 -12.67364,-6.00558 -13.75,-8.08398 -2.03938,-3.93797 -1.79596,-4.5063 2.35156,-5.49219 3.40799,-0.81003 3.71808,-1.16161 3.4082,-3.84961 -0.18758,-1.62686 -1.17375,-4.307 -2.19336,-5.95703 -2.2243,-3.59951 -14.9688,-16.35367 -14.95898,-14.9707 0.004,0.53412 3.60377,4.91825 8,9.74414 4.39623,4.82589 7.99414,9.42415 7.99414,10.21679 0,0.97644 -1.63006,1.65707 -5.05469,2.11133 -3.70922,0.49206 -4.90709,1.03239 -4.5,2.0332 0.30512,0.75017 0.85805,2.11856 1.22852,3.03907 1.08192,2.68807 -1.18794,1.3872 -22.19336,-12.71289 -35.36261,-23.73744 -65.42423,-47.3232 -69.68164,-54.66992 l -1.70118,-2.93555 5.70118,-7.98047 c 3.13568,-4.38973 8.09594,-10.98803 11.02343,-14.66211 3.73562,-4.68828 5.14448,-7.24158 4.72461,-8.56445 -1.22156,-3.84879 -5.14152,-5.83799 -9.69336,-5.92578 z m 88.33594,43.9082 c -0.35142,-0.0227 0.0893,0.6594 1.26172,2.4707 3.67491,5.67753 4.31905,6.93228 4.94922,9.64844 0.59834,2.57915 0.42978,2.75 -2.70703,2.75 -2.32999,0 -4.08072,-0.79761 -5.76953,-2.62891 -2.30473,-2.49921 -7.61827,-5.37109 -9.9375,-5.37109 -1.40302,0 -0.29126,6.07842 2.16406,11.83203 1.01695,2.38307 1.84961,4.52058 1.84961,4.75 0,0.22942 -1.575,0.41797 -3.5,0.41797 -3.3092,0 -4.32847,0.83761 -2.83399,2.33203 0.36666,0.36661 2.16666,0.66797 4,0.66797 3.02779,0 3.33399,-0.27138 3.33399,-2.96289 0,-1.62966 -0.89435,-5.22965 -1.98633,-8 -1.09197,-2.77036 -1.75532,-5.03711 -1.47461,-5.03711 0.28071,0 3.71952,1.61519 7.64063,3.58984 5.98077,3.01187 7.50982,3.41669 9.49609,2.51172 1.93652,-0.88237 2.25437,-1.58123 1.74023,-3.83984 -1.11897,-4.91558 -4.55703,-11.26663 -6.72656,-12.42774 -0.79297,-0.42436 -1.28916,-0.69027 -1.5,-0.70312 z m -50.71875,0.28906 c -0.60832,0.16403 3.11347,2.70824 13.5293,9.44922 13.45951,8.71079 18.28866,10.50221 11,4.08008 -4.22507,-3.72276 -15.99072,-10.48399 -22.56446,-12.9668 -1.0775,-0.40694 -1.76207,-0.61719 -1.96484,-0.5625 z m -18.89648,7.93164 c -0.14453,-0.0265 -0.23254,-0.0265 -0.26172,0.002 -0.9384,0.93841 18.36084,11.63547 27.6582,15.33007 5.79142,2.30143 10.75431,4.1979 11.0293,4.2168 1.70561,0.11036 -5.72759,-4.74489 -12.40235,-8.10156 -9.29185,-4.67278 -23.85525,-11.05227 -26.02343,-11.44727 z m 51.98047,17.08789 c -0.31987,0.0548 -0.55469,0.63515 -0.55469,1.85938 0,3.06232 0.0351,3.04614 -3.43555,1.72656 -3.15859,-1.20091 -3.41593,0.25093 -0.31445,1.77344 3.77291,1.85193 6.30188,1.08279 5.91406,-1.79883 -0.30709,-2.2817 -1.07629,-3.65175 -1.60937,-3.56055 z m -30.47071,2.79688 c -0.38213,0.27779 10.75696,9.51655 17.41211,14.29883 8.96945,6.44519 9.50391,6.78909 9.50391,6.10156 0,-0.36284 -23.15586,-18.11403 -26,-19.93164 -0.57149,-0.3651 -0.86143,-0.50844 -0.91602,-0.46875 z m 87.11133,7.30078 v 0.002 c -0.0996,0.0189 -0.14821,0.0674 -0.14258,0.1543 0.0283,0.44251 4.37409,4.06721 9.65821,8.05469 5.2841,3.98751 9.98688,7.25 10.44921,7.25 1.80493,0 0.68496,-2.40976 -2.52539,-5.4375 -3.29921,-3.11161 -15.94563,-10.28771 -17.43945,-10.02344 z m -7.46094,4.96289 1.86914,3.28711 c 1.0289,1.80794 2.04268,2.77426 2.25196,2.14648 0.20923,-0.62774 -0.63293,-2.10691 -1.8711,-3.28711 z m -13.28515,5.95703 c -0.26483,0.22224 5.42007,4.19914 17.04492,11.91992 16.00507,10.62981 16.50586,10.93996 16.50586,10.25586 0,-0.6336 -24.25643,-17.20221 -29.5,-20.15039 -2.58017,-1.45069 -3.9304,-2.12642 -4.05078,-2.02539 z m 1.01562,13.88867 c -0.27443,-0.0393 -0.28017,0.1024 0.041,0.45703 0.55369,0.61108 10.2287,7.19527 21.5,14.63282 18.21801,12.02143 22.99414,14.74025 22.99414,13.08984 0,-0.26079 -1.46249,-1.21082 -3.25,-2.11133 -1.7875,-0.90047 -8.54358,-5.43371 -15.01367,-10.07422 -9.20656,-6.60317 -24.35066,-15.7185 -26.27149,-15.99414 z"
           transform="scale(0.26458333)"
           sodipodi:nodetypes="csccssccccccsccsssssscccccccssssscsssssssccsscccssssssssssssssssscsssssscscsssssscssssssscccsssscccsccsssssscssssss" />
        <path
           sodipodi:nodetypes="csccssccccccsccsssssscccccccssssscsssssssccsscccssssssssssssssssscsssssscscsssssscssssssscccsssscccsccsssssscssssss"
           d="m 195.49609,628.85352 c -4.55183,-0.0878 -9.73553,1.72576 -13.48828,5.47851 -1.99108,1.99109 -4.48333,5.57229 -5.53906,7.95899 -7.60385,24.00736 4.41485,43.30526 20.08204,57.67173 13.25434,12.19287 31.76075,25.85626 52.9336,39.08203 17.51112,10.93848 27.74022,16.16776 51.6582,26.4082 11.55001,4.94506 25.68587,11.28287 31.41211,14.08399 l 10.41015,5.0957 c 0,0 80.80802,51.07476 90.09375,40.53907 5.13109,-6.5305 -1.63445,-17.34678 -9.26562,-26.20508 l -51.31836,-42.42969 1.60351,-2.44922 c 2.10106,-3.20655 1.41021,-5.76956 -4.5957,-17.04101 -3.4518,-6.47812 -4.83984,-10.22316 -4.83984,-13.0586 -2.75659,-16.50746 -19.33688,-29.72077 -30.43943,-39.45123 -22.43893,-19.71855 -38.94061,-30.21549 -52.74023,-33.54688 -9.28625,-2.24182 -11.4164,-1.53543 -12.25586,4.0625 -0.54362,3.62506 -0.20221,5.35951 1.86133,9.43165 2.58568,5.10251 4.82099,6.49337 7.69726,4.7871 2.5823,-1.53188 21.79341,6.60294 32.87696,13.92188 16.85132,11.12765 34.51772,30.18443 38.9414,42.00781 1.13612,3.03651 2.98938,7.33429 4.11914,9.54883 l 2.05469,4.02539 -2.11719,6.36133 c -2.01365,6.05106 -2.03591,6.52391 -0.44531,9.67773 16.15579,19.56631 35.94196,36.15257 56.72071,50.71289 l -42.5,-21.96484 -0.0312,0.002 c -3.92327,-2.80512 -56.471,-28.58738 -73.59375,-36.05078 -9.50682,-4.14372 -12.67364,-6.00558 -13.75,-8.08398 -2.03938,-3.93797 -1.79596,-4.5063 2.35156,-5.49219 3.40799,-0.81003 3.71808,-1.16161 3.4082,-3.84961 -0.18758,-1.62686 -1.17375,-4.307 -2.19336,-5.95703 -2.2243,-3.59951 -14.9688,-16.35367 -14.95898,-14.9707 0.004,0.53412 3.60377,4.91825 8,9.74414 4.39623,4.82589 7.99414,9.42415 7.99414,10.21679 0,0.97644 -1.63006,1.65707 -5.05469,2.11133 -3.70922,0.49206 -4.90709,1.03239 -4.5,2.0332 0.30512,0.75017 0.85805,2.11856 1.22852,3.03907 1.08192,2.68807 -1.18794,1.3872 -22.19336,-12.71289 -35.36261,-23.73744 -65.42423,-47.3232 -69.68164,-54.66992 l -1.70118,-2.93555 5.70118,-7.98047 c 3.13568,-4.38973 8.09594,-10.98803 11.02343,-14.66211 3.73562,-4.68828 5.14448,-7.24158 4.72461,-8.56445 -1.22156,-3.84879 -5.14152,-5.83799 -9.69336,-5.92578 z m 88.33594,43.9082 c -0.35142,-0.0227 0.0893,0.6594 1.26172,2.4707 3.67491,5.67753 4.31905,6.93228 4.94922,9.64844 0.59834,2.57915 0.42978,2.75 -2.70703,2.75 -2.32999,0 -4.08072,-0.79761 -5.76953,-2.62891 -2.30473,-2.49921 -7.61827,-5.37109 -9.9375,-5.37109 -1.40302,0 -0.29126,6.07842 2.16406,11.83203 1.01695,2.38307 1.84961,4.52058 1.84961,4.75 0,0.22942 -1.575,0.41797 -3.5,0.41797 -3.3092,0 -4.32847,0.83761 -2.83399,2.33203 0.36666,0.36661 2.16666,0.66797 4,0.66797 3.02779,0 3.33399,-0.27138 3.33399,-2.96289 0,-1.62966 -0.89435,-5.22965 -1.98633,-8 -1.09197,-2.77036 -1.75532,-5.03711 -1.47461,-5.03711 0.28071,0 3.71952,1.61519 7.64063,3.58984 5.98077,3.01187 7.50982,3.41669 9.49609,2.51172 1.93652,-0.88237 2.25437,-1.58123 1.74023,-3.83984 -1.11897,-4.91558 -4.55703,-11.26663 -6.72656,-12.42774 -0.79297,-0.42436 -1.28916,-0.69027 -1.5,-0.70312 z m -50.71875,0.28906 c -0.60832,0.16403 3.11347,2.70824 13.5293,9.44922 13.45951,8.71079 18.28866,10.50221 11,4.08008 -4.22507,-3.72276 -15.99072,-10.48399 -22.56446,-12.9668 -1.0775,-0.40694 -1.76207,-0.61719 -1.96484,-0.5625 z m -18.89648,7.93164 c -0.14453,-0.0265 -0.23254,-0.0265 -0.26172,0.002 -0.9384,0.93841 18.36084,11.63547 27.6582,15.33007 5.79142,2.30143 10.75431,4.1979 11.0293,4.2168 1.70561,0.11036 -5.72759,-4.74489 -12.40235,-8.10156 -9.29185,-4.67278 -23.85525,-11.05227 -26.02343,-11.44727 z m 51.98047,17.08789 c -0.31987,0.0548 -0.55469,0.63515 -0.55469,1.85938 0,3.06232 0.0351,3.04614 -3.43555,1.72656 -3.15859,-1.20091 -3.41593,0.25093 -0.31445,1.77344 3.77291,1.85193 6.30188,1.08279 5.91406,-1.79883 -0.30709,-2.2817 -1.07629,-3.65175 -1.60937,-3.56055 z m -30.47071,2.79688 c -0.38213,0.27779 10.75696,9.51655 17.41211,14.29883 8.96945,6.44519 9.50391,6.78909 9.50391,6.10156 0,-0.36284 -23.15586,-18.11403 -26,-19.93164 -0.57149,-0.3651 -0.86143,-0.50844 -0.91602,-0.46875 z m 87.11133,7.30078 v 0.002 c -0.0996,0.0189 -0.14821,0.0674 -0.14258,0.1543 0.0283,0.44251 4.37409,4.06721 9.65821,8.05469 5.2841,3.98751 9.98688,7.25 10.44921,7.25 1.80493,0 0.68496,-2.40976 -2.52539,-5.4375 -3.29921,-3.11161 -15.94563,-10.28771 -17.43945,-10.02344 z m -7.46094,4.96289 1.86914,3.28711 c 1.0289,1.80794 2.04268,2.77426 2.25196,2.14648 0.20923,-0.62774 -0.63293,-2.10691 -1.8711,-3.28711 z m -13.28515,5.95703 c -0.26483,0.22224 5.42007,4.19914 17.04492,11.91992 16.00507,10.62981 16.50586,10.93996 16.50586,10.25586 0,-0.6336 -24.25643,-17.20221 -29.5,-20.15039 -2.58017,-1.45069 -3.9304,-2.12642 -4.05078,-2.02539 z m 1.01562,13.88867 c -0.27443,-0.0393 -0.28017,0.1024 0.041,0.45703 0.55369,0.61108 10.2287,7.19527 21.5,14.63282 18.21801,12.02143 22.99414,14.74025 22.99414,13.08984 0,-0.26079 -1.46249,-1.21082 -3.25,-2.11133 -1.7875,-0.90047 -8.54358,-5.43371 -15.01367,-10.07422 -9.20656,-6.60317 -24.35066,-15.7185 -26.27149,-15.99414 z"
           style="fill:#000000;stroke-width:0.999999"
           id="path897"
           transform="scale(0.26458333)" />
      </g>
      <g
         id="g923">
        <path
           id="path919"
           d="m 206.56399,109.42411 -11.52828,5.29166 -12.09524,8.12649 -11.15029,2.07887 -7.74852,-6.4256 -1.13392,-4.15773 -3.2128,-3.02381 -4.34673,0.75595 -3.02381,-3.96875 -8.12649,-1.13393 -5.66964,-1.5119 -1.88988,-3.40179 -4.91369,2.45685 -2.26786,-1.32292 -6.42559,-0.56697 -1.88988,-1.5119 -13.04018,6.23661 -2.26786,4.34672 -10.394342,3.96875 -12.095239,10.20536 -10.772322,14.55208 -1.133928,6.61459 2.456844,4.7247 5.10268,2.45684 44.412197,3.96875 17.00893,-1.32291 12.28423,-4.91369 8.31548,-6.61459 13.04017,-5.10268 h 10.58334 l 11.15029,2.45685 8.88244,4.15774 4.15774,-1.51191 -3.59077,-18.52083 1.5119,-8.69345 1.88988,-6.4256 z"
           style="color:#000000;clip-rule:nonzero;display:inline;overflow:visible;visibility:visible;opacity:1;isolation:auto;mix-blend-mode:normal;color-interpolation:sRGB;color-interpolation-filters:linearRGB;solid-color:#000000;solid-opacity:1;fill:#ffffff;fill-opacity:1;fill-rule:evenodd;stroke:none;stroke-width:0.264583px;stroke-linecap:butt;stroke-linejoin:miter;stroke-miterlimit:4;stroke-dasharray:none;stroke-dashoffset:0;stroke-opacity:1;color-rendering:auto;image-rendering:auto;shape-rendering:auto;text-rendering:auto;enable-background:accumulate" />
        <path
           style="fill:#000000;stroke-width:0.264583"
           d="m 99.846889,159.35615 c -13.944142,-1.42373 -24.447845,-4.16393 -28.035436,-7.31388 -1.38268,-1.21401 -2.188113,-2.76608 -2.393532,-4.61236 -0.336353,-3.02309 1.552472,-8.42251 4.472446,-12.78499 4.434747,-6.62557 11.822155,-14.51865 16.440579,-17.56595 3.460004,-2.28295 8.695028,-4.77156 11.485204,-5.45978 1.22363,-0.30183 2.23566,-0.57949 2.24896,-0.61704 0.52687,-1.48802 3.27702,-4.92069 4.9778,-6.21318 2.17587,-1.65354 2.4043,-1.76617 7.87866,-3.88494 6.4406,-2.492736 6.63995,-2.536549 7.52309,-1.653411 0.37344,0.373449 0.67899,0.898181 0.67899,1.166061 0,0.45254 0.23098,0.47938 3.25809,0.3786 3.33672,-0.11108 3.86431,0.0204 4.20696,1.04832 0.0763,0.22901 0.44666,0.19511 1.39367,-0.12757 0.72988,-0.24869 2.11283,-0.43944 3.18596,-0.43944 2.24047,0 2.87399,0.44062 2.72798,1.89736 l -0.0883,0.88076 2.11667,0.15833 c 2.46176,0.18414 2.89662,0.3267 3.96875,1.30101 0.69436,0.63102 1.25755,0.79192 4.49791,1.28502 4.11256,0.62583 4.6954,0.95082 5.04474,2.81293 0.19935,1.06263 0.12806,1.04892 2.7973,0.53814 2.94586,-0.5637 4.18309,-0.12725 4.19245,1.47894 0.005,0.86047 0.38547,1.18949 1.64827,1.42546 1.38071,0.25801 1.67518,0.72887 1.59493,2.55028 -0.0646,1.46534 -0.0355,1.54677 0.55191,1.54677 0.38866,0 0.97461,0.39495 1.57014,1.05833 0.52865,0.58888 1.1934,1.05833 1.49861,1.05833 1.05448,0 1.60686,0.91008 1.60686,2.64738 v 1.58904 l 2.3151,-0.14983 c 7.13434,-0.46174 9.63811,-1.4662 15.32041,-6.1462 3.65629,-3.01136 12.52042,-8.30218 15.6607,-9.34756 2.53256,-0.84308 4.36224,-0.44215 5.34613,1.17145 0.39335,0.64512 0.51425,1.33034 0.515,2.91896 0.001,2.31733 -0.38645,3.88793 -1.87415,7.59506 -0.55781,1.39 -1.14624,3.37826 -1.30762,4.41837 -0.27589,1.77816 -0.24364,2.07759 0.53995,5.01336 3.02237,11.32359 2.99638,11.2022 3.0185,14.10247 0.0178,2.32987 -0.0724,2.98069 -0.55863,4.03351 -0.78181,1.69271 -1.45367,1.97759 -3.73782,1.58489 -2.66867,-0.4588 -5.47375,-1.45634 -9.78016,-3.47802 -2.14163,-1.0054 -4.84637,-2.16618 -6.01053,-2.5795 -2.06673,-0.73377 -2.24466,-0.75131 -7.54063,-0.74318 -5.00808,0.008 -5.64383,0.0635 -8.29164,0.72815 -5.18352,1.30111 -8.52383,2.91075 -15.78289,7.60552 -8.24787,5.33428 -13.37463,7.56658 -20.1175,8.7596 -3.12813,0.55346 -4.13756,0.58746 -19.30798,0.65027 -11.83896,0.049 -16.90532,-0.0254 -19.455931,-0.28584 z m 37.315321,-3.68601 c 7.42134,-1.20181 10.52118,-2.54915 20.63288,-8.96802 9.591,-6.08835 13.93364,-7.71261 22.45626,-8.39921 6.52289,-0.5255 10.27201,0.28879 17.73578,3.85214 3.85766,1.84173 7.0964,3.04237 8.20679,3.04237 1.38019,0 1.26174,-2.09629 -0.50086,-8.86354 -2.62452,-10.0765 -2.58705,-9.88709 -2.39445,-12.10469 0.0979,-1.12779 0.0911,-2.05052 -0.0153,-2.05052 -0.10636,0 -0.72006,0.30866 -1.36379,0.68591 -0.93441,0.5476 -6.24624,2.48909 -6.81005,2.48909 -0.0747,0 -0.13582,-0.16665 -0.13582,-0.37033 0,-0.22812 0.78744,-0.62664 2.05052,-1.03777 2.57498,-0.83815 4.05442,-1.4556 4.56407,-1.90486 0.21828,-0.19241 0.79937,-0.38891 1.29132,-0.43667 0.84793,-0.0823 0.92878,-0.18314 1.55475,-1.93891 0.36317,-1.01865 0.99993,-2.80459 1.41503,-3.96875 0.45968,-1.28923 0.75691,-2.66164 0.76035,-3.51077 0.006,-1.38876 0.003,-1.39342 -0.72197,-1.21505 -1.41917,0.34924 -3.00897,1.15743 -7.00336,3.56023 -6.50731,3.91442 -8.74038,5.53121 -7.63956,5.53121 0.40101,0 1.89349,3.88008 1.69702,4.41182 -0.0982,0.26564 -0.45505,0.92709 -0.79311,1.46991 -0.75294,1.20899 -0.75803,1.39314 -0.063,2.27671 0.46754,0.59438 0.52581,0.9234 0.38228,2.1584 -0.0931,0.80142 -0.35016,2.02029 -0.57114,2.70861 -0.22098,0.68831 -0.33283,1.46875 -0.24855,1.7343 0.0843,0.26554 -0.0671,1.13113 -0.33646,1.92351 -0.44239,1.30147 -0.56398,1.4407 -1.25822,1.4407 -0.66559,0 -0.75733,-0.0886 -0.68509,-0.66146 0.0459,-0.3638 0.10744,-1.3163 0.13681,-2.11666 0.0294,-0.80037 0.26065,-1.91846 0.51397,-2.48466 0.25331,-0.5662 0.53557,-1.66753 0.62723,-2.4474 0.14029,-1.19364 0.0996,-1.41794 -0.25735,-1.41794 -0.59282,0 -1.04898,-0.97236 -0.84938,-1.81058 0.0921,-0.38663 0.48156,-1.3334 0.86553,-2.10392 l 0.69814,-1.40096 -0.7166,-1.46112 -0.7166,-1.46111 -0.72174,0.55455 c -1.43455,1.10221 -3.65124,2.58938 -4.54273,3.04768 -1.69788,0.87287 -4.56202,1.71192 -6.72474,1.97002 -7.15298,0.85364 -6.81907,0.84178 -8.68378,0.30852 -1.91055,-0.54637 -3.40763,-1.33462 -5.9957,-3.15687 -0.9225,-0.64954 -2.88703,-1.68452 -4.36562,-2.29997 -1.47859,-0.61545 -4.23616,-1.91255 -6.12793,-2.88245 l -3.43958,-1.76345 -8.86355,-1.97147 -8.86355,-1.97146 -5.42396,0.005 c -7.45397,0.007 -11.94026,0.33849 -17.99166,1.33061 -2.83766,0.46523 -5.21247,0.89398 -5.27736,0.95277 -0.0649,0.0588 0.71907,0.96662 1.74213,2.01739 4.21271,4.32679 6.06625,7.71126 6.83312,12.47693 0.43905,2.72843 0.53803,7.20454 0.17208,7.78199 -0.12435,0.19622 -0.44995,0.31407 -0.72355,0.2619 -0.42781,-0.0816 -0.52522,-0.44641 -0.69572,-2.60572 -0.51949,-6.57919 -1.35344,-9.38342 -3.87351,-13.02486 -1.19225,-1.72276 -3.74966,-4.57621 -4.85088,-5.41239 -0.22887,-0.17378 -0.46446,-0.46097 -0.52354,-0.6382 -0.139,-0.41702 -5.432785,2.14823 -8.148606,3.94863 -3.923041,2.60071 -8.193995,6.86519 -12.8206,12.80116 -2.83759,3.64065 -4.530888,6.37134 -5.611641,9.04956 l -0.8645,2.14232 3.361678,0.13229 c 3.344016,0.1316 3.363486,0.13608 3.706005,0.85223 0.290804,0.60802 0.279906,0.84452 -0.0701,1.52135 -0.227936,0.44078 -0.500668,0.81657 -0.606073,0.83508 -0.105405,0.0185 -1.50133,0.10781 -3.10206,0.19844 l -2.910416,0.16478 0.0768,0.79375 c 0.09363,0.96772 0.706299,1.50775 3.049164,2.68769 2.50935,1.26378 7.574542,2.60132 13.807371,3.64603 4.568182,0.7657 6.719202,1.03338 12.699998,1.58046 0.58208,0.0533 7.8449,0.0625 16.13958,0.0206 12.36083,-0.0625 15.55852,-0.15355 17.7271,-0.50472 z m -34.22024,-0.86092 c -0.19949,-0.35646 0.33844,-1.02566 2.77015,-3.44612 2.64571,-2.63347 3.08232,-2.96919 3.54171,-2.72333 1.02681,0.54954 0.71262,1.00892 -3.9166,5.72652 -0.94866,0.96677 -1.99393,1.16006 -2.39526,0.44293 z m 16.59621,-1.76461 c -1.69535,-1.17108 -6.98266,-4.9679 -7.44526,-5.34645 -0.56844,-0.46516 -0.60438,-1.33155 -0.0639,-1.53897 0.6528,-0.2505 1.45161,0.18828 4.94781,2.71779 3.17305,2.29571 4.02321,2.80592 3.45774,2.07513 -1.00245,-1.29554 -0.22648,-2.31511 1.76198,-2.31511 h 1.30628 l -0.15671,-0.96571 c -0.18768,-1.1565 0.34082,-1.68012 1.69576,-1.68012 0.48151,0 0.87547,-0.0926 0.87547,-0.20571 0,-0.56453 -0.95951,-1.43839 -2.13428,-1.94376 -0.92856,-0.39945 -1.3598,-0.75368 -1.47465,-1.21129 -0.21723,-0.86551 0.0795,-1.10118 1.63525,-1.29857 1.4017,-0.17785 2.61365,-0.76816 2.37382,-1.15623 -0.0802,-0.12983 -1.04564,-0.43624 -2.14532,-0.68089 -2.09492,-0.46608 -2.45675,-0.77555 -1.97005,-1.68496 0.26545,-0.49599 0.2221,-0.54921 -0.44265,-0.54337 -2.25439,0.0198 -5.51615,1.45998 -7.88532,3.48166 -2.10492,1.79621 -2.61961,2.11055 -3.13306,1.91352 -0.86076,-0.3303 -0.4012,-1.14415 1.65693,-2.93431 2.58001,-2.24409 3.66026,-2.79185 8.05918,-4.08655 6.511,-1.91633 6.69643,-1.95707 7.15903,-1.57315 0.67333,0.55882 0.50287,0.94484 -1.03995,2.35489 -0.80175,0.73275 -1.3673,1.38554 -1.25677,1.45064 0.11053,0.0651 0.61769,0.20357 1.12701,0.30773 1.44926,0.29638 2.11667,0.83623 2.11667,1.71213 0,0.85494 -0.33923,1.27623 -1.70952,2.12312 l -0.92981,0.57465 0.81255,1.0111 c 0.65404,0.81387 0.81254,1.25916 0.81254,2.28273 0,1.06226 -0.11247,1.35355 -0.68309,1.76922 -0.50644,0.36892 -0.64403,0.65317 -0.53207,1.09925 0.21592,0.86032 -0.4428,1.38906 -1.99677,1.60279 -1.4763,0.20304 -1.78284,0.44148 -1.19488,0.92945 0.54778,0.45462 0.49163,1.22283 -0.1352,1.84966 -0.73995,0.73995 -2.32666,0.69864 -3.46881,-0.0903 z m 81.00725,-10.78144 c -0.65041,-0.12755 -1.98922,-0.77179 -2.99841,-1.44286 -1.00281,-0.66682 -2.70547,-1.61443 -3.78368,-2.10578 -1.48368,-0.67614 -1.92185,-0.99378 -1.80193,-1.30628 0.0872,-0.2271 0.20168,-0.41291 0.25452,-0.41291 0.3189,0 3.72539,1.84846 5.40496,2.93289 1.41043,0.91066 2.47772,1.38061 3.6837,1.62202 0.93385,0.18693 1.74682,0.48871 1.80659,0.67061 0.12518,0.38099 -0.76392,0.39565 -2.56575,0.0423 z m -113.047812,-3.1481 c -1.09415,-0.32982 -2.224408,-1.23136 -2.88617,-2.30211 -0.455491,-0.737 -0.597429,-1.36465 -0.597429,-2.64184 0,-1.42817 0.114599,-1.83683 0.777213,-2.77154 1.050377,-1.48171 2.246551,-2.07716 4.172683,-2.07716 2.643923,0 4.305633,1.25975 4.978064,3.77389 0.972402,3.6357 -2.766298,7.12749 -6.444361,6.01876 z m 114.355212,-0.99159 c -0.21828,-0.0841 -0.86315,-0.44592 -1.43304,-0.80394 -1.53494,-0.9643 -2.42205,-1.16571 -4.98311,-1.13142 -2.25918,0.0302 -3.03329,-0.27808 -1.60082,-0.63761 0.96738,-0.24279 4.02538,-0.20161 4.84197,0.0652 1.42721,0.46634 4.7505,2.24332 4.61263,2.4664 -0.16069,0.26001 -0.82118,0.27901 -1.43763,0.0414 z m -5.09323,-5.03018 c -3.22453,-0.0668 -3.9026,-0.14859 -3.9026,-0.47066 0,-0.32459 0.60863,-0.38932 3.63802,-0.38689 4.20532,0.003 5.62239,0.17807 5.62239,0.69316 0,0.23299 -0.25964,0.34138 -0.7276,0.30376 -0.40018,-0.0322 -2.48378,-0.0949 -4.63021,-0.13937 z m -3.29806,-2.54369 c -0.0787,-0.12541 -0.004,-0.31415 0.16653,-0.41943 0.23648,-0.14615 4.47881,-0.15071 7.82789,-0.008 0.14552,0.006 0.0283,0.18979 -0.26039,0.40803 -0.41848,0.31628 -1.24171,0.38167 -4.05792,0.32231 -1.94311,-0.041 -3.59736,-0.17708 -3.67611,-0.30249 z m 0.76992,-2.31082 c 0.0781,-0.23604 1.03207,-0.53812 2.61536,-0.82813 4.49531,-0.82341 4.8259,-0.85519 4.69116,-0.451 -0.16367,0.49104 -0.9826,0.68549 -6.13696,1.45721 -1.05021,0.15724 -1.26941,0.12386 -1.16956,-0.17808 z m 0.0688,-6.3054 c 0.0834,-0.13491 0.59641,-0.39108 1.14009,-0.56929 0.54368,-0.1782 1.23896,-0.48681 1.54507,-0.6858 0.43227,-0.281 6.55166,-2.46838 6.90552,-2.46838 0.0432,0 0.0785,0.16902 0.0785,0.37561 0,0.21943 -0.57759,0.56324 -1.38907,0.82686 -0.76398,0.24818 -2.71805,0.97213 -4.34237,1.60876 -2.82341,1.10661 -4.2642,1.44038 -3.93778,0.91224 z m 0.41285,-2.59899 c 0.01,-0.46673 0.50577,-0.91663 1.34532,-1.21972 1.68381,-0.60787 4.30326,-2.07665 6.0164,-3.37353 1.54468,-1.16935 2.6884,-1.63241 2.6884,-1.08844 0,0.47489 -3.88787,3.05911 -6.64388,4.41611 -2.99198,1.47319 -3.41368,1.62987 -3.40624,1.26558 z m -32.5478,-1.89235 c 0,-1.17111 -0.0706,-1.32404 -0.7276,-1.57523 -0.92127,-0.35224 -1.44272,-0.78222 -2.01472,-1.66132 -0.42474,-0.65277 -0.52448,-0.68085 -1.56762,-0.4413 -0.61271,0.14071 -1.797,0.20881 -2.63175,0.15134 -1.83934,-0.12663 -2.72769,-0.82571 -2.98506,-2.34906 -0.0957,-0.56621 -0.23953,-1.02948 -0.31972,-1.02948 -0.12092,0 -3.62198,-0.568 -7.41381,-1.2028 -0.59204,-0.0991 -0.97874,-0.37495 -1.24354,-0.88702 -0.36128,-0.69862 -0.5119,-0.75191 -2.51292,-0.88907 -2.38603,-0.16354 -3.52715,-0.67291 -4.39608,-1.96232 l -0.54693,-0.81157 -1.66901,0.62743 c -2.09449,0.78739 -3.789,0.82427 -4.515,0.0983 -0.29104,-0.29104 -0.52917,-0.70387 -0.52917,-0.9174 0,-0.32965 -0.51542,-0.36359 -3.41541,-0.22487 l -3.41541,0.16337 -0.67436,-0.72765 -0.67436,-0.72765 -3.76689,1.48712 c -2.07179,0.81792 -4.32993,1.84842 -5.0181,2.29002 -1.48618,0.95367 -3.64089,3.20976 -3.20448,3.35524 0.16804,0.056 1.29223,-0.0914 2.49821,-0.32751 1.68635,-0.3302 4.3616,-0.45486 11.58539,-0.53983 l 9.39271,-0.11049 7.93751,1.82958 c 10.32419,2.3797 9.36552,2.07829 14.68437,4.61681 5.58883,2.66738 6.38584,3.02365 6.81302,3.0455 0.22191,0.0114 0.33073,-0.40984 0.33073,-1.28011 z"
           id="path891" />
      </g>
      <g
         id="g887"
         transform="translate(30.994048,-27.214286)">
        <path
           id="path882"
           d="m 51.72503,166.38412 20.705011,5.60382 20.312483,14.29892 5.612662,16.97161 13.630744,9.75534 -0.53454,2.93997 -15.100727,-6.68174 -17.639789,-8.8199 -22.717908,-14.16528 -8.15172,-9.35443 -0.668176,-5.61267 z"
           style="color:#000000;clip-rule:nonzero;display:inline;overflow:visible;visibility:visible;opacity:1;isolation:auto;mix-blend-mode:normal;color-interpolation:sRGB;color-interpolation-filters:linearRGB;solid-color:#000000;solid-opacity:1;fill:#ffffff;fill-opacity:1;fill-rule:evenodd;stroke:none;stroke-width:0.264583px;stroke-linecap:butt;stroke-linejoin:miter;stroke-miterlimit:4;stroke-dasharray:none;stroke-dashoffset:0;stroke-opacity:1;color-rendering:auto;image-rendering:auto;shape-rendering:auto;text-rendering:auto;enable-background:accumulate" />
        <path
           sodipodi:nodetypes="csccssccccccsccsssssscccccccssssscsssssssccsscccssssssssssssssssscsssssscscsssssscssssssscccsssscccsccsssssscssssss"
           transform="scale(0.26458333)"
           d="m 195.49609,628.85352 c -4.55183,-0.0878 -9.73553,1.72576 -13.48828,5.47851 -1.99108,1.99109 -4.48333,5.57229 -5.53906,7.95899 -7.60385,24.00736 4.41485,43.30526 20.08204,57.67173 13.25434,12.19287 31.76075,25.85626 52.9336,39.08203 17.51112,10.93848 27.74022,16.16776 51.6582,26.4082 11.55001,4.94506 25.68587,11.28287 31.41211,14.08399 l 10.41015,5.0957 c 0,0 80.80802,51.07476 90.09375,40.53907 5.13109,-6.5305 -1.63445,-17.34678 -9.26562,-26.20508 l -51.31836,-42.42969 1.60351,-2.44922 c 2.10106,-3.20655 1.41021,-5.76956 -4.5957,-17.04101 -3.4518,-6.47812 -4.83984,-10.22316 -4.83984,-13.0586 -2.75659,-16.50746 -19.33688,-29.72077 -30.43943,-39.45123 -22.43893,-19.71855 -38.94061,-30.21549 -52.74023,-33.54688 -9.28625,-2.24182 -11.4164,-1.53543 -12.25586,4.0625 -0.54362,3.62506 -0.20221,5.35951 1.86133,9.43165 2.58568,5.10251 4.82099,6.49337 7.69726,4.7871 2.5823,-1.53188 21.79341,6.60294 32.87696,13.92188 16.85132,11.12765 34.51772,30.18443 38.9414,42.00781 1.13612,3.03651 2.98938,7.33429 4.11914,9.54883 l 2.05469,4.02539 -2.11719,6.36133 c -2.01365,6.05106 -2.03591,6.52391 -0.44531,9.67773 16.15579,19.56631 35.94196,36.15257 56.72071,50.71289 l -42.5,-21.96484 -0.0312,0.002 c -3.92327,-2.80512 -56.471,-28.58738 -73.59375,-36.05078 -9.50682,-4.14372 -12.67364,-6.00558 -13.75,-8.08398 -2.03938,-3.93797 -1.79596,-4.5063 2.35156,-5.49219 3.40799,-0.81003 3.71808,-1.16161 3.4082,-3.84961 -0.18758,-1.62686 -1.17375,-4.307 -2.19336,-5.95703 -2.2243,-3.59951 -14.9688,-16.35367 -14.95898,-14.9707 0.004,0.53412 3.60377,4.91825 8,9.74414 4.39623,4.82589 7.99414,9.42415 7.99414,10.21679 0,0.97644 -1.63006,1.65707 -5.05469,2.11133 -3.70922,0.49206 -4.90709,1.03239 -4.5,2.0332 0.30512,0.75017 0.85805,2.11856 1.22852,3.03907 1.08192,2.68807 -1.18794,1.3872 -22.19336,-12.71289 -35.36261,-23.73744 -65.42423,-47.3232 -69.68164,-54.66992 l -1.70118,-2.93555 5.70118,-7.98047 c 3.13568,-4.38973 8.09594,-10.98803 11.02343,-14.66211 3.73562,-4.68828 5.14448,-7.24158 4.72461,-8.56445 -1.22156,-3.84879 -5.14152,-5.83799 -9.69336,-5.92578 z m 88.33594,43.9082 c -0.35142,-0.0227 0.0893,0.6594 1.26172,2.4707 3.67491,5.67753 4.31905,6.93228 4.94922,9.64844 0.59834,2.57915 0.42978,2.75 -2.70703,2.75 -2.32999,0 -4.08072,-0.79761 -5.76953,-2.62891 -2.30473,-2.49921 -7.61827,-5.37109 -9.9375,-5.37109 -1.40302,0 -0.29126,6.07842 2.16406,11.83203 1.01695,2.38307 1.84961,4.52058 1.84961,4.75 0,0.22942 -1.575,0.41797 -3.5,0.41797 -3.3092,0 -4.32847,0.83761 -2.83399,2.33203 0.36666,0.36661 2.16666,0.66797 4,0.66797 3.02779,0 3.33399,-0.27138 3.33399,-2.96289 0,-1.62966 -0.89435,-5.22965 -1.98633,-8 -1.09197,-2.77036 -1.75532,-5.03711 -1.47461,-5.03711 0.28071,0 3.71952,1.61519 7.64063,3.58984 5.98077,3.01187 7.50982,3.41669 9.49609,2.51172 1.93652,-0.88237 2.25437,-1.58123 1.74023,-3.83984 -1.11897,-4.91558 -4.55703,-11.26663 -6.72656,-12.42774 -0.79297,-0.42436 -1.28916,-0.69027 -1.5,-0.70312 z m -50.71875,0.28906 c -0.60832,0.16403 3.11347,2.70824 13.5293,9.44922 13.45951,8.71079 18.28866,10.50221 11,4.08008 -4.22507,-3.72276 -15.99072,-10.48399 -22.56446,-12.9668 -1.0775,-0.40694 -1.76207,-0.61719 -1.96484,-0.5625 z m -18.89648,7.93164 c -0.14453,-0.0265 -0.23254,-0.0265 -0.26172,0.002 -0.9384,0.93841 18.36084,11.63547 27.6582,15.33007 5.79142,2.30143 10.75431,4.1979 11.0293,4.2168 1.70561,0.11036 -5.72759,-4.74489 -12.40235,-8.10156 -9.29185,-4.67278 -23.85525,-11.05227 -26.02343,-11.44727 z m 51.98047,17.08789 c -0.31987,0.0548 -0.55469,0.63515 -0.55469,1.85938 0,3.06232 0.0351,3.04614 -3.43555,1.72656 -3.15859,-1.20091 -3.41593,0.25093 -0.31445,1.77344 3.77291,1.85193 6.30188,1.08279 5.91406,-1.79883 -0.30709,-2.2817 -1.07629,-3.65175 -1.60937,-3.56055 z m -30.47071,2.79688 c -0.38213,0.27779 10.75696,9.51655 17.41211,14.29883 8.96945,6.44519 9.50391,6.78909 9.50391,6.10156 0,-0.36284 -23.15586,-18.11403 -26,-19.93164 -0.57149,-0.3651 -0.86143,-0.50844 -0.91602,-0.46875 z m 87.11133,7.30078 v 0.002 c -0.0996,0.0189 -0.14821,0.0674 -0.14258,0.1543 0.0283,0.44251 4.37409,4.06721 9.65821,8.05469 5.2841,3.98751 9.98688,7.25 10.44921,7.25 1.80493,0 0.68496,-2.40976 -2.52539,-5.4375 -3.29921,-3.11161 -15.94563,-10.28771 -17.43945,-10.02344 z m -7.46094,4.96289 1.86914,3.28711 c 1.0289,1.80794 2.04268,2.77426 2.25196,2.14648 0.20923,-0.62774 -0.63293,-2.10691 -1.8711,-3.28711 z m -13.28515,5.95703 c -0.26483,0.22224 5.42007,4.19914 17.04492,11.91992 16.00507,10.62981 16.50586,10.93996 16.50586,10.25586 0,-0.6336 -24.25643,-17.20221 -29.5,-20.15039 -2.58017,-1.45069 -3.9304,-2.12642 -4.05078,-2.02539 z m 1.01562,13.88867 c -0.27443,-0.0393 -0.28017,0.1024 0.041,0.45703 0.55369,0.61108 10.2287,7.19527 21.5,14.63282 18.21801,12.02143 22.99414,14.74025 22.99414,13.08984 0,-0.26079 -1.46249,-1.21082 -3.25,-2.11133 -1.7875,-0.90047 -8.54358,-5.43371 -15.01367,-10.07422 -9.20656,-6.60317 -24.35066,-15.7185 -26.27149,-15.99414 z"
           style="fill:#000000;stroke-width:0.999999"
           id="path867" />
        <path
           transform="scale(0.26458333)"
           id="path880"
           style="fill:#000000;stroke-width:0.999999"
           d="m 195.49609,628.85352 c -4.55183,-0.0878 -9.73553,1.72576 -13.48828,5.47851 -1.99108,1.99109 -4.48333,5.57229 -5.53906,7.95899 -7.60385,24.00736 4.41485,43.30526 20.08204,57.67173 13.25434,12.19287 31.76075,25.85626 52.9336,39.08203 17.51112,10.93848 27.74022,16.16776 51.6582,26.4082 11.55001,4.94506 25.68587,11.28287 31.41211,14.08399 l 10.41015,5.0957 c 0,0 80.80802,51.07476 90.09375,40.53907 5.13109,-6.5305 -1.63445,-17.34678 -9.26562,-26.20508 l -51.31836,-42.42969 1.60351,-2.44922 c 2.10106,-3.20655 1.41021,-5.76956 -4.5957,-17.04101 -3.4518,-6.47812 -4.83984,-10.22316 -4.83984,-13.0586 -2.75659,-16.50746 -19.33688,-29.72077 -30.43943,-39.45123 -22.43893,-19.71855 -38.94061,-30.21549 -52.74023,-33.54688 -9.28625,-2.24182 -11.4164,-1.53543 -12.25586,4.0625 -0.54362,3.62506 -0.20221,5.35951 1.86133,9.43165 2.58568,5.10251 4.82099,6.49337 7.69726,4.7871 2.5823,-1.53188 21.79341,6.60294 32.87696,13.92188 16.85132,11.12765 34.51772,30.18443 38.9414,42.00781 1.13612,3.03651 2.98938,7.33429 4.11914,9.54883 l 2.05469,4.02539 -2.11719,6.36133 c -2.01365,6.05106 -2.03591,6.52391 -0.44531,9.67773 16.15579,19.56631 35.94196,36.15257 56.72071,50.71289 l -42.5,-21.96484 -0.0312,0.002 c -3.92327,-2.80512 -56.471,-28.58738 -73.59375,-36.05078 -9.50682,-4.14372 -12.67364,-6.00558 -13.75,-8.08398 -2.03938,-3.93797 -1.79596,-4.5063 2.35156,-5.49219 3.40799,-0.81003 3.71808,-1.16161 3.4082,-3.84961 -0.18758,-1.62686 -1.17375,-4.307 -2.19336,-5.95703 -2.2243,-3.59951 -14.9688,-16.35367 -14.95898,-14.9707 0.004,0.53412 3.60377,4.91825 8,9.74414 4.39623,4.82589 7.99414,9.42415 7.99414,10.21679 0,0.97644 -1.63006,1.65707 -5.05469,2.11133 -3.70922,0.49206 -4.90709,1.03239 -4.5,2.0332 0.30512,0.75017 0.85805,2.11856 1.22852,3.03907 1.08192,2.68807 -1.18794,1.3872 -22.19336,-12.71289 -35.36261,-23.73744 -65.42423,-47.3232 -69.68164,-54.66992 l -1.70118,-2.93555 5.70118,-7.98047 c 3.13568,-4.38973 8.09594,-10.98803 11.02343,-14.66211 3.73562,-4.68828 5.14448,-7.24158 4.72461,-8.56445 -1.22156,-3.84879 -5.14152,-5.83799 -9.69336,-5.92578 z m 88.33594,43.9082 c -0.35142,-0.0227 0.0893,0.6594 1.26172,2.4707 3.67491,5.67753 4.31905,6.93228 4.94922,9.64844 0.59834,2.57915 0.42978,2.75 -2.70703,2.75 -2.32999,0 -4.08072,-0.79761 -5.76953,-2.62891 -2.30473,-2.49921 -7.61827,-5.37109 -9.9375,-5.37109 -1.40302,0 -0.29126,6.07842 2.16406,11.83203 1.01695,2.38307 1.84961,4.52058 1.84961,4.75 0,0.22942 -1.575,0.41797 -3.5,0.41797 -3.3092,0 -4.32847,0.83761 -2.83399,2.33203 0.36666,0.36661 2.16666,0.66797 4,0.66797 3.02779,0 3.33399,-0.27138 3.33399,-2.96289 0,-1.62966 -0.89435,-5.22965 -1.98633,-8 -1.09197,-2.77036 -1.75532,-5.03711 -1.47461,-5.03711 0.28071,0 3.71952,1.61519 7.64063,3.58984 5.98077,3.01187 7.50982,3.41669 9.49609,2.51172 1.93652,-0.88237 2.25437,-1.58123 1.74023,-3.83984 -1.11897,-4.91558 -4.55703,-11.26663 -6.72656,-12.42774 -0.79297,-0.42436 -1.28916,-0.69027 -1.5,-0.70312 z m -50.71875,0.28906 c -0.60832,0.16403 3.11347,2.70824 13.5293,9.44922 13.45951,8.71079 18.28866,10.50221 11,4.08008 -4.22507,-3.72276 -15.99072,-10.48399 -22.56446,-12.9668 -1.0775,-0.40694 -1.76207,-0.61719 -1.96484,-0.5625 z m -18.89648,7.93164 c -0.14453,-0.0265 -0.23254,-0.0265 -0.26172,0.002 -0.9384,0.93841 18.36084,11.63547 27.6582,15.33007 5.79142,2.30143 10.75431,4.1979 11.0293,4.2168 1.70561,0.11036 -5.72759,-4.74489 -12.40235,-8.10156 -9.29185,-4.67278 -23.85525,-11.05227 -26.02343,-11.44727 z m 51.98047,17.08789 c -0.31987,0.0548 -0.55469,0.63515 -0.55469,1.85938 0,3.06232 0.0351,3.04614 -3.43555,1.72656 -3.15859,-1.20091 -3.41593,0.25093 -0.31445,1.77344 3.77291,1.85193 6.30188,1.08279 5.91406,-1.79883 -0.30709,-2.2817 -1.07629,-3.65175 -1.60937,-3.56055 z m -30.47071,2.79688 c -0.38213,0.27779 10.75696,9.51655 17.41211,14.29883 8.96945,6.44519 9.50391,6.78909 9.50391,6.10156 0,-0.36284 -23.15586,-18.11403 -26,-19.93164 -0.57149,-0.3651 -0.86143,-0.50844 -0.91602,-0.46875 z m 87.11133,7.30078 v 0.002 c -0.0996,0.0189 -0.14821,0.0674 -0.14258,0.1543 0.0283,0.44251 4.37409,4.06721 9.65821,8.05469 5.2841,3.98751 9.98688,7.25 10.44921,7.25 1.80493,0 0.68496,-2.40976 -2.52539,-5.4375 -3.29921,-3.11161 -15.94563,-10.28771 -17.43945,-10.02344 z m -7.46094,4.96289 1.86914,3.28711 c 1.0289,1.80794 2.04268,2.77426 2.25196,2.14648 0.20923,-0.62774 -0.63293,-2.10691 -1.8711,-3.28711 z m -13.28515,5.95703 c -0.26483,0.22224 5.42007,4.19914 17.04492,11.91992 16.00507,10.62981 16.50586,10.93996 16.50586,10.25586 0,-0.6336 -24.25643,-17.20221 -29.5,-20.15039 -2.58017,-1.45069 -3.9304,-2.12642 -4.05078,-2.02539 z m 1.01562,13.88867 c -0.27443,-0.0393 -0.28017,0.1024 0.041,0.45703 0.55369,0.61108 10.2287,7.19527 21.5,14.63282 18.21801,12.02143 22.99414,14.74025 22.99414,13.08984 0,-0.26079 -1.46249,-1.21082 -3.25,-2.11133 -1.7875,-0.90047 -8.54358,-5.43371 -15.01367,-10.07422 -9.20656,-6.60317 -24.35066,-15.7185 -26.27149,-15.99414 z"
           sodipodi:nodetypes="csccssccccccsccsssssscccccccssssscsssssssccsscccssssssssssssssssscsssssscscsssssscssssssscccsssscccsccsssssscssssss" />
      </g>
      <g
         id="g907"
         transform="matrix(1.1369813,0,0,0.92053571,64.3707,-35.915369)">
        <path
           id="path901"
           d="m 51.72503,166.38412 20.705011,5.60382 20.312483,14.29892 5.612662,16.97161 13.630744,9.75534 -0.53454,2.93997 -15.100727,-6.68174 -17.639789,-8.8199 -22.717908,-14.16528 -8.15172,-9.35443 -0.668176,-5.61267 z"
           style="color:#000000;clip-rule:nonzero;display:inline;overflow:visible;visibility:visible;opacity:1;isolation:auto;mix-blend-mode:normal;color-interpolation:sRGB;color-interpolation-filters:linearRGB;solid-color:#000000;solid-opacity:1;fill:#ffffff;fill-opacity:1;fill-rule:evenodd;stroke:none;stroke-width:0.264583px;stroke-linecap:butt;stroke-linejoin:miter;stroke-miterlimit:4;stroke-dasharray:none;stroke-dashoffset:0;stroke-opacity:1;color-rendering:auto;image-rendering:auto;shape-rendering:auto;text-rendering:auto;enable-background:accumulate" />
        <path
           sodipodi:nodetypes="csccssccccccsccsssssscccccccssssscsssssssccsscccssssssssssssssssscsssssscscsssssscssssssscccsssscccsccsssssscssssss"
           transform="scale(0.26458333)"
           d="m 195.49609,628.85352 c -4.55183,-0.0878 -9.73553,1.72576 -13.48828,5.47851 -1.99108,1.99109 -4.48333,5.57229 -5.53906,7.95899 -7.60385,24.00736 4.41485,43.30526 20.08204,57.67173 13.25434,12.19287 31.76075,25.85626 52.9336,39.08203 17.51112,10.93848 27.74022,16.16776 51.6582,26.4082 11.55001,4.94506 25.68587,11.28287 31.41211,14.08399 l 10.41015,5.0957 c 0,0 80.80802,51.07476 90.09375,40.53907 5.13109,-6.5305 -1.63445,-17.34678 -9.26562,-26.20508 l -51.31836,-42.42969 1.60351,-2.44922 c 2.10106,-3.20655 1.41021,-5.76956 -4.5957,-17.04101 -3.4518,-6.47812 -4.83984,-10.22316 -4.83984,-13.0586 -2.75659,-16.50746 -19.33688,-29.72077 -30.43943,-39.45123 -22.43893,-19.71855 -38.94061,-30.21549 -52.74023,-33.54688 -9.28625,-2.24182 -11.4164,-1.53543 -12.25586,4.0625 -0.54362,3.62506 -0.20221,5.35951 1.86133,9.43165 2.58568,5.10251 4.82099,6.49337 7.69726,4.7871 2.5823,-1.53188 21.79341,6.60294 32.87696,13.92188 16.85132,11.12765 34.51772,30.18443 38.9414,42.00781 1.13612,3.03651 2.98938,7.33429 4.11914,9.54883 l 2.05469,4.02539 -2.11719,6.36133 c -2.01365,6.05106 -2.03591,6.52391 -0.44531,9.67773 16.15579,19.56631 35.94196,36.15257 56.72071,50.71289 l -42.5,-21.96484 -0.0312,0.002 c -3.92327,-2.80512 -56.471,-28.58738 -73.59375,-36.05078 -9.50682,-4.14372 -12.67364,-6.00558 -13.75,-8.08398 -2.03938,-3.93797 -1.79596,-4.5063 2.35156,-5.49219 3.40799,-0.81003 3.71808,-1.16161 3.4082,-3.84961 -0.18758,-1.62686 -1.17375,-4.307 -2.19336,-5.95703 -2.2243,-3.59951 -14.9688,-16.35367 -14.95898,-14.9707 0.004,0.53412 3.60377,4.91825 8,9.74414 4.39623,4.82589 7.99414,9.42415 7.99414,10.21679 0,0.97644 -1.63006,1.65707 -5.05469,2.11133 -3.70922,0.49206 -4.90709,1.03239 -4.5,2.0332 0.30512,0.75017 0.85805,2.11856 1.22852,3.03907 1.08192,2.68807 -1.18794,1.3872 -22.19336,-12.71289 -35.36261,-23.73744 -65.42423,-47.3232 -69.68164,-54.66992 l -1.70118,-2.93555 5.70118,-7.98047 c 3.13568,-4.38973 8.09594,-10.98803 11.02343,-14.66211 3.73562,-4.68828 5.14448,-7.24158 4.72461,-8.56445 -1.22156,-3.84879 -5.14152,-5.83799 -9.69336,-5.92578 z m 88.33594,43.9082 c -0.35142,-0.0227 0.0893,0.6594 1.26172,2.4707 3.67491,5.67753 4.31905,6.93228 4.94922,9.64844 0.59834,2.57915 0.42978,2.75 -2.70703,2.75 -2.32999,0 -4.08072,-0.79761 -5.76953,-2.62891 -2.30473,-2.49921 -7.61827,-5.37109 -9.9375,-5.37109 -1.40302,0 -0.29126,6.07842 2.16406,11.83203 1.01695,2.38307 1.84961,4.52058 1.84961,4.75 0,0.22942 -1.575,0.41797 -3.5,0.41797 -3.3092,0 -4.32847,0.83761 -2.83399,2.33203 0.36666,0.36661 2.16666,0.66797 4,0.66797 3.02779,0 3.33399,-0.27138 3.33399,-2.96289 0,-1.62966 -0.89435,-5.22965 -1.98633,-8 -1.09197,-2.77036 -1.75532,-5.03711 -1.47461,-5.03711 0.28071,0 3.71952,1.61519 7.64063,3.58984 5.98077,3.01187 7.50982,3.41669 9.49609,2.51172 1.93652,-0.88237 2.25437,-1.58123 1.74023,-3.83984 -1.11897,-4.91558 -4.55703,-11.26663 -6.72656,-12.42774 -0.79297,-0.42436 -1.28916,-0.69027 -1.5,-0.70312 z m -50.71875,0.28906 c -0.60832,0.16403 3.11347,2.70824 13.5293,9.44922 13.45951,8.71079 18.28866,10.50221 11,4.08008 -4.22507,-3.72276 -15.99072,-10.48399 -22.56446,-12.9668 -1.0775,-0.40694 -1.76207,-0.61719 -1.96484,-0.5625 z m -18.89648,7.93164 c -0.14453,-0.0265 -0.23254,-0.0265 -0.26172,0.002 -0.9384,0.93841 18.36084,11.63547 27.6582,15.33007 5.79142,2.30143 10.75431,4.1979 11.0293,4.2168 1.70561,0.11036 -5.72759,-4.74489 -12.40235,-8.10156 -9.29185,-4.67278 -23.85525,-11.05227 -26.02343,-11.44727 z m 51.98047,17.08789 c -0.31987,0.0548 -0.55469,0.63515 -0.55469,1.85938 0,3.06232 0.0351,3.04614 -3.43555,1.72656 -3.15859,-1.20091 -3.41593,0.25093 -0.31445,1.77344 3.77291,1.85193 6.30188,1.08279 5.91406,-1.79883 -0.30709,-2.2817 -1.07629,-3.65175 -1.60937,-3.56055 z m -30.47071,2.79688 c -0.38213,0.27779 10.75696,9.51655 17.41211,14.29883 8.96945,6.44519 9.50391,6.78909 9.50391,6.10156 0,-0.36284 -23.15586,-18.11403 -26,-19.93164 -0.57149,-0.3651 -0.86143,-0.50844 -0.91602,-0.46875 z m 87.11133,7.30078 v 0.002 c -0.0996,0.0189 -0.14821,0.0674 -0.14258,0.1543 0.0283,0.44251 4.37409,4.06721 9.65821,8.05469 5.2841,3.98751 9.98688,7.25 10.44921,7.25 1.80493,0 0.68496,-2.40976 -2.52539,-5.4375 -3.29921,-3.11161 -15.94563,-10.28771 -17.43945,-10.02344 z m -7.46094,4.96289 1.86914,3.28711 c 1.0289,1.80794 2.04268,2.77426 2.25196,2.14648 0.20923,-0.62774 -0.63293,-2.10691 -1.8711,-3.28711 z m -13.28515,5.95703 c -0.26483,0.22224 5.42007,4.19914 17.04492,11.91992 16.00507,10.62981 16.50586,10.93996 16.50586,10.25586 0,-0.6336 -24.25643,-17.20221 -29.5,-20.15039 -2.58017,-1.45069 -3.9304,-2.12642 -4.05078,-2.02539 z m 1.01562,13.88867 c -0.27443,-0.0393 -0.28017,0.1024 0.041,0.45703 0.55369,0.61108 10.2287,7.19527 21.5,14.63282 18.21801,12.02143 22.99414,14.74025 22.99414,13.08984 0,-0.26079 -1.46249,-1.21082 -3.25,-2.11133 -1.7875,-0.90047 -8.54358,-5.43371 -15.01367,-10.07422 -9.20656,-6.60317 -24.35066,-15.7185 -26.27149,-15.99414 z"
           style="fill:#000000;stroke-width:0.999999"
           id="path903" />
        <path
           transform="scale(0.26458333)"
           id="path905"
           style="fill:#000000;stroke-width:0.999999"
           d="m 195.49609,628.85352 c -4.55183,-0.0878 -9.73553,1.72576 -13.48828,5.47851 -1.99108,1.99109 -4.48333,5.57229 -5.53906,7.95899 -7.60385,24.00736 4.41485,43.30526 20.08204,57.67173 13.25434,12.19287 31.76075,25.85626 52.9336,39.08203 17.51112,10.93848 27.74022,16.16776 51.6582,26.4082 11.55001,4.94506 25.68587,11.28287 31.41211,14.08399 l 10.41015,5.0957 c 0,0 80.80802,51.07476 90.09375,40.53907 5.13109,-6.5305 -1.63445,-17.34678 -9.26562,-26.20508 l -51.31836,-42.42969 1.60351,-2.44922 c 2.10106,-3.20655 1.41021,-5.76956 -4.5957,-17.04101 -3.4518,-6.47812 -4.83984,-10.22316 -4.83984,-13.0586 -2.75659,-16.50746 -19.33688,-29.72077 -30.43943,-39.45123 -22.43893,-19.71855 -38.94061,-30.21549 -52.74023,-33.54688 -9.28625,-2.24182 -11.4164,-1.53543 -12.25586,4.0625 -0.54362,3.62506 -0.20221,5.35951 1.86133,9.43165 2.58568,5.10251 4.82099,6.49337 7.69726,4.7871 2.5823,-1.53188 21.79341,6.60294 32.87696,13.92188 16.85132,11.12765 34.51772,30.18443 38.9414,42.00781 1.13612,3.03651 2.98938,7.33429 4.11914,9.54883 l 2.05469,4.02539 -2.11719,6.36133 c -2.01365,6.05106 -2.03591,6.52391 -0.44531,9.67773 16.15579,19.56631 35.94196,36.15257 56.72071,50.71289 l -42.5,-21.96484 -0.0312,0.002 c -3.92327,-2.80512 -56.471,-28.58738 -73.59375,-36.05078 -9.50682,-4.14372 -12.67364,-6.00558 -13.75,-8.08398 -2.03938,-3.93797 -1.79596,-4.5063 2.35156,-5.49219 3.40799,-0.81003 3.71808,-1.16161 3.4082,-3.84961 -0.18758,-1.62686 -1.17375,-4.307 -2.19336,-5.95703 -2.2243,-3.59951 -14.9688,-16.35367 -14.95898,-14.9707 0.004,0.53412 3.60377,4.91825 8,9.74414 4.39623,4.82589 7.99414,9.42415 7.99414,10.21679 0,0.97644 -1.63006,1.65707 -5.05469,2.11133 -3.70922,0.49206 -4.90709,1.03239 -4.5,2.0332 0.30512,0.75017 0.85805,2.11856 1.22852,3.03907 1.08192,2.68807 -1.18794,1.3872 -22.19336,-12.71289 -35.36261,-23.73744 -65.42423,-47.3232 -69.68164,-54.66992 l -1.70118,-2.93555 5.70118,-7.98047 c 3.13568,-4.38973 8.09594,-10.98803 11.02343,-14.66211 3.73562,-4.68828 5.14448,-7.24158 4.72461,-8.56445 -1.22156,-3.84879 -5.14152,-5.83799 -9.69336,-5.92578 z m 88.33594,43.9082 c -0.35142,-0.0227 0.0893,0.6594 1.26172,2.4707 3.67491,5.67753 4.31905,6.93228 4.94922,9.64844 0.59834,2.57915 0.42978,2.75 -2.70703,2.75 -2.32999,0 -4.08072,-0.79761 -5.76953,-2.62891 -2.30473,-2.49921 -7.61827,-5.37109 -9.9375,-5.37109 -1.40302,0 -0.29126,6.07842 2.16406,11.83203 1.01695,2.38307 1.84961,4.52058 1.84961,4.75 0,0.22942 -1.575,0.41797 -3.5,0.41797 -3.3092,0 -4.32847,0.83761 -2.83399,2.33203 0.36666,0.36661 2.16666,0.66797 4,0.66797 3.02779,0 3.33399,-0.27138 3.33399,-2.96289 0,-1.62966 -0.89435,-5.22965 -1.98633,-8 -1.09197,-2.77036 -1.75532,-5.03711 -1.47461,-5.03711 0.28071,0 3.71952,1.61519 7.64063,3.58984 5.98077,3.01187 7.50982,3.41669 9.49609,2.51172 1.93652,-0.88237 2.25437,-1.58123 1.74023,-3.83984 -1.11897,-4.91558 -4.55703,-11.26663 -6.72656,-12.42774 -0.79297,-0.42436 -1.28916,-0.69027 -1.5,-0.70312 z m -50.71875,0.28906 c -0.60832,0.16403 3.11347,2.70824 13.5293,9.44922 13.45951,8.71079 18.28866,10.50221 11,4.08008 -4.22507,-3.72276 -15.99072,-10.48399 -22.56446,-12.9668 -1.0775,-0.40694 -1.76207,-0.61719 -1.96484,-0.5625 z m -18.89648,7.93164 c -0.14453,-0.0265 -0.23254,-0.0265 -0.26172,0.002 -0.9384,0.93841 18.36084,11.63547 27.6582,15.33007 5.79142,2.30143 10.75431,4.1979 11.0293,4.2168 1.70561,0.11036 -5.72759,-4.74489 -12.40235,-8.10156 -9.29185,-4.67278 -23.85525,-11.05227 -26.02343,-11.44727 z m 51.98047,17.08789 c -0.31987,0.0548 -0.55469,0.63515 -0.55469,1.85938 0,3.06232 0.0351,3.04614 -3.43555,1.72656 -3.15859,-1.20091 -3.41593,0.25093 -0.31445,1.77344 3.77291,1.85193 6.30188,1.08279 5.91406,-1.79883 -0.30709,-2.2817 -1.07629,-3.65175 -1.60937,-3.56055 z m -30.47071,2.79688 c -0.38213,0.27779 10.75696,9.51655 17.41211,14.29883 8.96945,6.44519 9.50391,6.78909 9.50391,6.10156 0,-0.36284 -23.15586,-18.11403 -26,-19.93164 -0.57149,-0.3651 -0.86143,-0.50844 -0.91602,-0.46875 z m 87.11133,7.30078 v 0.002 c -0.0996,0.0189 -0.14821,0.0674 -0.14258,0.1543 0.0283,0.44251 4.37409,4.06721 9.65821,8.05469 5.2841,3.98751 9.98688,7.25 10.44921,7.25 1.80493,0 0.68496,-2.40976 -2.52539,-5.4375 -3.29921,-3.11161 -15.94563,-10.28771 -17.43945,-10.02344 z m -7.46094,4.96289 1.86914,3.28711 c 1.0289,1.80794 2.04268,2.77426 2.25196,2.14648 0.20923,-0.62774 -0.63293,-2.10691 -1.8711,-3.28711 z m -13.28515,5.95703 c -0.26483,0.22224 5.42007,4.19914 17.04492,11.91992 16.00507,10.62981 16.50586,10.93996 16.50586,10.25586 0,-0.6336 -24.25643,-17.20221 -29.5,-20.15039 -2.58017,-1.45069 -3.9304,-2.12642 -4.05078,-2.02539 z m 1.01562,13.88867 c -0.27443,-0.0393 -0.28017,0.1024 0.041,0.45703 0.55369,0.61108 10.2287,7.19527 21.5,14.63282 18.21801,12.02143 22.99414,14.74025 22.99414,13.08984 0,-0.26079 -1.46249,-1.21082 -3.25,-2.11133 -1.7875,-0.90047 -8.54358,-5.43371 -15.01367,-10.07422 -9.20656,-6.60317 -24.35066,-15.7185 -26.27149,-15.99414 z"
           sodipodi:nodetypes="csccssccccccsccsssssscccccccssssscsssssssccsscccssssssssssssssssscsssssscscsssssscssssssscccsssscccsccsssssscssssss" />
      </g>
    </g>
  </g>
</svg>
