<?xml version="1.0" encoding="UTF-8" standalone="no"?>
<svg
   xmlns:dc="http://purl.org/dc/elements/1.1/"
   xmlns:cc="http://creativecommons.org/ns#"
   xmlns:rdf="http://www.w3.org/1999/02/22-rdf-syntax-ns#"
   xmlns:svg="http://www.w3.org/2000/svg"
   xmlns="http://www.w3.org/2000/svg"
   xmlns:sodipodi="http://sodipodi.sourceforge.net/DTD/sodipodi-0.dtd"
   xmlns:inkscape="http://www.inkscape.org/namespaces/inkscape"
   inkscape:export-ydpi="101.49903"
   inkscape:export-xdpi="101.49903"
   inkscape:export-filename="C:\Projects\vidmon\image\title.png"
   sodipodi:docname="title.svg"
   inkscape:version="1.0 (4035a4fb49, 2020-05-01)"
   id="svg840"
   version="1.1"
   viewBox="0 0 210 297"
   height="297mm"
   width="210mm">
  <defs
     id="defs834" />
  <sodipodi:namedview
     inkscape:snap-global="false"
     inkscape:window-maximized="1"
     inkscape:window-y="-8"
     inkscape:window-x="-8"
     inkscape:window-height="1017"
     inkscape:window-width="1920"
     showgrid="false"
     inkscape:document-rotation="0"
     inkscape:current-layer="layer1"
     inkscape:document-units="mm"
     inkscape:cy="540.06064"
     inkscape:cx="418.91209"
     inkscape:zoom="0.98994949"
     inkscape:pageshadow="2"
     inkscape:pageopacity="0.0"
     borderopacity="1.0"
     bordercolor="#666666"
     pagecolor="#ffffff"
     id="base" />
  <metadata
     id="metadata837">
    <rdf:RDF>
      <cc:Work
         rdf:about="">
        <dc:format>image/svg+xml</dc:format>
        <dc:type
           rdf:resource="http://purl.org/dc/dcmitype/StillImage" />
        <dc:title></dc:title>
      </cc:Work>
    </rdf:RDF>
  </metadata>
  <g
     id="layer1"
     inkscape:groupmode="layer"
     inkscape:label="Layer 1">
    <path
       d="m 136.02996,86.02007 c -0.0687,-0.0019 -0.1376,-0.0016 -0.20618,0.0011 -3.66341,0.182493 -6.1328,3.283119 -9.14674,4.92063 -0.79306,0.02726 -1.35758,-0.828931 -2.1916,-0.835609 -1.10473,-0.337286 -2.21559,0.150045 -3.29385,0.138493 -1.2513,-1.073788 -2.8138,-1.925804 -4.51498,-1.797822 -1.30293,-0.01736 -2.04506,-1.453785 -3.38326,-1.446425 -2.63195,-0.360068 -4.42667,2.008995 -6.11745,3.612701 -0.98499,0.776869 -1.63422,2.347457 -3.09439,1.99781 -1.5005,0.03529 -2.88269,0.831541 -3.86126,1.937867 -1.423541,-1.133399 -3.672962,-1.060829 -4.830199,0.422714 -2.046524,2.120003 -3.652629,4.867349 -6.494177,6.035291 -1.862122,-1.379982 -4.699409,-1.749682 -6.489528,-0.047 -0.649777,0.4753 -1.240359,1.14678 -1.650029,1.77405 -1.340323,0.0825 -2.905697,0.093 -3.802351,1.31052 -1.650783,2.06674 -1.302967,4.93666 -1.612305,7.40368 -0.191137,0.46423 0.237011,1.8159 -0.642339,1.46658 -1.867829,-0.37794 -4.237006,-1.32651 -5.800161,0.30541 -1.724795,2.22686 -2.191087,5.15766 -3.357936,7.65534 -2.493525,-1.01914 -5.366049,-2.28933 -8.033099,-1.09037 -3.008038,1.45978 -5.027249,4.35974 -6.689516,7.1608 -1.241581,2.06973 -2.10335,4.71344 -0.931725,7.01198 1.719458,2.72194 4.312356,4.76646 6.7076,6.87193 0.89861,0.74398 1.825227,1.4538 2.776059,2.12958 -1.274749,1.56694 -2.858725,3.84065 -1.678966,5.89112 0.73905,1.31448 2.283819,1.90398 3.451984,2.61741 -0.666496,1.37255 -1.925678,3.09455 -0.777214,4.57491 1.892083,2.50562 5.311473,2.78369 8.09098,3.67471 1.533207,0.33516 3.024348,0.93804 4.069,2.15181 2.054917,2.3404 5.240425,3.31419 8.286316,3.11712 1.093049,-0.28868 0.414679,1.1109 0.683162,1.73788 0.158538,1.99396 2.11532,3.36321 4.041616,3.17397 1.244397,-0.39262 0.689139,0.97687 0.818555,1.71617 0.01222,2.16351 1.281581,4.76489 3.624068,5.08238 2.486058,-0.0649 4.427094,-1.96692 6.383587,-3.27835 0.62596,-0.41772 1.229392,-0.99525 1.869139,-1.33222 1.340485,1.08292 2.849529,2.59437 4.751649,2.0562 0.84857,-0.03 1.79241,-1.31126 2.33836,-0.18603 1.35515,1.68295 3.69823,3.07502 5.85133,1.99109 1.85651,-0.75857 2.75706,-2.64524 3.7269,-4.24315 1.13211,0.0373 2.51957,0.65849 3.54811,-0.22531 0.68665,-0.43258 1.2166,-1.3529 1.91047,-1.60507 1.2482,1.83329 2.32792,4.35182 4.69739,4.91288 2.29292,0.22078 3.62265,-2.11846 4.38527,-3.92586 0.89545,2.86812 1.30175,6.14401 3.37861,8.46044 1.74832,1.35697 4.50703,0.22183 5.37228,-1.67431 0.56139,-1.05608 0.77487,-2.24638 1.09554,-3.38688 1.41937,0.32734 3.24173,0.23677 4.03904,-1.19114 0.56645,-1.0757 2.04815,-0.43302 3.07009,-0.62528 1.2122,-0.14271 1.84146,1.17613 2.97502,1.40301 1.90904,0.83961 4.04571,-0.69653 4.3124,-2.65513 0.36083,-1.36726 0.64182,-2.8642 0.89917,-4.18838 1.84906,0.88636 3.67072,2.15341 5.82962,1.94872 1.70825,0.0798 2.75624,-1.84201 2.83394,-3.34967 0.002,-0.77124 -0.27469,-1.90749 0.76481,-2.1425 1.45424,-0.98989 2.1003,-3.00551 1.41697,-4.64985 -0.73294,-2.4491 -1.66525,-4.83223 -2.50683,-7.24503 2.74498,-0.17833 5.72071,0.40317 8.28684,-0.82011 1.14602,-0.83119 1.49178,-2.33041 1.53686,-3.66954 1.84667,0.0232 4.29066,-0.44763 4.85759,-2.51148 0.50691,-2.23007 -0.41015,-4.43387 -1.72083,-6.20427 -0.52614,-0.80437 -1.06706,-1.59886 -1.5999,-2.39882 1.75418,0.0116 4.00667,-0.86112 4.11757,-2.87889 0.38925,-5.49259 0.31177,-11.02335 1.05989,-16.48892 0.53801,-5.07571 1.73543,-10.05379 2.50269,-15.09107 -0.38119,-1.999927 -2.31993,-3.459533 -4.31447,-3.585824 -7.94138,-1.221681 -15.99918,-1.376296 -24.01663,-1.620572 -1.85203,-1.972713 -4.62093,-3.173439 -7.33289,-2.579172 -0.98845,0.238906 -2.34589,0.653828 -2.9838,-0.447516 -0.98627,-1.149152 -2.64208,-1.35282 -4.06022,-1.138434 0.067,-1.993545 0.13314,-4.569862 -1.85415,-5.72213 -0.41136,-0.254777 -0.89056,-0.375502 -1.3715,-0.388162 z"
       style="font-variation-settings:normal;vector-effect:none;fill:#ffffff;fill-opacity:1;fill-rule:evenodd;stroke:none;stroke-width:1.129;stroke-linecap:round;stroke-linejoin:round;stroke-miterlimit:4;stroke-dasharray:none;stroke-dashoffset:0;stroke-opacity:1;stop-color:#000000"
       id="path1791" />
    <text
       id="text1539"
       y="135.07924"
       x="129.26785"
       style="font-size:16.9333px;line-height:100%;font-family:'Russo One';-inkscape-font-specification:'Russo One';letter-spacing:0px;word-spacing:0px;writing-mode:lr-tb;fill:none;stroke:#000000;stroke-width:0.264583px;stroke-linecap:butt;stroke-linejoin:miter;stroke-opacity:1"
       xml:space="preserve"><tspan
         style="stroke-width:0.264583px"
         y="135.07924"
         x="129.26785"
         id="tspan1537"
         sodipodi:role="line" /></text>
    <g
       id="g1789">
      <path
         style="font-variation-settings:normal;opacity:1;vector-effect:none;fill:none;fill-opacity:1;fill-rule:evenodd;stroke:#000000;stroke-width:1.129;stroke-linecap:round;stroke-linejoin:round;stroke-miterlimit:4;stroke-dasharray:none;stroke-dashoffset:0;stroke-opacity:1;stop-color:#000000;stop-opacity:1"
         d="m 118.06631,163.43531 c 1.5199,-4.75106 -0.31218,-8.00087 2.60588,-2.07133 0.31027,0.62054 0.39762,1.3473 0.73499,1.9377 0.12667,0.22168 0.40039,0.38672 0.53454,0.60136 0.15789,0.25262 0.15238,0.57204 0.26727,0.80181 1.02958,2.05915 2.3011,4.09695 3.0736,6.41446 0.0738,0.22153 0.20247,-1.01232 0.26727,-1.33634 0.14142,-0.70713 0.43214,-1.33807 0.60136,-2.07134 0.22961,-0.99499 0.80166,-2.00408 1.13589,-3.00678 0.27203,-0.8161 1.56643,-5.74378 1.87089,-5.94675 0.0578,-0.0385 1.6977,2.33541 1.87089,2.73951 0.72649,1.69516 1.59471,3.59482 1.80406,5.47902 0.13806,1.2425 0.23271,2.46764 0.53454,3.67496 0.25492,1.01968 0.66315,1.98945 1.00226,3.00678 0.16843,0.50528 0.40994,2.44336 0.46773,2.47225 0.22775,0.11387 0.38765,-3.78211 0.60135,-4.2095 0.65857,-1.31713 0.56829,-3.64326 0.86863,-5.14494 0.0928,-0.46389 0.0422,-0.94603 0.13363,-1.40316 0.018,-0.09 0.15865,-0.26727 0.0668,-0.26727 -0.12053,0 0.48023,0.92393 0.86863,1.60362 0.63133,1.10482 1.26638,2.00138 2.13815,2.87314 0.22116,0.22117 0.45358,0.38676 0.66818,0.60136 0.24121,0.24121 0.33408,0.74171 0.33408,0.60136 0,-1.53248 0.31661,-5.73609 0.53454,-7.26161 0,0 -0.41426,-3.8433 -0.28348,-3.97407 0.10444,-0.10445 0.60794,2.99077 0.95166,3.50635 0.78704,1.18056 1.82894,4.1644 2.73951,5.25708 0.081,0.0972 0.84729,0.73219 0.86862,0.66818 0.40043,-1.20127 0.82704,-2.50635 1.1359,-3.74178 0.0363,-0.14526 0.43372,-1.57079 0.53454,-1.46998 0.12987,0.12987 0.0515,0.37027 0.13363,0.53454 0.29855,0.5971 0.79683,1.12469 1.06908,1.73725 0.52712,1.18601 0.97075,2.14195 1.5368,3.27405 0.10433,0.20866 0.31152,1.00226 0.53454,1.00226 0.0577,0 0.13364,-2.23824 0.13364,-2.47224 0,-2.64706 0.46772,-5.23163 0.46772,-7.81763 0,-0.1377 0.13085,-1.40317 0.20045,-1.40317 0.18069,0 1.02963,1.15077 1.1359,1.26953 1.70409,1.90458 3.52725,3.34872 5.74629,4.54358 0.10342,0.0557 1.41832,1.09492 1.60362,1.00227 0.0563,-0.0282 -0.0891,-0.0891 -0.13364,-0.13364 -0.22549,-0.22549 -0.12311,-0.62607 -0.20045,-0.93544 -0.39631,-1.58525 -0.86571,-3.07481 -1.40317,-4.6104 -0.44208,-1.26311 -0.97673,-2.62462 -1.26953,-3.94223 -1.0123,-4.69129 0.99008,0.0829 1.67044,0.86863 0.34038,0.36875 3.43102,3.74177 3.80859,3.74177 0.0884,0 -0.35743,-0.95879 -0.40091,-1.00226 -0.21289,-0.21289 -0.95402,-2.28152 -1.06907,-2.67269 -0.41159,-1.39939 -1.31862,-2.54677 -1.73726,-3.94223 -0.3598,-1.19933 -0.96753,-2.40016 -1.26952,-3.60814 -0.18135,-0.72539 -0.18874,-1.56454 -0.40091,-2.27179 -0.0785,-0.26166 -0.50771,-1.18956 -0.4009,-1.40316 0.0359,-0.0718 0.13363,0.0891 0.20045,0.13363 0.13104,0.0874 0.32094,0.01 0.46772,0.0668 0.7836,0.30473 1.55626,0.43695 2.33861,0.73499 1.59545,0.60779 3.48796,0.9331 5.21175,1.13589 0.78941,0.0929 1.69654,-0.0215 2.47225,0.13364 0.23017,0.046 1.34803,0.25558 1.5368,0.0668 0.17686,-0.17687 -2.96244,-3.11685 -3.27405,-3.40769 -2.09454,-1.9549 -3.65033,-4.35968 -4.74404,-7.01582 -0.27908,-0.67777 -0.80181,-1.45212 -0.80181,-2.20498 0,-0.25394 0.39599,0.31836 0.60136,0.46772 0.83822,0.60962 1.64516,1.25058 2.47224,1.87089 2.02548,1.51911 4.2692,2.43864 6.54811,3.4745 0.64721,0.29419 1.28443,0.60732 1.9377,0.86863 1.9e-4,8e-5 0.60107,0.342 0.60135,0.33409 0.008,-0.22521 -0.0298,-0.44973 -0.0446,-0.67459"
         id="path1440"
         sodipodi:nodetypes="ccssssssssssssssssssssscssscssssssssscsssssccsssssssccssssssssssssc" />
      <path
         id="path1417"
         style="fill:#000000;stroke-width:0.459859"
         transform="scale(0.26458333)"
         d="m 512.02148,338.98633 c -0.76872,0.0485 -1.90691,0.30609 -3.38086,0.76953 -7.77316,4.99899 -3.60967,1.42163 -16.01367,14.25976 -3.97156,4.09772 -5.55591,5.39864 -7.94922,6.52344 -7.06318,3.31941 -15.64276,0.55956 -16.83789,-5.41601 -0.16017,-0.80088 -0.42209,-1.45291 -0.58007,-1.45117 -0.15806,0.002 -9.69829,7.46465 -11.38086,8.72851 -3.31496,2.26182 -5.72149,4.35724 -7.35938,6.16211 0.0345,-0.83706 0.0571,-1.74178 0.0566,-2.75781 0,-5.2557 -1.80416,-14.8959 -2.04492,-15.5293 -0.57143,-1.50303 -2.04728,-2.26086 -3.69727,-1.89844 -2.87297,0.631 -5.06709,3.39973 -11.04101,13.92969 -3.16154,5.57266 -5.7725,10.09911 -5.80274,10.05859 -0.0306,-0.0404 -0.1862,-6.36926 -0.3457,-14.0625 -0.15957,-7.69323 1.65472,-15.32372 1.5625,-15.41601 -0.0922,-0.0922 -8.69492,3.35069 -12.95898,9.99609 -11.99983,18.70137 -14.21749,17.79883 -16.12305,17.79883 -2.10773,0 -4.35516,-2.38123 -4.78516,-5.07031 -0.1607,-1.0051 -0.45713,-1.82813 -0.6582,-1.82813 -1.29041,0 -8.93914,10.56876 -12.42383,17.16602 l -2.21679,4.19726 c -2.67857,-1.69643 -3.60352,-7.57812 -3.60352,-7.57812 -1.98205,-4.16748 -3.82218,-8.08927 -4.08984,-8.71484 -0.51307,-1.19903 0.0216,-2.03568 -15.98633,24.98632 l -1.86914,3.1543 -0.375,-1.44726 c -0.8034,-3.10035 -5.86401,-4.34788 -8.53125,-2.10352 -2.07626,1.74701 -2.88057,4.37348 -3.53906,11.54687 -0.41632,4.53487 -0.86138,7.00387 -1.47461,8.19922 l -0.87696,1.71094 -1.30664,-3.37109 c -2.9563,-7.6266 -8.6174,-17.66308 -10.86523,-19.26368 -0.75866,-0.54019 -2.11994,-1.00284 -3.02539,-1.02929 -3.09222,-0.0876 -5.39214,3.92872 -5.34766,9.33594 0.0114,1.39109 1.09294,10.04746 2.4043,19.23632 1.31136,9.1889 2.31874,16.90498 2.23828,17.14649 -0.0805,0.24151 -0.74211,-0.96536 -1.46875,-2.68164 -3.41443,-8.06449 -9.26602,-18.00964 -15.53906,-26.40821 l -3.82227,-5.11718 -0.30664,3.625 c -0.16888,1.99408 -0.37485,6.98821 -0.45898,11.09765 -0.90423,6.30597 0.37336,8.41376 0.71679,16.78125 0.17596,2.59567 0.68259,6.83919 1.12696,9.43164 0.44431,2.5925 0.66888,4.71485 0.49804,4.71485 -0.17083,0 -1.5279,-0.53821 -3.01367,-1.19532 -3.91452,-1.73123 -9.87368,-2.92225 -14.67969,-2.93359 l -4.16406,-0.0117 -5.60937,-3.42969 c -3.08527,-1.88653 -5.60938,-3.25121 -5.60938,-3.03124 0,0.22003 0.41147,1.71309 0.91406,3.3164 0.50257,1.60331 0.91647,3.13564 0.91993,3.40625 0.003,0.27466 -1.33807,5.74017 -3.7129,6.05274 -5.86651,0.77174 -8.67878,20.06153 -0.67968,34.12695 -11.56021,-3.02221 -33.83325,-23.03051 -42.13477,-19.4375 -10.60345,3.68433 -7.0835,3.34179 -12.47851,10.59961 -5.5441,7.45839 -5.34941,3.56784 -7.69922,10.91797 -0.98737,3.08851 -2.33421,6.41034 -2.99414,7.38281 -1.63394,2.40767 -1.98437,3.48438 -1.5293,4.70312 0.284,0.76067 0.75625,1.03516 1.78125,1.03516 0.76691,0 1.39453,0.18004 1.39453,0.40039 0,1.86486 11.88533,16.56236 14.90039,18.42578 12.33667,2.17515 11.69007,11.06994 32.68555,19.35352 -0.094,0.072 -0.84092,1.13913 -4.12891,3.29883 -5.98247,3.92965 -17.01523,13.70626 -16.66211,14.76562 0.50332,1.50992 21.00697,6.9446 34.8125,9.22656 l 6.19532,1.02344 -3.89649,2.10352 c -2.14261,1.15683 -9.23733,4.95178 -15.76562,8.43359 -6.52829,3.48189 -11.70133,6.48643 -11.4961,6.67578 0.47516,0.43854 13.9087,3.635 22.90625,5.45117 11.3572,2.29248 25.8665,4.6054 35.2832,5.625 2.96545,0.32107 5.29995,0.67681 5.1875,0.78907 -0.11236,0.1124 -4.56395,1.07932 -9.89062,2.14843 -5.32669,1.06916 -9.80543,2.06511 -9.95312,2.21289 -0.35655,0.35657 1.3509,3.0809 2.9375,4.6875 3.13518,3.17473 11.09403,5.5331 17.36328,5.14649 3.29817,-0.20338 12.01712,-1.95936 15.63476,-3.14844 0.75876,-0.24941 3.73225,-0.57417 6.60742,-0.72265 5.03607,-0.26041 5.21201,-0.2382 4.77149,0.60546 -0.56645,1.08488 -9.3086,21.71471 -9.3086,21.9668 0,0.3617 7.12183,-1.17229 10.76368,-2.31836 2.04683,-0.64411 5.74986,-2.18383 8.22851,-3.41992 2.47865,-1.23613 4.58847,-2.24805 4.68946,-2.24805 0.10084,0 -0.0958,0.67412 -0.4375,1.4961 -0.34174,0.82204 -1.10122,3.25247 -1.6875,5.40234 -0.98695,4.31071 -0.46518,7.14273 -2.36329,12.44336 l 0.0527,6.95117 c 0.0286,3.82413 0.1502,7.05251 0.27148,7.17383 0.32867,0.32863 4.35478,-2.3548 10.82227,-7.21289 8.31643,-6.24688 13.17332,-10.4507 20.63086,-17.86133 3.62693,-3.60416 6.65242,-6.55273 6.72461,-6.55273 0.072,0 0.2632,0.67217 0.42383,1.49414 0.16035,0.82201 1.13264,4.60423 2.1621,8.40625 1.93913,7.89625 2.83324,23.76514 10.69532,1.06445 1.21281,-3.56145 1.70841,-4.43484 3.01367,-5.31445 1.86538,-1.25711 3.73579,-1.34937 5.0293,-0.24805 0.58458,0.49776 2.00841,3.90478 3.73437,8.92773 1.53483,4.46684 3.09811,8.70764 3.47266,9.42579 0.37466,0.71811 0.68219,1.54497 0.68359,1.83789 0.002,0.29295 0.92597,1.48315 2.05469,2.64453 2.34039,2.40812 3.94613,2.72153 5.93359,1.1582 2.1789,-1.71394 3.41651,-4.56167 4.88281,-11.23828 1.73496,-7.90016 5.05292,-22.28567 5.34961,-23.19336 0.129,-0.3947 1.06567,0.81981 2.29493,2.97656 2.52476,4.42984 6.26248,9.61858 9.59765,13.32422 l 2.48438,2.75977 1.23047,-2.75977 c 5.75849,-17.46249 10.44976,-15.38918 4.23242,-24.83398 -1.53326,6.56823 -5.86719,21.21656 -5.86719,21.625 0,0.13394 -0.60158,-0.0675 -1.33594,-0.44727 -1.69122,-0.87454 -2.87755,-2.84585 -4.16406,-6.91992 -1.16164,-3.67869 -2.53465,-5.69321 -5.19336,-7.61914 -2.35071,-1.70287 -3.95711,-1.72773 -5.49023,-0.084 -2.13003,2.28371 -2.17995,2.45219 -7.03907,23.3379 -1.17687,5.05843 -2.32842,9.39192 -2.55859,9.6289 -0.59796,0.61527 -2.65406,-1.43623 -3.6582,-3.65039 -1.03469,-2.28147 -3.33013,-8.65425 -4.57227,-12.69336 -0.95902,-3.11856 -2.8843,-5.97498 -5.29492,-7.85351 -1.09342,-0.85199 -1.938,-1.06641 -4.20508,-1.06641 -3.61062,0 -4.28952,0.59478 -5.92969,5.19727 -0.69399,1.94735 -1.98238,4.85601 -2.86328,6.46484 L 386.625,637.5 l -0.98438,-0.98438 c -0.86995,-0.86995 -1.01087,-1.6586 -1.23046,-6.83398 -0.20323,-4.79218 -0.42949,-6.19364 -1.2461,-7.74805 -1.0758,-2.04782 -1.73752,-2.4707 -3.86328,-2.4707 -2.35666,0 -1.70603,-0.53312 -24.93945,20.44727 -4.75159,4.29082 -9.03504,8.08052 -9.51953,8.41992 -0.84568,0.59221 -0.88237,0.47107 -0.87891,-2.97461 0.006,-7.66783 2.12928,-17.27975 5.52149,-24.98828 1.00807,-2.29089 1.83398,-4.25777 1.83398,-4.37305 0,-0.43427 -1.75875,-0.17222 -6.41992,0.95703 -4.71179,1.14149 -11.29931,3.92818 -15.72656,6.65235 -1.2247,0.75356 -2.22657,1.25835 -2.22657,1.12304 0,-0.13519 1.86237,-5.17088 4.13867,-11.1914 2.27631,-6.02053 4.13868,-11.15057 4.13868,-11.40039 0,-0.26446 -1.39344,-0.10877 -3.33985,0.37304 -10.14694,2.51173 -24.86611,3.35837 -35.28711,2.0293 -6.26393,-0.79892 -9.16964,-1.58883 -5.95117,-1.61523 2.04148,-0.0175 8.18012,-1.60384 11.23828,-2.9043 2.66215,-1.13205 6.92789,-3.55547 8.50196,-4.83008 l 1.08789,-0.88086 -3.41602,-0.7793 c -6.23167,-1.42393 -18.93517,-3.88414 -27.55664,-5.33593 -7.43555,-1.25212 -32.42151,-4.59023 -34.44531,-4.60157 -0.40403,-0.002 1.54207,-0.93396 4.32422,-2.07031 7.97266,-3.25644 18.55459,-9.65074 24.52929,-14.82226 l 1.9961,-1.72657 -20.16016,-4.7832 c -11.0882,-2.63017 -20.55173,-4.92134 -21.0293,-5.0918 -0.72808,-0.25991 -0.25119,-0.85437 2.95508,-3.67968 2.10299,-1.85311 6.63245,-5.21251 10.06446,-7.46485 5.99818,-3.93649 5.00508,-3.55405 5.66992,-2.70312 7.75856,9.93037 10.61208,11.20213 24.13672,25.03906 l 9.3789,9.5957 2.61328,-0.18945 c 3.57623,-0.26003 9.28476,-3.20453 18.91211,-9.75195 4.18715,-2.84765 9.12159,-6.06912 10.96485,-7.16016 1.84325,-1.09096 3.54965,-2.35583 3.79296,-2.81055 0.74764,-1.39695 0.50854,-3.17126 -1.33007,-9.85547 -0.97399,-3.54092 -2.67207,1.56533 -2.5586,-6.6582 -0.56794,-15.86314 5.02034,0.79355 7.13282,1.53906 10.42908,3.68069 17.63707,3.82024 26.32031,0.92969 4.3164,-1.43686 9.65705,-4.89292 12.02539,-7.7832 l 1.72265,-2.10352 1.04883,2.26367 c 1.96037,4.23126 4.33905,4.81329 7.96485,1.94727 1.26524,-1.00014 2.43608,-2.03993 2.60351,-2.31055 0.16736,-0.27076 1.76895,-1.22963 3.5586,-2.13086 11.99618,-5.17833 8.73543,-8.85457 0.98831,-5.64257 -1.96592,0.81841 -5.1914,2.56959 -7.16797,3.89257 -3.29755,2.20717 -3.63101,2.33559 -4.04688,1.5586 -0.24925,-0.46575 -0.45312,-2.36536 -0.45312,-4.22266 0,-3.77004 -0.75081,-5.42187 -2.4668,-5.42187 -1.57415,0 -2.38944,0.8661 -3.9375,4.18554 -1.81204,3.88555 -4.78229,6.8071 -9.3164,9.16602 -9.93017,3.74865 -17.56221,3.94538 -23.35743,2.71289 -5.79522,-1.23249 -7.75317,-11.89512 -10.33398,-13.86719 -2.58081,-1.97208 -3.78534,-3.25255 -4.07227,-1.72265 -0.28694,1.5299 -3.06687,13.41602 -1.98046,22.68945 2.42331,7.39139 3.85113,7.57218 0.8125,9.67969 -8.62685,5.98329 -18.6144,12.50827 -20.97071,13.70117 v 0.002 c -1.50417,0.7615 -3.49125,1.65039 -4.41601,1.97656 l -1.68164,0.59375 -11.2754,-11.33789 c -18.33609,-21.99239 -36.99099,-37.48573 -55.88476,-45.13672 h -2.87305 l -2.76758,-2.76757 c -3.39927,-3.39927 -7.51129,-8.92971 -9.62695,-12.94727 l -1.58789,-3.01367 1.76953,-5.23633 c 2.32854,-6.89522 10.19364,-19.58254 17.24219,-19.64258 10.59362,-0.0902 43.26945,19.86278 48.50977,25.36328 6.35748,6.67316 -4.48893,-13.60364 -7.29297,-25.93945 -2.03416,-8.94888 2.83135,-20.47242 12.16406,-21.16211 6.80368,-0.50283 15.20353,4.3452 19.20898,5.06641 8.58474,5.59847 7.99134,22.93724 11.53125,24.125 3.53991,1.18777 9.2492,1.04576 16.8711,-2.25112 1.77396,-0.76733 5.54849,-6.35549 8.16489,-7.78237 2.61642,-1.42689 3.31552,-11.22268 -0.66099,-16.21065 -2.63368,-5.56574 -2.37878,-7.70031 1.09961,-9.25196 1.07156,-0.47799 3.08676,-1.80015 4.47852,-2.93945 1.39178,-1.1393 3.35815,-2.50195 4.36914,-3.02734 1.01099,-0.5254 2.88765,-2.05699 4.17187,-3.40235 1.60105,-1.67716 3.19117,-2.79354 5.0586,-3.55273 5.08025,-2.06536 9.12438,-4.28553 12.52734,-6.88086 1.86595,-1.42307 4.55564,-3.47076 5.97656,-4.54883 2.91379,-2.21076 4.77485,-2.86179 8.19336,-2.86523 1.92548,-0.002 2.40345,0.1576 2.58789,0.86328 0.12443,0.4758 1.75199,1.75014 3.61719,2.83203 0,0 11.74515,-2.93242 -6.35937,-8.39063 l -6.07422,-0.002 -2.66407,2.30469 c -4.38442,3.7943 -12.89866,9.28297 -18.46874,11.9043 -4.06188,1.91153 -5.94751,3.12446 -8.43946,5.43164 -1.83121,1.69542 -5.46674,4.28098 -8.4707,6.02539 -6.87119,3.99004 -7.75195,10.10285 -7.75195,14.80273 9.87278,11.7733 -3.49833,26.65463 -14.6423,22.524 l -6.16044,-23.3033 -0.96484,-5.88671 c -1.47552,-9.00647 -2.37193,-17.59776 -2.63086,-25.19922 -0.12924,-3.79386 -0.31275,-7.67458 -0.40625,-8.62305 -0.0936,-0.94843 0.0172,-1.72461 0.24609,-1.72461 0.22885,0 0.41602,0.24678 0.41602,0.54688 0,1.07656 7.35857,15.4224 10.48242,20.4375 3.70933,5.95506 9.70272,14.16852 10.07031,13.80078 0.1393,-0.13932 0.53399,-1.45197 0.87891,-2.91797 1.22499,-5.20607 0.73441,-9.95019 -2.44141,-23.55664 -2.10546,-9.02068 -2.30107,-15.03805 -0.64258,-19.80664 0.57177,-1.64398 1.19168,-3.14709 1.37696,-3.33985 0.18525,-0.19256 0.81876,0.84363 1.4082,2.30078 2.60275,6.43431 9.07426,16.43151 13.2793,20.51563 l 1.82422,1.77344 0.70703,-2.46289 c 0.38842,-1.35421 1.86594,-6.79778 3.2832,-12.09766 1.41724,-5.29992 2.63854,-9.69904 2.71484,-9.77539 0.0763,-0.0763 0.40267,0.74184 0.72461,1.81836 1.1106,3.71391 4.06819,8.56021 4.90821,8.04101 0.22845,-0.14116 4.34369,-6.67272 9.14453,-14.51562 l 8.72851,-14.25977 0.70899,3.32032 c 0.96468,4.5267 2.66382,7.33045 5.01562,8.27148 4.34342,1.7379 7.31944,-0.90695 10.04883,-8.93164 1.20034,-3.52904 2.49397,-5.98811 4.44141,-8.44531 0.38626,-0.48739 0.7565,-0.79736 0.82226,-0.68946 0.0658,0.10799 0.43077,0.81546 0.8125,1.57422 1.53498,3.05099 7.35508,4.38418 11.26367,2.58008 3.04865,-1.40716 5.17006,-4.02892 8.40235,-10.38281 2.46622,-4.84793 3.59952,-6.52947 6.05273,-8.98047 2.44754,-2.44533 4.9599,-4.15042 5.9668,-4.12109 0.14384,0.004 0.25609,0.0432 0.33398,0.12109 0.70334,0.70334 0.082,5.78011 -1.19531,9.76758 -1.58007,4.93274 -1.80252,8.64728 -0.6543,10.92383 2.17361,4.30951 5.32136,5.27347 8.09375,2.47851 0.83044,-0.8372 3.99449,-6.04217 7.0293,-11.5664 6.41023,-11.67014 4.79187,-9.41272 5.36719,3.11132 1.37298,6.9151 3.42167,11.36671 4.76562,10.1211 2.21844,0.004 6.67199,-2.60759 11.93555,-9.10938 3.47989,-4.29967 6.47515,-7.87509 6.6543,-7.94531 0.17918,-0.0702 0.58934,0.75594 0.91211,1.83789 0.7951,2.66433 3.49387,5.15887 6.66406,6.1582 2.34421,0.7389 2.76932,0.74266 6.26172,0.0547 5.21234,-1.02689 7.74231,-2.71715 14.62304,-9.76367 6.35116,-6.50411 8.75482,-8.58331 12.2129,-10.56055 1.21613,-0.69457 1.77564,-0.97746 1.95312,-0.91015 0.10649,0.0404 0.0759,0.20641 -0.0332,0.48632 -1.92306,4.93235 -4.7594,14.52368 -5.83203,19.72266 -1.33524,6.47196 -2.57716,16.15526 -2.12891,16.60352 0.38672,0.38672 7.74523,-2.81269 12.38672,-5.38672 4.6862,-2.59885 7.05181,-4.137 11.05664,-7.1875 1.45432,-1.10777 2.64258,-1.84686 2.64258,-1.64258 0,0.80955 -5.15454,15.78006 -5.44141,15.80273 -0.16864,0.0138 -3.297,0.19731 -6.95312,0.40821 -6.39995,0.36914 -6.68735,0.42776 -7.69532,1.59961 -0.57581,0.66943 -1.37554,2.34829 -1.77734,3.73047 -0.4018,1.38212 -0.87749,2.51367 -1.05664,2.51367 -2.85823,0 -12.66096,1.71501 -15.78516,2.76172 -4.69916,1.57436 -10.87483,4.58576 -11.91015,5.80859 -0.39852,0.4707 -4.52331,1.54808 -4.84608,3.31856 -0.3227,1.77045 -3.15666,4.44247 -3.28478,5.01152 l -0.21875,7.24414 c 1.1201,1.28825 2.4536,1.48128 3.28906,0.47461 0.30731,-0.37025 0.74267,-1.97456 0.9668,-3.56446 0.93811,-6.64917 7.10681,-6.97758 12.08203,-11.84765 1.61276,-1.57867 9.7466,-3.38167 19.70898,-4.36914 3.68138,-0.36492 4.26181,-0.89114 5.08594,-4.61719 l 0.60742,-2.75 2.75,-0.125 c 4.6416,-0.20942 13.4889,-1.46025 17.28906,-2.44531 1.98445,-0.51455 4.35665,-0.87159 5.27149,-0.79297 1.66326,0.14324 1.66359,0.14537 3.1582,4.51367 2.00209,5.85154 3.4299,9.17268 7.13281,16.58398 4.60396,9.21472 6.49367,12.02277 8.76172,13.02344 2.68785,1.18587 3.77032,0.72692 6.14258,-2.5957 3.36714,-4.71613 4.9951,-5.63757 11.58399,-6.5625 2.68406,-0.37674 5.27737,-0.89698 5.76171,-1.15625 1.12165,-0.6003 1.12059,-2.00851 -0.002,-3.83399 -1.20881,-1.96617 -4.39249,-10.11821 -5.05859,-12.95312 -0.61871,-2.63289 -0.26565,-4.04796 1.62695,-6.5293 l 1.14063,-1.49609 7.44921,-0.0215 c 4.09713,-0.0123 9.51961,-0.21608 12.04883,-0.45117 2.52922,-0.23508 8.22929,-0.56385 12.66797,-0.73242 8.91436,-0.33823 9.68104,-0.25219 27.08399,3.08203 9.2104,1.76353 9.61515,1.80274 19.79296,1.80274 h 10.38868 l -2.875,22.64648 c -1.58121,12.45645 -3.08353,25.23495 -3.33789,28.39649 -0.25425,3.16153 -0.87255,7.71442 -1.375,10.11718 -0.85762,4.10094 -1.30299,8.54861 -3.01368,30.1211 -0.38105,4.80551 -0.81196,9.82448 -0.95898,11.15234 l -0.26758,2.41406 h -5.68945 c -5.63913,0 -24.23229,-0.86547 -24.50781,-1.14062 -0.49936,-0.49898 -0.57066,-5.57834 -0.10547,-7.51758 0.70703,-2.94728 0.38034,-3.94231 -1.60157,-4.88281 -2.10292,-0.99814 -9.93121,-1.46612 -13.41601,-0.80274 -1.46767,0.27939 -4.6864,0.62509 -7.15234,0.76758 l -4.48243,0.25781 v -3.15625 c 0,-4.20839 -0.71482,-4.93069 -4.47851,-4.52734 -2.76688,0.29658 -8.9332,2.47045 -11.49024,4.05078 -1.66889,1.03147 -2.67562,3.73841 -2.28515,6.14453 0.12774,0.77688 0.13238,1.92854 0.0117,2.56055 l -0.22071,1.15039 -6.05859,-0.16211 c -33.08077,-0.88218 -30.37434,-0.44145 -31.98438,-5.20898 -1.38111,-4.08972 -1.92004,-4.54883 -5.35351,-4.54883 -2.69575,0 -3.0722,-0.14279 -6.6582,-2.5293 -3.64551,-2.42627 -5.27961,-2.94464 -7.08985,-2.25 -1.17596,0.45128 -0.86371,1.76491 1.57227,6.61914 1.26459,2.52004 2.29882,4.65658 2.29882,4.74805 0,0.0913 -3.77671,0.30365 -8.39257,0.4707 -7.79454,0.28216 -29.9722,-6.67553 -35.54297,-5.90625 0.38195,2.98465 0.44218,2.06263 0.10547,4.29688 -0.0351,0.0429 -0.0652,0.0927 -0.0996,0.13672 1.37339,-0.0715 13.12647,2.36333 15.6914,2.11535 4.52882,-0.43786 13.6462,4.38497 20.25977,4.07996 8.63573,-0.39814 12.23097,-0.72714 12.75977,-1.16602 0.92385,-0.76679 0.9387,-2.34384 0.041,-4.49218 -0.38294,-0.9159 -0.62397,-1.73736 -0.53516,-1.82618 0.0887,-0.0887 0.82791,0.17172 1.64258,0.57813 0.82477,0.41132 2.17246,0.65793 3.03907,0.55664 1.47872,-0.17261 1.59351,-0.0785 2.33203,1.90625 1.08676,2.92086 2.79744,5.05972 4.67382,5.84375 1.23761,0.51711 5.86244,0.77678 20.4668,1.14453 22.69644,0.57154 21.13452,0.94463 21.5,-5.13867 0.1375,-2.2876 0.44342,-3.89569 0.75977,-4 13.99541,-8.65216 -1.00689,9.55481 27.49023,2.24414 0.95707,-0.0179 1.89524,-0.0127 2.79102,0.0176 4.13382,0.13954 4.13807,0.14118 4.2832,1.40429 0.0801,0.69555 0.021,1.26368 -0.13281,1.26368 -0.15379,0 -2.97832,-0.32848 -6.27539,-0.73047 -3.297,-0.40192 -6.09277,-0.63185 -6.21485,-0.50977 -0.12211,0.12208 2.0974,2.10935 4.9336,4.41406 8.9054,7.23678 19.82489,17.21327 23.41015,21.39063 21.70244,27.4558 21.86465,28.25997 -0.77148,16.75781 46.32376,32.38954 19.39943,3.29735 11.20703,-9.71289 -2.72326,-4.25715 -8.46583,-10.721 -13.86719,-15.61133 -2.87229,-2.6005 -5.15793,-4.7933 -5.08008,-4.87304 0.0778,-0.0798 6.15167,0.0796 13.49805,0.35546 9.44704,0.35464 14.80288,0.76787 18.29883,1.41016 2.7185,0.4995 5.11036,0.9082 5.31445,0.9082 0.70568,0 0.35868,-1.16813 -1.70898,-5.74804 0,0 -1.95035,0.46757 -0.95899,-18.05078 0.46644,-8.63059 0.6345,-10.37856 2.10157,-21.72852 0.73553,-5.69076 1.46329,-11.48391 1.61523,-12.875 0.15186,-1.39109 1.303,-11.32307 2.55859,-22.07031 1.25556,-10.74728 2.28321,-19.79442 2.28321,-20.10547 0,-0.31087 0.67213,-0.74034 1.49414,-0.95313 1.1472,-0.29726 1.49414,-0.63555 1.49414,-1.45703 0,-0.87416 -0.61983,-1.54827 -1.97656,-2.15039 -0.0758,-0.0336 0.0992,-1.43185 0.39062,-3.10547 0.51799,-2.97449 0.56207,-3.04297 1.94141,-3.04297 1.73382,0 3.09375,-1.15224 3.09375,-2.62304 0,-0.82893 -0.42729,-1.29404 -1.72461,-1.87696 -1.50822,-0.67661 -3.34035,-0.75924 -14.60156,-0.65039 -12.79325,0.1239 -12.91737,0.11683 -19.44336,-1.26172 -14.79232,-3.12471 -17.09588,-3.40599 -27.69141,-3.39843 -15.54028,0.0131 -38.31754,0.6766 -39.20313,1.14258 -0.44264,0.23285 -0.80468,0.91372 -0.80468,1.51171 0,0.598 -0.72414,2.16309 -1.60938,3.47852 -2.02964,3.01606 -2.15113,5.82424 -0.46094,10.66211 0.63187,1.80835 1.06412,3.37338 0.96094,3.47656 -0.31196,0.31196 -18.30353,4.30976 -18.50195,4.11133 -0.16728,-0.16732 2.45371,-4.58411 11.57617,-19.50391 l 3.15625,-5.16211 c 2.11914,-5.32031 2.13173,-3.41141 2.11914,-5.32031 0,-2.86875 -2.24078,-4.89708 -5.71484,-5.16992 -2.63872,-0.20724 -11.26356,1.51873 -17.04688,3.41211 -4.89879,1.6038 -11.10193,4.5235 -15.75,7.41211 -2.0866,1.29672 -3.79492,2.18393 -3.79492,1.97265 0,-0.2113 1.66186,-4.57369 3.69336,-9.69531 2.03153,-5.1216 3.61106,-9.39476 3.50977,-9.49609 -0.65972,-0.65971 -15.65859,7.39008 -23.3711,12.54297 -2.81548,1.88109 -5.21404,3.32509 -5.33008,3.20898 -0.11614,-0.11614 1.98395,-8.57908 4.66602,-18.80664 2.68207,-10.22756 4.87695,-18.82876 4.87695,-19.11328 0,-0.37027 -0.39924,-0.53091 -1.16797,-0.48242 z m 51.75782,32.64453 c 0.58537,-0.0223 0.91406,0.0155 0.91406,0.12305 0,0.15015 -0.90098,1.7804 -2.00195,3.62304 -3.69959,6.19167 -13.78998,23.5739 -14.28907,24.61524 v 0.002 c -0.27178,0.56712 -0.61998,1.03147 -0.77343,1.0332 -0.41957,0.005 -3.98087,-8.27225 -6.0293,-14.01562 -0.99326,-2.78491 -2.13291,-5.42652 -2.5332,-5.86914 -0.55643,-0.61538 -1.49583,-0.81144 -3.99024,-0.83789 l -3.26367,-0.0332 2.07031,-0.94531 c 4.14354,-1.8937 14.15688,-5.02494 19.54297,-6.10937 4.52035,-0.91014 8.59741,-1.51892 10.35352,-1.58594 z m 71.39453,19.28125 c -1.09425,0 -1.49195,0.27047 -1.86914,1.26562 -0.26351,0.69551 -0.58722,6.20767 -0.71875,12.25 -0.13142,6.04234 -0.41505,11.1631 -0.63086,11.37891 -0.45959,0.45959 -7.35486,-10.20082 -9.32422,-14.41602 -0.74264,-1.58943 -1.55366,-4.33557 -1.80274,-6.10156 -0.29879,-2.11846 -0.724,-3.40836 -1.25,-3.79297 -0.91134,-0.66652 -10.77927,-0.74586 -21.77539,-0.17382 -4.92139,0.25602 -7.06936,0.55682 -8.19921,1.14843 -4.34094,2.27316 -2.95033,9.93946 1.80273,9.93946 h 1.79883 v 4.75586 c 0,5.5008 0.0808,5.639 4.25195,7.19726 5.58777,2.08755 10.31133,8.39386 11.36914,15.17774 0.62525,4.012 0.59936,15.45658 -0.043,18.48632 -0.71316,3.36461 -1.97763,5.71063 -4.55859,8.45899 -3.08137,3.28127 -3.89964,6.95234 -2.70508,12.13672 0.81736,3.54761 1.12533,3.6912 7.73633,3.63867 3.18554,-0.025 6.29087,-0.18501 6.90039,-0.35547 2.67621,-0.74865 3.53049,-3.68783 4.02734,-13.85352 0.26336,-5.38801 0.40815,-6.3592 0.75586,-5.05859 2.15626,8.06547 3.45957,12.04672 5.4668,16.70703 1.93243,4.4866 2.40486,6.13019 2.70117,9.38281 0.47218,5.18038 1.29544,6.11194 5.80078,6.57032 4.82208,0.49047 9.61907,0.49597 10.89258,0.0117 1.70718,-0.64906 2.01093,-1.57808 2.57813,-7.86329 0.49311,-5.46444 1.06632,-9.55933 4.18164,-29.86718 1.04213,-6.7934 1.53709,-12.36665 2.04101,-22.99219 0.60488,-12.75523 1.17366,-20.28516 1.8711,-24.78711 0.16013,-1.03393 0.0273,-1.95135 -0.35157,-2.44141 -0.70476,-0.91169 -18.84452,-6.80273 -20.94726,-6.80273 z m -115.28125,1.02148 c -1.23009,0.15437 -1.18579,2.1262 -1.1875,8.73633 -10e-4,4.6238 -0.13713,10.42803 -0.30078,12.89844 -0.28468,4.2991 -0.33331,4.46009 -1.13086,3.73828 -1.21947,-1.10358 -2.16797,-3.93067 -3.14063,-9.35547 -1.1653,-6.49931 -1.47249,-6.70636 -7.41406,-5.04492 -2.43231,0.68013 -5.3407,1.02246 -10.08594,1.19141 -5.36307,0.19082 -6.77984,0.38199 -7.24219,0.97265 -1.06743,1.36373 -0.62263,19.98553 0.83204,34.81836 0.68341,6.96847 1.03644,8.07117 3.18945,10.00391 2.15138,1.93137 2.28728,2.75023 0.64844,3.88476 -3.21544,2.22603 -3.10441,1.84642 -2.81641,9.73633 0.30399,8.32827 0.53968,8.79492 4.44922,8.79492 1.34593,0 4.20601,0.70232 7.49609,1.83985 7.70805,2.66498 10.8898,2.51249 11.98243,-0.57032 0.15566,-0.43924 0.0706,-4.95271 -0.18946,-10.02929 -0.25965,-5.07663 -0.40623,-9.42974 -0.32422,-9.67578 0.082,-0.24594 1.32821,0.99548 2.76953,2.75976 3.32021,4.06413 6.90089,6.9375 8.64454,6.9375 1.51498,0 2.87163,-1.47997 3.71484,-4.05273 0.71497,-2.18147 1.75102,-3.76367 2.46289,-3.76367 0.81373,0 5.52337,10.71324 8.55859,19.46875 1.69573,4.89165 2.08617,5.15934 8.04297,5.51953 2.76854,0.16735 6.27542,0.59426 7.79297,0.94726 v 0.002 c 5.98745,1.39305 11.26758,0.6953 11.26758,-1.48829 0,-0.43557 -2.84652,-3.57923 -6.32422,-6.98632 -7.42654,-7.2759 -10.45009,-11.11474 -13.21289,-16.77149 -2.96066,-6.06198 -3.63319,-9.02625 -3.64453,-16.0957 -0.01,-5.74964 0.0466,-6.10479 1.46875,-9.28711 0.81328,-1.8198 1.48192,-3.99229 1.48437,-4.82812 0.006,-1.68564 -2.05452,-7.01964 -8.67187,-22.44336 l -4.43945,-10.34766 -4.82813,-0.0117 c -3.45373,-0.007 -5.5207,-0.2465 -7.25976,-0.8457 -1.20885,-0.41651 -2.03267,-0.72251 -2.5918,-0.65235 z m 85.5957,2.19922 h 11.51758 l 0.48047,1.26367 c 0.26445,0.69555 0.61407,2.06789 0.77734,3.04883 0.45411,2.73041 2.04806,5.93605 6.17383,12.41016 3.88774,6.10061 5.2243,8.89852 6.0293,12.62109 0.82975,3.83736 1.3606,4.74909 2.66601,4.59375 0.7979,-0.0951 1.26359,-0.50398 1.47071,-1.28906 0.16675,-0.63235 0.57767,-8.23584 0.9121,-16.89844 0.43061,-11.15705 0.76016,-15.75 1.13282,-15.75 0.28921,0 2.27318,0.64241 4.4082,1.42969 2.13502,0.78731 5.81709,2.04403 8.18164,2.79102 l 4.29883,1.35742 -0.26953,1.46484 c -0.44504,2.41531 -1.13241,11.8628 -1.66211,22.84766 -0.55805,11.57181 -1.11546,16.61245 -3.71094,33.56836 -0.98721,6.44953 -2.03767,14.41707 -2.33398,17.70508 -0.3586,3.98122 -0.76841,6.2473 -1.22657,6.7832 -0.57206,0.66909 -1.48098,0.80469 -5.39453,0.80469 -6.16301,0 -6.42756,-0.21033 -7.06445,-5.64454 -0.3628,-3.09622 -0.99941,-5.29153 -2.73633,-9.42773 -2.84598,-6.77722 -3.75101,-9.72282 -5.77344,-18.80469 -3.04803,-13.68782 -4.03355,-16.47921 -5.70312,-16.15039 -0.71093,0.14003 -0.76239,1.26928 -0.61914,13.47852 0.0917,7.81738 -0.0492,14.94141 -0.33985,17.23437 -0.66934,5.27981 -0.97945,5.51953 -7.17187,5.51953 -5.32936,0 -5.27382,0.0434 -5.28516,-4.03906 -0.008,-2.59551 0.90396,-4.66651 3.11914,-7.08594 4.41948,-4.82713 5.60036,-10.94664 4.75586,-24.63476 -0.3897,-6.31616 -0.63314,-7.85453 -1.57031,-9.88867 -1.62058,-3.51761 -6.14594,-8.94147 -8.96094,-10.74219 -1.33598,-0.85463 -2.66317,-2.0713 -2.95117,-2.70313 -0.28792,-0.63186 -0.79309,-1.14843 -1.12305,-1.14843 -1.05368,0 -1.67705,-1.87076 -1.40039,-4.20704 0.47891,-4.04347 -0.88494,-5.91015 -4.32031,-5.91015 -1.22079,0 -1.34961,-0.14555 -1.34961,-1.52149 0,-1.32185 0.23062,-1.62244 1.76367,-2.29882 1.50377,-0.66339 3.46221,-0.77735 13.2793,-0.77735 z m -84.02344,1.72266 1.4375,0.28906 c 0.79038,0.15836 3.32489,0.28666 5.63282,0.28711 l 4.19726,0.002 2.4707,6.55079 c 1.35871,3.60365 3.99722,10.12819 5.86329,14.49804 1.86606,4.36985 3.39257,8.22474 3.39257,8.56641 0,0.34186 -0.57007,1.83736 -1.26562,3.32226 -1.18723,2.53459 -1.27397,3.15268 -1.41797,10.11329 l -0.15234,7.41406 1.61914,4.84179 c 1.71454,5.12383 4.4927,10.99474 6.46875,13.66993 0.65389,0.8852 3.81167,4.24792 7.01758,7.47265 l 5.83007,5.86328 -2.72656,-0.0332 c -1.4996,-0.0178 -3.54115,-0.32939 -4.53515,-0.69336 -1.09006,-0.39931 -3.31116,-0.63961 -5.59766,-0.60937 -2.08509,0.0295 -3.99955,-0.0752 -4.25391,-0.23243 -0.25425,-0.15711 -1.64236,-3.33577 -3.08398,-7.0625 -5.79228,-14.97399 -8.03533,-19.13163 -10.1875,-18.875 -0.95123,0.11343 -1.70881,0.9584 -3.63281,4.05274 -1.33675,2.14987 -2.73962,4.10734 -3.11719,4.34961 -0.91325,0.58635 -1.69107,-0.15568 -6.83399,-6.51367 -2.30747,-2.85264 -4.59357,-5.3126 -5.08007,-5.4668 -0.5147,-0.16335 -1.17966,0.0136 -1.58985,0.42383 -0.62664,0.62664 -0.64089,1.98181 -0.13281,12.20312 0.31446,6.32459 0.42077,11.74281 0.23633,12.04102 -0.54414,0.88051 -4.2394,0.25831 -8.26172,-1.39063 -2.02341,-0.82949 -4.9219,-1.63693 -6.43945,-1.79492 l -2.75782,-0.28515 -0.33398,-5.00586 c -0.18354,-2.75226 -0.18406,-5.27275 0,-5.60157 0.18414,-0.329 1.05865,-1.08513 1.94336,-1.67968 1.40878,-0.94681 1.62679,-1.35135 1.75,-3.26368 0.12276,-1.90412 -0.12529,-2.62042 -1.93164,-5.5957 -1.13915,-1.87635 -2.2813,-4.19699 -2.53907,-5.1582 -0.25756,-0.96117 -0.67816,-7.43914 -0.93554,-14.39453 -0.2575,-6.95535 -0.58319,-14.4569 -0.72266,-16.66993 l -0.2539,-4.02343 4.27148,-0.008 c 2.34864,-0.004 5.71784,-0.33155 7.48828,-0.72851 1.77045,-0.39697 4.2029,-0.83426 5.4043,-0.9707 l 2.18359,-0.24805 v 1.7168 c 0,5.98994 6.01538,17.57705 8.91016,17.16406 0.85772,-0.12238 1.01315,-0.53581 1.26562,-3.35938 0.15837,-1.77044 0.31352,-8.15875 0.34375,-14.19726 z m 48.99805,7.11328 c 0.0729,0.0731 0.26969,0.67898 0.4375,1.34766 0.30115,1.2 0.2617,1.22405 -3.06641,1.74804 -1.8545,0.29193 -3.82039,0.71382 -4.36914,0.93946 -0.54878,0.22556 -2.46316,1.79312 -4.2539,3.48242 -1.79078,1.6893 -3.25586,2.84094 -3.25586,2.56055 0,-0.28037 -0.80217,-1.01542 -1.7832,-1.63477 -1.57924,-0.99693 -3.73438,-3.67047 -3.73438,-4.63281 0,-0.19276 0.77016,-0.22739 1.71289,-0.0742 1.22978,0.19956 4.04062,-0.30666 9.94727,-1.79492 4.52795,-1.14089 8.29229,-2.01435 8.36523,-1.94141 z m 9.03516,10.96484 c -4.63079,0.0366 -9.62588,0.95024 -12.33594,2.52344 -3.41325,1.98138 -9.29241,8.79541 -13.13086,15.21875 -1.94355,3.25232 -3.78326,6.91326 -4.08789,8.13477 -0.36321,1.45576 -0.47256,4.34389 -0.31836,8.38281 0.20685,5.42037 0.37858,6.45522 1.42773,8.59961 1.53291,3.13315 4.01222,6.01634 6.25586,7.27734 0.97433,0.54762 1.99394,1.48752 2.26758,2.08789 h 0.002 c 0.42361,0.9298 0.82686,1.0918 2.72071,1.0918 6.11883,0 24.47553,-3.25253 26.83203,-4.75391 0.85882,-0.54716 3.48105,-3.00309 5.82617,-5.45703 3.10228,-3.24623 4.66463,-5.31352 5.73828,-7.58789 l 1.47657,-3.125 v -7.81836 c 0,-9.21687 -0.12714,-9.60123 -5.23438,-15.87109 -3.73096,-4.58034 -6.16668,-6.46303 -10.06836,-7.77734 -1.94372,-0.65479 -4.59262,-0.94777 -7.37109,-0.92579 z m -0.39844,3.25586 c 0.55663,-0.009 1.0977,-1.7e-4 1.61133,0.0254 6.91083,0.34337 11.48379,3.25795 15.86914,10.11328 2.50696,3.91896 3.2379,7.07129 2.92383,12.61915 -0.2442,4.31263 -0.41497,4.97642 -2.18946,8.51757 -1.44313,2.87989 -2.76171,4.66368 -5.27343,7.13477 -1.84207,1.81228 -3.83488,3.61192 -4.42774,4 -0.59286,0.38808 -4.49086,1.33708 -8.66406,2.10742 -4.17324,0.77027 -8.31199,1.36706 -9.19727,1.32813 -7.98871,-0.35105 -9.60171,-0.63058 -11.53906,-2.00391 -5.07001,-3.59399 -7.2423,-13.46804 -4.7793,-21.72461 0.39716,-1.33141 1.31718,-3.09885 2.04493,-3.92773 0.72774,-0.82885 1.83487,-2.63696 2.45898,-4.01758 1.2443,-2.75241 8.39928,-11.11846 10.37695,-12.13281 2.17792,-1.11704 6.88871,-1.97797 10.78516,-2.03907 z m -4.91406,3.64063 c -3.9865,0.0437 -5.35049,0.77385 -7.53907,4.03906 -1.07493,1.60369 -1.95312,3.42272 -1.95312,4.04102 0,0.61825 -0.31105,1.59631 -0.68945,2.17382 -1.12921,1.72343 -0.74377,9.59486 0.58984,12.05664 0.78168,1.44303 3.08572,3.42727 4.51563,3.88868 2.57259,0.83017 9.01004,0.12185 12.9121,-1.41992 4.89041,-1.93236 9.20237,-4.38941 10.09766,-5.75586 1.21693,-1.8573 0.67942,-7.63471 -0.99805,-10.7168 -1.5733,-2.89066 -3.19204,-4.28978 -4.74414,-4.10156 -1.16413,0.14116 -1.46748,0.51919 -2.35351,2.92773 -0.46076,1.25261 -0.86588,1.49733 -3.60156,2.16211 -1.6955,0.41201 -3.83469,0.86816 -4.75391,1.01367 -1.60611,0.25429 -1.68403,0.20287 -1.96485,-1.29492 -0.38221,-2.03766 -0.006,-2.91419 1.40235,-3.26758 0.93562,-0.23486 1.12321,-0.53094 1.01172,-1.59375 -0.0753,-0.71777 0.12109,-1.6152 0.43554,-1.99414 1.11247,-1.34041 0.18422,-2.18466 -2.36718,-2.1582 z m -3.53321,4.11133 c 0.13644,-6.1e-4 0.18168,1.6496 0.0996,3.66601 -0.13908,3.40883 -0.068,3.74646 1.01367,4.82813 1.45766,1.45746 3.09362,1.49433 8.58399,0.18945 2.89984,-0.6892 4.4392,-1.3142 5.25781,-2.13281 0.63663,-0.63663 1.15822,-1.33623 1.1582,-1.55469 10e-6,-0.21838 0.29329,-0.39648 0.65235,-0.39648 0.73198,0 1.90134,3.28713 2.25586,6.34375 0.22102,1.90499 0.16236,2.01775 -1.6836,3.19335 -1.05233,0.67023 -2.94826,1.65261 -4.21289,2.1836 -1.26459,0.53095 -2.93209,1.30396 -3.70507,1.7168 -0.83059,0.4436 -3.18826,0.88133 -5.76563,1.07031 l -4.36133,0.32031 -1.43554,-1.63281 c -1.23051,-1.40145 -1.47958,-2.12254 -1.75586,-5.07227 -0.21362,-2.27981 -0.13533,-4.00288 0.23242,-5.11718 0.30501,-0.92414 0.59916,-1.98836 0.65429,-2.36329 0.12053,-0.82102 2.65985,-5.24079 3.01172,-5.24218 z m -196.69726,6.02734 c -1.81662,-0.096 -9.02218,2.21572 -13.86524,5.16016 -5.92478,3.60737 -11.16888,7.08882 -11.65234,7.73632 -0.48344,0.64755 -0.91179,1.87954 -0.95312,2.73829 -0.0748,1.55569 -0.0682,1.56224 1.99414,1.55468 1.13814,-0.004 2.83343,-0.16711 3.76757,-0.36132 1.67032,-0.34757 1.70634,-0.32485 2.18164,1.38671 0.26582,0.95724 0.48496,2.98245 0.48633,4.5 0.003,2.9551 1.08222,5.6036 4.40235,10.80664 0.88765,1.3911 1.84269,3.42561 2.12109,4.52149 0.52145,2.05258 0.80295,2.27415 4.82422,3.75976 1.87541,0.69283 4.68008,3.46462 5.5332,5.46875 0.36598,0.85981 0.85217,4.06641 1.08008,7.12696 0.53202,7.14459 0.98603,11.10543 3.51367,30.62695 0.14737,1.13817 0.45487,2.43238 0.68164,2.875 0.25312,0.49406 0.94053,0.80469 1.78125,0.80469 21.74501,-7.43707 18.93652,-22.12928 0.4375,-4.13086 0,-0.24843 -0.3993,-3.71512 -0.88867,-7.70313 -0.48937,-3.98804 -1.43769,-12.32096 -2.10742,-18.51757 -1.5436,-14.28216 -2.25806,-16.1262 -7.27539,-18.77149 -2.17406,-1.14625 -5.36328,-4.04243 -5.36328,-4.87109 0,-0.33672 -1.05311,-2.2243 -2.33985,-4.19531 -3.00706,-4.60634 -3.1053,-4.895 -3.60351,-10.63282 -0.5205,-5.99433 -1.04636,-6.7919 -4.28711,-6.48047 -1.20176,0.11566 -2.18555,0.14081 -2.18555,0.0547 0,-0.0861 1.46182,-0.89344 3.24805,-1.79297 4.39697,-2.21427 13.29128,-5.137 15.40429,-6.81054 4.46472,-2.1741 4.15443,-4.79593 3.06446,-4.85352 z m -99.89258,11.24414 0.97461,0.97461 c 0.53649,0.53654 0.83419,1.20387 0.66211,1.48242 -0.69842,1.13008 -1.63672,0.39543 -1.63672,-1.28125 z m 337.73831,44.91403 c 0.081,-0.081 1.36325,0.34043 2.84766,0.93555 2.2574,0.90508 2.72205,1.28389 2.84375,2.32031 0.0801,0.68153 -0.0241,1.22606 -0.23047,1.21094 -0.4811,-0.0372 -5.6571,-4.27064 -5.46094,-4.4668 z"
         sodipodi:nodetypes="sccssccccssscsssssscccsccsssccsscsssscccccssscccssccccssssssccsscccsssscscssscsssssscccsssscccsssscsssssccccsssssscsssssccsssssccssssssssscssccscscccsssscccsscsccsccsscccssssscssscscccccccscccsssscssscsssssssssccccsssccccscssssssscscccsssscccsssssssscssssccccscssscscssssscsssssssccscsscccccsssssscscccsccsccsssccscscsccsssccccssssssscccssscsscssssccccsssccccsssssccsssscsssssccscsssssssccssssscssssssssscccsscccssssssssssscscssccssccssscsssssssssscssssssssssssscsssssssccssscscsccsssscscssssssscccsscssssssssscssssssssssscccccssscccscccccsssscscsscscccsssscscccsscsssccsssssssscsssssscsssccsssccsssssscsssssscssssssscsssssssssssscssscscssssssssscccsscssscssccscsssssssccsssssscsscsscscscssscs" />
      <path
         style="font-variation-settings:normal;opacity:1;vector-effect:none;fill:none;fill-opacity:1;fill-rule:evenodd;stroke:#000000;stroke-width:0.929;stroke-linecap:butt;stroke-linejoin:miter;stroke-miterlimit:4;stroke-dasharray:none;stroke-dashoffset:0;stroke-opacity:1;stop-color:#000000;stop-opacity:1"
         d="m 57.930668,131.42979 c 1.075786,1.19256 3.121044,1.18334 4.409948,2.47224 0.4058,0.4058 0.08678,0.16857 0.334087,0.60136 0.379727,0.66452 1.082151,0.91155 1.737251,1.20271 0.28801,0.12801 0.546286,0.38714 0.868628,0.46772 0.533339,0.13334 1.900801,0.0818 2.271791,0.26727 0.07968,0.0398 -0.02817,0.18275 0,0.26727 0.216075,0.64823 0.574747,1.37656 1.069078,1.87089 0.183664,0.18366 0.458113,0.24813 0.668174,0.4009 0.525304,0.38204 0.822714,1.16336 1.336347,1.60362 0.46914,0.40212 1.035788,0.76014 1.5368,1.1359 0.370565,0.27792 1.385512,0.60828 1.603616,0.93544 0.362037,0.54306 0.87635,1.41089 1.469983,2.00452 0.433038,0.43304 1.038555,0.77129 1.469982,1.20271 0.209791,0.20979 0.26887,0.56319 0.467723,0.80181 0.256897,0.30828 0.606816,0.54 0.868624,0.80181 0.04753,0.0475 1.100892,-0.61999 1.269532,-0.66817 3.288644,-0.76325 3.131464,-0.49572 1.202711,-3.87541 -0.04256,-0.0681 -0.133633,-0.0891 -0.200451,-0.13364 -0.06682,-0.0891 -0.145201,-0.17058 -0.200451,-0.26726 -0.223433,-0.39101 -0.267271,-1.06071 -0.267271,-1.46999 0,-1.69084 0.623493,-3.23101 0.467722,-4.94449 -0.06092,-0.67009 -0.719119,-1.35554 -0.935442,-2.00452 -0.278517,-0.83554 -0.522568,-1.70133 -0.801809,-2.53906 -0.581663,-1.74498 -0.80181,-6.98775 -0.80181,-9.15398 0,-0.59946 -4.418578,-1.6618 -4.610399,-1.46998 -0.06569,0.0657 0.04349,0.31393 0,0.40091 -0.309213,0.61842 -0.106931,1.52304 -0.06682,2.20497 0.159059,2.70398 1.174231,4.59177 2.004523,7.08264 0.14841,0.44523 0.02537,0.90333 0.133633,1.33635 0.361735,1.44694 0.600871,2.87048 0.868627,4.34313 0.234592,2.42979 1.826645,4.58304 -0.935445,1.80407 -0.722278,-0.72228 -1.660565,-1.19531 -2.472243,-1.80407 -1.821693,-1.36627 -2.615549,-3.46505 -4.409945,-4.81085 -1.921039,-1.44078 -4.383284,-2.4169 -6.68174,-3.0736 -0.307292,-0.0878 -2.397234,-1.13999 -2.672694,-1.00226 -0.178689,0.0893 -1.002263,3.23025 -1.002263,4.00904 z"
         id="path1442"
         sodipodi:nodetypes="ssssscsssssssssscccsssssssssssccssscss" />
      <path
         style="font-variation-settings:normal;opacity:1;vector-effect:none;fill:none;fill-opacity:1;fill-rule:evenodd;stroke:#000000;stroke-width:0.829;stroke-linecap:butt;stroke-linejoin:miter;stroke-miterlimit:4;stroke-dasharray:none;stroke-dashoffset:0;stroke-opacity:1;stop-color:#000000;stop-opacity:1"
         d="m 86.367558,128.7765 c 1.023792,1.97292 1.747859,2.46079 2.173364,4.64911 0.267809,1.3773 0.377976,2.66826 0.377976,4.06324 0,0.22163 -0.188254,1.70199 0,1.98437 0.247396,0.3711 4.040124,-0.0482 4.157737,-0.28348 0.223702,-0.4474 -0.270825,-1.55578 -0.377976,-1.98437 -0.328253,-1.31301 -0.30697,-2.66897 -0.661459,-3.96875 -0.372083,-1.36431 -0.835662,-2.63685 -1.039434,-4.06325 -0.08505,-0.59537 -0.123875,-2.01095 -0.472469,-2.47574 -0.586398,-0.78187 -2.448173,1.31858 -2.834822,1.5119 -0.495911,0.24796 -0.790276,0.24738 -1.322917,0.56697 z"
         id="path1444"
         sodipodi:nodetypes="cssscsssssc" />
      <path
         style="font-variation-settings:normal;opacity:1;vector-effect:none;fill:none;fill-opacity:1;fill-rule:evenodd;stroke:#000000;stroke-width:0.929;stroke-linecap:butt;stroke-linejoin:miter;stroke-miterlimit:4;stroke-dasharray:none;stroke-dashoffset:0;stroke-opacity:1;stop-color:#000000;stop-opacity:1"
         d="m 97.824527,114.86224 c 0.154612,-0.20151 0.296283,-0.41364 0.463841,-0.60452 0.52387,-0.59678 7.886712,-0.8456 9.020342,-0.46772 0.87986,0.29329 2.12393,1.7442 3.0736,2.27179 1.46356,0.81309 3.34542,1.07272 4.67722,2.13816 0.56613,0.4529 0.88657,1.97855 1.00226,2.67269 0.029,0.17394 -0.065,0.43884 0,0.60136 0.63089,1.57723 1.39905,2.38231 0.66817,4.20949 -0.69331,1.73328 0.84404,2.58301 -1.67043,4.34313 -1.01592,0.71115 -2.55298,0.90899 -3.67496,1.46999 -1.18923,0.59461 -2.55287,1.13081 -3.67495,1.80406 -1.09767,0.65861 -2.90942,1.0371 -3.94223,1.55351"
         id="path1464"
         sodipodi:nodetypes="cssssscssssc" />
      <path
         style="font-variation-settings:normal;opacity:1;vector-effect:none;fill:none;fill-opacity:1;fill-rule:evenodd;stroke:#000000;stroke-width:0.829;stroke-linecap:butt;stroke-linejoin:miter;stroke-miterlimit:4;stroke-dasharray:none;stroke-dashoffset:0;stroke-opacity:1;stop-color:#000000;stop-opacity:1"
         d="m 98.935266,118.40104 c 2.170834,3.04925 2.761774,6.75196 4.441224,10.11086 0.34099,0.682 0.12629,1.85058 1.03943,2.07887 1.57426,0.39357 2.89111,-0.58572 4.25223,-1.03943 5.99532,-1.99844 3.70813,-8.74121 0.0945,-11.1503 -0.14114,-0.0941 -0.35253,-0.30893 -0.47247,-0.18899 -0.10101,0.10101 0.0518,0.62655 0,0.75596 -0.25865,0.64661 -0.52765,1.39396 -0.75596,2.07886 -0.24225,0.72675 -1.75324,0.5187 -2.45684,0.37798 -1.70253,-0.34051 -4.74416,-3.3733 -6.142114,-3.02381 z"
         id="path1468" />
      <path
         style="font-variation-settings:normal;opacity:1;vector-effect:none;fill:none;fill-opacity:1;fill-rule:evenodd;stroke:#000000;stroke-width:1.329;stroke-linecap:round;stroke-linejoin:round;stroke-miterlimit:4;stroke-dasharray:none;stroke-dashoffset:0;stroke-opacity:1;stop-color:#000000;stop-opacity:1"
         d="m 102.19317,110.30958 c 1.07244,-1.31823 2.91884,-0.92437 4.44737,-0.58469 1.6192,0.35982 3.2629,-0.53454 4.54358,-0.53454 0.38379,0 0.19651,-0.27122 0.40091,-0.26727 0.86518,0.0167 5.78372,2.75639 5.45753,3.59739 -0.16195,0.41755 1.71807,0.49616 2.00453,1.06908 0.0827,0.16548 0.9984,-0.1513 1.60361,0 0.51888,0.12972 -0.55065,1.68196 0.41703,2.00452 0.23131,0.0771 2.74326,-1.12498 3.09508,-2.00452 0.2814,-0.70349 0.83944,-4.77678 0.2125,-3.58369"
         id="path1474"
         sodipodi:nodetypes="csssscsssc" />
      <path
         style="font-variation-settings:normal;opacity:1;vector-effect:none;fill:none;fill-opacity:1;fill-rule:evenodd;stroke:#000000;stroke-width:1.329;stroke-linecap:round;stroke-linejoin:round;stroke-miterlimit:4;stroke-dasharray:none;stroke-dashoffset:0;stroke-opacity:1;stop-color:#000000;stop-opacity:1"
         d="m 102.39121,139.31019 c 1.0259,-1.11261 2.74866,-1.7696 4.24933,-2.00047 1.03083,-0.15859 2.11677,0.0555 3.14042,-0.20045 0.73657,-0.18415 1.42133,-0.88279 2.13815,-1.00227 1.06631,-0.17771 2.9127,-0.87272 3.80859,-1.46998 1.24115,-0.82742 4.48078,-1.5242 5.46291,-2.01527 0.0232,-0.0116 0.0419,-0.2424 0.0668,-0.26727 1.9198,-3.40348 1.70606,-2.46532 3.29017,-7.27234 1.10485,0.55242 2.1756,0.72944 2.43536,1.76851"
         id="path1485"
         sodipodi:nodetypes="csssssccc" />
      <g
         id="g1593"
         transform="translate(0.1889881,2.0788691)">
        <path
           id="path1489"
           d="m 91.20729,151.55151 c 0.173804,-0.20512 0.246596,-0.8044 -0.09351,-0.83855 -0.717081,-0.072 -1.747121,0.4473 -2.083488,1.13826 -0.03753,0.077 -0.112664,0.81784 -0.05307,0.82383 0.605231,0.0608 2.810336,-0.35871 2.867104,0.64313 0.03494,0.61698 -1.322873,-0.0487 -1.586183,0.16654 -0.238229,0.19476 -0.365339,0.82174 0.02311,0.94992 0.839663,0.27704 2.760794,-0.36482 2.162833,-1.6337 -0.495152,-1.05072 -1.737103,-0.35754 -2.534266,-0.86143 -0.395984,-0.25031 1.09673,-0.42014 1.297483,-0.38799 z"
           style="font-variation-settings:normal;opacity:1;vector-effect:none;fill:none;fill-opacity:1;fill-rule:evenodd;stroke:#000000;stroke-width:0.264583;stroke-linecap:butt;stroke-linejoin:miter;stroke-miterlimit:4;stroke-dasharray:none;stroke-dashoffset:0;stroke-opacity:1;stop-color:#000000;stop-opacity:1" />
        <path
           id="path1491"
           d="m 92.627726,150.8396 c 0.428607,0.0172 1.689356,-1.25698 2.027793,-1.17346 0.03475,0.008 0.05543,0.24587 0.07172,0.31812 0.0111,0.0493 0.183136,0.0998 0.142122,0.20675 -0.111127,0.2897 -0.424522,1.28818 -0.495994,1.40124 -0.01759,0.0278 -0.118756,0.003 -0.136343,0.0307 -0.333625,0.52782 1.043018,-0.62246 1.155361,-0.59474 0.07688,0.019 0.04653,0.15569 0.09666,0.217 0.07154,0.0875 0.250131,0.22607 0.162606,0.29764 -0.295407,0.24151 -1.43372,0.72849 -1.87674,0.99613 -0.03038,0.0184 -0.224288,0.20217 -0.241952,0.19781 -0.08839,-0.0219 0.05155,-1.42171 0.136887,-1.5113 0.169027,-0.17747 0.518139,-0.45556 0.447382,-0.76944 -0.02189,-0.097 -1.354293,0.81973 -1.397307,0.79254 -0.118147,-0.0747 -0.06147,-0.2727 -0.0922,-0.40902 z"
           style="font-variation-settings:normal;opacity:1;vector-effect:none;fill:none;fill-opacity:1;fill-rule:evenodd;stroke:#000000;stroke-width:0.264583;stroke-linecap:butt;stroke-linejoin:miter;stroke-miterlimit:4;stroke-dasharray:none;stroke-dashoffset:0;stroke-opacity:1;stop-color:#000000;stop-opacity:1" />
        <path
           id="path1499"
           d="m 97.273853,149.09978 c 0.08595,-0.0213 0.170776,-0.0267 0.244845,-0.0791 0.309621,-0.21748 0.640703,-0.38874 0.968452,-0.57648 0.0055,-0.004 0.372347,-0.22529 0.350446,-0.24615 -0.375562,-0.35774 -1.078472,-0.41131 -1.557413,-0.3414 -2.930426,0.42778 -0.793012,3.61612 0.990741,2.59431 0.114095,-0.0654 0.174416,-0.24177 0.26179,-0.32168 0.167701,-0.15339 0.402808,-0.32791 0.465648,-0.58254 0.01926,-0.0778 0.04985,-0.23304 0.07998,-0.28069 0.07413,-0.11729 -0.04261,-0.51684 -0.326791,-0.2845 -0.194982,0.1594 -0.08773,0.28659 -0.192959,0.52106 -0.08836,0.19691 -0.840164,0.65106 -1.109917,0.5845 -0.130765,-0.0323 -0.315292,-0.0594 -0.386954,-0.12768 -0.141744,-0.13501 -0.309029,-0.49758 -0.269524,-0.56007 0.07471,-0.1182 0.39691,-0.24135 0.481654,-0.29961 z"
           style="font-variation-settings:normal;opacity:1;vector-effect:none;fill:none;fill-opacity:1;fill-rule:evenodd;stroke:#000000;stroke-width:0.264583;stroke-linecap:butt;stroke-linejoin:miter;stroke-miterlimit:4;stroke-dasharray:none;stroke-dashoffset:0;stroke-opacity:1;stop-color:#000000;stop-opacity:1" />
        <path
           id="path1501"
           d="m 96.554989,148.66486 c 0.160213,-0.0592 0.339711,-0.0534 0.499922,-0.11264 0.0491,-0.0185 0.404755,-0.27027 0.502155,-0.20871 0.255945,0.16178 -1.071357,0.74527 -1.129752,0.70836 -0.07665,-0.0485 0.126657,-0.34298 0.127682,-0.38696 z"
           style="font-variation-settings:normal;opacity:1;vector-effect:none;fill:none;fill-opacity:1;fill-rule:evenodd;stroke:#000000;stroke-width:0.264583;stroke-linecap:butt;stroke-linejoin:miter;stroke-miterlimit:4;stroke-dasharray:none;stroke-dashoffset:0;stroke-opacity:1;stop-color:#000000;stop-opacity:1" />
        <path
           id="path1503"
           d="m 100.88312,148.69211 c -0.1625,-0.28018 -0.42056,-0.4695 -0.61617,-0.72073 -0.12018,-0.15429 -0.358333,-0.4244 -0.393394,-0.57992 -0.01388,-0.0617 -0.18892,-0.28683 -0.132507,-0.37607 0.0643,-0.1017 0.03215,-0.25498 0.17825,-0.37446 0.360691,-0.2949 1.073031,0.15186 1.142891,-0.54418 0.004,-0.0471 -0.0944,0.0129 -0.14147,0.008 -0.23333,-0.0234 0.0268,-0.0326 -0.19716,-0.0271 -0.43328,0.0105 -0.843167,-0.037 -1.229927,0.15812 -0.211643,0.1066 -0.27291,0.37831 -0.228167,0.57675 0.01843,0.0816 -0.08919,-0.14201 -0.142134,-0.20675 -0.0096,-0.012 -0.387761,0.24354 -0.395878,0.25638 -0.08705,0.13771 0.246746,0.3768 0.317206,0.45383 0.231325,0.25291 0.481676,0.49814 0.654233,0.78377 0.134891,0.22324 0.457517,0.81532 0.583857,0.89516 0.0664,0.042 0.50443,-0.28085 0.60041,-0.30249 z"
           style="font-variation-settings:normal;opacity:1;vector-effect:none;fill:none;fill-opacity:1;fill-rule:evenodd;stroke:#000000;stroke-width:0.264583;stroke-linecap:butt;stroke-linejoin:miter;stroke-miterlimit:4;stroke-dasharray:none;stroke-dashoffset:0;stroke-opacity:1;stop-color:#000000;stop-opacity:1" />
        <path
           id="path1511"
           d="m 104.94473,145.84237 c -0.0269,-0.14062 -0.1867,-0.21025 -0.28135,-0.29475 -0.28514,-0.25457 -0.5464,-0.49704 -0.94163,-0.57572 -0.42448,-0.0845 -0.76574,0.13841 -1.08785,0.36462 -0.0913,0.0641 -0.22054,0.0886 -0.29253,0.18534 -0.29409,0.39462 -0.34567,0.98886 -0.12951,1.43801 0.16531,0.34346 0.44358,0.57417 0.76786,0.75816 1.07991,0.61273 1.98748,-0.14042 2.20513,-1.02242 0.0202,-0.0816 -0.41058,0.0451 -0.44211,0.0511 -0.25143,0.0567 -0.31574,0.26591 -0.51398,0.47404 -0.0759,0.0796 -0.36013,0.10507 -0.47206,0.13036 -0.26024,0.0587 -0.47843,-0.075 -0.63245,-0.26335 -0.15813,-0.19345 -0.22437,-0.35981 -0.22342,-0.35558 0.007,0.0304 0.0606,-0.0137 0.0909,-0.0206 0.13633,-0.0307 0.27268,-0.0615 0.40902,-0.0922 0.34422,-0.0776 1.61067,-0.48156 1.5439,-0.77784 z"
           style="font-variation-settings:normal;opacity:1;vector-effect:none;fill:none;fill-opacity:1;fill-rule:evenodd;stroke:#000000;stroke-width:0.264583;stroke-linecap:butt;stroke-linejoin:miter;stroke-miterlimit:4;stroke-dasharray:none;stroke-dashoffset:0;stroke-opacity:1;stop-color:#000000;stop-opacity:1" />
        <path
           id="path1513"
           d="m 104.20445,145.8421 c -0.24372,0.0259 -0.46505,0.1303 -0.69419,0.20422 -0.10218,0.033 -0.18461,0.0656 -0.29029,0.0892 -0.0677,0.0146 -0.3997,0.15657 -0.42152,0.1427 -0.29162,-0.18432 0.3635,-0.59631 0.49061,-0.68367 0.20945,-0.14398 0.51794,0.0298 0.7278,0.0509 0.14963,0.0151 0.22857,0.0303 0.18757,0.19649 z"
           style="font-variation-settings:normal;opacity:1;vector-effect:none;fill:none;fill-opacity:1;fill-rule:evenodd;stroke:#000000;stroke-width:0.264583;stroke-linecap:butt;stroke-linejoin:miter;stroke-miterlimit:4;stroke-dasharray:none;stroke-dashoffset:0;stroke-opacity:1;stop-color:#000000;stop-opacity:1" />
        <path
           id="path1515"
           d="m 105.86065,144.60913 c 0.52507,-0.14466 0.9846,-0.48197 1.50133,-0.64886 0.10371,-0.0335 0.41932,-0.11843 0.31302,-0.0944 -0.12084,0.0272 -0.59101,0.75263 -0.70471,0.89909 -0.28095,0.3619 -0.51525,0.64397 -0.8308,0.97525 -0.0122,0.0128 -0.0936,0.1144 -0.088,0.13925 0.0281,0.12397 0.056,0.47325 0.15078,0.56297 0.0316,0.03 1.27606,-0.28839 1.44408,-0.37327 0.2405,-0.12114 0.70809,-0.47004 0.93324,-0.52079 0.13161,-0.0297 0.34074,-0.0483 0.35334,-0.12741 0.0117,-0.0735 -0.0553,-0.24488 -0.0718,-0.31814 -0.0145,-0.0671 -0.047,-0.20524 -0.10179,-0.23971 -0.0217,-0.0138 -1.22941,0.64006 -1.30419,0.67606 -0.21916,0.10543 -0.41557,0.2492 -0.40613,0.21092 0.0972,-0.39369 0.55786,-0.81048 0.82792,-1.094 0.23793,-0.24981 0.26711,-0.65485 0.40639,-0.95122 0.10571,-0.22493 0.16414,-0.29871 0.0215,-0.43465 -0.0437,-0.0416 -0.12946,-0.0267 -0.15681,-0.0602 -0.0147,-0.0179 0.008,-0.0625 -0.0147,-0.0682 -0.055,-0.0135 -2.08808,0.74503 -2.23585,0.88608 -0.0611,0.0582 -0.19568,0.18625 -0.24932,0.27111 -0.16743,0.26488 0.0197,0.35373 0.21319,0.31011 z"
           style="font-variation-settings:normal;opacity:1;vector-effect:none;fill:none;fill-opacity:1;fill-rule:evenodd;stroke:#000000;stroke-width:0.264583;stroke-linecap:butt;stroke-linejoin:miter;stroke-miterlimit:4;stroke-dasharray:none;stroke-dashoffset:0;stroke-opacity:1;stop-color:#000000;stop-opacity:1" />
        <path
           id="path1517"
           d="m 111.7421,139.86872 c 0.23028,0.82257 0.39841,1.66138 0.58621,2.49448 0.15088,0.66935 0.21347,1.37052 0.365,2.04288 0.007,0.0264 0.0461,0.12228 0.008,0.14148 -0.0969,0.0488 -0.50502,0.11854 -0.57099,0.009 -0.0782,-0.12949 -3.8e-4,-0.4704 -0.002,-0.42952 -0.003,0.15073 -0.13957,0.2854 -0.25666,0.34439 -0.0694,0.0349 -0.11323,0.13294 -0.17379,0.18246 -0.29972,0.24503 -1.17785,0.12661 -1.45561,-0.10171 -0.26256,-0.21584 -0.67888,-1.00579 -0.56243,-1.3298 0.18449,-0.51337 0.54573,-0.94976 1.10637,-0.918 0.20159,0.012 0.43212,0.0283 0.62444,0.1219 0.0261,0.0128 0.22508,0.14029 0.22277,0.1408 -0.0315,0.007 -0.12037,-0.83877 -0.12136,-0.85613 -0.007,-0.12649 -0.29578,-1.62835 -0.29554,-1.62875 0.10681,-0.16894 0.46264,0.0384 0.5249,-0.21383 z"
           style="font-variation-settings:normal;opacity:1;vector-effect:none;fill:none;fill-opacity:1;fill-rule:evenodd;stroke:#000000;stroke-width:0.264583;stroke-linecap:butt;stroke-linejoin:miter;stroke-miterlimit:4;stroke-dasharray:none;stroke-dashoffset:0;stroke-opacity:1;stop-color:#000000;stop-opacity:1" />
        <path
           id="path1519"
           d="m 110.5469,143.14682 c 0.35594,-0.17431 0.65465,-0.015 0.88976,0.13372 0.0854,0.0539 0.15805,0.0122 0.20741,0.0726 0.0203,0.0246 0.23378,0.23945 0.16261,0.29764 -0.3344,0.2734 -0.96152,0.61788 -1.32087,0.17834 -0.05,-0.0613 -0.29231,-0.36989 -0.2263,-0.47433 0.0516,-0.0818 0.34808,-0.45396 0.28739,-0.20804 z"
           style="font-variation-settings:normal;opacity:1;vector-effect:none;fill:none;fill-opacity:1;fill-rule:evenodd;stroke:#000000;stroke-width:0.264583;stroke-linecap:butt;stroke-linejoin:miter;stroke-miterlimit:4;stroke-dasharray:none;stroke-dashoffset:0;stroke-opacity:1;stop-color:#000000;stop-opacity:1" />
        <path
           sodipodi:nodetypes="ssscscccccccccsssccccccs"
           id="path1523"
           d="m 116.96539,140.61154 c 0.12295,-0.44917 0.52522,-0.65327 0.99679,-0.53004 0.10498,0.0274 0.6825,0.43559 0.53065,0.45486 -0.0159,0.002 0.0865,-0.23804 0.10313,-0.27421 0.1272,-0.27684 0.40278,-0.40716 0.67304,-0.44146 0.67504,-0.0857 1.02252,0.63057 1.30264,1.25887 0.0381,0.0852 0.10722,0.57076 0.0936,0.58155 -0.0734,0.058 -0.47335,0.30884 -0.54459,0.21154 -0.23337,-0.31893 -0.37949,-1.23917 -0.72857,-1.39333 -0.006,-0.003 -0.12113,-0.0773 -0.14465,-0.0529 -0.38047,0.39401 0.16857,1.6291 0.0361,1.83729 -0.035,0.0551 -0.60905,0.24434 -0.62214,0.22138 -0.0935,-0.1636 -0.15541,-0.4819 -0.22469,-0.68358 -0.0421,-0.12269 -0.22123,-0.63617 -0.27415,-0.76265 -0.02,-0.048 -0.0686,-0.003 -0.10284,-0.0343 -0.0565,-0.0528 -0.51284,-0.27084 -0.54138,-0.0737 -0.0748,0.51697 0.38195,1.90577 0.34478,1.94053 -0.10174,0.0953 -0.29732,0.10708 -0.4118,0.17096 -0.006,0.003 -0.16323,0.0783 -0.16861,0.0688 -0.53192,-0.92971 -0.52061,-2.15903 -0.98796,-3.12656 0.21909,0.06 0.32325,0.37554 0.53064,0.45486 0.004,0.001 0.20242,-0.0102 0.18639,0.0713 -0.007,0.0377 -0.0309,0.0672 -0.0464,0.10084 z"
           style="font-variation-settings:normal;opacity:1;vector-effect:none;fill:none;fill-opacity:1;fill-rule:evenodd;stroke:#000000;stroke-width:0.264583;stroke-linecap:butt;stroke-linejoin:miter;stroke-miterlimit:4;stroke-dasharray:none;stroke-dashoffset:0;stroke-opacity:1;stop-color:#000000;stop-opacity:1" />
        <path
           id="path1525"
           d="m 121.97399,140.51499 c 0.48962,-0.0621 -0.10734,0.0186 0.35167,-0.0589 0.4958,-0.0841 0.99497,-0.15502 1.48092,-0.2167 0.0463,-0.006 0.25289,0.0192 0.28456,-0.0218 0.011,-0.0143 -0.0149,-0.13309 -0.0179,-0.14138 -0.1224,-0.36477 -0.43162,-0.61827 -0.75286,-0.83822 -0.52715,-0.36095 -1.45228,-0.13702 -1.78816,0.39935 -0.13406,0.21406 -0.15357,0.48786 -0.12235,0.73381 0.0755,0.59487 0.40344,1.07307 1.02056,1.24961 0.28497,0.0815 0.71258,0.11373 0.96858,-0.0655 0.20547,-0.14384 0.44684,-0.27766 0.56825,-0.5031 0.0353,-0.0657 0.0345,-0.19263 0.0703,-0.23878 0.002,-0.002 -0.12786,-0.0179 -0.14678,-0.0245 -0.0336,-0.0117 -0.3855,-0.11123 -0.39966,-0.0929 -0.0222,0.0286 -0.0109,0.0735 -0.0299,0.1044 -0.15967,0.26131 -0.33924,0.42399 -0.66385,0.42905 -0.11427,0.002 -0.18284,-0.043 -0.26885,-0.0807 -0.0646,-0.0284 -0.1518,-0.0125 -0.22284,-0.0579 -0.11442,-0.073 -0.23072,-0.24156 -0.30294,-0.34944 -0.0478,-0.0714 -0.15607,-0.2414 -0.0287,-0.22621 z"
           style="font-variation-settings:normal;opacity:1;vector-effect:none;fill:none;fill-opacity:1;fill-rule:evenodd;stroke:#000000;stroke-width:0.264583;stroke-linecap:butt;stroke-linejoin:miter;stroke-miterlimit:4;stroke-dasharray:none;stroke-dashoffset:0;stroke-opacity:1;stop-color:#000000;stop-opacity:1" />
        <path
           id="path1527"
           d="m 121.96077,140.07132 c 0.22049,-0.034 0.44453,-0.0473 0.66451,-0.0844 0.1703,-0.0286 0.33279,-0.0709 0.50538,-0.0928 0.014,-0.002 0.0917,-0.003 0.099,-0.0125 0.0471,-0.0608 -0.17946,-0.2471 -0.23562,-0.27177 -0.24958,-0.10971 -0.68831,-0.0989 -0.87298,0.13952 -0.0205,0.0264 -0.0396,0.0907 -0.0704,0.12387 -0.0644,0.0691 -0.10396,0.0865 -0.0898,0.19815 z"
           style="font-variation-settings:normal;opacity:1;vector-effect:none;fill:none;fill-opacity:1;fill-rule:evenodd;stroke:#000000;stroke-width:0.264583;stroke-linecap:butt;stroke-linejoin:miter;stroke-miterlimit:4;stroke-dasharray:none;stroke-dashoffset:0;stroke-opacity:1;stop-color:#000000;stop-opacity:1" />
        <path
           id="path1533"
           d="m 125.42104,141.46168 c 0.3327,0.16589 0.68973,0.16325 1.04603,0.11803 0.49493,-0.0628 1.27578,-0.0481 1.19194,-0.7086 -0.0185,-0.1452 -0.11678,-0.30302 -0.26813,-0.35612 -0.84542,-0.29658 -1.72195,0.49036 -2.26011,-0.24259 -1.06839,-1.45506 1.6628,-2.08582 2.54407,-1.9113 0.35837,0.0709 0.44663,0.68444 0.53668,0.93509 0.065,0.18083 0.37976,1.50162 0.27067,1.69338 -0.0383,0.0671 -0.036,0.20612 -0.0784,0.26073 -0.38467,0.49653 -1.13633,1.01439 -1.84317,0.847 -0.1685,-0.0399 -0.39754,-0.0163 -0.54195,-0.0984 -0.19123,-0.10879 -0.61561,-0.38671 -0.59765,-0.53722 z"
           style="font-variation-settings:normal;opacity:1;vector-effect:none;fill:none;fill-opacity:1;fill-rule:evenodd;stroke:#000000;stroke-width:0.264583;stroke-linecap:butt;stroke-linejoin:miter;stroke-miterlimit:4;stroke-dasharray:none;stroke-dashoffset:0;stroke-opacity:1;stop-color:#000000;stop-opacity:1" />
        <path
           id="path1535"
           d="m 127.11418,139.12216 c -0.24837,-0.0532 -0.47634,-0.0638 -0.73045,-0.0466 -0.91689,0.062 -1.02516,0.8298 -0.0183,0.94987 0.67266,0.0802 1.90693,-0.49708 0.74923,-0.90324 z"
           style="font-variation-settings:normal;opacity:1;vector-effect:none;fill:none;fill-opacity:1;fill-rule:evenodd;stroke:#000000;stroke-width:0.264583;stroke-linecap:butt;stroke-linejoin:miter;stroke-miterlimit:4;stroke-dasharray:none;stroke-dashoffset:0;stroke-opacity:1;stop-color:#000000;stop-opacity:1" />
        <path
           id="path1545"
           d="m 131.50347,135.89107 c -0.0392,0.5814 0.0735,1.15529 0.12775,1.73079 0.0323,0.34339 -0.0174,0.66985 0.006,1.0107 0.0132,0.19445 2.7e-4,1.30568 0.0478,1.3425 0.0713,0.0552 0.31301,-0.0703 0.38831,-0.0798 0.0682,-0.008 0.34429,-0.0231 0.3883,-0.0798 0.1464,-0.18896 -0.5459,-1.8724 0.52485,-1.66036 0.41346,0.0819 0.33761,1.26786 0.48155,1.37939 0.0325,0.0251 0.19327,-0.0245 0.24132,-0.0306 0.0688,-0.008 0.26988,-3.5e-4 0.33178,-0.0421 0.2481,-0.16606 0.38333,-0.97819 0.23517,-1.28646 -0.35578,-0.74032 -0.53293,-0.46728 -0.92543,-0.77137 -0.0205,-0.0159 -0.14675,0.0187 -0.18098,0.0229 -0.49302,0.0626 -0.84015,0.48046 -0.86279,0.44664 -0.0113,-0.0175 -0.0164,-0.1297 -0.0191,-0.15081 -0.035,-0.27561 -0.18012,-1.60819 -0.34269,-1.73416 -0.14359,-0.11122 -0.25651,-0.0751 -0.44143,-0.0972 z"
           style="font-variation-settings:normal;opacity:1;vector-effect:none;fill:none;fill-opacity:1;fill-rule:evenodd;stroke:#000000;stroke-width:0.264583;stroke-linecap:butt;stroke-linejoin:miter;stroke-miterlimit:4;stroke-dasharray:none;stroke-dashoffset:0;stroke-opacity:1;stop-color:#000000;stop-opacity:1" />
        <path
           id="path1547"
           d="m 135.12004,137.82269 c 0.2436,-0.23785 1.25221,-0.65234 1.39132,-0.14605 0.007,0.0204 0.0666,0.3003 0.0421,0.3318 -0.14747,0.19034 -0.42581,0.0766 -0.62195,0.17087 -0.43698,0.21 -1.07384,0.59567 -0.82358,1.23854 0.19897,0.51113 2.12064,0.28764 2.0511,-0.26033 -0.005,-0.0362 -0.11919,0.3428 -0.0407,0.40361 0.0847,0.0655 0.59399,-0.0997 0.62578,-0.14071 0.0942,-0.12161 -0.13852,-0.7935 -0.20533,-0.89342 -0.0427,-0.0637 -0.0471,-0.28129 -0.10243,-0.32414 -0.0792,-0.0613 -0.1759,-0.14055 -0.2456,-0.24467 -0.13925,-0.20802 -0.10737,-0.89357 -0.42797,-0.95711 -0.45224,-0.0896 -1.15378,0.0105 -1.53831,0.19525 -0.0904,0.0434 -0.50346,0.34428 -0.33853,0.47206 0.171,0.13248 0.0701,-0.14112 0.23412,0.15417 z"
           style="font-variation-settings:normal;opacity:1;vector-effect:none;fill:none;fill-opacity:1;fill-rule:evenodd;stroke:#000000;stroke-width:0.264583;stroke-linecap:butt;stroke-linejoin:miter;stroke-miterlimit:4;stroke-dasharray:none;stroke-dashoffset:0;stroke-opacity:1;stop-color:#000000;stop-opacity:1" />
        <path
           id="path1549"
           d="m 136.68272,138.54382 c -0.15208,0.009 -0.30434,0.0156 -0.45626,0.0273 -1.03487,0.0791 -0.2959,1.11913 0.23841,0.42947 0.11027,-0.14233 0.11719,-0.29198 0.21786,-0.45674 z"
           style="font-variation-settings:normal;opacity:1;vector-effect:none;fill:none;fill-opacity:1;fill-rule:evenodd;stroke:#000000;stroke-width:0.264583;stroke-linecap:butt;stroke-linejoin:miter;stroke-miterlimit:4;stroke-dasharray:none;stroke-dashoffset:0;stroke-opacity:1;stop-color:#000000;stop-opacity:1" />
        <path
           id="path1551"
           d="m 135.74211,135.72088 c -0.0286,0.17731 -0.0607,0.35409 -0.0857,0.53192 -0.0371,0.26291 0.22206,0.12507 0.41126,0.10105 0.005,-6.3e-4 0.37547,-0.70594 0.32657,-0.80768 -0.004,-0.009 -0.19688,0.025 -0.21113,0.0268 -0.19145,0.0243 -0.30015,0.0113 -0.44097,0.1479 z"
           style="font-variation-settings:normal;opacity:1;vector-effect:none;fill:none;fill-opacity:1;fill-rule:evenodd;stroke:#000000;stroke-width:0.264583;stroke-linecap:butt;stroke-linejoin:miter;stroke-miterlimit:4;stroke-dasharray:none;stroke-dashoffset:0;stroke-opacity:1;stop-color:#000000;stop-opacity:1" />
        <path
           id="path1553"
           d="m 138.47164,135.25186 c -0.0815,0.16316 0.23272,0.47192 0.13689,0.5956 -0.23243,0.30001 -0.71876,-0.35047 -0.61765,0.44619 0.003,0.0211 0.003,0.13776 0.0191,0.1508 0.11481,0.0889 0.55639,-0.24434 0.58795,-0.19721 0.3147,0.47014 -0.0624,2.27335 0.35603,2.80518 0.0695,0.0884 0.27183,0.13307 0.3586,0.16904 0.32692,0.13549 0.57611,0.17931 0.95421,0.0322 0.15007,-0.0584 0.63631,-0.68719 0.49989,-0.89098 -0.0623,-0.093 -0.22377,0.0162 -0.33562,0.0121 -0.10988,-0.004 -0.23774,-0.18448 -0.35092,-0.10872 -0.0521,0.0348 -0.10824,0.4952 -0.4745,0.36672 -0.35388,-0.12414 -0.40227,-0.60645 -0.5108,-0.88529 -0.14899,-0.38283 0.044,-0.86001 -0.006,-1.25584 -0.005,-0.0394 -0.0516,-0.21416 -0.0306,-0.2413 0.063,-0.0814 0.48255,0.0877 0.4941,0.0293 0.0173,-0.0873 0.0639,-0.63043 -0.0277,-0.70143 -0.13679,-0.10597 -0.55156,0.15236 -0.72393,0.0919 -0.10798,-0.0379 0.43603,-1.20714 -0.32889,-0.41799 z"
           style="font-variation-settings:normal;opacity:1;vector-effect:none;fill:none;fill-opacity:1;fill-rule:evenodd;stroke:#000000;stroke-width:0.264583;stroke-linecap:butt;stroke-linejoin:miter;stroke-miterlimit:4;stroke-dasharray:none;stroke-dashoffset:0;stroke-opacity:1;stop-color:#000000;stop-opacity:1" />
        <path
           id="path1555"
           d="m 144.10397,136.7524 c 0.0435,0.34297 0.11011,0.72782 0.0994,1.08013 -0.0167,0.54641 -0.23887,1.28645 0.4791,0.80584 0.0648,-0.0433 0.19475,0.0109 0.25959,-0.0329 0.14317,-0.0959 -0.0966,-0.73729 -0.0388,-0.89942 0.11164,-0.31821 0.4106,-0.71593 0.51277,-1.00711 0.0423,-0.12055 0.28122,0.43449 0.29309,0.52803 0.0455,0.35836 0.16453,1.29785 0.16473,1.29791 0.78417,0.2751 0.37035,-1.06202 0.62814,-1.28551 0.0883,-0.0765 0.0538,-0.15681 0.12481,-0.20424 0.0327,-0.022 0.11163,-0.0111 0.10654,-0.0513 -0.003,-0.0247 0.0545,-0.0248 0.0741,-0.009 0.39948,0.3095 0.0864,1.12078 0.3413,1.5016 0.0522,0.0778 0.46578,-0.16964 0.46796,-0.17244 0.2371,-0.30605 0.007,-1.13268 -0.0399,-1.50218 -0.15051,-1.18583 -1.29988,-0.14759 -1.29849,-0.13663 0.007,0.0602 -0.19369,-0.54063 -0.55269,-0.49506 -0.4388,0.0557 -0.70019,0.16688 -0.97301,0.34957 -0.0435,0.0291 -0.0614,0.38138 -0.0966,0.42675 -0.007,0.009 -0.1285,-0.26671 -0.1489,-0.28255 -0.0583,-0.0451 -0.36398,0.0735 -0.40321,0.0888 z"
           style="font-variation-settings:normal;opacity:1;vector-effect:none;fill:none;fill-opacity:1;fill-rule:evenodd;stroke:#000000;stroke-width:0.264583;stroke-linecap:butt;stroke-linejoin:miter;stroke-miterlimit:4;stroke-dasharray:none;stroke-dashoffset:0;stroke-opacity:1;stop-color:#000000;stop-opacity:1" />
        <path
           id="path1557"
           d="m 148.73468,136.12697 c 0.12764,0.70629 0.15263,0.58698 0.11822,1.22847 -0.021,0.39112 -0.2778,0.97728 0.34016,0.89885 0.049,-0.007 0.26954,-0.002 0.29667,-0.0377 0.14281,-0.18432 0.20885,-2.3794 0.102,-2.4622 -0.26499,-0.20531 -0.73361,0.28993 -0.85705,0.37254 z"
           style="font-variation-settings:normal;opacity:1;vector-effect:none;fill:none;fill-opacity:1;fill-rule:evenodd;stroke:#000000;stroke-width:0.264583;stroke-linecap:butt;stroke-linejoin:miter;stroke-miterlimit:4;stroke-dasharray:none;stroke-dashoffset:0;stroke-opacity:1;stop-color:#000000;stop-opacity:1" />
        <path
           id="path1559"
           d="m 149.15801,134.4153 c -0.12723,-0.003 -0.33203,0.0854 -0.38909,0.20009 -0.21291,0.42784 0.74318,0.80839 0.64454,0.0312 -0.0292,-0.22934 -0.0533,-0.21695 -0.25545,-0.23134 z"
           style="font-variation-settings:normal;opacity:1;vector-effect:none;fill:none;fill-opacity:1;fill-rule:evenodd;stroke:#000000;stroke-width:0.264583;stroke-linecap:butt;stroke-linejoin:miter;stroke-miterlimit:4;stroke-dasharray:none;stroke-dashoffset:0;stroke-opacity:1;stop-color:#000000;stop-opacity:1" />
        <path
           id="path1561"
           d="m 150.6248,135.28418 c -0.0133,0.8468 0.0159,0.7276 -0.10371,1.55808 -0.15387,1.06925 -0.5046,1.19447 0.28953,1.09368 0.0384,-0.005 0.16688,6.4e-4 0.18542,-0.0236 0.27147,-0.3504 -0.42636,-1.6257 0.22792,-2.06369 0.46932,-0.31416 0.75714,1.21517 0.78632,1.44511 0.0211,0.16573 0.004,0.32783 0.0241,0.4868 0.009,0.072 0.0616,0.18834 0.0559,0.14362 -0.003,-0.0248 -0.0989,0.0125 -0.0741,0.009 0.0391,-0.005 0.47783,-0.0398 0.48208,-0.0612 0.21934,-1.10765 -0.005,-2.04369 -0.83038,-2.683 -0.10676,-0.0828 -0.35733,0.10613 -0.3985,0.12598 -0.2767,0.133 -0.41419,-0.004 -0.64454,-0.0312 z"
           style="font-variation-settings:normal;opacity:1;vector-effect:none;fill:none;fill-opacity:1;fill-rule:evenodd;stroke:#000000;stroke-width:0.264583;stroke-linecap:butt;stroke-linejoin:miter;stroke-miterlimit:4;stroke-dasharray:none;stroke-dashoffset:0;stroke-opacity:1;stop-color:#000000;stop-opacity:1" />
        <path
           id="path1563"
           d="m 155.0289,134.95129 c -1.10581,-0.5156 -2.0124,1.90625 -1.36341,2.32085 0.1254,0.0801 1.64419,0.51472 1.70228,0.34916 0.0162,-0.0461 0.0209,-0.19105 0.12481,-0.20423 0.0495,-0.007 -0.009,0.10689 0.0188,0.14832 0.0272,0.0408 0.24839,-0.005 0.30137,-0.001 0.0574,0.005 0.19881,0.13184 0.23664,0.083 0.1246,-0.16082 -0.15717,-2.13631 -0.16232,-2.46633 -0.009,-0.55835 0.29611,-2.04429 0.265,-2.0684 -0.0253,-0.0196 -0.18041,0.0229 -0.22249,0.0282 -0.0257,0.004 -0.25469,0.019 -0.25958,0.0329 -0.17891,0.50997 0.15155,1.87158 -0.64112,1.77701 z"
           style="font-variation-settings:normal;opacity:1;vector-effect:none;fill:none;fill-opacity:1;fill-rule:evenodd;stroke:#000000;stroke-width:0.264583;stroke-linecap:butt;stroke-linejoin:miter;stroke-miterlimit:4;stroke-dasharray:none;stroke-dashoffset:0;stroke-opacity:1;stop-color:#000000;stop-opacity:1" />
        <path
           id="path1565"
           d="m 155.0289,134.95129 c -0.007,0.23958 0.009,0.4811 -0.0219,0.7187 -2.6e-4,0.003 -0.18009,0.0228 -0.18542,0.0236 -0.10382,0.0132 -0.43658,-0.005 -0.51918,0.0659 -0.16478,0.14287 -0.65197,0.55869 -0.4574,0.84937 0.17454,0.26074 0.93197,0.33088 1.18253,0.11366 0.0498,-0.0433 0.25769,-0.72102 0.41091,-0.91882 0.0325,-0.0419 -0.12609,0.012 -0.24132,-0.12008 -0.14108,-0.16273 -0.14056,-0.51413 -0.16824,-0.73226 z"
           style="font-variation-settings:normal;opacity:1;vector-effect:none;fill:none;fill-opacity:1;fill-rule:evenodd;stroke:#000000;stroke-width:0.264583;stroke-linecap:butt;stroke-linejoin:miter;stroke-miterlimit:4;stroke-dasharray:none;stroke-dashoffset:0;stroke-opacity:1;stop-color:#000000;stop-opacity:1" />
      </g>
      <g
         id="g1726">
        <path
           id="path1599"
           d="m 98.652687,160.20267 c -0.345989,0.004 -1.169091,0.21691 -1.424226,0.4327 -0.183393,0.15516 -0.285868,0.5854 -0.183872,0.79893 0.234039,0.48999 1.359198,0.21518 1.73133,0.0273 0.137306,-0.0694 0.280813,-0.25019 0.365586,-0.33722"
           style="font-variation-settings:normal;vector-effect:none;fill:none;fill-opacity:1;fill-rule:evenodd;stroke:#000000;stroke-width:0.666319;stroke-linecap:round;stroke-linejoin:round;stroke-miterlimit:4;stroke-dasharray:none;stroke-dashoffset:0;stroke-opacity:1;stop-color:#000000" />
        <path
           id="path1601"
           d="m 100.92521,158.4454 c -0.2164,0.0415 -0.42941,0.0864 -0.63769,0.15858 -0.12293,0.0428 -0.71146,0.45484 -0.442869,0.6581 0.362229,0.27414 1.065499,-0.12333 1.525329,0.099 0.0698,0.0337 0.2812,0.2357 0.20531,0.34849 -0.0969,0.14407 -0.19024,0.25749 -0.33381,0.36817 -0.16136,0.12429 -1.03653,0.46368 -1.22555,0.27956"
           style="font-variation-settings:normal;vector-effect:none;fill:none;fill-opacity:1;fill-rule:evenodd;stroke:#000000;stroke-width:0.666319;stroke-linecap:round;stroke-linejoin:round;stroke-miterlimit:4;stroke-dasharray:none;stroke-dashoffset:0;stroke-opacity:1;stop-color:#000000" />
        <path
           id="path1603"
           d="m 102.37497,157.84197 c 0.51695,-0.67831 1.39159,-0.95021 1.74826,0.0745 0.0407,0.11686 0.13608,0.31623 0.12108,0.43298 -0.0689,0.5329 -0.99807,1.18817 -1.39457,0.51508 -0.34138,-0.57949 1.24413,-1.02929 1.24589,-1.02757 0.13641,0.13285 -0.0502,0.74675 0.18011,0.85791 0.0523,0.0253 0.13667,0.0455 0.17854,0.0863"
           style="font-variation-settings:normal;vector-effect:none;fill:none;fill-opacity:1;fill-rule:evenodd;stroke:#000000;stroke-width:0.666319;stroke-linecap:round;stroke-linejoin:round;stroke-miterlimit:4;stroke-dasharray:none;stroke-dashoffset:0;stroke-opacity:1;stop-color:#000000" />
        <path
           id="path1605"
           d="m 104.29414,154.73895 c 0.37036,1.20556 0.80327,2.39301 1.2181,3.58488"
           style="font-variation-settings:normal;vector-effect:none;fill:none;fill-opacity:1;fill-rule:evenodd;stroke:#000000;stroke-width:0.666319;stroke-linecap:round;stroke-linejoin:round;stroke-miterlimit:4;stroke-dasharray:none;stroke-dashoffset:0;stroke-opacity:1;stop-color:#000000" />
        <path
           id="path1607"
           d="m 105.83441,155.71605 c 0.11764,0.10371 -0.37376,1.15109 -0.33027,1.18399 0.0584,0.0441 1.51171,0.63638 1.58715,0.63538"
           style="font-variation-settings:normal;vector-effect:none;fill:none;fill-opacity:1;fill-rule:evenodd;stroke:#000000;stroke-width:0.666319;stroke-linecap:round;stroke-linejoin:round;stroke-miterlimit:4;stroke-dasharray:none;stroke-dashoffset:0;stroke-opacity:1;stop-color:#000000" />
        <path
           id="path1609"
           d="m 110.20598,153.75226 c 0.1669,0.22043 0.33565,0.43944 0.50069,0.66126 0.1701,0.2286 0.34349,0.45496 0.50466,0.68993 0.0953,0.13898 0.10071,0.39046 0.26427,0.43101 0.0403,0.0101 0.0554,-0.27638 0.11336,-0.65863 0.008,-0.054 0.16469,-1.06565 0.19717,-1.10858 0.0753,-0.0995 0.1697,-0.26416 0.18175,-0.37585"
           style="font-variation-settings:normal;vector-effect:none;fill:none;fill-opacity:1;fill-rule:evenodd;stroke:#000000;stroke-width:0.687758;stroke-linecap:round;stroke-linejoin:round;stroke-miterlimit:4;stroke-dasharray:none;stroke-dashoffset:0;stroke-opacity:1;stop-color:#000000" />
        <path
           id="path1611"
           d="m 113.20611,152.53973 c 0.041,0.65319 0.15138,1.30413 0.24134,1.95379"
           style="font-variation-settings:normal;vector-effect:none;fill:none;fill-opacity:1;fill-rule:evenodd;stroke:#000000;stroke-width:0.687758;stroke-linecap:round;stroke-linejoin:round;stroke-miterlimit:4;stroke-dasharray:none;stroke-dashoffset:0;stroke-opacity:1;stop-color:#000000" />
        <path
           id="path1613"
           d="m 113.08479,151.24145 c -0.43752,0.12863 -0.0683,0.40428 0.0198,0.14337"
           style="font-variation-settings:normal;vector-effect:none;fill:none;fill-opacity:1;fill-rule:evenodd;stroke:#000000;stroke-width:0.687758;stroke-linecap:round;stroke-linejoin:round;stroke-miterlimit:4;stroke-dasharray:none;stroke-dashoffset:0;stroke-opacity:1;stop-color:#000000" />
        <path
           id="path1615"
           d="m 115.63854,152.37826 c -0.68052,-0.32417 -1.6022,0.73467 -0.96342,1.27313 0.46873,0.39513 1.27517,-0.288 1.17914,-0.98154 -0.005,-0.0325 -0.0298,-0.31734 -0.0724,-0.31145 -0.0216,0.003 0.0391,0.72233 0.0459,0.75346 0.0695,0.31933 0.0737,0.78756 0.20819,1.08168 0.33297,0.7279 -0.25209,0.41862 -0.80376,0.31585 -0.14098,-0.0261 -0.28386,-2.8e-4 -0.32336,-0.0137"
           style="font-variation-settings:normal;vector-effect:none;fill:none;fill-opacity:1;fill-rule:evenodd;stroke:#000000;stroke-width:0.687758;stroke-linecap:round;stroke-linejoin:round;stroke-miterlimit:4;stroke-dasharray:none;stroke-dashoffset:0;stroke-opacity:1;stop-color:#000000" />
        <path
           id="path1617"
           d="m 116.57774,151.98519 c 0.16426,0.2212 0.45618,1.09718 0.78081,1.20695 0.23731,0.0802 0.35076,-1.0547 0.30879,-1.35783 -0.0133,-0.0956 0.0349,0.1904 0.0399,0.28671 0.0102,0.21864 -0.16414,0.34349 -0.1866,0.55187 -0.0345,0.32041 -0.12966,0.63536 -0.13101,0.95329 -8.7e-4,0.29123 0.20259,1.48806 -0.44643,0.99698"
           style="font-variation-settings:normal;vector-effect:none;fill:none;fill-opacity:1;fill-rule:evenodd;stroke:#000000;stroke-width:0.687758;stroke-linecap:round;stroke-linejoin:round;stroke-miterlimit:4;stroke-dasharray:none;stroke-dashoffset:0;stroke-opacity:1;stop-color:#000000" />
        <path
           id="path1619"
           d="m 118.5602,151.7399 c 0.71233,-0.87207 1.60194,0.23349 1.33842,1.01286 -0.0522,0.1542 -0.36073,0.30325 -0.5298,0.39482 -0.1,0.0542 -0.5666,0.31563 -0.70097,0.21395 -0.0866,-0.0656 -0.12508,-0.26994 -0.13759,-0.36085 -0.11991,-0.8666 0.7524,-0.59227 0.99828,-0.81038 0.0454,-0.0404 0.11013,-0.11309 0.19279,-0.0852 0.14613,0.0494 -0.0166,0.95097 0.38423,1.08652"
           style="font-variation-settings:normal;vector-effect:none;fill:none;fill-opacity:1;fill-rule:evenodd;stroke:#000000;stroke-width:0.687758;stroke-linecap:round;stroke-linejoin:round;stroke-miterlimit:4;stroke-dasharray:none;stroke-dashoffset:0;stroke-opacity:1;stop-color:#000000" />
        <path
           id="path1621"
           d="m 119.58936,149.46406 c -0.42421,0.75222 -0.2834,0.42813 -0.48304,0.94361"
           style="font-variation-settings:normal;vector-effect:none;fill:none;fill-opacity:1;fill-rule:evenodd;stroke:#000000;stroke-width:0.687758;stroke-linecap:round;stroke-linejoin:round;stroke-miterlimit:4;stroke-dasharray:none;stroke-dashoffset:0;stroke-opacity:1;stop-color:#000000" />
        <path
           id="path1623"
           d="m 120.73237,151.17611 c 0.62991,-0.16881 0.23243,-0.0704 1.51178,-0.26777 0.57317,-0.0886 0.74982,-0.16084 0.39657,0.12044 -0.35708,0.28438 -0.63876,0.53472 -0.96564,0.83508 -0.16843,0.15477 -0.28933,0.37131 -0.21041,0.37982 0.22723,0.0245 0.51355,-0.0714 0.74548,-0.10352 0.61428,-0.0848 -0.21059,0.0212 0.5201,-0.0429 0.2199,-0.0193 0.44058,-0.061 0.65949,-0.0913"
           style="font-variation-settings:normal;vector-effect:none;fill:none;fill-opacity:1;fill-rule:evenodd;stroke:#000000;stroke-width:0.687758;stroke-linecap:round;stroke-linejoin:round;stroke-miterlimit:4;stroke-dasharray:none;stroke-dashoffset:0;stroke-opacity:1;stop-color:#000000" />
        <path
           id="path1625"
           d="m 124.03868,150.57218 c 0.32819,-0.14496 0.14023,-0.0737 0.64364,-0.20603 0.46197,-0.12143 0.98266,-0.45054 0.54391,0.12925 -0.0951,0.12568 -0.97643,1.17933 -0.97535,1.18711 0.0212,0.15294 0.30581,-0.0427 0.45878,-0.0636 0.37317,-0.0514 0.37227,-0.0573 0.80683,-0.0825 0.40808,-0.0236 0.81101,-0.0244 1.21624,-0.0808"
           style="font-variation-settings:normal;vector-effect:none;fill:none;fill-opacity:1;fill-rule:evenodd;stroke:#000000;stroke-width:0.687758;stroke-linecap:round;stroke-linejoin:round;stroke-miterlimit:4;stroke-dasharray:none;stroke-dashoffset:0;stroke-opacity:1;stop-color:#000000" />
        <path
           id="path1627"
           d="m 129.84646,149.0658 c 0.0485,0.28177 0.0523,0.56704 0.0916,0.84998 0.0202,0.14536 0.0406,0.29066 0.0606,0.43603 0.0213,0.15389 0.0422,0.30785 0.0642,0.46167 0.0107,0.0769 0.0422,0.30786 0.0321,0.23083 -0.0679,-0.48725 -0.29772,-1.18323 -0.0442,-1.64082 0.0327,-0.059 0.246,-0.52566 0.41554,-0.39738 0.3751,0.28387 0.55535,0.52043 0.6586,0.98062 0.0524,0.23384 0.11764,0.47205 0.11523,0.4546 -0.0354,-0.25415 -0.20002,-1.85243 0.39895,-1.64989 0.74664,0.25245 0.75192,1.40334 0.93485,1.46521"
           style="font-variation-settings:normal;vector-effect:none;fill:none;fill-opacity:1;fill-rule:evenodd;stroke:#000000;stroke-width:0.615229;stroke-linecap:round;stroke-linejoin:round;stroke-miterlimit:4;stroke-dasharray:none;stroke-dashoffset:0;stroke-opacity:1;stop-color:#000000" />
        <path
           id="path1629"
           d="m 133.1573,148.99947 c 0.22646,-0.17036 0.90242,-0.009 1.06664,-0.22609 0.23916,-0.31605 -0.68015,-0.93438 -1.31723,-0.26201 -0.31805,0.33564 0.14288,1.36088 0.5872,1.40877 0.63685,0.0687 0.66875,-0.1638 1.06388,-0.43488"
           style="font-variation-settings:normal;vector-effect:none;fill:none;fill-opacity:1;fill-rule:evenodd;stroke:#000000;stroke-width:0.615229;stroke-linecap:round;stroke-linejoin:round;stroke-miterlimit:4;stroke-dasharray:none;stroke-dashoffset:0;stroke-opacity:1;stop-color:#000000" />
        <path
           id="path1631"
           d="m 136.44155,148.19331 c -0.0793,-0.006 -0.15858,-0.0231 -0.238,-0.0184 -0.0675,0.004 -0.56157,0.0722 -0.66292,0.12054 -0.39401,0.18758 -0.46294,0.98116 0.0655,1.01076 0.27649,0.0155 0.69537,-0.44623 0.79133,-0.6881 0.0104,-0.0262 0.008,-0.42683 0.0441,-0.42477 0.12711,0.007 0.32413,1.45164 0.1933,1.72492 -0.14259,0.29777 -1.03158,0.0546 -1.07308,0.17893"
           style="font-variation-settings:normal;vector-effect:none;fill:none;fill-opacity:1;fill-rule:evenodd;stroke:#000000;stroke-width:0.615229;stroke-linecap:round;stroke-linejoin:round;stroke-miterlimit:4;stroke-dasharray:none;stroke-dashoffset:0;stroke-opacity:1;stop-color:#000000" />
        <path
           id="path1633"
           d="m 139.74447,147.74337 c 0.002,0.31414 -0.0855,1.47597 -0.0209,1.47808 0.0881,0.003 -0.0342,-1.21435 0.18347,-1.41798 0.3653,-0.3422 1.23201,0.84701 1.21991,1.21738"
           style="font-variation-settings:normal;vector-effect:none;fill:none;fill-opacity:1;fill-rule:evenodd;stroke:#000000;stroke-width:0.650279;stroke-linecap:round;stroke-linejoin:round;stroke-miterlimit:4;stroke-dasharray:none;stroke-dashoffset:0;stroke-opacity:1;stop-color:#000000" />
        <path
           id="path1635"
           d="m 142.67418,148.08933 c 0.20405,-0.0203 0.58358,-0.0495 0.69283,-0.25122 0.16465,-0.30407 -0.68804,-0.6351 -0.91401,-0.52277 -0.80214,0.39869 -0.81159,2.17846 0.8854,1.39815"
           style="font-variation-settings:normal;vector-effect:none;fill:none;fill-opacity:1;fill-rule:evenodd;stroke:#000000;stroke-width:0.650279;stroke-linecap:round;stroke-linejoin:round;stroke-miterlimit:4;stroke-dasharray:none;stroke-dashoffset:0;stroke-opacity:1;stop-color:#000000" />
        <path
           id="path1637"
           d="m 142.67418,148.08933 c -0.58294,-0.004 -0.11708,-0.125 0,0 z"
           style="font-variation-settings:normal;vector-effect:none;fill:none;fill-opacity:1;fill-rule:evenodd;stroke:#000000;stroke-width:0.650279;stroke-linecap:round;stroke-linejoin:round;stroke-miterlimit:4;stroke-dasharray:none;stroke-dashoffset:0;stroke-opacity:1;stop-color:#000000" />
        <path
           id="path1639"
           d="m 146.4722,145.23812 c -0.009,0.47954 -0.0172,0.95906 -0.0257,1.43862 -0.005,0.26637 -0.01,0.5328 -0.014,0.7992 -0.003,0.13854 -0.005,0.27707 -0.008,0.41561 -9e-5,0.005 0.002,0.83148 0.0812,0.83289 0.12555,0.002 -0.30804,-1.08524 -0.10516,-1.28103 0.74159,-0.71568 1.26733,0.20528 1.39129,0.88816"
           style="font-variation-settings:normal;vector-effect:none;fill:none;fill-opacity:1;fill-rule:evenodd;stroke:#000000;stroke-width:0.75966;stroke-linecap:round;stroke-linejoin:round;stroke-miterlimit:4;stroke-dasharray:none;stroke-dashoffset:0;stroke-opacity:1;stop-color:#000000" />
        <path
           id="path1641"
           d="m 148.54862,147.16178 c -0.0509,-0.76218 1.26391,-0.90287 1.44486,-0.32608 0.32462,1.03481 -0.43714,1.86549 -1.36487,1.2229 -0.4711,-0.3263 0.90826,-0.96134 1.261,-0.77706 0.10259,0.0536 0.29164,0.76079 0.33575,0.90139"
           style="font-variation-settings:normal;vector-effect:none;fill:none;fill-opacity:1;fill-rule:evenodd;stroke:#000000;stroke-width:0.75966;stroke-linecap:round;stroke-linejoin:round;stroke-miterlimit:4;stroke-dasharray:none;stroke-dashoffset:0;stroke-opacity:1;stop-color:#000000" />
        <path
           id="path1643"
           d="m 151.28304,144.2218 c -0.23134,1.26857 0.1148,2.53737 0.0928,3.77517"
           style="font-variation-settings:normal;vector-effect:none;fill:none;fill-opacity:1;fill-rule:evenodd;stroke:#000000;stroke-width:0.75966;stroke-linecap:round;stroke-linejoin:round;stroke-miterlimit:4;stroke-dasharray:none;stroke-dashoffset:0;stroke-opacity:1;stop-color:#000000" />
        <path
           id="path1645"
           d="m 152.93094,146.51062 c 0.15812,0.6673 0.17426,1.33338 0.1981,2.00688 0.008,0.20264 0.17773,0.44296 0.0567,0.60569 -0.20221,0.27192 -0.93245,0.0155 -1.17602,-0.0857"
           style="font-variation-settings:normal;vector-effect:none;fill:none;fill-opacity:1;fill-rule:evenodd;stroke:#000000;stroke-width:0.75966;stroke-linecap:round;stroke-linejoin:round;stroke-miterlimit:4;stroke-dasharray:none;stroke-dashoffset:0;stroke-opacity:1;stop-color:#000000" />
        <path
           id="path1647"
           d="m 152.73011,144.38182 0.0297,0.12844 c -0.10737,0.95711 0.10389,0.44942 -0.0297,-0.12844 z"
           style="font-variation-settings:normal;vector-effect:none;fill:none;fill-opacity:1;fill-rule:evenodd;stroke:#000000;stroke-width:0.75966;stroke-linecap:round;stroke-linejoin:round;stroke-miterlimit:4;stroke-dasharray:none;stroke-dashoffset:0;stroke-opacity:1;stop-color:#000000" />
      </g>
    </g>
  </g>
</svg>
