<?xml version="1.0" encoding="UTF-8" standalone="no"?>
<svg
   xmlns:dc="http://purl.org/dc/elements/1.1/"
   xmlns:cc="http://creativecommons.org/ns#"
   xmlns:rdf="http://www.w3.org/1999/02/22-rdf-syntax-ns#"
   xmlns:svg="http://www.w3.org/2000/svg"
   xmlns="http://www.w3.org/2000/svg"
   xmlns:sodipodi="http://sodipodi.sourceforge.net/DTD/sodipodi-0.dtd"
   xmlns:inkscape="http://www.inkscape.org/namespaces/inkscape"
   sodipodi:docname="baratkozo elado.svg"
   inkscape:version="1.0 (4035a4fb49, 2020-05-01)"
   id="svg1053"
   version="1.1"
   viewBox="0 0 210 297"
   height="297mm"
   width="210mm">
  <defs
     id="defs1047" />
  <sodipodi:namedview
     inkscape:window-maximized="1"
     inkscape:window-y="-8"
     inkscape:window-x="-8"
     inkscape:window-height="1017"
     inkscape:window-width="1920"
     inkscape:snap-global="false"
     showgrid="false"
     inkscape:document-rotation="0"
     inkscape:current-layer="layer1"
     inkscape:document-units="mm"
     inkscape:cy="559.4154"
     inkscape:cx="30.770281"
     inkscape:zoom="0.7"
     inkscape:pageshadow="2"
     inkscape:pageopacity="0.0"
     borderopacity="1.0"
     bordercolor="#666666"
     pagecolor="#ffffff"
     id="base" />
  <metadata
     id="metadata1050">
    <rdf:RDF>
      <cc:Work
         rdf:about="">
        <dc:format>image/svg+xml</dc:format>
        <dc:type
           rdf:resource="http://purl.org/dc/dcmitype/StillImage" />
        <dc:title></dc:title>
      </cc:Work>
    </rdf:RDF>
  </metadata>
  <g
     id="layer1"
     inkscape:groupmode="layer"
     inkscape:label="Layer 1">
    <path
       id="path2012"
       transform="scale(0.26458333)"
       d="m 323.42969,886.74219 c 0.98562,0.0956 2.08412,-0.0446 2.93164,0.57617 -0.0493,1.19131 -1.40396,1.53881 -2.17969,2.18359 -3.59262,2.16862 -7.45766,4.61388 -11.83008,4.36719 -4.44309,-0.20939 -8.98241,-1.14134 -12.82031,-3.4707 -0.64984,-0.44183 -2.29159,-1.55554 -1.0957,-2.2461 1.08426,-0.31748 2.25225,-0.17821 3.36718,-0.35546 7.19624,-0.55125 14.40837,-0.9949 21.62696,-1.05469 z"
       style="fill:#ffffff;stroke-width:0.999999" />
    <path
       id="path2010"
       transform="scale(0.26458333)"
       d="m 425.91211,881.73047 c 2.1623,0.13077 4.44416,0.1062 6.41601,1.12891 0.56383,1.04012 -1.01445,1.3886 -1.63671,1.85156 -5.35529,3.00567 -11.72583,4.24549 -17.8086,3.37695 -1.80861,-0.33562 -3.42401,-1.40126 -4.54687,-2.83008 -0.66233,-1.13979 0.7525,-1.62852 1.59375,-1.85351 3.20931,-1.00562 6.59878,-1.23692 9.93164,-1.5293 2.01441,-0.13682 4.03228,-0.16872 6.05078,-0.14453 z"
       style="fill:#ffffff;stroke-width:0.999999" />
    <path
       id="path2008"
       transform="scale(0.26458333)"
       d="m 294.6875,678.81445 c 0.0473,-0.004 0.0958,-0.002 0.14453,0.0117 4.7119,0.36397 9.45412,0.6199 14.16992,1.04102 12.1319,0.9541 24.26395,2.15188 36.44532,2.16015 13.63604,0.0718 27.26589,-0.43564 40.89648,-0.75195 18.827,-0.48238 37.6596,-1.06622 56.49219,-1.02344 0.85844,0.16517 2.18677,-0.39093 2.6289,0.63672 0.8829,2.75297 0.84023,5.68836 1.14649,8.53906 0.99545,13.08514 1.20915,26.21332 1.51367,39.32813 0.59391,30.85727 0.59303,61.72781 -0.0645,92.58398 -0.30766,13.052 -0.8766,26.10327 -2.11133,39.10352 -0.37266,4.15918 -0.7912,8.31378 -1.22656,12.4668 0.32239,1.08827 -0.77854,2.10322 -1.80664,1.53515 -4.23648,-0.69959 -8.40954,-1.74822 -12.66211,-2.34765 -5.72501,-0.77091 -11.55343,-0.43285 -17.20703,0.69726 -4.44307,0.81404 -8.89107,1.94958 -13.44336,1.77735 -0.66516,-1.22128 -0.33031,-2.67932 -0.6504,-3.99415 -1.74069,-15.88947 -3.67528,-31.7865 -4.04492,-47.7832 -0.74865,-21.59267 -0.81092,-43.20135 -1.26367,-64.80078 -0.19238,-9.53216 -0.38486,-19.07824 -1.23828,-28.57812 -0.55472,-5.32494 -1.77587,-10.57522 -3.70898,-15.57032 -1.67418,-4.61828 -4.25408,-9.31171 -8.69336,-11.76758 -4.54504,-2.45964 -10.61512,-1.82748 -14.40235,1.75196 -4.69486,3.99942 -7.34763,9.74468 -9.72851,15.30078 -3.97635,9.74502 -6.48542,20.00472 -8.78907,30.25 -3.76671,17.39826 -6.63388,34.98292 -8.9414,52.63086 -2.36831,19.03272 -3.437,38.24242 -2.78906,57.41797 0.1322,5.71423 0.28271,11.42884 0.43359,17.14258 -12.10621,-0.12586 -24.19567,0.62757 -36.29297,0.93164 -1.85356,-0.008 -3.79816,0.0378 -5.54687,-0.62891 -1.17541,-0.85221 -0.88564,-2.50085 -1.19532,-3.75195 -1.0699,-8.41387 -1.39705,-16.89718 -1.90429,-25.35743 -1.27404,-23.96114 -1.9939,-47.94983 -2.34766,-71.9414 -0.18164,-13.08764 -0.19231,-26.19143 0.71094,-39.25586 0.87572,-13.95935 2.0437,-27.89879 3.30468,-41.82813 0.49369,-5.23842 0.96332,-10.50207 1.8379,-15.68554 0.0656,-0.13455 0.1921,-0.22279 0.33398,-0.23828 z"
       style="fill:#ffffff;stroke-width:0.999999" />
    <path
       id="path2006"
       transform="scale(0.26458333)"
       d="m 379.32227,618.98047 c 0.0877,0.0397 -0.37974,1.76433 -1.04297,3.83789 -0.66306,2.07345 -1.55195,3.76905 -1.97461,3.76758 -1.08505,-0.003 -4.93396,-2.43749 -6.11133,-3.86328 -1.80753,-2.18914 -0.50374,-3.23742 4.38672,-3.53321 2.52072,-0.15231 4.65408,-0.24678 4.74219,-0.20898 z"
       style="fill:#ffffff;stroke-width:0.999999" />
    <path
       id="path2004"
       transform="scale(0.26458333)"
       d="m 370.8457,589.42188 1.44922,1.84374 c 3.75279,4.77105 5.30096,11.63045 3.6211,16.04883 -0.42202,1.10997 -1.22808,1.82064 -1.9961,1.76172 -3.73118,-0.28649 -4.41065,-0.73936 -4.88086,-3.24609 -0.53657,-2.85993 0.19665,-12.08636 1.16797,-14.69336 z"
       style="fill:#ffffff;stroke-width:0.999999" />
    <path
       id="path2002"
       transform="scale(0.26458333)"
       d="m 379.39648,575.95898 c 1.1531,-0.0264 3.04477,1.25512 6.28711,3.96485 l 2.76563,2.31055 -0.41406,5.30859 c -0.22753,2.91897 -0.69389,6.04765 -1.03711,6.95508 -0.56644,1.49741 -0.80303,1.26248 -2.56055,-2.56641 -1.06503,-2.32025 -3.11002,-5.75754 -4.54492,-7.63672 -2.24182,-2.93601 -2.54221,-3.77447 -2.13281,-5.95703 0.28989,-1.54515 0.73987,-2.35789 1.63671,-2.37891 z"
       style="fill:#ffffff;stroke-width:0.999999" />
    <path
       id="path2000"
       transform="scale(0.26458333)"
       d="m 399.72852,565.74219 c -0.24,0.1474 -0.85872,1.59252 -1.72461,4.25195 -0.97444,2.99301 -1.77574,5.52319 -1.78125,5.62305 -0.004,0.0998 0.31145,0.18164 0.70312,0.18164 0.39133,0 0.91219,-0.89867 1.1582,-1.9961 0.24567,-1.09746 0.73959,-3.13835 1.09766,-4.53515 0.64736,-2.52473 0.78657,-3.67313 0.54688,-3.52539 z"
       style="fill:#ffffff;stroke-width:0.999999" />
    <path
       id="path1998"
       transform="scale(0.26458333)"
       d="m 410.46094,544.01562 h 0.002 c 0.13077,-0.0189 0.23231,0.26417 0.28711,0.94532 0.0631,0.79808 0.0571,2.69644 -0.0117,4.21679 -0.071,1.52028 -0.58699,4.13255 -1.14844,5.80469 l -1.01953,3.03906 0.33399,-5.50781 c 0.26192,-4.31066 1.08737,-8.39883 1.55664,-8.49805 z"
       style="fill:#ffffff;stroke-width:0.999999" />
    <path
       id="path1996"
       transform="scale(0.26458333)"
       d="m 372.67969,539.10156 h 0.002 c 1.34453,-0.0302 2.44482,0.0813 2.74219,0.37891 0.42055,0.42055 1.66993,0.76562 2.77734,0.76562 1.87809,0 1.98449,0.15759 1.57422,2.35743 -0.45993,2.46633 -3.08314,7.3856 -3.64062,6.82812 -0.17764,-0.17726 0.16777,-1.49267 0.76562,-2.92383 0.59872,-1.43108 0.85732,-2.74355 0.57813,-2.91601 -1.45539,-0.89953 -10.48166,5.40888 -9.35352,6.53711 0.30901,0.30878 1.55168,-0.0227 2.76172,-0.73829 l 2.20117,-1.29882 -0.47461,2.52343 c -0.58057,3.09468 0.5027,3.97958 2.92774,2.39063 2.31287,-1.51555 2.5332,-1.46607 2.5332,0.58398 0,0.95441 -0.51775,1.93483 -1.14844,2.17774 -1.62963,0.62457 -5.41777,0.44642 -7.61133,-0.35938 -1.65489,-0.60801 -1.97418,-1.32735 -2.80078,-6.29297 -1.11928,-6.71637 -1.1172,-8.20833 0.008,-8.90429 1.00037,-0.61833 3.91736,-1.05975 6.15821,-1.10938 z"
       style="fill:#ffffff;stroke-width:0.999999" />
    <path
       id="path1994"
       transform="scale(0.26458333)"
       d="m 533.3457,515.57617 c -0.39911,0 -0.72656,0.32767 -0.72656,0.72656 0,0.39905 0.32767,0.72461 0.72656,0.72461 0.39901,0 0.72461,-0.32579 0.72461,-0.72461 0,-0.39904 -0.32617,-0.72656 -0.72461,-0.72656 z"
       style="fill:#ffffff;stroke-width:0.999999" />
    <path
       id="path1992"
       transform="scale(0.26458333)"
       d="m 509.96094,512.67383 h 0.002 c 2.12277,0.002 5.67253,3.06406 7.35938,6.34961 0.46098,0.89786 0.58044,1.62535 0.26757,1.61718 -1.21719,-0.0302 -13.66517,-4.46416 -14.30078,-5.09179 -0.8533,-0.84299 3.86055,-2.87413 6.67188,-2.875 z"
       style="fill:#ffffff;stroke-width:0.999999" />
    <path
       id="path1990"
       transform="scale(0.26458333)"
       d="m 535.48633,501.35547 c 1.81357,0.002 2.06923,1.92453 1.89258,6.98437 -0.16706,4.79078 -0.49719,6.13899 -1.98829,8.12305 -0.98343,1.30855 -1.98264,2.90386 -2.21874,3.54688 -0.51508,1.40239 -3.26501,2.26338 -3.90821,1.22265 -0.25096,-0.40618 -0.13236,-0.94643 0.26563,-1.20117 0.90508,-0.57978 3.8164,-6.57228 3.8164,-7.85547 0,-0.52358 0.65305,-0.95312 1.45118,-0.95312 0.79816,0 1.45117,-0.36133 1.45117,-0.80274 0,-0.44167 -0.49914,-0.61102 -1.10938,-0.37695 -0.78863,0.30198 -1.2274,-0.15986 -1.51562,-1.60156 -0.39289,-1.96404 -3.17969,-4.59871 -3.17969,-3.00586 0,0.41491 0.48929,0.94204 1.08789,1.17187 1.54809,0.59403 1.37138,4.51878 -0.38281,8.48438 -1.85318,4.18953 -2.55773,4.62144 -3.44532,2.11523 -0.91362,-2.57994 -7.14086,-11.00315 -8.52734,-11.53515 -2.49415,-0.95709 -0.71363,-1.70508 4.0586,-1.70508 3.61659,0 6.18068,-0.45418 8.70703,-1.54102 1.57315,-0.67672 2.72053,-1.07137 3.54492,-1.07031 z"
       style="fill:#ffffff;stroke-width:0.999999" />
    <path
       id="path1988"
       transform="scale(0.26458333)"
       d="m 508.77539,492.37891 c -0.79676,0.0113 1.33892,1.82436 3.79883,2.9414 1.64681,0.74786 3.78561,1.36673 4.75,1.375 2.28181,0.0227 1.90027,-0.28649 -2.48047,-2.0039 -1.99529,-0.78221 -4.25374,-1.68169 -5.01758,-2 -0.52845,-0.22035 -0.86691,-0.31515 -1.05078,-0.3125 z"
       style="fill:#ffffff;stroke-width:0.999999" />
    <path
       id="path1986"
       transform="scale(0.26458333)"
       d="m 279.19727,492.15039 4.92968,4.18164 c 6.22911,5.28439 12.86233,9.58129 21.5,13.92578 3.73112,1.87665 8.41679,4.44964 10.41211,5.7168 6.99482,4.44185 21.83434,10.09962 32.21485,12.2832 8.11523,1.7071 16.94247,1.29755 32.21875,-1.49609 2.74703,-0.50238 2.75771,-0.49477 2.28515,1.5918 -1.74708,7.71484 -1.64187,7.53478 -4.53125,7.57617 -6.65105,0.0956 -11.51503,0.86754 -13.21289,2.0957 -1.67461,1.21145 -1.81218,1.752 -1.79297,7.04492 0.0113,3.73115 0.47799,6.92899 1.33008,9.16016 1.3092,3.42807 1.31002,3.42773 4.78711,3.42773 1.91238,0 4.47519,0.20104 5.69727,0.44532 l 2.22265,0.44336 -0.29687,5.90039 c -0.26722,5.30048 -0.4829,6.03399 -2.13086,7.23437 -1.00863,0.73485 -1.83399,1.98369 -1.83399,2.77539 0,1.02414 -0.36608,1.33569 -1.26953,1.08008 -0.69832,-0.19691 -2.90312,-0.5512 -4.89844,-0.78516 -10.01997,-1.17418 -49.58353,-6.28799 -51.23828,-6.62304 -1.84457,-0.37342 -1.93783,-0.64909 -3.06445,-9.23633 -1.86723,-14.23253 -2.27921,-23.3644 -1.20312,-26.625 0.80884,-2.45038 0.77559,-3.08348 -0.23829,-4.63086 -2.39115,-3.64932 -6.41752,-3.36633 -9.12304,0.64258 -1.70994,2.53372 -1.73382,2.78458 -1.24024,13.25976 0.27674,5.87256 0.92978,13.69935 1.44922,17.39063 0.87443,6.21396 0.85245,6.71093 -0.29492,6.71093 -2.21123,0 -5.06445,2.84468 -5.06445,5.05079 0,3.64973 1.92834,5.0249 8.70703,6.20703 9.32915,1.62686 53.29187,7.60742 55.92187,7.60742 0.32508,0 -0.0872,1.53583 -0.91797,3.41406 -1.27494,2.88219 -1.52327,4.97698 -1.59179,13.42188 l -0.082,10.00586 -2.17774,-0.12696 c -20.97841,-1.20608 -55.64862,-5.38421 -68.40234,-8.24414 -2.89431,-0.64906 -7.26574,-5.28233 -8.76563,-9.29101 -1.72172,-4.60177 -5.25014,-21.77224 -7.48437,-36.41602 -2.24669,-14.72526 -2.42251,-41.40769 -0.32422,-49.3125 1.45808,-5.49305 3.99833,-11.30313 6.15234,-14.07031 z"
       style="fill:#ffffff;stroke-width:0.999999" />
    <path
       id="path1984"
       transform="scale(0.26458333)"
       d="m 453.13867,486.5918 4.15821,4.27539 c 3.15635,3.24567 5.10655,6.25733 8.0957,12.49804 3.74955,7.82816 10.99587,26.84094 11.79883,30.95704 0.2759,1.41414 -1.09662,5.05049 -5.10938,13.54101 -3.01757,6.38506 -5.48621,12.19563 -5.48633,12.91211 -1.5e-4,1.74792 3.20719,4.86523 5.00586,4.86523 2.93375,0 5.187,-3.52124 13.00586,-20.3164 9.62,-20.66396 10.30907,-21.91328 11.73633,-21.30274 0.5986,0.25588 6.06013,2.13275 12.13867,4.17188 6.07862,2.03913 11.05618,3.96581 11.06446,4.28125 0.008,0.31559 -2.55461,5.05054 -5.69532,10.52148 -9.13651,15.91525 -12.88913,23.95918 -20.86133,44.72266 -4.28485,11.15977 -6.00959,13.54543 -11.02929,15.25586 -6.40403,2.18207 -12.03865,0.80562 -15.02735,-3.67188 -0.82745,-1.23968 -2.75365,-6.7896 -4.27929,-12.33398 -5.71276,-20.76113 -10.76595,-34.09958 -14.68555,-38.75781 -2.44883,-2.91024 -6.00583,-2.99574 -8.20703,-0.19727 -1.73934,2.21121 -1.519,4.43286 0.72461,7.28516 0.75507,0.95988 2.77591,5.23074 4.49023,9.49023 l 3.11719,7.74414 0.20313,29.20313 c -1.0066,20.56724 1.36793,41.14757 1.27138,61.67969 l 0.10547,5.97265 c -10.08843,1.03408 -22.63891,1.0608 -32.76563,1.37695 -20.34504,0.47381 -40.69383,0.79189 -61.03906,1.25586 -10.78753,0.223 -21.58744,0.034 -32.34766,-0.79882 -11.31114,-0.82405 -22.60865,-1.8755 -33.87304,-3.17774 -1.24149,-0.30576 -6.16034,-1.69755 -5.87891,-2.38867 -0.23562,-18.79058 1.20431,-31.31743 -0.41992,-49.14063 l -0.35742,-3.90234 2.375,0.4961 c 1.30653,0.27288 10.04978,1.63743 19.42773,3.03124 19.59453,2.91236 33.5691,4.36747 48.79883,5.08399 l 10.70898,0.50586 1.62891,2.94922 c 2.2394,4.05963 6.34999,6.32945 11.02734,6.08593 l 3.60157,-0.1875 1.91797,-8.34374 c 1.05501,-4.58926 2.45527,-9.77148 3.11132,-11.51758 0.65609,-1.74626 1.19336,-3.78414 1.19336,-4.52735 0,-0.74313 0.9479,-4.37622 2.10742,-8.07226 1.15956,-3.69612 2.32245,-8.27043 2.58399,-10.16602 0.26154,-1.89551 0.59748,-3.44531 0.74609,-3.44531 0.14816,0 1.92394,1.0294 3.94727,2.28711 3.48555,2.16673 3.75186,2.22135 5.04101,1.05469 0.78497,-0.71037 1.71901,-3.13709 2.20899,-5.73438 0.467,-2.47608 1.46012,-7.11407 2.20703,-10.30664 0.74683,-3.19242 1.56129,-7.02892 1.81055,-8.52539 0.36963,-2.2218 0.75987,-2.7207 2.11914,-2.7207 2.44354,0 3.483,-2.92203 3.89648,-10.94336 0.28422,-5.51044 0.11189,-7.47683 -0.83594,-9.47461 -1.14583,-2.41467 -1.11814,-2.79241 0.66602,-8.94922 1.02455,-3.53545 2.05856,-8.97768 2.29883,-12.09375 l 0.4375,-5.66602 7.33008,-4.29101 c 9.75152,-5.70811 18.97379,-12.354 24.92382,-17.96289 z"
       style="fill:#ffffff;stroke-width:0.999999" />
    <path
       id="path1982"
       transform="scale(0.26458333)"
       d="m 404.61914,481.36523 c -0.0892,-0.0151 -0.16723,0.18596 -0.23828,0.59766 -0.14929,0.86665 0.79231,5.59972 2.09375,10.51953 2.91284,11.01211 2.90739,15.24071 -0.041,28.8125 -1.18068,5.43443 -2.82064,15.43082 -3.64257,22.21485 -0.82205,6.78406 -1.65328,13.47827 -1.84766,14.875 -0.31559,2.26492 -0.27325,2.34817 0.39062,0.76171 0.4094,-0.97836 1.73057,-8.65115 2.9336,-17.05078 1.20302,-8.39958 3.11323,-19.9027 4.24414,-25.56054 2.26121,-11.31228 2.29382,-10.67164 -1.3086,-24.53907 -0.82937,-3.19253 -1.74258,-7.11074 -2.02929,-8.70703 -0.22715,-1.26402 -0.40596,-1.89635 -0.55469,-1.92383 z"
       style="fill:#ffffff;stroke-width:0.999999" />
    <path
       id="path1980"
       transform="scale(0.26458333)"
       d="m 517.17383,480.91406 c -1.37787,0.0227 -2.9892,1.67102 -2.34766,2.70899 0.76354,1.23549 3.59227,0.59206 3.87305,-0.88086 0.13342,-0.69956 -0.29785,-1.47762 -0.95703,-1.73047 -0.17991,-0.0688 -0.37152,-0.10068 -0.56836,-0.0977 z"
       style="fill:#ffffff;stroke-width:0.999999" />
    <path
       id="path1978"
       transform="scale(0.26458333)"
       d="m 517.44531,478.67969 c 0.672,0.0265 1.37638,0.22189 2.07813,0.59765 1.8105,0.969 2.00891,4.47363 0.34765,6.13477 -0.6271,0.62714 -1.19817,1.09724 -1.26953,1.04297 -0.0707,-0.0541 -0.82937,-0.2351 -1.68554,-0.40235 -0.85622,-0.16781 -2.15215,-0.96446 -2.87891,-1.76757 -1.20287,-1.32923 -1.2248,-1.6331 -0.23438,-3.4043 0.83536,-1.49318 2.16418,-2.25892 3.64258,-2.20117 z"
       style="fill:#ffffff;stroke-width:0.999999" />
    <path
       id="path1976"
       transform="scale(0.26458333)"
       d="m 516.88672,477.03516 c -1.92518,0.0491 -3.77721,1.04529 -4.57227,2.96484 -1.34978,3.2586 -0.46413,5.48435 2.70508,6.79883 3.44568,1.42919 4.39404,1.45921 5.67969,0.17383 2.17493,-2.1749 2.60906,-4.79528 1.19922,-7.21875 -1.08851,-1.8711 -3.08662,-2.76819 -5.01172,-2.71875 z"
       style="fill:#ffffff;stroke-width:0.999999" />
    <path
       id="path1974"
       transform="scale(0.26458333)"
       d="m 501.09375,471.80859 c 2.9605,-0.0151 5.35565,1.73918 5.82227,4.53516 0.62014,3.7163 1.82217,7.45815 2.89843,9.02344 0.51183,0.74411 0.75718,1.80466 0.54493,2.35742 -0.58311,1.5196 -3.03458,1.15775 -7.76954,-1.14844 -6.29125,-3.06414 -7.08483,-4.06299 -6.35742,-8.01562 0.57472,-3.12299 0.63307,-3.18042 1.39453,-1.43946 0.43635,0.99769 0.98087,2.70264 1.21289,3.78907 0.41919,1.96312 3.23752,5.22924 3.92188,4.54492 0.19691,-0.19692 -0.30993,-1.09201 -1.12695,-1.98828 -0.81691,-0.89636 -1.70342,-2.85594 -1.97071,-4.35547 -0.30954,-1.73647 -1.12999,-3.14845 -2.25976,-3.88867 -2.17232,-1.42337 -1.78925,-2.18677 1.5664,-3.11328 0.72669,-0.2007 1.43982,-0.29738 2.12305,-0.30079 z"
       style="fill:#ffffff;stroke-width:0.999999" />
    <path
       id="path1972"
       transform="scale(0.26458333)"
       d="m 519.80078,465.46289 c 1.82839,0.0518 3.58251,0.41282 5.20117,1.08984 10.82068,4.52584 11.363,18.62713 1.00782,26.22852 -2.07368,1.52224 -3.39301,2.89305 -2.93165,3.04687 1.26055,0.42021 7.98376,-4.78355 9.1875,-7.11132 1.0591,-2.04809 2.00503,-2.40457 10.63282,-3.99024 3.77427,-0.69369 4.58564,1.00874 3.57617,7.49414 -0.98956,6.35811 -3.35418,15.52377 -4.78125,18.53125 -1.20344,2.53595 -5.36605,7.75848 -5.41602,6.79493 -0.0151,-0.31333 0.49815,-1.37285 1.14063,-2.35352 0.80681,-1.2313 1.16242,-3.41232 1.1543,-7.04883 -0.0151,-6.97224 0.0635,-6.59858 -1.65235,-7.66992 -1.29033,-0.8058 -1.88552,-0.71285 -4.17187,0.65039 -2.1015,1.25288 -4.05182,1.63732 -9.19727,1.81836 -3.59153,0.12699 -7.18231,0.18806 -7.98047,0.13476 -7.55025,-0.50517 -11.09323,-0.10094 -14.96093,1.7129 -2.24266,1.05157 -5.41521,3.11979 -7.04883,4.5957 l -2.97071,2.68359 -1.43359,-2.35742 c -2.02295,-3.3264 -2.50677,-7.22095 -1.47266,-11.8418 1.19433,-5.33703 3.42366,-9.11973 6.40235,-10.85937 l 2.46094,-1.43555 3.47851,1.95508 c 1.91354,1.07569 3.74535,1.88437 4.07031,1.79687 0.32504,-0.0877 1.28366,0.0769 2.12891,0.36524 2.11412,0.7223 5.35547,-0.62997 5.35547,-2.23438 0,-0.71913 -0.4617,-1.96785 -1.02735,-2.77539 -0.5656,-0.80753 -1.24763,-2.75811 -1.51367,-4.33398 -0.85255,-5.04843 -1.82183,-7.36334 -3.37109,-8.05469 -1.40693,-0.62778 -1.29163,-0.82222 1.65625,-2.81445 4.07535,-2.75414 8.45431,-4.12924 12.47656,-4.01563 z"
       style="fill:#ffffff;stroke-width:0.999999" />
    <path
       id="path1970"
       transform="scale(0.26458333)"
       d="m 401.65625,462.97266 1.99609,3.33007 c 1.45947,2.43489 2.9771,7.69817 5.65039,19.58985 l 3.65625,16.25976 -1.17187,11.60938 c -0.83376,8.26171 -1.98319,14.64365 -3.98438,22.13086 -1.57519,5.89323 -3.32719,14.82779 -3.98437,20.31445 -0.6452,5.38738 -1.8035,12.29805 -2.57422,15.35742 -0.77072,3.05949 -1.40234,6.38718 -1.40234,7.39453 0,2.01109 -0.84906,2.91425 -1.87891,1.99805 -0.36359,-0.32315 -2.12285,-1.15386 -3.91016,-1.8457 -1.78726,-0.69188 -4.59295,-2.45473 -6.23632,-3.91797 -1.64342,-1.46321 -4.01235,-3.477 -5.26368,-4.47461 l -2.27539,-1.8125 1.39454,-10.52148 c 0.80262,-6.05806 5.233,-27.60121 10.44531,-50.78907 4.97854,-22.14795 9.16112,-41.25002 9.29492,-42.44726 z"
       style="fill:#ffffff;stroke-width:0.999999" />
    <path
       id="path1968"
       transform="scale(0.26458333)"
       d="m 433.95508,440.09766 c -1.34415,0.0654 -2.79187,0.60513 -4.12696,1.69726 -5.2786,4.318 -6.88451,5.07925 -10.44921,4.95313 -5.49903,-0.19465 -10.63913,-1.37996 -14.58008,-3.35938 -4.3256,-2.17262 -5.70722,-2.25676 -7.89844,-0.48242 -2.35752,1.909 -2.23959,5.64287 0.24609,7.78125 2.22603,1.91463 8.93283,4.57149 13.57813,5.37891 1.79577,0.31219 5.67035,0.60746 8.60742,0.65429 4.67766,0.0748 5.86579,-0.1958 9.58008,-2.17578 6.56462,-3.49886 10.10937,-6.84111 10.10937,-9.5293 0,-2.9707 -2.00081,-4.78475 -4.49609,-4.91601 -0.18709,-0.0113 -0.37865,-0.0113 -0.57031,-0.002 z"
       style="fill:#ffffff;stroke-width:0.999999" />
    <path
       id="path1966"
       transform="scale(0.26458333)"
       d="m 458.01953,423.58984 c -0.482,0.0431 -1.31735,0.43725 -2.13672,1.03907 -1.09251,0.80239 -3.46583,2.01983 -5.27539,2.70703 -2.81446,1.0687 -4.02057,1.13607 -8.34375,0.46094 -2.77969,-0.43416 -5.93354,-1.42821 -7.00976,-2.20899 -1.07619,-0.78013 -2.12811,-1.14512 -2.33594,-0.80859 -0.68164,1.10283 1.35282,3.03625 4.30078,4.08593 3.52611,1.25556 11.16526,1.39231 14.92578,0.26563 2.86424,-0.85814 7.10765,-4.57989 6.22656,-5.46094 -0.0684,-0.0688 -0.19055,-0.0948 -0.35156,-0.0801 z"
       style="fill:#ffffff;stroke-width:0.999999" />
    <path
       id="path1964"
       transform="scale(0.26458333)"
       d="m 376.63867,422.09375 c -1.43317,0.47773 3.60828,5.55654 7.38281,7.4375 4.6955,2.33919 6.2356,2.34318 13.34961,0.0195 5.71068,-1.86418 7.55078,-2.84782 7.55079,-4.03516 0,-1.14364 -2.20997,-0.67371 -7.25586,1.54102 -7.54731,3.31245 -9.4067,3.04763 -16.48243,-2.33789 -2.08131,-1.58411 -4.1263,-2.76458 -4.54492,-2.625 z"
       style="fill:#ffffff;stroke-width:0.999999" />
    <path
       id="path1962"
       transform="scale(0.26458333)"
       d="m 391.34961,399.41016 c -7.17608,0.093 -14.02313,5.69981 -13.98242,13.91015 0.0302,6.33067 3.64645,11.17024 10.05664,13.46094 5.01706,1.79293 9.45912,0.69733 13.65039,-3.36914 6.34934,-6.1604 6.20543,-14.52275 -0.35156,-20.43945 -2.78015,-2.50867 -6.11117,-3.60472 -9.37305,-3.5625 z"
       style="fill:#ffffff;stroke-width:0.999999" />
    <path
       id="path1960"
       transform="scale(0.26458333)"
       d="m 445.91602,398.75977 c -5.16889,0 -9.17469,1.99656 -11.7168,5.83789 -2.23476,3.377 -3.0006,8.74665 -1.77539,12.45898 0.98528,2.98556 4.66433,6.93902 7.6875,8.26367 3.8115,1.66995 9.82693,1.27256 13.12695,-0.86719 4.74044,-3.07381 6.46289,-6.24949 6.46289,-11.9082 0,-4.04659 -0.32123,-5.30678 -1.99609,-7.83789 -2.61169,-3.94658 -6.57732,-5.94726 -11.78906,-5.94726 z"
       style="fill:#ffffff;stroke-width:0.999999" />
    <path
       id="path1958"
       transform="scale(0.26458333)"
       d="m 281.68164,340.02344 4.11914,2.05078 c 4.55582,2.27087 16.69932,4.45636 24.72656,4.44922 4.16386,-0.004 5.21419,0.32538 10.15625,3.16797 23.82155,13.70267 44.30358,19.57263 75.33985,21.5957 11.62722,0.7579 17.15992,0.70431 37.91992,-0.36719 13.36857,-0.6898 26.3554,-1.61066 28.85937,-2.04687 2.50402,-0.4361 4.69612,-0.65155 4.86915,-0.47852 0.17348,0.17303 0.82912,2.25904 1.45898,4.63672 5.76098,21.74883 3.66822,53.20786 -5.00977,75.3125 -7.84252,19.97673 -20.23163,35.4472 -37.58007,46.92578 -4.81739,3.18747 -8.95882,5.79448 -9.20313,5.79297 -0.24453,-9.8e-4 -1.8002,-6.28826 -3.45703,-13.96875 -1.65691,-7.68042 -3.74931,-15.922 -4.65039,-18.31641 -2.53478,-6.73621 -7.72408,-11.01221 -9.9043,-8.16211 -0.96007,1.25511 -9.11624,32.22248 -11.51367,43.71485 -1.08227,5.18789 -2.32907,9.82879 -2.76953,10.3125 -0.44047,0.48378 -3.18812,1.38046 -6.10742,1.99414 -6.37465,1.33999 -6.85911,1.35582 -7.95313,0.26172 -0.46957,-0.46953 -4.79527,-1.27913 -9.61133,-1.80078 -51.09993,-5.53516 -84.56698,-28.30848 -97.19336,-66.13282 -4.47468,-13.40466 -5.36909,-19.84239 -5.41406,-38.95898 -0.0329,-13.97189 0.216,-18.70399 1.26172,-23.94336 3.49306,-17.50193 9.8173,-31.83963 18.79688,-42.61133 z"
       style="fill:#ffffff;stroke-width:0.999999" />
    <path
       id="path1956"
       transform="scale(0.26458333)"
       d="m 444.36719,328.39648 c 2.87285,-0.0874 5.35041,0.51808 9.15039,1.76563 5.60039,1.83868 18.9488,4.74805 21.78711,4.74805 5.0671,0 9.42773,5.19599 9.42773,11.23437 0,4.35359 -2.2215,6.60963 -8.80469,8.93359 -9.19275,3.24533 -17.70156,4.5107 -37.63085,5.59376 -17.52382,0.95233 -36.35388,1.22045 -42.8086,0.61132 -25.8152,-2.43616 -39.13889,-5.51734 -54.06445,-12.5039 l -5.7793,-2.70508 11.60742,-0.86914 c 31.28023,-2.33916 60.32611,-7.23021 85.60352,-14.41406 5.37184,-1.5267 8.63882,-2.30713 11.51172,-2.39454 z"
       style="fill:#ffffff;stroke-width:0.999999" />
    <path
       id="path1954"
       transform="scale(0.26458333)"
       d="m 422.11133,269.53711 c 0.27817,0.008 0.47473,0.0313 0.58203,0.0723 2.18925,0.83477 4.95321,3.86939 7.07031,7.76367 3.86831,7.11555 8.94596,26.96766 9.41602,36.81054 l 0.20508,4.30664 -3.26368,0.98633 c -26.51905,8.01789 -62.42422,14.0061 -96.86328,16.1543 -24.08109,1.50212 -42.70126,0.52308 -49.1582,-2.58398 -2.50366,-1.20482 -2.7207,-1.5506 -2.7207,-4.35157 0,-5.5636 12.58126,-45.13626 16.44921,-51.74023 l 1.85938,-3.17578 4.81445,0.40429 c 2.64736,0.22232 11.99407,1.23762 20.77344,2.25782 8.77937,1.02017 17.62268,1.86029 19.65039,1.86523 5.8776,0.014 39.95887,-4.14615 55.80469,-6.8125 7.48422,-1.25936 13.43493,-2.00855 15.38086,-1.95703 z"
       style="fill:#ffffff;stroke-width:0.999999" />
    <path
       id="path1952"
       transform="scale(0.26458333)"
       d="m 372.125,255.39648 c 3.76804,0.002 7.68292,0.12781 12.84375,0.35352 12.70847,0.55584 17.11918,1.02463 21.63477,2.29688 3.11943,0.87886 5.40422,1.83265 5.07812,2.12109 -0.94431,0.83544 -18.59862,3.47239 -38.98047,5.82226 -21.38173,2.46516 -22.89727,2.49586 -37.79687,0.73829 -15.98386,-1.88543 -18.50196,-2.27791 -18.50196,-2.875 0,-0.73515 6.94648,-4.06786 10.51954,-5.04688 1.59623,-0.43738 11.71948,-1.46139 22.49414,-2.27539 10.5563,-0.7975 16.42895,-1.138 22.70898,-1.13477 z"
       style="fill:#ffffff;stroke-width:0.999999" />
    <path
       id="path1948"
       transform="scale(0.26458333)"
       d="m 365.17383,247.92578 c -26.50147,-0.13141 -52.85661,3.72572 -61.5293,14.00586 -4.97645,5.031 -8.19353,8.9767 -9.61328,11.79102 -2.63508,5.22347 -7.47687,19.44891 -12.80078,37.60546 -2.22326,7.58218 -4.17129,14.11266 -4.33008,14.51172 -4.92355,10.2279 -2.32018,5.80062 -10.19922,16.78711 l -1.92969,2.91797 c -5.59125,8.46106 -11.23733,22.3255 -13.69531,33.625 -4.25705,19.57024 -3.64465,46.68562 1.50195,66.38867 3.23366,12.37943 9.4106,25.4133 16.34571,34.49414 l 3.07031,4.02149 -2.19141,2.87109 c -7.37785,9.66887 -10.44936,24.33842 -9.79492,46.76953 0.57898,19.84498 6.1089,54.51956 10.33985,64.83204 1.57907,3.84876 1.94683,6.37387 2.68945,18.42773 1.43838,33.63134 -1.50055,56.04069 0.39453,58.37305 4.19885,4.38633 6.19387,1.08795 9.74219,2.55078 l 0.002,0.002 c 0.91262,0.64059 1.00955,1.77559 0.76172,2.76953 -1.29283,14.06396 -3.06024,28.08177 -4.15039,42.16406 -0.97502,15.21642 -0.56023,30.47352 -0.52149,45.70899 0.27258,31.78609 0.7554,63.58441 2.55469,95.32617 0.43843,6.95909 0.7779,13.95407 1.99805,20.82813 0.31929,1.22116 1.02258,2.48864 2.27344,2.9375 1.88205,1.82985 2.76418,4.38255 4.05664,6.61523 1.51067,2.86549 3.62867,5.60964 6.70898,6.87695 4.35027,1.95848 9.22203,1.93312 13.89063,2.29883 4.86867,0.22942 9.9662,-0.33073 14.21679,-2.89453 6.31944,-3.48775 10.844,-9.3148 16.66211,-13.47852 1.21654,-0.64323 2.64254,-0.97357 3.55664,-2.08203 1.23771,-1.1311 2.02974,-2.78961 1.79688,-4.48828 -0.13565,-4.05101 -0.89391,-8.05031 -1.17383,-12.0918 -0.99581,-11.61358 -0.79456,-23.29525 -0.26172,-34.92773 1.23811,-24.45022 4.8947,-48.70434 9.3711,-72.75 2.2791,-11.73532 4.75759,-23.47311 8.5332,-34.83203 1.51138,-4.25477 3.09462,-8.57886 5.76172,-12.26367 1.2728,-1.79471 3.40991,-3.26135 5.70117,-2.83789 1.45933,0.19426 2.33818,1.4566 3,2.64258 2.97607,4.84308 4.11685,10.54458 4.52734,16.14648 0.89178,9.46934 0.95624,18.98922 1.2168,28.49023 0.56126,24.4613 0.58224,48.93862 1.63477,73.38672 0.69169,13.81701 2.3251,27.56367 4.0957,41.27735 0.40743,2.94342 0.79239,5.8959 1.34375,8.81445 0.60998,1.58143 2.09209,2.57641 3.17383,3.81836 4.00924,3.94344 8.33137,7.58139 12.91601,10.83594 4.30133,2.54982 9.56087,2.65935 14.38672,1.99218 8.13714,-1.17993 15.64117,-4.97454 22.32031,-9.63867 2.23779,-1.47277 4.49186,-3.03805 7.00782,-3.97265 1.65619,-0.19427 3.05512,-1.6706 3.07031,-3.35547 1.39714,-7.47103 1.79807,-15.07749 2.4082,-22.64063 1.65521,-22.68911 2.57787,-45.42886 2.96289,-68.17383 0.28536,-24.21479 -1.83877,-80.47897 -2.65039,-104.67773 -0.7144,-5.25827 0.89959,-4.71363 2.9961,-6.2793 4.2877,-2.47993 -0.7088,-40.34216 -0.7088,-60.53716 V 606.875 l 3.25781,2.86719 c 4.18901,3.68727 8.15876,4.78531 15.77735,4.36133 12.17242,-0.67741 18.44377,-5.72357 23.33984,-18.7793 6.49614,-17.32245 13.17048,-32.1324 19.25586,-42.72656 10.46963,-18.22659 13.28137,-25.04413 10.92578,-26.5 -1.43985,-0.88978 -0.67776,-2.54019 1.63281,-3.53711 1.29695,-0.55968 4.11178,-2.81987 6.25586,-5.02149 3.40781,-3.49908 4.11945,-4.76417 5.65821,-10.05664 2.69699,-9.27666 4.28159,-20.52868 3.21875,-22.86133 -0.81494,-1.78866 -1.06622,-1.8669 -4.64063,-1.41797 -2.079,0.26079 -4.7972,0.66358 -6.03711,0.89258 l -2.25195,0.41602 v -3.91406 c 0,-8.11193 -2.6029,-12.23247 -9.75781,-15.44336 -3.67008,-1.64716 -4.90165,-1.86565 -8.0918,-1.4375 -4.46634,0.59939 -8.26356,2.06631 -10.29687,3.97656 -0.81143,0.76222 -3.52823,1.86392 -6.03711,2.44922 -2.50893,0.58526 -4.99588,1.4238 -5.52539,1.86328 -0.67567,0.56062 -0.93067,2.59379 -0.85743,6.8125 l 0.10352,6.01367 -2.68164,1.9082 c -5.42166,3.22734 -9.60277,17.57798 -3.36133,24.93555 1.38089,1.52908 1.37144,1.57169 -1.50391,6.11914 -3.30697,5.23023 -2.62799,5.70333 -6.47461,-4.47656 -5.81419,-14.83612 -5.37089,-13.78889 -9.57421,-21.13281 -1.39669,-2.44759 -4.55164,-6.55953 -7.00977,-9.13867 l -4.4668,-4.68946 3.08985,-4.78906 c 9.95629,-18.24049 11.41505,-20.61466 17.37109,-43.03516 3.68776,-24.09751 3.38402,-43.20063 -0.95117,-59.91211 l -1.37109,-5.2832 4.83203,-2.18555 c 15.22979,-4.9113 16.32711,-22.68572 6.64453,-32.71289 -3.66535,-3.79588 -6.11437,-4.67377 -18.50196,-6.63672 -3.99061,-0.63245 -10.14407,-2.04828 -13.67578,-3.14648 -7.04239,-2.18984 -7.72851,-2.91951 -7.72851,-8.24805 0,-1.55 -0.66402,-6.25638 -1.47461,-10.45703 -2.43579,-23.22232 -13.75192,-37.22883 -17.39063,-41.74609 -4.88326,-6.85709 -35.10562,-12.13037 -65.14062,-12.2793 z"
       style="fill:#ffffff;stroke-width:0.999999" />
    <path
       inkscape:export-ydpi="58.576767"
       inkscape:export-xdpi="58.576767"
       inkscape:export-filename="C:\Projects\vidmon\image\sprites\baratkozoelado.png"
       sodipodi:nodetypes="scsscccsscccssccccccccccccccccccccccccccccccccccccccccccsssssssscscssssssccccscccccccccssssccssssscssssssscscccsssccsscssssssscsscccssccccscsccsscscssssscsscccsssssscsccssscsccscsssssssccsscssssssscsccscsscscccsssscsscccscccssssssscscsscccccsscccccsscsscccsccssssscsssccsscscccsccsccssscsssccsscsssssssccsssssscscssssssssccccccccccccsscccscsssssssssscsccscccccccscssccscsscccssccsscssssssssscccsssssccscsscccscscsssccscsssssccssccscssssscscsscccccccsscscccccccccccsccscscccccccsssscccscscccscccccccccccccccccccccccccccccccccccccccccccccccccccccccccc"
       transform="scale(0.26458333)"
       d="m 365.17383,247.92578 c -26.50147,-0.13141 -52.85661,3.72572 -61.5293,14.00586 -4.97645,5.031 -8.19353,8.9767 -9.61328,11.79102 -2.63508,5.22347 -7.47687,19.44891 -12.80078,37.60546 -2.22326,7.58218 -4.17129,14.11266 -4.33008,14.51172 -4.92355,10.2279 -2.32018,5.80062 -10.19922,16.78711 l -1.92969,2.91797 c -5.59125,8.46106 -11.23733,22.3255 -13.69531,33.625 -4.25705,19.57024 -3.64465,46.68562 1.50195,66.38867 3.23366,12.37943 9.4106,25.4133 16.34571,34.49414 l 3.07031,4.02149 -2.19141,2.87109 c -7.37785,9.66887 -10.44936,24.33842 -9.79492,46.76953 0.57898,19.84498 6.1089,54.51956 10.33985,64.83204 1.57907,3.84876 1.94683,6.37387 2.68945,18.42773 1.43838,33.63134 -1.50055,56.04069 0.39453,58.37305 4.19885,4.38633 6.19387,1.08795 9.74219,2.55078 l 0.002,0.002 c 0.91262,0.64059 1.00955,1.77559 0.76172,2.76953 -1.29283,14.06396 -3.06024,28.08177 -4.15039,42.16406 -0.97502,15.21642 -0.56023,30.47352 -0.52149,45.70899 0.27258,31.78609 0.7554,63.58441 2.55469,95.32617 0.43843,6.95909 0.7779,13.95407 1.99805,20.82813 0.31929,1.22116 1.02258,2.48864 2.27344,2.9375 1.88205,1.82985 2.76418,4.38255 4.05664,6.61523 1.51067,2.86549 3.62867,5.60964 6.70898,6.87695 4.35027,1.95848 9.22203,1.93312 13.89063,2.29883 4.86867,0.22942 9.9662,-0.33073 14.21679,-2.89453 6.31944,-3.48775 10.844,-9.3148 16.66211,-13.47852 1.21654,-0.64323 2.64254,-0.97357 3.55664,-2.08203 1.23771,-1.1311 2.02974,-2.78961 1.79688,-4.48828 -0.13565,-4.05101 -0.89391,-8.05031 -1.17383,-12.0918 -0.99581,-11.61358 -0.79456,-23.29525 -0.26172,-34.92773 1.23811,-24.45022 4.8947,-48.70434 9.3711,-72.75 2.2791,-11.73532 4.75759,-23.47311 8.5332,-34.83203 1.51138,-4.25477 3.09462,-8.57886 5.76172,-12.26367 1.2728,-1.79471 3.40991,-3.26135 5.70117,-2.83789 1.45933,0.19426 2.33818,1.4566 3,2.64258 2.97607,4.84308 4.11685,10.54458 4.52734,16.14648 0.89178,9.46934 0.95624,18.98922 1.2168,28.49023 0.56126,24.4613 0.58224,48.93862 1.63477,73.38672 0.69169,13.81701 2.3251,27.56367 4.0957,41.27735 0.40743,2.94342 0.79239,5.8959 1.34375,8.81445 0.60998,1.58143 2.09209,2.57641 3.17383,3.81836 4.00924,3.94344 8.33137,7.58139 12.91601,10.83594 4.30133,2.54982 9.56087,2.65935 14.38672,1.99218 8.13714,-1.17993 15.64117,-4.97454 22.32031,-9.63867 2.23779,-1.47277 4.49186,-3.03805 7.00782,-3.97265 1.65619,-0.19427 3.05512,-1.6706 3.07031,-3.35547 1.39714,-7.47103 1.79807,-15.07749 2.4082,-22.64063 1.65521,-22.68911 2.57787,-45.42886 2.96289,-68.17383 0.28536,-24.21479 -1.83877,-80.47897 -2.65039,-104.67773 -0.7144,-5.25827 0.89959,-4.71363 2.9961,-6.2793 4.2877,-2.47993 -0.7088,-40.34216 -0.7088,-60.53716 V 606.875 l 3.25781,2.86719 c 4.18901,3.68727 8.15876,4.78531 15.77735,4.36133 12.17242,-0.67741 18.44377,-5.72357 23.33984,-18.7793 6.49614,-17.32245 13.17048,-32.1324 19.25586,-42.72656 10.46963,-18.22659 13.28137,-25.04413 10.92578,-26.5 -1.43985,-0.88978 -0.67776,-2.54019 1.63281,-3.53711 1.29695,-0.55968 4.11178,-2.81987 6.25586,-5.02149 3.40781,-3.49908 4.11945,-4.76417 5.65821,-10.05664 2.69699,-9.27666 4.28159,-20.52868 3.21875,-22.86133 -0.81494,-1.78866 -1.06622,-1.8669 -4.64063,-1.41797 -2.079,0.26079 -4.7972,0.66358 -6.03711,0.89258 l -2.25195,0.41602 v -3.91406 c 0,-8.11193 -2.6029,-12.23247 -9.75781,-15.44336 -3.67008,-1.64716 -4.90165,-1.86565 -8.0918,-1.4375 -4.46634,0.59939 -8.26356,2.06631 -10.29687,3.97656 -0.81143,0.76222 -3.52823,1.86392 -6.03711,2.44922 -2.50893,0.58526 -4.99588,1.4238 -5.52539,1.86328 -0.67567,0.56062 -0.93067,2.59379 -0.85743,6.8125 l 0.10352,6.01367 -2.68164,1.9082 c -5.42166,3.22734 -9.60277,17.57798 -3.36133,24.93555 1.38089,1.52908 1.37144,1.57169 -1.50391,6.11914 -3.30697,5.23023 -2.62799,5.70333 -6.47461,-4.47656 -5.81419,-14.83612 -5.37089,-13.78889 -9.57421,-21.13281 -1.39669,-2.44759 -4.55164,-6.55953 -7.00977,-9.13867 l -4.4668,-4.68946 3.08985,-4.78906 c 9.95629,-18.24049 11.41505,-20.61466 17.37109,-43.03516 3.68776,-24.09751 3.38402,-43.20063 -0.95117,-59.91211 l -1.37109,-5.2832 4.83203,-2.18555 c 15.22979,-4.9113 16.32711,-22.68572 6.64453,-32.71289 -3.66535,-3.79588 -6.11437,-4.67377 -18.50196,-6.63672 -3.99061,-0.63245 -10.14407,-2.04828 -13.67578,-3.14648 -7.04239,-2.18984 -7.72851,-2.91951 -7.72851,-8.24805 0,-1.55 -0.66402,-6.25638 -1.47461,-10.45703 -2.43579,-23.22232 -13.75192,-37.22883 -17.39063,-41.74609 -4.88326,-6.85709 -35.10562,-12.13037 -65.14062,-12.2793 z m 6.95117,7.4707 c 3.76804,0.002 7.68292,0.12781 12.84375,0.35352 12.70847,0.55584 17.11918,1.02463 21.63477,2.29688 3.11943,0.87886 5.40422,1.83265 5.07812,2.12109 -0.94431,0.83544 -18.59862,3.47239 -38.98047,5.82226 -21.38173,2.46516 -22.89727,2.49586 -37.79687,0.73829 -15.98386,-1.88543 -18.50196,-2.27791 -18.50196,-2.875 0,-0.73515 6.94648,-4.06786 10.51954,-5.04688 1.59623,-0.43738 11.71948,-1.46139 22.49414,-2.27539 10.5563,-0.7975 16.42895,-1.138 22.70898,-1.13477 z m 49.98633,14.14063 c 0.27817,0.008 0.47473,0.0313 0.58203,0.0723 2.18925,0.83477 4.95321,3.86939 7.07031,7.76367 3.86831,7.11555 8.94596,26.96766 9.41602,36.81054 l 0.20508,4.30664 -3.26368,0.98633 c -26.51905,8.01789 -62.42422,14.0061 -96.86328,16.1543 -24.08109,1.50212 -42.70126,0.52308 -49.1582,-2.58398 -2.50366,-1.20482 -2.7207,-1.5506 -2.7207,-4.35157 0,-5.5636 12.58126,-45.13626 16.44921,-51.74023 l 1.85938,-3.17578 4.81445,0.40429 c 2.64736,0.22232 11.99407,1.23762 20.77344,2.25782 8.77937,1.02017 17.62268,1.86029 19.65039,1.86523 5.8776,0.014 39.95887,-4.14615 55.80469,-6.8125 7.48422,-1.25936 13.43493,-2.00855 15.38086,-1.95703 z m 22.25586,58.85937 c 2.87285,-0.0874 5.35041,0.51808 9.15039,1.76563 5.60039,1.83868 18.9488,4.74805 21.78711,4.74805 5.0671,0 9.42773,5.19599 9.42773,11.23437 0,4.35359 -2.2215,6.60963 -8.80469,8.93359 -9.19275,3.24533 -17.70156,4.5107 -37.63085,5.59376 -17.52382,0.95233 -36.35388,1.22045 -42.8086,0.61132 -25.8152,-2.43616 -39.13889,-5.51734 -54.06445,-12.5039 l -5.7793,-2.70508 11.60742,-0.86914 c 31.28023,-2.33916 60.32611,-7.23021 85.60352,-14.41406 5.37184,-1.5267 8.63882,-2.30713 11.51172,-2.39454 z m -162.68555,11.62696 4.11914,2.05078 c 4.55582,2.27087 16.69932,4.45636 24.72656,4.44922 4.16386,-0.004 5.21419,0.32538 10.15625,3.16797 23.82155,13.70267 44.30358,19.57263 75.33985,21.5957 11.62722,0.7579 17.15992,0.70431 37.91992,-0.36719 13.36857,-0.6898 26.3554,-1.61066 28.85937,-2.04687 2.50402,-0.4361 4.69612,-0.65155 4.86915,-0.47852 0.17348,0.17303 0.82912,2.25904 1.45898,4.63672 5.76098,21.74883 3.66822,53.20786 -5.00977,75.3125 -7.84252,19.97673 -20.23163,35.4472 -37.58007,46.92578 -4.81739,3.18747 -8.95882,5.79448 -9.20313,5.79297 -0.24453,-9.8e-4 -1.8002,-6.28826 -3.45703,-13.96875 -1.65691,-7.68042 -3.74931,-15.922 -4.65039,-18.31641 -2.53478,-6.73621 -7.72408,-11.01221 -9.9043,-8.16211 -0.96007,1.25511 -9.11624,32.22248 -11.51367,43.71485 -1.08227,5.18789 -2.32907,9.82879 -2.76953,10.3125 -0.44047,0.48378 -3.18812,1.38046 -6.10742,1.99414 -6.37465,1.33999 -6.85911,1.35582 -7.95313,0.26172 -0.46957,-0.46953 -4.79527,-1.27913 -9.61133,-1.80078 -51.09993,-5.53516 -84.56698,-28.30848 -97.19336,-66.13282 -4.47468,-13.40466 -5.36909,-19.84239 -5.41406,-38.95898 -0.0329,-13.97189 0.216,-18.70399 1.26172,-23.94336 3.49306,-17.50193 9.8173,-31.83963 18.79688,-42.61133 z m 164.23438,58.73633 c -5.16889,0 -9.17469,1.99656 -11.7168,5.83789 -2.23476,3.377 -3.0006,8.74665 -1.77539,12.45898 0.98528,2.98556 4.66433,6.93902 7.6875,8.26367 3.8115,1.66995 9.82693,1.27256 13.12695,-0.86719 4.74044,-3.07381 6.46289,-6.24949 6.46289,-11.9082 0,-4.04659 -0.32123,-5.30678 -1.99609,-7.83789 -2.61169,-3.94658 -6.57732,-5.94726 -11.78906,-5.94726 z m -54.56641,0.65039 c -7.17608,0.093 -14.02313,5.69981 -13.98242,13.91015 0.0302,6.33067 3.64645,11.17024 10.05664,13.46094 5.01706,1.79293 9.45912,0.69733 13.65039,-3.36914 6.34934,-6.1604 6.20543,-14.52275 -0.35156,-20.43945 -2.78015,-2.50867 -6.11117,-3.60472 -9.37305,-3.5625 z m -14.71094,22.68359 c -1.43317,0.47773 3.60828,5.55654 7.38281,7.4375 4.6955,2.33919 6.2356,2.34318 13.34961,0.0195 5.71068,-1.86418 7.55078,-2.84782 7.55079,-4.03516 0,-1.14364 -2.20997,-0.67371 -7.25586,1.54102 -7.54731,3.31245 -9.4067,3.04763 -16.48243,-2.33789 -2.08131,-1.58411 -4.1263,-2.76458 -4.54492,-2.625 z m 81.38086,1.49609 c -0.482,0.0431 -1.31735,0.43725 -2.13672,1.03907 -1.09251,0.80239 -3.46583,2.01983 -5.27539,2.70703 -2.81446,1.0687 -4.02057,1.13607 -8.34375,0.46094 -2.77969,-0.43416 -5.93354,-1.42821 -7.00976,-2.20899 -1.07619,-0.78013 -2.12811,-1.14512 -2.33594,-0.80859 -0.68164,1.10283 1.35282,3.03625 4.30078,4.08593 3.52611,1.25556 11.16526,1.39231 14.92578,0.26563 2.86424,-0.85814 7.10765,-4.57989 6.22656,-5.46094 -0.0684,-0.0688 -0.19055,-0.0948 -0.35156,-0.0801 z m -24.06445,16.50782 c -1.34415,0.0654 -2.79187,0.60513 -4.12696,1.69726 -5.2786,4.318 -6.88451,5.07925 -10.44921,4.95313 -5.49903,-0.19465 -10.63913,-1.37996 -14.58008,-3.35938 -4.3256,-2.17262 -5.70722,-2.25676 -7.89844,-0.48242 -2.35752,1.909 -2.23959,5.64287 0.24609,7.78125 2.22603,1.91463 8.93283,4.57149 13.57813,5.37891 1.79577,0.31219 5.67035,0.60746 8.60742,0.65429 4.67766,0.0748 5.86579,-0.1958 9.58008,-2.17578 6.56462,-3.49886 10.10937,-6.84111 10.10937,-9.5293 0,-2.9707 -2.00081,-4.78475 -4.49609,-4.91601 -0.18709,-0.0113 -0.37865,-0.0113 -0.57031,-0.002 z m -32.29883,22.875 1.99609,3.33007 c 1.45947,2.43489 2.9771,7.69817 5.65039,19.58985 l 3.65625,16.25976 -1.17187,11.60938 c -0.83376,8.26171 -1.98319,14.64365 -3.98438,22.13086 -1.57519,5.89323 -3.32719,14.82779 -3.98437,20.31445 -0.6452,5.38738 -1.8035,12.29805 -2.57422,15.35742 -0.77072,3.05949 -1.40234,6.38718 -1.40234,7.39453 0,2.01109 -0.84906,2.91425 -1.87891,1.99805 -0.36359,-0.32315 -2.12285,-1.15386 -3.91016,-1.8457 -1.78726,-0.69188 -4.59295,-2.45473 -6.23632,-3.91797 -1.64342,-1.46321 -4.01235,-3.477 -5.26368,-4.47461 l -2.27539,-1.8125 1.39454,-10.52148 c 0.80262,-6.05806 5.233,-27.60121 10.44531,-50.78907 4.97854,-22.14795 9.16112,-41.25002 9.29492,-42.44726 z m 118.14453,2.49023 c 1.82839,0.0518 3.58251,0.41282 5.20117,1.08984 10.82068,4.52584 11.363,18.62713 1.00782,26.22852 -2.07368,1.52224 -3.39301,2.89305 -2.93165,3.04687 1.26055,0.42021 7.98376,-4.78355 9.1875,-7.11132 1.0591,-2.04809 2.00503,-2.40457 10.63282,-3.99024 3.77427,-0.69369 4.58564,1.00874 3.57617,7.49414 -0.98956,6.35811 -3.35418,15.52377 -4.78125,18.53125 -1.20344,2.53595 -5.36605,7.75848 -5.41602,6.79493 -0.0151,-0.31333 0.49815,-1.37285 1.14063,-2.35352 0.80681,-1.2313 1.16242,-3.41232 1.1543,-7.04883 -0.0151,-6.97224 0.0635,-6.59858 -1.65235,-7.66992 -1.29033,-0.8058 -1.88552,-0.71285 -4.17187,0.65039 -2.1015,1.25288 -4.05182,1.63732 -9.19727,1.81836 -3.59153,0.12699 -7.18231,0.18806 -7.98047,0.13476 -7.55025,-0.50517 -11.09323,-0.10094 -14.96093,1.7129 -2.24266,1.05157 -5.41521,3.11979 -7.04883,4.5957 l -2.97071,2.68359 -1.43359,-2.35742 c -2.02295,-3.3264 -2.50677,-7.22095 -1.47266,-11.8418 1.19433,-5.33703 3.42366,-9.11973 6.40235,-10.85937 l 2.46094,-1.43555 3.47851,1.95508 c 1.91354,1.07569 3.74535,1.88437 4.07031,1.79687 0.32504,-0.0877 1.28366,0.0769 2.12891,0.36524 2.11412,0.7223 5.35547,-0.62997 5.35547,-2.23438 0,-0.71913 -0.4617,-1.96785 -1.02735,-2.77539 -0.5656,-0.80753 -1.24763,-2.75811 -1.51367,-4.33398 -0.85255,-5.04843 -1.82183,-7.36334 -3.37109,-8.05469 -1.40693,-0.62778 -1.29163,-0.82222 1.65625,-2.81445 4.07535,-2.75414 8.45431,-4.12924 12.47656,-4.01563 z m -18.70703,6.3457 c 2.9605,-0.0151 5.35565,1.73918 5.82227,4.53516 0.62014,3.7163 1.82217,7.45815 2.89843,9.02344 0.51183,0.74411 0.75718,1.80466 0.54493,2.35742 -0.58311,1.5196 -3.03458,1.15775 -7.76954,-1.14844 -6.29125,-3.06414 -7.08483,-4.06299 -6.35742,-8.01562 0.57472,-3.12299 0.63307,-3.18042 1.39453,-1.43946 0.43635,0.99769 0.98087,2.70264 1.21289,3.78907 0.41919,1.96312 3.23752,5.22924 3.92188,4.54492 0.19691,-0.19692 -0.30993,-1.09201 -1.12695,-1.98828 -0.81691,-0.89636 -1.70342,-2.85594 -1.97071,-4.35547 -0.30954,-1.73647 -1.12999,-3.14845 -2.25976,-3.88867 -2.17232,-1.42337 -1.78925,-2.18677 1.5664,-3.11328 0.72669,-0.2007 1.43982,-0.29738 2.12305,-0.30079 z m 15.79297,5.22657 c -1.92518,0.0491 -3.77721,1.04529 -4.57227,2.96484 -1.34978,3.2586 -0.46413,5.48435 2.70508,6.79883 3.44568,1.42919 4.39404,1.45921 5.67969,0.17383 2.17493,-2.1749 2.60906,-4.79528 1.19922,-7.21875 -1.08851,-1.8711 -3.08662,-2.76819 -5.01172,-2.71875 z m 0.55859,1.64453 c 0.672,0.0265 1.37638,0.22189 2.07813,0.59765 1.8105,0.969 2.00891,4.47363 0.34765,6.13477 -0.6271,0.62714 -1.19817,1.09724 -1.26953,1.04297 -0.0707,-0.0541 -0.82937,-0.2351 -1.68554,-0.40235 -0.85622,-0.16781 -2.15215,-0.96446 -2.87891,-1.76757 -1.20287,-1.32923 -1.2248,-1.6331 -0.23438,-3.4043 0.83536,-1.49318 2.16418,-2.25892 3.64258,-2.20117 z m -0.27148,2.23437 c -1.37787,0.0227 -2.9892,1.67102 -2.34766,2.70899 0.76354,1.23549 3.59227,0.59206 3.87305,-0.88086 0.13342,-0.69956 -0.29785,-1.47762 -0.95703,-1.73047 -0.17991,-0.0688 -0.37152,-0.10068 -0.56836,-0.0977 z m -112.55469,0.45117 c -0.0892,-0.0151 -0.16723,0.18596 -0.23828,0.59766 -0.14929,0.86665 0.79231,5.59972 2.09375,10.51953 2.91284,11.01211 2.90739,15.24071 -0.041,28.8125 -1.18068,5.43443 -2.82064,15.43082 -3.64257,22.21485 -0.82205,6.78406 -1.65328,13.47827 -1.84766,14.875 -0.31559,2.26492 -0.27325,2.34817 0.39062,0.76171 0.4094,-0.97836 1.73057,-8.65115 2.9336,-17.05078 1.20302,-8.39958 3.11323,-19.9027 4.24414,-25.56054 2.26121,-11.31228 2.29382,-10.67164 -1.3086,-24.53907 -0.82937,-3.19253 -1.74258,-7.11074 -2.02929,-8.70703 -0.22715,-1.26402 -0.40596,-1.89635 -0.55469,-1.92383 z m 48.51953,5.22657 4.15821,4.27539 c 3.15635,3.24567 5.10655,6.25733 8.0957,12.49804 3.74955,7.82816 10.99587,26.84094 11.79883,30.95704 0.2759,1.41414 -1.09662,5.05049 -5.10938,13.54101 -3.01757,6.38506 -5.48621,12.19563 -5.48633,12.91211 -1.5e-4,1.74792 3.20719,4.86523 5.00586,4.86523 2.93375,0 5.187,-3.52124 13.00586,-20.3164 9.62,-20.66396 10.30907,-21.91328 11.73633,-21.30274 0.5986,0.25588 6.06013,2.13275 12.13867,4.17188 6.07862,2.03913 11.05618,3.96581 11.06446,4.28125 0.008,0.31559 -2.55461,5.05054 -5.69532,10.52148 -9.13651,15.91525 -12.88913,23.95918 -20.86133,44.72266 -4.28485,11.15977 -6.00959,13.54543 -11.02929,15.25586 -6.40403,2.18207 -12.03865,0.80562 -15.02735,-3.67188 -0.82745,-1.23968 -2.75365,-6.7896 -4.27929,-12.33398 -5.71276,-20.76113 -10.76595,-34.09958 -14.68555,-38.75781 -2.44883,-2.91024 -6.00583,-2.99574 -8.20703,-0.19727 -1.73934,2.21121 -1.519,4.43286 0.72461,7.28516 0.75507,0.95988 2.77591,5.23074 4.49023,9.49023 l 3.11719,7.74414 0.20313,29.20313 c -1.0066,20.56724 1.36793,41.14757 1.27138,61.67969 l 0.10547,5.97265 c -10.08843,1.03408 -22.63891,1.0608 -32.76563,1.37695 -20.34504,0.47381 -40.69383,0.79189 -61.03906,1.25586 -10.78753,0.223 -21.58744,0.034 -32.34766,-0.79882 -11.31114,-0.82405 -22.60865,-1.8755 -33.87304,-3.17774 -1.24149,-0.30576 -6.16034,-1.69755 -5.87891,-2.38867 -0.23562,-18.79058 1.20431,-31.31743 -0.41992,-49.14063 l -0.35742,-3.90234 2.375,0.4961 c 1.30653,0.27288 10.04978,1.63743 19.42773,3.03124 19.59453,2.91236 33.5691,4.36747 48.79883,5.08399 l 10.70898,0.50586 1.62891,2.94922 c 2.2394,4.05963 6.34999,6.32945 11.02734,6.08593 l 3.60157,-0.1875 1.91797,-8.34374 c 1.05501,-4.58926 2.45527,-9.77148 3.11132,-11.51758 0.65609,-1.74626 1.19336,-3.78414 1.19336,-4.52735 0,-0.74313 0.9479,-4.37622 2.10742,-8.07226 1.15956,-3.69612 2.32245,-8.27043 2.58399,-10.16602 0.26154,-1.89551 0.59748,-3.44531 0.74609,-3.44531 0.14816,0 1.92394,1.0294 3.94727,2.28711 3.48555,2.16673 3.75186,2.22135 5.04101,1.05469 0.78497,-0.71037 1.71901,-3.13709 2.20899,-5.73438 0.467,-2.47608 1.46012,-7.11407 2.20703,-10.30664 0.74683,-3.19242 1.56129,-7.02892 1.81055,-8.52539 0.36963,-2.2218 0.75987,-2.7207 2.11914,-2.7207 2.44354,0 3.483,-2.92203 3.89648,-10.94336 0.28422,-5.51044 0.11189,-7.47683 -0.83594,-9.47461 -1.14583,-2.41467 -1.11814,-2.79241 0.66602,-8.94922 1.02455,-3.53545 2.05856,-8.97768 2.29883,-12.09375 l 0.4375,-5.66602 7.33008,-4.29101 c 9.75152,-5.70811 18.97379,-12.354 24.92382,-17.96289 z m -173.9414,5.55859 4.92968,4.18164 c 6.22911,5.28439 12.86233,9.58129 21.5,13.92578 3.73112,1.87665 8.41679,4.44964 10.41211,5.7168 6.99482,4.44185 21.83434,10.09962 32.21485,12.2832 8.11523,1.7071 16.94247,1.29755 32.21875,-1.49609 2.74703,-0.50238 2.75771,-0.49477 2.28515,1.5918 -1.74708,7.71484 -1.64187,7.53478 -4.53125,7.57617 -6.65105,0.0956 -11.51503,0.86754 -13.21289,2.0957 -1.67461,1.21145 -1.81218,1.752 -1.79297,7.04492 0.0113,3.73115 0.47799,6.92899 1.33008,9.16016 1.3092,3.42807 1.31002,3.42773 4.78711,3.42773 1.91238,0 4.47519,0.20104 5.69727,0.44532 l 2.22265,0.44336 -0.29687,5.90039 c -0.26722,5.30048 -0.4829,6.03399 -2.13086,7.23437 -1.00863,0.73485 -1.83399,1.98369 -1.83399,2.77539 0,1.02414 -0.36608,1.33569 -1.26953,1.08008 -0.69832,-0.19691 -2.90312,-0.5512 -4.89844,-0.78516 -10.01997,-1.17418 -49.58353,-6.28799 -51.23828,-6.62304 -1.84457,-0.37342 -1.93783,-0.64909 -3.06445,-9.23633 -1.86723,-14.23253 -2.27921,-23.3644 -1.20312,-26.625 0.80884,-2.45038 0.77559,-3.08348 -0.23829,-4.63086 -2.39115,-3.64932 -6.41752,-3.36633 -9.12304,0.64258 -1.70994,2.53372 -1.73382,2.78458 -1.24024,13.25976 0.27674,5.87256 0.92978,13.69935 1.44922,17.39063 0.87443,6.21396 0.85245,6.71093 -0.29492,6.71093 -2.21123,0 -5.06445,2.84468 -5.06445,5.05079 0,3.64973 1.92834,5.0249 8.70703,6.20703 9.32915,1.62686 53.29187,7.60742 55.92187,7.60742 0.32508,0 -0.0872,1.53583 -0.91797,3.41406 -1.27494,2.88219 -1.52327,4.97698 -1.59179,13.42188 l -0.082,10.00586 -2.17774,-0.12696 c -20.97841,-1.20608 -55.64862,-5.38421 -68.40234,-8.24414 -2.89431,-0.64906 -7.26574,-5.28233 -8.76563,-9.29101 -1.72172,-4.60177 -5.25014,-21.77224 -7.48437,-36.41602 -2.24669,-14.72526 -2.42251,-41.40769 -0.32422,-49.3125 1.45808,-5.49305 3.99833,-11.30313 6.15234,-14.07031 z m 229.57812,0.22852 c -0.79676,0.0113 1.33892,1.82436 3.79883,2.9414 1.64681,0.74786 3.78561,1.36673 4.75,1.375 2.28181,0.0227 1.90027,-0.28649 -2.48047,-2.0039 -1.99529,-0.78221 -4.25374,-1.68169 -5.01758,-2 -0.52845,-0.22035 -0.86691,-0.31515 -1.05078,-0.3125 z m 26.71094,8.97656 c 1.81357,0.002 2.06923,1.92453 1.89258,6.98437 -0.16706,4.79078 -0.49719,6.13899 -1.98829,8.12305 -0.98343,1.30855 -1.98264,2.90386 -2.21874,3.54688 -0.51508,1.40239 -3.26501,2.26338 -3.90821,1.22265 -0.25096,-0.40618 -0.13236,-0.94643 0.26563,-1.20117 0.90508,-0.57978 3.8164,-6.57228 3.8164,-7.85547 0,-0.52358 0.65305,-0.95312 1.45118,-0.95312 0.79816,0 1.45117,-0.36133 1.45117,-0.80274 0,-0.44167 -0.49914,-0.61102 -1.10938,-0.37695 -0.78863,0.30198 -1.2274,-0.15986 -1.51562,-1.60156 -0.39289,-1.96404 -3.17969,-4.59871 -3.17969,-3.00586 0,0.41491 0.48929,0.94204 1.08789,1.17187 1.54809,0.59403 1.37138,4.51878 -0.38281,8.48438 -1.85318,4.18953 -2.55773,4.62144 -3.44532,2.11523 -0.91362,-2.57994 -7.14086,-11.00315 -8.52734,-11.53515 -2.49415,-0.95709 -0.71363,-1.70508 4.0586,-1.70508 3.61659,0 6.18068,-0.45418 8.70703,-1.54102 1.57315,-0.67672 2.72053,-1.07137 3.54492,-1.07031 z m -25.52539,11.31836 h 0.002 c 2.12277,0.002 5.67253,3.06406 7.35938,6.34961 0.46098,0.89786 0.58044,1.62535 0.26757,1.61718 -1.21719,-0.0302 -13.66517,-4.46416 -14.30078,-5.09179 -0.8533,-0.84299 3.86055,-2.87413 6.67188,-2.875 z m 23.38476,2.90234 c -0.39911,0 -0.72656,0.32767 -0.72656,0.72656 0,0.39905 0.32767,0.72461 0.72656,0.72461 0.39901,0 0.72461,-0.32579 0.72461,-0.72461 0,-0.39904 -0.32617,-0.72656 -0.72461,-0.72656 z m -160.66601,23.52539 h 0.002 c 1.34453,-0.0302 2.44482,0.0813 2.74219,0.37891 0.42055,0.42055 1.66993,0.76562 2.77734,0.76562 1.87809,0 1.98449,0.15759 1.57422,2.35743 -0.45993,2.46633 -3.08314,7.3856 -3.64062,6.82812 -0.17764,-0.17726 0.16777,-1.49267 0.76562,-2.92383 0.59872,-1.43108 0.85732,-2.74355 0.57813,-2.91601 -1.45539,-0.89953 -10.48166,5.40888 -9.35352,6.53711 0.30901,0.30878 1.55168,-0.0227 2.76172,-0.73829 l 2.20117,-1.29882 -0.47461,2.52343 c -0.58057,3.09468 0.5027,3.97958 2.92774,2.39063 2.31287,-1.51555 2.5332,-1.46607 2.5332,0.58398 0,0.95441 -0.51775,1.93483 -1.14844,2.17774 -1.62963,0.62457 -5.41777,0.44642 -7.61133,-0.35938 -1.65489,-0.60801 -1.97418,-1.32735 -2.80078,-6.29297 -1.11928,-6.71637 -1.1172,-8.20833 0.008,-8.90429 1.00037,-0.61833 3.91736,-1.05975 6.15821,-1.10938 z m 37.78125,4.91406 h 0.002 c 0.13077,-0.0189 0.23231,0.26417 0.28711,0.94532 0.0631,0.79808 0.0571,2.69644 -0.0117,4.21679 -0.071,1.52028 -0.58699,4.13255 -1.14844,5.80469 l -1.01953,3.03906 0.33399,-5.50781 c 0.26192,-4.31066 1.08737,-8.39883 1.55664,-8.49805 z m -10.73242,21.72657 c -0.24,0.1474 -0.85872,1.59252 -1.72461,4.25195 -0.97444,2.99301 -1.77574,5.52319 -1.78125,5.62305 -0.004,0.0998 0.31145,0.18164 0.70312,0.18164 0.39133,0 0.91219,-0.89867 1.1582,-1.9961 0.24567,-1.09746 0.73959,-3.13835 1.09766,-4.53515 0.64736,-2.52473 0.78657,-3.67313 0.54688,-3.52539 z m -20.33204,10.21679 c 1.1531,-0.0264 3.04477,1.25512 6.28711,3.96485 l 2.76563,2.31055 -0.41406,5.30859 c -0.22753,2.91897 -0.69389,6.04765 -1.03711,6.95508 -0.56644,1.49741 -0.80303,1.26248 -2.56055,-2.56641 -1.06503,-2.32025 -3.11002,-5.75754 -4.54492,-7.63672 -2.24182,-2.93601 -2.54221,-3.77447 -2.13281,-5.95703 0.28989,-1.54515 0.73987,-2.35789 1.63671,-2.37891 z m -8.55078,13.4629 1.44922,1.84374 c 3.75279,4.77105 5.30096,11.63045 3.6211,16.04883 -0.42202,1.10997 -1.22808,1.82064 -1.9961,1.76172 -3.73118,-0.28649 -4.41065,-0.73936 -4.88086,-3.24609 -0.53657,-2.85993 0.19665,-12.08636 1.16797,-14.69336 z m 8.47657,29.55859 c 0.0877,0.0397 -0.37974,1.76433 -1.04297,3.83789 -0.66306,2.07345 -1.55195,3.76905 -1.97461,3.76758 -1.08505,-0.003 -4.93396,-2.43749 -6.11133,-3.86328 -1.80753,-2.18914 -0.50374,-3.23742 4.38672,-3.53321 2.52072,-0.15231 4.65408,-0.24678 4.74219,-0.20898 z m -84.63477,59.83398 c 0.0473,-0.004 0.0958,-0.002 0.14453,0.0117 4.7119,0.36397 9.45412,0.6199 14.16992,1.04102 12.1319,0.9541 24.26395,2.15188 36.44532,2.16015 13.63604,0.0718 27.26589,-0.43564 40.89648,-0.75195 18.827,-0.48238 37.6596,-1.06622 56.49219,-1.02344 0.85844,0.16517 2.18677,-0.39093 2.6289,0.63672 0.8829,2.75297 0.84023,5.68836 1.14649,8.53906 0.99545,13.08514 1.20915,26.21332 1.51367,39.32813 0.59391,30.85727 0.59303,61.72781 -0.0645,92.58398 -0.30766,13.052 -0.8766,26.10327 -2.11133,39.10352 -0.37266,4.15918 -0.7912,8.31378 -1.22656,12.4668 0.32239,1.08827 -0.77854,2.10322 -1.80664,1.53515 -4.23648,-0.69959 -8.40954,-1.74822 -12.66211,-2.34765 -5.72501,-0.77091 -11.55343,-0.43285 -17.20703,0.69726 -4.44307,0.81404 -8.89107,1.94958 -13.44336,1.77735 -0.66516,-1.22128 -0.33031,-2.67932 -0.6504,-3.99415 -1.74069,-15.88947 -3.67528,-31.7865 -4.04492,-47.7832 -0.74865,-21.59267 -0.81092,-43.20135 -1.26367,-64.80078 -0.19238,-9.53216 -0.38486,-19.07824 -1.23828,-28.57812 -0.55472,-5.32494 -1.77587,-10.57522 -3.70898,-15.57032 -1.67418,-4.61828 -4.25408,-9.31171 -8.69336,-11.76758 -4.54504,-2.45964 -10.61512,-1.82748 -14.40235,1.75196 -4.69486,3.99942 -7.34763,9.74468 -9.72851,15.30078 -3.97635,9.74502 -6.48542,20.00472 -8.78907,30.25 -3.76671,17.39826 -6.63388,34.98292 -8.9414,52.63086 -2.36831,19.03272 -3.437,38.24242 -2.78906,57.41797 0.1322,5.71423 0.28271,11.42884 0.43359,17.14258 -12.10621,-0.12586 -24.19567,0.62757 -36.29297,0.93164 -1.85356,-0.008 -3.79816,0.0378 -5.54687,-0.62891 -1.17541,-0.85221 -0.88564,-2.50085 -1.19532,-3.75195 -1.0699,-8.41387 -1.39705,-16.89718 -1.90429,-25.35743 -1.27404,-23.96114 -1.9939,-47.94983 -2.34766,-71.9414 -0.18164,-13.08764 -0.19231,-26.19143 0.71094,-39.25586 0.87572,-13.95935 2.0437,-27.89879 3.30468,-41.82813 0.49369,-5.23842 0.96332,-10.50207 1.8379,-15.68554 0.0656,-0.13455 0.1921,-0.22279 0.33398,-0.23828 z m 131.22461,202.91602 c 2.1623,0.13077 4.44416,0.1062 6.41601,1.12891 0.56383,1.04012 -1.01445,1.3886 -1.63671,1.85156 -5.35529,3.00567 -11.72583,4.24549 -17.8086,3.37695 -1.80861,-0.33562 -3.42401,-1.40126 -4.54687,-2.83008 -0.66233,-1.13979 0.7525,-1.62852 1.59375,-1.85351 3.20931,-1.00562 6.59878,-1.23692 9.93164,-1.5293 2.01441,-0.13682 4.03228,-0.16872 6.05078,-0.14453 z m -102.48242,5.01172 c 0.98562,0.0956 2.08412,-0.0446 2.93164,0.57617 -0.0493,1.19131 -1.40396,1.53881 -2.17969,2.18359 -3.59262,2.16862 -7.45766,4.61388 -11.83008,4.36719 -4.44309,-0.20939 -8.98241,-1.14134 -12.82031,-3.4707 -0.64984,-0.44183 -2.29159,-1.55554 -1.0957,-2.2461 1.08426,-0.31748 2.25225,-0.17821 3.36718,-0.35546 7.19624,-0.55125 14.40837,-0.9949 21.62696,-1.05469 z"
       style="fill:#000000;stroke-width:0.999999"
       id="path1658" />
  </g>
</svg>
