<?xml version="1.0" encoding="UTF-8" standalone="no"?>
<svg
   xmlns:dc="http://purl.org/dc/elements/1.1/"
   xmlns:cc="http://creativecommons.org/ns#"
   xmlns:rdf="http://www.w3.org/1999/02/22-rdf-syntax-ns#"
   xmlns:svg="http://www.w3.org/2000/svg"
   xmlns="http://www.w3.org/2000/svg"
   xmlns:sodipodi="http://sodipodi.sourceforge.net/DTD/sodipodi-0.dtd"
   xmlns:inkscape="http://www.inkscape.org/namespaces/inkscape"
   inkscape:version="1.0 (4035a4fb49, 2020-05-01)"
   sodipodi:docname="cancel.svg"
   id="svg8"
   version="1.1"
   style="height: 512px; width: 512px;"
   viewBox="0 0 512 512">
  <metadata
     id="metadata14">
    <rdf:RDF>
      <cc:Work
         rdf:about="">
        <dc:format>image/svg+xml</dc:format>
        <dc:type
           rdf:resource="http://purl.org/dc/dcmitype/StillImage" />
        <dc:title></dc:title>
      </cc:Work>
    </rdf:RDF>
  </metadata>
  <defs
     id="defs12" />
  <sodipodi:namedview
     inkscape:current-layer="svg8"
     inkscape:window-maximized="1"
     inkscape:window-y="-8"
     inkscape:window-x="-8"
     inkscape:cy="412.79089"
     inkscape:cx="-98.594166"
     inkscape:zoom="0.73535156"
     showgrid="false"
     id="namedview10"
     inkscape:window-height="1017"
     inkscape:window-width="1920"
     inkscape:pageshadow="2"
     inkscape:pageopacity="0"
     guidetolerance="10"
     gridtolerance="10"
     objecttolerance="10"
     borderopacity="1"
     bordercolor="#666666"
     pagecolor="#ffffff" />
  <rect
     id="rect2"
     ry="64"
     rx="64"
     width="512"
     height="512"
     fill-opacity="1"
     fill="#ffffff" />
  <g
     id="g6"
     class="">
    <path
       id="path4"
       fill-opacity="1"
       fill="#000000"
       d="M 256,21 C 126.426,21 21,126.426 21,256 21,385.574 126.426,491 256,491 385.574,491 491,385.574 491,256 491,126.426 385.574,21 256,21 Z m 0,36 c 110.118,0 199,88.882 199,199 0,110.118 -88.882,199 -199,199 C 145.882,455 57,366.118 57,256 57,145.882 145.882,57 256,57 Z m -7.352,36.744 c -8.227,0 -15.317,2.976 -21.27,8.928 -5.776,5.952 -8.665,12.955 -8.665,21.008 0,8.227 2.89,15.23 8.666,21.006 5.95,5.776 13.04,8.666 21.268,8.666 8.228,0 15.23,-2.89 21.006,-8.666 5.777,-5.777 8.666,-12.78 8.666,-21.006 0,-8.053 -2.976,-15.056 -8.927,-21.008 -5.777,-5.952 -12.692,-8.928 -20.745,-8.928 z m -62.757,82.453 v 28.096 h 46.215 v 186.13 H 185.89 v 27.833 H 326.11 V 390.422 H 280.42 V 176.197 h -94.53 z" />
  </g>
  <ellipse
     ry="192.76494"
     rx="174.40637"
     cy="253.28021"
     cx="262.11951"
     id="path845"
     style="fill:#ffffff;fill-rule:evenodd;stroke-width:4.72441;stroke-linecap:round;stroke-linejoin:round;paint-order:markers fill stroke" />
  <path
     style="stroke-width:1.66462"
     id="path4-9"
     d="m 170.65428,128.27646 -42.37944,42.37944 85.35059,85.34409 -85.34734,85.34734 42.37619,42.37621 85.34734,-85.34737 85.34734,85.34737 42.3762,-42.37621 -85.34735,-85.34734 85.34735,-85.34734 -42.3762,-42.37619 -85.34734,85.34735 z" />
</svg>
