<?xml version="1.0" encoding="UTF-8" standalone="no"?>
<svg
   xmlns:dc="http://purl.org/dc/elements/1.1/"
   xmlns:cc="http://creativecommons.org/ns#"
   xmlns:rdf="http://www.w3.org/1999/02/22-rdf-syntax-ns#"
   xmlns:svg="http://www.w3.org/2000/svg"
   xmlns="http://www.w3.org/2000/svg"
   xmlns:sodipodi="http://sodipodi.sourceforge.net/DTD/sodipodi-0.dtd"
   xmlns:inkscape="http://www.inkscape.org/namespaces/inkscape"
   sodipodi:docname="ebaytitle.svg"
   inkscape:version="1.0 (4035a4fb49, 2020-05-01)"
   id="svg8"
   version="1.1"
   viewBox="0 0 210 297"
   height="297mm"
   width="210mm">
  <defs
     id="defs2" />
  <sodipodi:namedview
     inkscape:window-maximized="1"
     inkscape:window-y="-8"
     inkscape:window-x="-8"
     inkscape:window-height="1017"
     inkscape:window-width="1920"
     showgrid="false"
     inkscape:document-rotation="0"
     inkscape:current-layer="layer1"
     inkscape:document-units="mm"
     inkscape:cy="653.50259"
     inkscape:cx="565.08926"
     inkscape:zoom="0.49497475"
     inkscape:pageshadow="2"
     inkscape:pageopacity="0.0"
     borderopacity="1.0"
     bordercolor="#666666"
     pagecolor="#ffffff"
     id="base" />
  <metadata
     id="metadata5">
    <rdf:RDF>
      <cc:Work
         rdf:about="">
        <dc:format>image/svg+xml</dc:format>
        <dc:type
           rdf:resource="http://purl.org/dc/dcmitype/StillImage" />
        <dc:title />
      </cc:Work>
    </rdf:RDF>
  </metadata>
  <g
     id="layer1"
     inkscape:groupmode="layer"
     inkscape:label="Layer 1">
    <g
       id="g838"
       inkscape:export-xdpi="25.968542"
       inkscape:export-ydpi="25.968542">
      <path
         id="path917"
         style="font-variation-settings:normal;opacity:1;vector-effect:none;fill:#f5ad01;fill-opacity:1;stroke-width:0.999999;stroke-linecap:butt;stroke-linejoin:miter;stroke-miterlimit:4;stroke-dasharray:none;stroke-dashoffset:0;stroke-opacity:1;stop-color:#000000;stop-opacity:1"
         d="m 430.67188,382.13477 c -16.78165,0.0646 -37.23604,8.1071 -44.30469,18.46289 -3.08773,4.52375 -3.31628,5.3882 -2.95117,11.17382 0.29782,4.72109 0.92439,6.7994 2.53515,8.41016 l 2.14063,2.13867 10.83789,-5.58398 c 25.31195,-13.04326 38.40857,-14.83426 47.84961,-6.54492 2.99622,2.6307 6.43554,7.53463 6.43554,9.17578 0,0.25625 -7.08747,0.48513 -15.75,0.50781 -26.61509,0.0715 -39.87389,5.09913 -52.26367,19.82031 -6.16686,7.3273 -8.12889,11.77749 -7.67773,17.41016 0.77785,9.71089 14.38048,26.46723 25.91015,31.91992 12.56228,5.941 23.45761,5.03324 39.89844,-3.32617 l 10.61719,-5.39844 1.38281,4.58008 c 0.98079,3.24915 2.36898,5.23983 4.7793,6.84961 3.77367,2.5203 9.2625,2.98716 10.96679,0.93359 1.93932,-2.33677 5.9105,-19.76568 7.18946,-31.55078 1.33141,-12.26819 0.77446,-28.5184 -1.40039,-40.86328 -2.21491,-6.44744 -1.89422,-15.13909 -10.16211,-23.08398 -6.54456,-5.98137 -19.05488,-12.51847 -27.19727,-14.21094 -2.74753,-0.5711 -5.72827,-0.83228 -8.83593,-0.82031 z m 12.25976,59.97461 c 14.78952,0.19277 15.39055,3.36177 5.54883,13.41796 -4.24914,4.34174 -9.04535,8.07008 -12.71289,9.88282 -7.27435,3.59546 -17.68828,4.47865 -24.31836,2.06054 -5.93945,-2.16623 -11.23438,-5.42968 -11.23438,-6.92382 0,-2.43693 11.05641,-11.67891 17.74024,-14.82813 6.08466,-2.86692 7.85653,-3.21912 17.75976,-3.52148 2.70284,-0.0825 5.10401,-0.11539 7.2168,-0.0879 z"
         transform="scale(0.26458333)" />
      <path
         id="path849"
         style="font-variation-settings:normal;opacity:1;vector-effect:none;fill:#0063d2;fill-opacity:1;stroke-width:0.999999;stroke-linecap:butt;stroke-linejoin:miter;stroke-miterlimit:4;stroke-dasharray:none;stroke-dashoffset:0;stroke-opacity:1;stop-color:#000000;stop-opacity:1"
         d="m 273.36523,345.16211 c -2.78533,-0.089 -4.89209,4.89808 -8.59765,17.11523 -4.41407,14.55324 -5.94602,25.84184 -6.00196,44.23438 0.57227,13.97628 0.69563,27.42156 -0.54882,37.48828 l 0.004,2.30273 c 0.003,2.30862 0.6846,5.49816 1.51368,7.08789 1.24734,2.39192 1.33289,4.28354 0.49414,10.97266 -1.95066,15.55673 -0.81321,23.86089 3.54296,25.8457 5.54332,2.52571 17.44336,-4.5096 17.44336,-10.3125 0,-1.59303 0.24439,-2.89648 0.54297,-2.89648 0.29862,0 2.8861,1.75557 5.75,3.90234 16.44922,12.33026 37.04982,13.24617 59.43555,2.64063 19.02607,-9.01387 27.62933,-26.57912 24.35352,-49.72461 -2.29535,-16.21761 -5.90479,-23.80007 -15.51368,-32.58203 -17.97411,-16.4273 -43.97066,-18.43369 -66.71484,-5.15039 -3.68663,2.15312 -6.98948,3.91406 -7.33984,3.91406 -0.91877,0 0.40066,-8.37607 2.5957,-16.48047 3.70824,-13.69117 1.71929,-25.68729 -5.69531,-34.34961 -2.15905,-2.52236 -3.80469,-3.9612 -5.26368,-4.00781 z m 48.49219,63.85156 c 3.2356,0.0702 6.19262,0.67722 8.37305,1.83399 5.07337,2.69155 10.29263,10.1623 13.46094,19.26367 6.49485,18.65745 2.22538,29.49585 -13.79883,35.0332 -14.99414,5.18136 -32.22933,-0.96824 -41.91406,-14.95703 -2.83193,-4.09047 -3.2861,-5.64174 -3.57032,-12.1875 -0.31113,-7.16179 -0.18363,-7.6697 2.81641,-11.25391 4.18828,-5.00386 14.80696,-12.48141 21.81836,-15.36523 4.03333,-1.65893 8.6544,-2.45745 12.81445,-2.36719 z"
         transform="scale(0.26458333)" />
      <path
         id="path919"
         style="font-variation-settings:normal;opacity:1;vector-effect:none;fill:#e43139;fill-opacity:1;stroke-width:0.999999;stroke-linecap:butt;stroke-linejoin:miter;stroke-miterlimit:4;stroke-dasharray:none;stroke-dashoffset:0;stroke-opacity:1;stop-color:#000000;stop-opacity:1"
         d="m 210.125,385.53711 c -11.01853,-0.0281 -23.27817,2.98471 -35.65625,9.00586 -11.19368,5.44501 -19.50965,13.10021 -23.78906,21.90039 -7.05782,14.51369 -2.54985,41.54213 9.65039,57.85937 7.91572,10.58689 21.31985,19.36712 33.88281,22.19336 h 0.002 c 11.43572,2.57152 26.84486,0.14775 39.37891,-6.19336 10.05324,-5.08607 19.65736,-18.18369 19.92187,-27.16796 0.15168,-5.15074 -2.21875,-6.34597 -11.80273,-5.94727 -8.45741,0.3518 -8.9277,0.52993 -28.43555,10.82227 -4.08948,2.15761 -9.39503,4.21711 -11.78906,4.57617 -11.46402,1.71912 -20.45291,-5.49772 -25.83008,-20.73828 L 174.30078,448 h 2.87695 c 1.58219,0 6.8511,0.99383 11.70704,2.20898 7.17864,1.79638 11.72536,2.21353 24.32812,2.23243 17.24062,0.0261 26.70763,-1.78427 38.75,-7.41407 7.51437,-5.95746 7.63177,-15.54285 5.96289,-23.44531 l -1.25781,-3.0957 c -3.86453,-9.50869 -12.22967,-19.74316 -21.04492,-25.75 -7.01915,-4.78293 -15.77582,-7.17446 -25.49805,-7.19922 z m -4.22266,22.62891 c 4.99724,0.0973 9.86999,1.32633 14.6543,3.68164 7.36467,3.62562 14.6582,10.02155 14.6582,12.85546 0,1.72706 -0.86803,2.1026 -6.14648,2.6543 -6.14665,0.64282 -26.25374,0.62777 -32.85352,-0.0234 -6.96022,-0.68696 -22.51867,-3.56725 -23.32617,-4.31836 -0.45456,-0.4228 2.61609,-3.07214 6.82422,-5.88671 9.18697,-6.14462 17.86073,-9.12504 26.18945,-8.96289 z"
         transform="scale(0.26458333)" />
      <path
         style="font-variation-settings:normal;opacity:1;vector-effect:none;fill:#91b739;fill-opacity:1;stroke-width:0.999999;stroke-linecap:butt;stroke-linejoin:miter;stroke-miterlimit:4;stroke-dasharray:none;stroke-dashoffset:0;stroke-opacity:1;stop-color:#000000;stop-opacity:1"
         d="m 577.0918,387.08789 c -0.44987,-0.006 -0.90932,0.0171 -1.37696,0.0703 -2.79205,0.31786 -4.59208,2.99303 -25.97461,38.5918 -12.63624,21.03753 -23.32374,38.25 -23.75,38.25 -0.42614,0 -0.77539,-0.44385 -0.77539,-0.98633 0,-3.28781 -24.62136,-57.14737 -29.09961,-63.65625 -3.50963,-5.10108 -8.69138,-7.87748 -12.79296,-6.85156 -1.43441,0.35879 -4.51111,2.69525 -6.83789,5.19141 -8.91247,7.48715 9.92331,36.3615 11.0332,38.63476 6.26188,12.83222 15.10239,29.9944 19.64648,38.13867 l 8.26172,14.80664 -2.35547,5.04688 c -1.2957,2.77583 -3.54548,6.69413 -5,8.70703 -5.54411,7.67229 -6.21117,9.80302 -4.90039,15.66016 0.65624,2.9323 2.32399,6.67671 3.70703,8.32031 1.60657,1.9093 3.45509,2.98828 5.11914,2.98828 5.03588,0 16.66674,-14.56075 29.1543,-36.5 11.47733,-20.16446 41.3695,-81.80444 44.98828,-92.76953 2.29267,-6.94683 -2.29887,-13.5467 -9.04687,-13.64258 z"
         transform="scale(0.26458333)"
         id="path921" />
    </g>
  </g>
</svg>
