<?xml version="1.0" encoding="UTF-8" standalone="no"?>
<svg
   xmlns:dc="http://purl.org/dc/elements/1.1/"
   xmlns:cc="http://creativecommons.org/ns#"
   xmlns:rdf="http://www.w3.org/1999/02/22-rdf-syntax-ns#"
   xmlns:svg="http://www.w3.org/2000/svg"
   xmlns="http://www.w3.org/2000/svg"
   xmlns:sodipodi="http://sodipodi.sourceforge.net/DTD/sodipodi-0.dtd"
   xmlns:inkscape="http://www.inkscape.org/namespaces/inkscape"
   width="210mm"
   height="297mm"
   viewBox="0 0 210 297"
   version="1.1"
   id="svg2836"
   inkscape:version="1.0 (4035a4fb49, 2020-05-01)"
   sodipodi:docname="fejeslabasmelles.svg">
  <defs
     id="defs2830" />
  <sodipodi:namedview
     id="base"
     pagecolor="#ffffff"
     bordercolor="#666666"
     borderopacity="1.0"
     inkscape:pageopacity="0.0"
     inkscape:pageshadow="2"
     inkscape:zoom="0.35"
     inkscape:cx="400.65796"
     inkscape:cy="840.02606"
     inkscape:document-units="mm"
     inkscape:current-layer="layer1"
     inkscape:document-rotation="0"
     showgrid="false"
     inkscape:window-width="1920"
     inkscape:window-height="1017"
     inkscape:window-x="-8"
     inkscape:window-y="-8"
     inkscape:window-maximized="1" />
  <metadata
     id="metadata2833">
    <rdf:RDF>
      <cc:Work
         rdf:about="">
        <dc:format>image/svg+xml</dc:format>
        <dc:type
           rdf:resource="http://purl.org/dc/dcmitype/StillImage" />
        <dc:title />
      </cc:Work>
    </rdf:RDF>
  </metadata>
  <g
     inkscape:label="Layer 1"
     inkscape:groupmode="layer"
     id="layer1">
    <rect
       ry="15.815701"
       y="83.352005"
       x="3.5990269"
       height="87.673965"
       width="87.673965"
       id="rect1454"
       style="fill:#ffffff;fill-rule:evenodd;stroke:#000000;stroke-width:4;stroke-linecap:round;stroke-linejoin:round;stroke-miterlimit:4;stroke-dasharray:none;paint-order:markers fill stroke" />
    <ellipse
       style="fill:#ffffff;fill-opacity:1;fill-rule:evenodd;stroke-width:0.557473;stroke-linecap:round;stroke-linejoin:round;paint-order:markers fill stroke"
       id="path3441"
       cx="47.035645"
       cy="125.74591"
       rx="30.999472"
       ry="28.192541" />
    <g
       id="g3439"
       transform="matrix(-1,0,0,1,199.90266,25.657875)"
       inkscape:export-filename="C:\Projects\vidmon\image\sprites\fejeslabasmelles.png"
       inkscape:export-xdpi="32.49028"
       inkscape:export-ydpi="32.49028">
      <path
         id="path3413"
         d="m 147.7131,187.81387 c -1.47768,-0.38722 -2.43237,-1.15593 -3.43959,-2.76954 -0.24133,-0.38663 -0.56681,-0.37586 -3.70416,0.12252 -1.91841,0.30475 -4.90226,0.5643 -6.74688,0.58687 -2.95886,0.0362 -3.42341,-0.0216 -4.40949,-0.54885 -2.07984,-1.11205 -2.97135,-3.38638 -2.12315,-5.41641 0.62661,-1.49968 5.22565,-4.84775 7.39254,-5.38171 0.63375,-0.15617 0.7276,-0.30826 0.7276,-1.17911 0,-2.36902 -1.20381,-30.26956 -1.47967,-34.29395 l -0.16522,-2.41051 -2.55099,-0.14411 c -3.02245,-0.17075 -4.9447,-0.80793 -7.48674,-2.48166 -4.53099,-2.98331 -6.83821,-7.16606 -6.83821,-12.39697 0,-3.71185 1.09703,-6.61012 3.63438,-9.60173 1.35486,-1.59741 1.36245,-1.34957 -0.17188,-5.61181 -0.85215,-2.36718 -1.03474,-4.36228 -0.55694,-6.08542 0.14123,-0.509319 0.49668,-2.33062 0.78991,-4.047332 0.89433,-5.236036 2.50542,-9.178902 5.60056,-13.706459 5.37974,-7.869466 12.66712,-11.585228 23.64459,-12.056142 10.93452,-0.469072 20.20233,2.369376 26.39658,8.084466 3.87486,3.575109 7.88795,10.395132 8.94509,15.201688 0.25988,1.181568 0.47938,1.598991 0.93119,1.770763 0.50015,0.190162 0.62042,0.498116 0.78133,2.000663 0.10564,0.986422 0.0751,2.27869 -0.0686,2.906893 -0.18568,0.81141 -0.1598,1.60352 0.0916,2.80333 0.7826,3.73534 0.23396,6.26781 -1.78112,8.22162 l -1.29706,1.25762 0.006,2.97572 c 0.004,1.63664 0.11473,3.4432 0.24725,4.01457 0.48326,2.08372 -1.21366,3.47193 -2.27117,1.85797 -0.69474,-1.06031 -1.01715,-0.38117 -1.07161,2.25736 -0.0267,1.2934 -0.17268,2.58359 -0.3244,2.8671 -0.31548,0.58947 -1.71557,0.8851 -2.60565,0.55019 -0.52682,-0.19823 -0.59274,-0.39979 -0.57299,-1.75191 0.0123,-0.84034 0.10785,-2.21251 0.21238,-3.04925 0.10453,-0.83675 0.14417,-1.52136 0.0881,-1.52136 -0.0561,0 -1.04157,0.86321 -2.18999,1.91823 -1.71937,1.57954 -2.08924,2.06024 -2.0948,2.72254 -0.0226,2.68662 -1.76258,6.34607 -4.15499,8.73848 l -1.64266,1.64266 -0.81918,4.72603 c -3.09927,17.88015 -3.31289,19.54372 -3.30785,25.7604 0.005,5.55306 0.30472,7.17302 1.765,9.52405 0.81502,1.31218 0.87687,1.57193 0.87687,3.68291 0,2.01014 -0.085,2.41578 -0.73966,3.52946 -0.51319,0.87305 -1.15882,1.4977 -2.10875,2.04023 -2.71131,1.54849 -12.94543,3.33516 -15.40784,2.6899 z m 5.98189,-3.85758 c 3.39039,-0.55589 6.80672,-1.41367 7.67641,-1.92741 0.73709,-0.43541 1.28562,-1.63078 1.28918,-2.80939 7.9e-4,-0.26911 -0.40842,-1.16208 -0.90941,-1.98438 -1.11834,-1.8356 -1.61201,-3.74965 -1.99594,-7.73865 -0.49832,-5.17751 0.25052,-12.01238 2.90447,-26.50988 0.47398,-2.58918 0.80605,-4.76335 0.73793,-4.83147 -0.0681,-0.0681 -0.64845,0.0702 -1.28962,0.30727 -1.67727,0.6203 -6.29768,0.78439 -8.37564,0.29745 l -1.65365,-0.38751 0.003,0.95677 c 0.004,1.14699 0.61341,7.56457 1.17111,12.33385 0.22121,1.89177 0.87659,8.14255 1.45639,13.89063 1.16783,11.57777 1.1551,12.13885 -0.30327,13.36598 -0.42939,0.36131 -0.96545,0.65693 -1.19123,0.65693 -0.63643,0 -2.98209,1.4382 -4.41593,2.70756 -1.2239,1.08348 -1.27019,1.17158 -0.841,1.60076 0.56868,0.56868 2.55356,0.59341 5.73681,0.0715 z m -14.19286,-2.27933 c 5.05697,-0.7424 5.68327,-1.07397 6.06925,-3.21314 0.14152,-0.78438 0.0225,-1.28688 -0.59547,-2.51354 -1.15438,-2.29153 -1.46989,-4.19281 -1.46184,-8.80921 0.008,-4.87357 0.56001,-8.44405 3.1567,-20.4363 0.93708,-4.32773 1.70378,-8.2878 1.70378,-8.80017 0,-0.82778 -0.28063,-1.20636 -2.51845,-3.3974 -2.0972,-2.05335 -2.57117,-2.40228 -2.83361,-2.08606 -0.54523,0.65695 -3.19315,2.32876 -4.52742,2.85845 l -1.28052,0.50835 0.1548,1.98438 c 0.0851,1.0914 0.34048,6.21109 0.56743,11.37708 0.22695,5.16599 0.50873,11.29771 0.62619,13.62604 0.11745,2.32833 0.20022,6.21996 0.18392,8.64806 l -0.0296,4.41473 -0.75318,0.78583 c -0.41551,0.4335 -1.24954,0.9108 -1.86028,1.06459 -1.39317,0.3508 -5.28792,2.92857 -5.41401,3.5833 -0.0519,0.26954 0.0662,0.59182 0.26238,0.71617 0.62759,0.39772 4.74096,0.24802 8.54996,-0.31116 z m 11.31982,-4.97064 c 0.98317,-0.46483 1.25677,-0.73189 1.25677,-1.22675 0,-0.34791 -0.53578,-5.95228 -1.19062,-12.45415 -0.65485,-6.50187 -1.19063,-11.86712 -1.19063,-11.92276 0,-0.0557 -0.10555,-0.10118 -0.23455,-0.10118 -0.12901,0 -0.29226,0.32742 -0.36279,0.72761 -0.0705,0.40018 -0.49784,2.75166 -0.94957,5.22552 -1.66827,9.136 -1.64661,13.7448 0.0826,17.57454 0.51435,1.13917 0.93518,2.27452 0.93518,2.52299 0,0.24848 0.0893,0.40601 0.19844,0.35007 0.10914,-0.0559 0.76398,-0.36908 1.45521,-0.69589 z m 10.61196,-41.73239 c 5.37823,-1.86555 8.75698,-6.5973 8.28904,-11.60834 -0.20633,-2.20948 -1.05644,-4.3683 -2.24965,-5.71288 l -0.98788,-1.1132 -0.7872,0.64604 c -1.7957,1.47369 -5.81198,3.76226 -8.35303,4.75977 l -2.71644,1.06636 -4.91304,-0.0942 -4.91303,-0.0942 -0.0819,0.84697 c -0.12739,1.31669 0.41402,3.7732 1.1749,5.33075 1.35731,2.77847 4.77504,5.3836 8.20294,6.25261 1.91954,0.48663 5.522,0.34924 7.33534,-0.27976 z m -26.3496,-2.36301 c 2.16621,-0.51073 3.90493,-1.41011 5.45736,-2.82291 l 1.25686,-1.14382 -0.27739,-1.19062 c -0.15257,-0.65485 -0.28031,-2.21334 -0.28387,-3.46332 l -0.006,-2.27269 -2.44739,-0.30118 c -3.25021,-0.39997 -4.70149,-0.86317 -7.07761,-2.25895 -1.95882,-1.15065 -6.87916,-5.25748 -6.87916,-5.74179 0,-0.59502 -0.82916,-0.16313 -1.67982,0.87498 -2.77893,3.39132 -3.47967,7.48053 -1.97456,11.52275 0.42746,1.14802 1.00948,1.95065 2.43865,3.36299 3.38769,3.3478 7.11233,4.46277 11.4734,3.43456 z m 44.13475,-8.48753 c 0.0113,-0.86054 0.17601,-2.40996 0.36601,-3.44315 0.19,-1.03319 0.29138,-2.04079 0.22527,-2.2391 -0.14201,-0.42605 -0.91052,3.39126 -1.16886,5.80603 -0.14783,1.38173 -0.11365,1.66591 0.1882,1.56462 0.2565,-0.0861 0.37509,-0.6003 0.38938,-1.6884 z m 3.68095,-5.33493 c -0.0563,-1.12778 -0.1137,-2.76489 -0.12765,-3.63802 l -0.0254,-1.5875 -0.54866,1.04066 c -0.45949,0.87152 -0.52924,1.37629 -0.42912,3.10561 0.087,1.50224 0.25083,2.21004 0.60136,2.59736 0.265,0.29283 0.51555,0.53241 0.55677,0.53241 0.0412,0 0.0289,-0.92273 -0.0273,-2.05052 z m -8.28614,0 c 0.79696,-0.83674 2.00525,-2.27797 2.68509,-3.20272 1.2705,-1.72822 3.61934,-6.15094 3.61934,-6.815 0,-0.49762 -2.37042,2.14147 -3.51308,3.91127 -0.85812,1.32909 -3.00658,3.65906 -3.37401,3.65906 -0.0924,0 -0.55226,0.47804 -1.0218,1.06233 -0.80783,1.00523 -0.8358,1.11188 -0.5203,1.98437 0.18338,0.50713 0.41044,0.92205 0.50457,0.92205 0.0941,0 0.82322,-0.68461 1.62019,-1.52136 z m -19.28124,0.76118 c 1.67044,-0.4632 6.19331,-2.94425 8.01448,-4.3964 l 0.74593,-0.59478 -0.8749,-0.45243 c -1.65872,-0.85776 -3.32926,-1.19881 -5.88603,-1.20168 -3.13027,-0.004 -5.32094,0.6108 -7.59617,2.13014 -1.41768,0.94668 -4.00722,3.8519 -4.00722,4.4957 0,0.12446 0.80367,0.26793 1.78594,0.31884 4.63117,0.24002 6.07164,0.18486 7.81797,-0.29939 z m -12.46506,-2.00375 0.57155,-1.17643 -0.74225,-1.07106 c -2.45941,-3.54893 -6.95271,-5.60663 -11.25565,-5.1545 -1.48649,0.15619 -3.93091,0.81583 -4.31393,1.16414 -0.34887,0.31725 5.44825,5.16962 7.1335,5.97097 0.97012,0.46129 2.43312,0.85659 3.92731,1.06115 4.04327,0.55353 4.02298,0.55697 4.67947,-0.79427 z m 30.35225,-2.31798 c 0.81443,-0.75776 1.96319,-2.12438 2.55281,-3.03693 0.58962,-0.91255 2.15831,-2.82264 3.48599,-4.24465 5.19622,-5.56544 6.63074,-7.65573 6.38158,-9.298812 -0.0752,-0.495771 -0.87792,0.336497 -4.45731,4.621222 -3.9612,4.74178 -5.64619,6.45334 -10.03174,10.18999 l -1.43035,1.2187 0.73536,0.96411 c 0.40445,0.53026 0.85856,0.96411 1.00913,0.96411 0.15057,0 0.94011,-0.61999 1.75453,-1.37774 z m -23.08246,-4.46362 c 3.45245,-1.64771 8.2953,-1.9362 12.21677,-0.72776 2.18387,0.67297 3.3089,1.23817 4.93454,2.47906 1.05954,0.80876 1.35822,0.92147 1.8258,0.68899 1.16475,-0.57912 8.67585,-7.96738 10.99636,-10.81653 l 2.42123,-2.972804 -0.29527,-2.18657 c -0.76306,-5.650657 -3.65322,-11.335075 -7.90895,-15.55547 -4.63208,-4.593619 -10.4401,-6.96151 -18.854,-7.686642 -6.03792,-0.520362 -12.40794,0.33573 -16.73409,2.24896 -7.13162,3.153943 -13.06038,11.271003 -14.5831,19.965722 -0.6205,3.543099 -0.45654,7.869384 0.4244,11.197784 l 0.25933,0.97984 1.18973,-0.50998 c 3.74974,-1.60732 8.93982,-1.66323 12.60663,-0.1358 0.4,0.16663 0.41561,0.0994 0.14402,-0.62015 -0.44632,-1.18241 -0.008,-2.25603 0.96579,-2.36808 0.41523,-0.0478 0.88334,0.0415 1.04024,0.19844 0.42036,0.42036 1.69148,0.3469 2.43577,-0.14078 0.90406,-0.59236 1.91749,-0.2966 2.15364,0.62851 0.5375,2.10559 0.0378,2.48081 -3.33037,2.50063 l -2.69655,0.0159 1.1392,0.67126 c 1.57394,0.92743 3.63255,2.71087 4.56814,3.95754 l 0.7831,1.04348 1.28423,-1.01512 c 0.70632,-0.55832 2.06236,-1.3865 3.01341,-1.84039 z m -18.03468,-6.87477 c -1.10661,-0.32482 -2.62726,-1.64509 -3.1405,-2.72666 -0.5855,-1.233859 -0.54661,-3.137836 0.0896,-4.384875 l 0.52096,-1.02117 -0.65998,-0.165645 c -0.87033,-0.21844 -1.70486,-1.075899 -1.70486,-1.751712 0,-0.297657 0.28676,-0.82795 0.63724,-1.17843 0.6322,-0.632205 0.67033,-0.63618 4.82865,-0.503361 4.96148,0.158472 5.76229,0.259797 6.29957,0.797068 0.81391,0.813916 0.19995,2.748833 -0.87223,2.748833 -0.39069,0 -0.39008,0.008 0.087,1.149815 0.50012,1.196957 0.51217,3.418267 0.0236,4.353427 -1.16915,2.23793 -3.75529,3.3736 -6.10904,2.68271 z m 16.13731,-1.53565 c -1.35909,-0.61742 -2.7012,-2.14687 -2.92344,-3.331504 -0.18553,-0.988973 -0.0606,-2.64568 0.25284,-3.3523 0.14141,-0.318818 0.0164,-0.474176 -0.48232,-0.599342 -1.19798,-0.300675 -1.26481,-2.461386 -0.0923,-2.984392 0.33091,-0.147605 2.5975,-0.673784 5.03686,-1.169286 4.10529,-0.833899 4.48907,-0.870819 5.15938,-0.496338 1.37988,0.770905 0.83865,3.166193 -0.71542,3.166193 -0.69955,0 -0.89129,0.396386 -0.39213,0.810646 0.76425,0.634278 1.17026,1.801437 1.17026,3.364188 0,1.291257 -0.13707,1.762212 -0.80744,2.774285 -1.40487,2.12098 -3.91842,2.85721 -6.20629,1.81785 z m 37.0314,6.178 c 0.24935,-0.6529 0.39334,-1.33583 0.31998,-1.5176 -0.0734,-0.18177 -0.14322,-0.0924 -0.15525,0.19867 -0.012,0.29104 -0.23736,0.88635 -0.50073,1.32292 -0.26337,0.43656 -0.5633,1.01895 -0.66652,1.29419 -0.15237,0.40629 -0.11837,0.44292 0.18074,0.19468 0.20263,-0.16817 0.57243,-0.83995 0.82178,-1.49286 z m -61.9216,0.76943 c 0.23018,-0.0883 0.41945,-0.29669 0.4206,-0.46302 10e-4,-0.16633 -0.68247,-2.11369 -1.51916,-4.32746 -1.24629,-3.29755 -1.56108,-3.91922 -1.74166,-3.43959 -0.33331,0.88535 -0.0148,2.33276 1.21246,5.50932 0.61225,1.58474 1.13479,2.88135 1.16121,2.88135 0.0264,0 0.23637,-0.0723 0.46655,-0.1606 z"
         style="fill:#000000;stroke-width:0.264583" />
      <path
         transform="scale(0.26458333)"
         id="path3415"
         d="m 626.01297,442.50506 c -12.72528,9.22832 -26.9396,16.6745 -41.70753,21.79089 -12.4301,0.0773 -25.21733,-0.76383 -37.42751,-0.12376 -2.18444,15.95225 6.50269,31.88295 19.87165,40.35016 8.26167,5.79687 18.3337,8.88377 28.44836,7.95616 11.0927,0.42536 22.24238,-3.2258 30.48858,-10.74354 9.75257,-7.8676 16.8009,-19.68839 16.37416,-32.5014 -0.12463,-10.89045 -4.87026,-21.9656 -12.77203,-29.22154 -1.0919,0.83101 -2.18379,1.66202 -3.27568,2.49303 z"
         style="fill:#bebcbe;fill-opacity:1;fill-rule:evenodd;stroke-width:1.42812;stroke-linecap:round;stroke-linejoin:round;paint-order:markers fill stroke" />
      <path
         transform="scale(0.26458333)"
         id="path3417"
         d="m 471.01995,427.04189 c -5.82539,2.62758 -9.14046,8.91954 -12.16937,14.27734 -5.15299,10.56856 -5.46456,23.49667 -1.27929,34.42941 5.11957,10.11097 14.17126,18.01005 24.04297,23.34682 17.64065,8.46411 39.55091,2.51155 53.05055,-10.93439 3.88914,-1.96145 -0.0711,-6.08832 0.44741,-9.32087 -0.87623,-6.34342 -0.43802,-13.04991 -1.40672,-19.24809 -11.43647,-1.65935 -23.4767,-2.38722 -33.50367,-8.74875 -10.3226,-5.89053 -19.78147,-13.5791 -27.90956,-22.24595 -0.11482,-0.73153 -0.28016,-1.64882 -1.27232,-1.55552 z"
         style="fill:#bebcbe;fill-opacity:1;fill-rule:evenodd;stroke-width:1.42812;stroke-linecap:round;stroke-linejoin:round;paint-order:markers fill stroke" />
      <path
         transform="scale(0.26458333)"
         id="path3421"
         d="m 701.16504,372.02654 c -5.59878,3.53523 -9.14059,9.7559 -13.74388,14.46848 -12.02155,14.6467 -24.87129,28.63999 -39.53857,40.68325 -1.7966,2.25697 -5.55442,3.6813 -6.51666,6.30893 1.7699,2.72302 3.75778,6.34832 6.99637,7.33259 6.5369,-3.21921 10.71964,-9.88056 15.40737,-15.2553 11.2193,-15.74869 26.40923,-28.38639 36.56808,-44.89816 1.0885,-2.42209 3.15866,-6.43441 1.03934,-8.63142 -0.0702,-0.009 -0.14126,-0.0158 -0.21205,-0.008 z"
         style="fill:#bebcbe;fill-opacity:1;fill-rule:evenodd;stroke-width:1.42812;stroke-linecap:round;stroke-linejoin:round;paint-order:markers fill stroke" />
      <path
         transform="scale(0.26458333)"
         id="path3423"
         d="m 679.41711,447.23442 c -0.89935,0.50302 -0.83842,1.8446 -1.20978,2.70257 -1.76196,7.46782 -3.0256,15.06805 -3.69021,22.7132 0.0412,1.06286 -0.38051,2.66803 0.76704,3.28331 1.4031,0.19677 2.03013,-1.5613 2.11286,-2.69113 0.5536,-5.94977 0.72348,-11.93437 1.86216,-17.81094 0.32593,-2.59118 0.94708,-5.22869 0.65702,-7.84406 -0.0623,-0.21382 -0.26441,-0.39426 -0.49909,-0.35295 z"
         style="fill:#bebcbe;fill-opacity:1;fill-rule:evenodd;stroke-width:0.35703;stroke-linecap:round;stroke-linejoin:round;paint-order:markers fill stroke" />
      <path
         transform="scale(0.26458333)"
         id="path3425"
         d="m 690.31903,429.09651 c -1.70515,3.28243 -3.85934,6.59318 -3.8231,10.43793 -0.0339,4.22072 0.10595,8.50568 1.10408,12.62324 0.52699,1.99201 1.95613,3.66051 3.57038,4.86503 0.89163,-0.0973 0.45318,-1.37558 0.58973,-1.98695 -0.0791,-8.59522 -0.5027,-17.18328 -0.79028,-25.77323 -0.061,-0.33719 -0.43834,-0.42987 -0.65081,-0.16602 z"
         style="fill:#bebcbe;fill-opacity:1;fill-rule:evenodd;stroke-width:0.35703;stroke-linecap:round;stroke-linejoin:round;paint-order:markers fill stroke" />
      <path
         transform="scale(0.26458333)"
         id="path3427"
         d="m 701.09127,403.91209 c -1.02844,0.7225 -0.57943,2.35773 -1.21337,3.3782 -1.14936,3.12938 -3.53421,5.80606 -4.15208,9.10518 0.49223,0.98112 1.67548,-0.18558 2.09231,-0.72309 1.99744,-3.09174 3.4941,-6.623 4.03618,-10.27465 -0.0172,-0.50535 -0.0124,-1.55534 -0.76304,-1.48564 z"
         style="fill:#bebcbe;fill-opacity:1;fill-rule:evenodd;stroke-width:0.504917;stroke-linecap:round;stroke-linejoin:round;paint-order:markers fill stroke" />
      <path
         transform="scale(0.26458333)"
         id="path3429"
         d="m 455.87596,381.0707 c -1.92586,1.41811 -1.1062,4.35831 -0.95703,6.40974 1.5674,8.89402 5.54792,17.11712 8.72489,25.50711 0.71581,1.99088 3.07353,0.42478 4.0611,-0.49316 1.16911,-1.44238 -0.47444,-3.37876 -0.66635,-4.94578 -3.04074,-8.62084 -5.98533,-17.34172 -10.03398,-25.54739 -0.29256,-0.35651 -0.56159,-1.01356 -1.12863,-0.93052 z"
         style="fill:#bebcbe;fill-opacity:1;fill-rule:evenodd;stroke-width:0.714061;stroke-linecap:round;stroke-linejoin:round;paint-order:markers fill stroke" />
    </g>
    <path
       style="fill:#ffffff;fill-opacity:1;fill-rule:evenodd;stroke-width:1.42812;stroke-linecap:round;stroke-linejoin:round;paint-order:markers fill stroke"
       d="m 138.78962,618.84842 c -2.43178,1.04511 -0.28395,4.86429 -0.484,6.79968 5.21618,33.46698 12.89756,66.80052 13.3816,100.78402 -0.34736,14.58014 -1.62945,29.69385 -9.14585,42.56922 -3.50828,5.60325 -2.19144,14.54408 4.49044,17.03598 11.73688,4.16393 24.17067,6.25143 36.48019,7.91852 4.61097,0.0343 10.58834,0.93973 13.95787,-2.85156 0.7299,-3.01949 -3.42832,-4.57503 -5.11579,-6.46206 -5.57165,-4.40242 -11.71753,-8.08059 -18.30636,-10.66127 -4.19107,-2.44945 -6.41189,-7.2118 -5.67523,-12.05915 1.47375,-33.04765 5.98117,-65.88528 9.22309,-98.79217 1.19471,-14.25269 3.68932,-28.513 3.46804,-42.82753 -0.86779,-2.09103 -3.99936,0.50434 -5.59989,0.26786 -12.03734,1.89709 -24.81749,1.33885 -36.67411,-1.72154 z"
       id="path3445"
       transform="scale(0.26458333)" />
    <path
       style="fill:#ffffff;fill-opacity:1;fill-rule:evenodd;stroke-width:1.42812;stroke-linecap:round;stroke-linejoin:round;paint-order:markers fill stroke"
       d="m 213.92216,596.62186 c -6.98046,4.99264 -13.03881,11.46907 -18.6356,17.99107 -2.13328,5.354 0.79139,11.30792 1.25969,16.75743 5.81987,30.90534 14.41771,61.53031 15.98417,93.02879 0.27019,13.34877 0.012,27.30839 -6.30636,39.42416 -2.92161,6.11448 -1.21305,15.57266 6.36718,17.06054 15.27905,4.12318 31.34726,5.79325 47.12054,4.48522 3.45794,-0.41377 2.29739,-4.84358 -0.0167,-6.03935 -8.06996,-7.71689 -19.73335,-10.08171 -27.7288,-17.79436 -0.2259,-45.63562 2.26209,-91.24922 4.53037,-136.8036 -0.21129,-4.88924 1.75538,-10.33171 -0.0368,-14.96258 -7.53504,-3.6844 -15.18377,-7.50992 -21.63505,-12.95062 -0.28462,-0.11744 -0.59115,-0.21232 -0.90262,-0.1967 z"
       id="path3447"
       transform="scale(0.26458333)" />
    <rect
       inkscape:export-ydpi="26.59861"
       inkscape:export-xdpi="26.59861"
       inkscape:export-filename="C:\Projects\vidmon\image\sprites\fejeslabasmellesface.png"
       style="fill:none;fill-rule:evenodd;stroke:#000000;stroke-width:4;stroke-linecap:round;stroke-linejoin:round;stroke-miterlimit:4;stroke-dasharray:none;paint-order:markers fill stroke"
       id="rect1456"
       width="87.673965"
       height="87.673965"
       x="3.5990269"
       y="83.352005"
       ry="15.815701" />
  </g>
</svg>
