<?xml version="1.0" encoding="UTF-8" standalone="no"?>
<svg
   xmlns:dc="http://purl.org/dc/elements/1.1/"
   xmlns:cc="http://creativecommons.org/ns#"
   xmlns:rdf="http://www.w3.org/1999/02/22-rdf-syntax-ns#"
   xmlns:svg="http://www.w3.org/2000/svg"
   xmlns="http://www.w3.org/2000/svg"
   xmlns:sodipodi="http://sodipodi.sourceforge.net/DTD/sodipodi-0.dtd"
   xmlns:inkscape="http://www.inkscape.org/namespaces/inkscape"
   sodipodi:docname="filmezosestes.svg"
   inkscape:version="1.0 (4035a4fb49, 2020-05-01)"
   id="svg846"
   version="1.1"
   viewBox="0 0 210 297"
   height="297mm"
   width="210mm">
  <defs
     id="defs840" />
  <sodipodi:namedview
     inkscape:snap-global="false"
     inkscape:window-maximized="1"
     inkscape:window-y="-8"
     inkscape:window-x="-8"
     inkscape:window-height="1017"
     inkscape:window-width="1920"
     showgrid="false"
     inkscape:document-rotation="0"
     inkscape:current-layer="layer1"
     inkscape:document-units="mm"
     inkscape:cy="177.53639"
     inkscape:cx="380.95027"
     inkscape:zoom="0.7"
     inkscape:pageshadow="2"
     inkscape:pageopacity="0.0"
     borderopacity="1.0"
     bordercolor="#666666"
     pagecolor="#ffffff"
     id="base" />
  <metadata
     id="metadata843">
    <rdf:RDF>
      <cc:Work
         rdf:about="">
        <dc:format>image/svg+xml</dc:format>
        <dc:type
           rdf:resource="http://purl.org/dc/dcmitype/StillImage" />
        <dc:title></dc:title>
      </cc:Work>
    </rdf:RDF>
  </metadata>
  <g
     id="layer1"
     inkscape:groupmode="layer"
     inkscape:label="Layer 1">
    <rect
       ry="15.815701"
       y="4.2715316"
       x="37.947491"
       height="87.673965"
       width="87.673965"
       id="rect1472"
       style="fill:#ffffff;fill-rule:evenodd;stroke:#000000;stroke-width:4;stroke-linecap:round;stroke-linejoin:round;stroke-miterlimit:4;stroke-dasharray:none;paint-order:markers fill stroke"
       inkscape:export-filename="C:\Projects\vidmon\image\sprites\filmezosestesface.png"
       inkscape:export-xdpi="26.59861"
       inkscape:export-ydpi="26.59861" />
    <g
       transform="translate(-9.0871639,59.333835)"
       id="g1450">
      <path
         style="fill:#ffffff;stroke-width:0.999999"
         d="m 393.46875,515.04883 c -1.41177,-0.0487 -2.64047,0.70642 -4.39453,2.33203 -3.30108,3.05915 -3.36118,5.92401 -0.19141,9.09375 3.32723,3.32727 8.88955,3.3858 11.03125,0.11719 2.1659,-3.30562 1.01644,-7.93512 -2.48242,-10.00196 -1.65612,-0.97828 -2.86485,-1.50312 -3.96289,-1.54101 z"
         transform="scale(0.26458333)"
         id="path1442" />
      <path
         style="fill:#ffffff;stroke-width:0.999999"
         d="m 379.08789,509.07422 c -1.6682,-0.0359 -3.33649,0.52985 -4.66016,1.85351 -2.91713,2.91712 -2.58862,7.39198 0.73438,10.00586 1.9748,1.5515 3.54693,1.98828 5.65625,1.56641 4.20782,-0.84155 5.60937,-2.37161 5.60937,-6.12109 0,-4.23463 -3.66979,-7.22583 -7.33984,-7.30469 z"
         transform="scale(0.26458333)"
         id="path1440" />
      <path
         style="fill:#ffffff;stroke-width:0.999999"
         d="m 315.39062,500.45117 c -2.49407,1.54144 -0.28815,3.52186 7.28711,6.54102 9.17861,3.6582 17.02329,7.29719 52.75,24.46679 13.47503,6.47585 35.52501,16.1855 49,21.57813 13.475,5.39263 25.17497,9.70531 26,9.58398 0.825,-0.12121 1.5,-0.88601 1.5,-1.69921 0,-1.50611 -4.69834,-3.5473 -37,-16.08399 -8.80002,-3.41541 -22.075,-9.23433 -29.5,-12.92969 -22.54342,-11.21964 -69.01176,-32.0907 -70.03711,-31.45703 z"
         transform="scale(0.26458333)"
         id="path1438" />
      <path
         style="fill:#ffffff;stroke-width:0.999999"
         d="m 352.40039,383.3418 c 9.30562,0.18213 18.84003,2.89745 27.27149,7.97461 9.89087,5.95596 28.36639,19.59064 37.85546,27.9375 15.03708,13.2271 22.1578,22.19887 29.08594,36.64453 5.44226,11.34742 6.77858,13.28409 14.16211,20.52929 12.84722,12.60654 30.7181,23.55633 57.15234,35.01563 22.20976,9.62797 33.95635,18.47848 38.67188,29.13867 2.31504,5.23351 2.65898,13.49452 0.84961,20.36914 -4.00294,15.20867 -25.64445,41.47323 -44.58203,54.10547 -17.94856,11.97252 -35.78602,18.39318 -57.93946,20.85547 -24.06633,2.67488 -55.24147,-0.68908 -79.33203,-8.56055 -30.49822,-9.96514 -72.35522,-35.71533 -103.97265,-63.96484 -15.69912,-14.02685 -20.08944,-22.09439 -20.9336,-38.45899 -1.13142,-21.93346 8.00424,-48.16762 28.71875,-82.46679 18.83467,-31.18655 37.92584,-50.24157 56.77735,-56.67383 5.13044,-1.75055 10.63147,-2.5546 16.21484,-2.44531 z"
         transform="scale(0.26458333)"
         id="path1436" />
      <path
         style="fill:#ffffff;stroke-width:0.999999"
         d="m 281.07371,417.27953 c -0.56703,0.60075 -9.34844,14.05912 -9.91547,14.65987 0.0222,-9.4e-4 0.0426,-0.009 0.0664,-0.006 -53.78694,100.36764 -42.45855,125.40961 54.20334,183.24043 30.98031,18.10133 52.91691,26.0151 83.77539,30.22265 12.15878,1.65786 37.83774,1.8787 49.72461,0.42774 11.18472,-1.3652 24.5097,-4.70326 35.07813,-8.78711 34.10222,-13.17785 69.87879,-50.99238 74.59961,-78.84961 3.64683,-21.51972 -8.9764,-39.0553 -37.65039,-52.30273 C 460.77539,476.42773 462.43865,450.54299 448.41754,436.47518 360.52093,334.58812 320.073,368.84017 281.07371,417.27953 Z"
         transform="scale(0.26458333)"
         id="path1432" />
      <path
         id="path1423"
         style="fill:#000000;stroke-width:0.999999"
         transform="scale(0.26458333)"
         d="m 281.07371,417.27953 c -0.56703,0.60075 -9.34844,14.05912 -9.91547,14.65987 0.0222,-9.4e-4 0.0426,-0.009 0.0664,-0.006 -53.78694,100.36764 -42.45855,125.40961 54.20334,183.24043 30.98031,18.10133 52.91691,26.0151 83.77539,30.22265 12.15878,1.65786 37.83774,1.8787 49.72461,0.42774 11.18472,-1.3652 24.5097,-4.70326 35.07813,-8.78711 34.10222,-13.17785 69.87879,-50.99238 74.59961,-78.84961 3.64683,-21.51972 -8.9764,-39.0553 -37.65039,-52.30273 -73.96801,-27.1842 -68.0116,-57.36209 -82.03271,-71.4299 C 361.02601,332.56781 320.073,368.84017 281.07371,417.27953 Z m 71.32668,-33.93773 c 9.30562,0.18213 18.84003,2.89745 27.27149,7.97461 9.89087,5.95596 28.36639,19.59064 37.85546,27.9375 15.03708,13.2271 22.1578,22.19887 29.08594,36.64453 5.44226,11.34742 6.77858,13.28409 14.16211,20.52929 12.84722,12.60654 30.7181,23.55633 57.15234,35.01563 22.20976,9.62797 33.95635,18.47848 38.67188,29.13867 2.31504,5.23351 2.65898,13.49452 0.84961,20.36914 -4.00294,15.20867 -25.64445,41.47323 -44.58203,54.10547 -17.94856,11.97252 -35.78602,18.39318 -57.93946,20.85547 -24.06633,2.67488 -55.24147,-0.68908 -79.33203,-8.56055 -30.49822,-9.96514 -72.35522,-35.71533 -103.97265,-63.96484 -15.69912,-14.02685 -20.08944,-22.09439 -20.9336,-38.45899 -1.13142,-21.93346 8.00424,-48.16762 28.71875,-82.46679 18.83467,-31.18655 37.92584,-50.24157 56.77735,-56.67383 5.13044,-1.75055 10.63147,-2.5546 16.21484,-2.44531 z m -37.00977,117.10937 c -2.49407,1.54144 -0.28815,3.52186 7.28711,6.54102 9.17861,3.6582 17.02329,7.29719 52.75,24.46679 13.47503,6.47585 35.52501,16.1855 49,21.57813 13.475,5.39263 25.17497,9.70531 26,9.58398 0.825,-0.12121 1.5,-0.88601 1.5,-1.69921 0,-1.50611 -4.69834,-3.5473 -37,-16.08399 -8.80002,-3.41541 -22.075,-9.23433 -29.5,-12.92969 -22.54342,-11.21964 -69.01176,-32.0907 -70.03711,-31.45703 z m 63.69727,8.62305 c -1.6682,-0.0359 -3.33649,0.52985 -4.66016,1.85351 -2.91713,2.91712 -2.58862,7.39198 0.73438,10.00586 1.9748,1.5515 3.54693,1.98828 5.65625,1.56641 4.20782,-0.84155 5.60937,-2.37161 5.60937,-6.12109 0,-4.23463 -3.66979,-7.22583 -7.33984,-7.30469 z m 14.38086,5.97461 c -1.41177,-0.0487 -2.64047,0.70642 -4.39453,2.33203 -3.30108,3.05915 -3.36118,5.92401 -0.19141,9.09375 3.32723,3.32727 8.88955,3.3858 11.03125,0.11719 2.1659,-3.30562 1.01644,-7.93512 -2.48242,-10.00196 -1.65612,-0.97828 -2.86485,-1.50312 -3.96289,-1.54101 z"
         sodipodi:nodetypes="ccccsssscccssssssssssssssssssssssssssscsssscssss" />
    </g>
    <g
       transform="matrix(0.87756238,0,0,0.87756238,-12.034272,-68.534101)"
       id="g1464">
      <path
         id="path1452"
         transform="scale(0.26458333)"
         d="m 393.46875,515.04883 c -1.41177,-0.0487 -2.64047,0.70642 -4.39453,2.33203 -3.30108,3.05915 -3.36118,5.92401 -0.19141,9.09375 3.32723,3.32727 8.88955,3.3858 11.03125,0.11719 2.1659,-3.30562 1.01644,-7.93512 -2.48242,-10.00196 -1.65612,-0.97828 -2.86485,-1.50312 -3.96289,-1.54101 z"
         style="fill:#ffffff;stroke-width:0.999999" />
      <path
         id="path1454"
         transform="scale(0.26458333)"
         d="m 379.08789,509.07422 c -1.6682,-0.0359 -3.33649,0.52985 -4.66016,1.85351 -2.91713,2.91712 -2.58862,7.39198 0.73438,10.00586 1.9748,1.5515 3.54693,1.98828 5.65625,1.56641 4.20782,-0.84155 5.60937,-2.37161 5.60937,-6.12109 0,-4.23463 -3.66979,-7.22583 -7.33984,-7.30469 z"
         style="fill:#ffffff;stroke-width:0.999999" />
      <path
         id="path1456"
         transform="scale(0.26458333)"
         d="m 315.39062,500.45117 c -2.49407,1.54144 -0.28815,3.52186 7.28711,6.54102 9.17861,3.6582 17.02329,7.29719 52.75,24.46679 13.47503,6.47585 35.52501,16.1855 49,21.57813 13.475,5.39263 25.17497,9.70531 26,9.58398 0.825,-0.12121 1.5,-0.88601 1.5,-1.69921 0,-1.50611 -4.69834,-3.5473 -37,-16.08399 -8.80002,-3.41541 -22.075,-9.23433 -29.5,-12.92969 -22.54342,-11.21964 -69.01176,-32.0907 -70.03711,-31.45703 z"
         style="fill:#ffffff;stroke-width:0.999999" />
      <path
         id="path1458"
         transform="scale(0.26458333)"
         d="m 352.40039,383.3418 c 9.30562,0.18213 18.84003,2.89745 27.27149,7.97461 9.89087,5.95596 28.36639,19.59064 37.85546,27.9375 15.03708,13.2271 22.1578,22.19887 29.08594,36.64453 5.44226,11.34742 6.77858,13.28409 14.16211,20.52929 12.84722,12.60654 30.7181,23.55633 57.15234,35.01563 22.20976,9.62797 33.95635,18.47848 38.67188,29.13867 2.31504,5.23351 2.65898,13.49452 0.84961,20.36914 -4.00294,15.20867 -25.64445,41.47323 -44.58203,54.10547 -17.94856,11.97252 -35.78602,18.39318 -57.93946,20.85547 -24.06633,2.67488 -55.24147,-0.68908 -79.33203,-8.56055 -30.49822,-9.96514 -72.35522,-35.71533 -103.97265,-63.96484 -15.69912,-14.02685 -20.08944,-22.09439 -20.9336,-38.45899 -1.13142,-21.93346 8.00424,-48.16762 28.71875,-82.46679 18.83467,-31.18655 37.92584,-50.24157 56.77735,-56.67383 5.13044,-1.75055 10.63147,-2.5546 16.21484,-2.44531 z"
         style="fill:#ffffff;stroke-width:0.999999" />
      <path
         id="path1460"
         transform="scale(0.26458333)"
         d="m 281.07371,417.27953 c -0.56703,0.60075 -9.34844,14.05912 -9.91547,14.65987 0.0222,-9.4e-4 0.0426,-0.009 0.0664,-0.006 -53.78694,100.36764 -42.45855,125.40961 54.20334,183.24043 30.98031,18.10133 52.91691,26.0151 83.77539,30.22265 12.15878,1.65786 37.83774,1.8787 49.72461,0.42774 11.18472,-1.3652 24.5097,-4.70326 35.07813,-8.78711 34.10222,-13.17785 69.87879,-50.99238 74.59961,-78.84961 3.64683,-21.51972 -8.9764,-39.0553 -37.65039,-52.30273 C 460.77539,476.42773 462.43865,450.54299 448.41754,436.47518 360.52093,334.58812 320.073,368.84017 281.07371,417.27953 Z"
         style="fill:#ffffff;stroke-width:0.999999" />
      <path
         sodipodi:nodetypes="ccccsssscccssssssssssssssssssssssssssscsssscssss"
         d="m 281.07371,417.27953 c -0.56703,0.60075 -9.34844,14.05912 -9.91547,14.65987 0.0222,-9.4e-4 0.0426,-0.009 0.0664,-0.006 -53.78694,100.36764 -42.45855,125.40961 54.20334,183.24043 30.98031,18.10133 52.91691,26.0151 83.77539,30.22265 12.15878,1.65786 37.83774,1.8787 49.72461,0.42774 11.18472,-1.3652 24.5097,-4.70326 35.07813,-8.78711 34.10222,-13.17785 69.87879,-50.99238 74.59961,-78.84961 3.64683,-21.51972 -8.9764,-39.0553 -37.65039,-52.30273 -73.96801,-27.1842 -68.0116,-57.36209 -82.03271,-71.4299 C 361.02601,332.56781 320.073,368.84017 281.07371,417.27953 Z m 71.32668,-33.93773 c 9.30562,0.18213 18.84003,2.89745 27.27149,7.97461 9.89087,5.95596 28.36639,19.59064 37.85546,27.9375 15.03708,13.2271 22.1578,22.19887 29.08594,36.64453 5.44226,11.34742 6.77858,13.28409 14.16211,20.52929 12.84722,12.60654 30.7181,23.55633 57.15234,35.01563 22.20976,9.62797 33.95635,18.47848 38.67188,29.13867 2.31504,5.23351 2.65898,13.49452 0.84961,20.36914 -4.00294,15.20867 -25.64445,41.47323 -44.58203,54.10547 -17.94856,11.97252 -35.78602,18.39318 -57.93946,20.85547 -24.06633,2.67488 -55.24147,-0.68908 -79.33203,-8.56055 -30.49822,-9.96514 -72.35522,-35.71533 -103.97265,-63.96484 -15.69912,-14.02685 -20.08944,-22.09439 -20.9336,-38.45899 -1.13142,-21.93346 8.00424,-48.16762 28.71875,-82.46679 18.83467,-31.18655 37.92584,-50.24157 56.77735,-56.67383 5.13044,-1.75055 10.63147,-2.5546 16.21484,-2.44531 z m -37.00977,117.10937 c -2.49407,1.54144 -0.28815,3.52186 7.28711,6.54102 9.17861,3.6582 17.02329,7.29719 52.75,24.46679 13.47503,6.47585 35.52501,16.1855 49,21.57813 13.475,5.39263 25.17497,9.70531 26,9.58398 0.825,-0.12121 1.5,-0.88601 1.5,-1.69921 0,-1.50611 -4.69834,-3.5473 -37,-16.08399 -8.80002,-3.41541 -22.075,-9.23433 -29.5,-12.92969 -22.54342,-11.21964 -69.01176,-32.0907 -70.03711,-31.45703 z m 63.69727,8.62305 c -1.6682,-0.0359 -3.33649,0.52985 -4.66016,1.85351 -2.91713,2.91712 -2.58862,7.39198 0.73438,10.00586 1.9748,1.5515 3.54693,1.98828 5.65625,1.56641 4.20782,-0.84155 5.60937,-2.37161 5.60937,-6.12109 0,-4.23463 -3.66979,-7.22583 -7.33984,-7.30469 z m 14.38086,5.97461 c -1.41177,-0.0487 -2.64047,0.70642 -4.39453,2.33203 -3.30108,3.05915 -3.36118,5.92401 -0.19141,9.09375 3.32723,3.32727 8.88955,3.3858 11.03125,0.11719 2.1659,-3.30562 1.01644,-7.93512 -2.48242,-10.00196 -1.65612,-0.97828 -2.86485,-1.50312 -3.96289,-1.54101 z"
         transform="scale(0.26458333)"
         style="fill:#000000;stroke-width:0.999999"
         id="path1462" />
    </g>
    <rect
       inkscape:export-ydpi="26.59861"
       inkscape:export-xdpi="26.59861"
       inkscape:export-filename="C:\Projects\vidmon\image\sprites\fejeslabasmellesface.png"
       style="fill:none;fill-rule:evenodd;stroke:#000000;stroke-width:4;stroke-linecap:round;stroke-linejoin:round;stroke-miterlimit:4;stroke-dasharray:none;paint-order:markers fill stroke"
       id="rect1456"
       width="87.673965"
       height="87.673965"
       x="37.947491"
       y="4.2715316"
       ry="15.815701" />
  </g>
</svg>
