<?xml version="1.0" encoding="UTF-8" standalone="no"?>
<svg
   xmlns:dc="http://purl.org/dc/elements/1.1/"
   xmlns:cc="http://creativecommons.org/ns#"
   xmlns:rdf="http://www.w3.org/1999/02/22-rdf-syntax-ns#"
   xmlns:svg="http://www.w3.org/2000/svg"
   xmlns="http://www.w3.org/2000/svg"
   xmlns:sodipodi="http://sodipodi.sourceforge.net/DTD/sodipodi-0.dtd"
   xmlns:inkscape="http://www.inkscape.org/namespaces/inkscape"
   sodipodi:docname="honk.svg"
   inkscape:version="1.0 (4035a4fb49, 2020-05-01)"
   id="svg846"
   version="1.1"
   viewBox="0 0 210 297"
   height="297mm"
   width="210mm">
  <defs
     id="defs840">
    <filter
       height="1.0286204"
       y="-0.014310178"
       width="1.278306"
       x="-0.13915301"
       id="filter1660"
       style="color-interpolation-filters:sRGB"
       inkscape:collect="always">
      <feGaussianBlur
         id="feGaussianBlur1662"
         stdDeviation="0.12052151"
         inkscape:collect="always" />
    </filter>
  </defs>
  <sodipodi:namedview
     inkscape:snap-global="false"
     inkscape:window-maximized="1"
     inkscape:window-y="-8"
     inkscape:window-x="-8"
     inkscape:window-height="1017"
     inkscape:window-width="1920"
     showgrid="false"
     inkscape:document-rotation="0"
     inkscape:current-layer="layer1"
     inkscape:document-units="mm"
     inkscape:cy="652.75515"
     inkscape:cx="-46.151028"
     inkscape:zoom="0.49497475"
     inkscape:pageshadow="2"
     inkscape:pageopacity="0.0"
     borderopacity="1.0"
     bordercolor="#666666"
     pagecolor="#ffffff"
     id="base" />
  <metadata
     id="metadata843">
    <rdf:RDF>
      <cc:Work
         rdf:about="">
        <dc:format>image/svg+xml</dc:format>
        <dc:type
           rdf:resource="http://purl.org/dc/dcmitype/StillImage" />
        <dc:title></dc:title>
      </cc:Work>
    </rdf:RDF>
  </metadata>
  <g
     id="layer1"
     inkscape:groupmode="layer"
     inkscape:label="Layer 1">
    <rect
       ry="15.815701"
       y="4.2715316"
       x="37.947491"
       height="87.673965"
       width="87.673965"
       id="rect1472"
       style="fill:#ffffff;fill-rule:evenodd;stroke:#000000;stroke-width:4;stroke-linecap:round;stroke-linejoin:round;stroke-miterlimit:4;stroke-dasharray:none;paint-order:markers fill stroke"
       inkscape:export-filename="C:\Projects\vidmon\image\sprites\filmezosestesface.png"
       inkscape:export-xdpi="26.59861"
       inkscape:export-ydpi="26.59861" />
    <rect
       inkscape:export-ydpi="26.59861"
       inkscape:export-xdpi="26.59861"
       inkscape:export-filename="C:\Projects\vidmon\image\sprites\honkface.png"
       style="fill:none;fill-rule:evenodd;stroke:#000000;stroke-width:4;stroke-linecap:round;stroke-linejoin:round;stroke-miterlimit:4;stroke-dasharray:none;paint-order:markers fill stroke"
       id="rect1456"
       width="87.673965"
       height="87.673965"
       x="37.947491"
       y="4.2715316"
       ry="15.815701" />
    <g
       transform="matrix(-2.2579717,0,0,2.2579717,444.9508,-92.233508)"
       id="g1666">
      <path
         style="fill:#000000;stroke-width:0.264583"
         d="m 151.05998,76.496493 c -0.52993,-0.529937 -0.40176,-0.954909 0.97586,-3.235634 0.7176,-1.188023 1.7235,-3.033879 2.23534,-4.101904 1.39273,-2.906141 2.01414,-3.436019 2.892,-2.466002 0.35841,0.396045 0.23311,0.769302 0.10031,1.124479 -0.14041,0.375537 -0.65965,1.484251 -1.06456,2.502897 -0.40492,1.018646 -1.35434,2.864115 -2.10983,4.101042 -1.06832,1.74911 -1.52104,2.266188 -2.03693,2.326476 -0.36482,0.04263 -0.81131,-0.07048 -0.99219,-0.251354 z m 1.17781,-0.425164 c 0.0187,-0.228971 -0.12872,-0.449283 -0.24842,-0.642879 -0.28179,-0.455946 -1.00018,0.113309 -0.80499,0.621969 0.16274,0.424082 0.53727,0.488131 0.83118,0.398534 0.13971,-0.04259 0.21033,-0.232057 0.22223,-0.377624 z m 2.34703,-3.396588 c 1.30583,-2.38546 1.40529,-2.873134 0.66664,-3.268447 -0.44735,-0.239419 -0.63178,-0.04675 -1.57401,1.644337 -0.58701,1.053542 -1.28485,2.262735 -1.55076,2.687096 -1.18195,2.022809 -0.47077,0.786042 0.0527,1.382481 0.65033,0.741038 -0.16051,2.019199 2.40547,-2.445467 z m 1.98136,-4.239707 c 0.40299,-0.940121 0.45401,-1.308899 0.22008,-1.590762 -0.37675,-0.453955 -0.88239,-0.106161 -1.46162,1.033449 -0.93036,1.830437 -0.47888,0.969214 0.0584,1.276041 0.36059,0.205926 0.44653,0.305569 0.546,0.682285 0.0141,0.05356 0.34856,-0.727903 0.63709,-1.401013 z"
         id="path1490"
         sodipodi:nodetypes="sssssssssacsaacssccccssssccs" />
      <path
         style="mix-blend-mode:normal;fill:#a6a5a6;fill-opacity:1;stroke:none;stroke-width:0.265;stroke-miterlimit:4;stroke-dasharray:none;stroke-opacity:1;filter:url(#filter1660)"
         d="m 151.46872,70.604473 c 0.14098,-2.514706 0.0896,-3.28296 -0.30029,-4.489129 -0.38106,-1.178838 -0.47821,-2.485319 -0.51158,-6.879167 -0.0275,-3.626992 0.0315,-4.985673 0.17824,-4.101041 0.12069,0.727604 0.20228,2.394479 0.18132,3.704166 -0.021,1.309688 -0.016,3.095625 0.011,3.96875 0.0423,1.366717 0.0871,1.495507 0.32223,0.926042 0.16426,-0.397787 0.21876,-1.927079 0.13671,-3.836458 -0.10197,-2.373005 -0.0752,-2.840836 0.10608,-1.852084 0.13338,0.727604 0.24418,3.049323 0.24623,5.159375 0.002,2.110052 0.0322,4.669896 0.067,5.688542 0.0348,1.018645 -0.0328,2.328333 -0.15037,2.910416 l -0.21367,1.058333 c 0.36017,3.484352 -0.66525,2.980596 -0.0729,-2.257745 z m -0.40489,-1.997636 c 0.0127,-0.308225 -0.42069,-2.071813 -0.33624,-1.860746 0.0764,0.190996 0.56309,2.120092 0.47519,2.208011 -0.0879,0.08792 -0.15045,-0.06835 -0.13897,-0.347265 z m -0.78929,-3.485063 c -0.18161,-0.981505 -0.36621,-2.796586 -0.41023,-4.033513 -0.044,-1.236927 -0.0355,-1.772709 0.0189,-1.190625 0.0544,0.582083 0.24607,2.354546 0.52006,3.923673 0.69405,3.974841 0.38327,4.067653 -0.12874,1.300465 z"
         id="path1488"
         sodipodi:nodetypes="cscsccssscscccsssssssssss" />
    </g>
    <g
       style="fill:#ffffff"
       transform="matrix(1.9482247,0,0,1.9482247,-130.44681,-79.953758)"
       inkscape:export-ydpi="38.608864"
       inkscape:export-xdpi="38.608864"
       inkscape:export-filename="C:\Projects\vidmon\image\sprites\honk.png"
       id="g1066">
      <path
         style="fill:#ffffff;stroke-width:0.18894"
         d="m 104.20081,159.54744 c -1.29897,-0.12308 -2.39512,-0.24927 -2.43592,-0.2804 -0.0409,-0.0311 0.0442,-0.19913 0.18894,-0.37333 0.2133,-0.2568 0.281,-1.96558 0.35757,-9.0264 0.0521,-4.79033 0.0277,-8.85847 -0.0539,-9.04031 -0.0816,-0.18187 -0.31241,-0.33066 -0.51293,-0.33066 -0.79495,0 -0.85297,0.50652 -0.80093,6.99074 0.0271,3.37731 -0.003,7.09187 -0.0652,8.25463 l -0.11439,2.11412 -2.060802,0.0586 -2.060793,0.0586 -8.7e-5,-0.47236 c -3.7e-5,-0.25978 -0.09066,-3.15055 -0.2014,-6.42392 -0.199241,-5.89037 -0.08766,-9.60298 0.40304,-13.41467 0.184963,-1.43657 0.656222,-3.13548 0.913922,-3.29475 8.05642,-5.69925 12.48738,-4.27173 20.56081,0.15625 0.18191,0.18189 0.4256,2.80565 0.54593,5.8781 0.11554,2.9498 -0.20397,14.29894 -0.4242,15.0679 -0.0521,0.18186 -0.22963,0.33064 -0.39456,0.33064 -0.26407,0 -0.28567,-0.27941 -0.18102,-2.34379 0.1129,-2.22679 -0.1033,-10.89264 -0.35516,-14.23816 -0.0919,-1.22172 -0.19032,-1.60023 -0.45215,-1.74037 -0.22492,-0.12043 -0.43804,-0.10351 -0.65018,0.0517 -0.29268,0.214 -0.29753,0.71693 -0.0667,6.93618 0.25615,6.90152 0.13859,11.89712 -0.30212,12.84009 -0.46775,1.00079 -2.52824,1.77876 -5.74631,2.16962 -2.69725,0.32758 -3.31534,0.33486 -6.09148,0.0718 z"
         id="path1042" />
      <path
         style="fill:#ffffff;stroke-width:0.18894"
         d="m 97.372854,159.83895 c -0.357907,-0.3239 -0.35955,-0.34726 -0.03341,-0.47584 0.508571,-0.20051 2.378233,-0.18347 2.704726,0.0246 0.21784,0.13885 0.23556,0.2574 0.0766,0.51238 -0.415749,0.66684 -1.981962,0.63194 -2.747882,-0.0611 z"
         id="path1044" />
      <path
         style="fill:#ffffff;stroke-width:0.18894"
         d="m 101.8742,186.49038 c -0.31123,-0.11944 -0.32403,-0.57074 -0.20808,-7.33147 l 0.12357,-7.2042 -0.77832,-4.55931 c -0.79637,-4.66514 -0.92183,-5.9268 -0.58935,-5.9268 0.10403,0 0.37305,-0.18411 0.59806,-0.40915 l 0.40913,-0.40912 2.75561,0.301 c 2.60506,0.28454 2.92074,0.28145 5.77861,-0.0563 1.66267,-0.19651 3.51191,-0.52586 4.10945,-0.73191 l 1.08638,-0.37463 v 0.54782 c 0,0.30133 0.13653,3.50636 0.30339,7.12229 0.31915,6.91637 0.27068,16.89785 -0.0867,17.83764 -0.18198,0.47861 -0.24683,0.49599 -2.33081,0.62433 -1.17899,0.0727 -2.28571,0.0775 -2.45938,0.0113 -0.21476,-0.0824 -0.35597,-0.44327 -0.44159,-1.12842 -0.19063,-1.52587 0.0327,-6.90439 0.38838,-9.35289 0.28942,-1.99233 0.68696,-11.47496 0.50496,-12.04487 -0.0999,-0.31247 -0.87811,-0.30283 -1.14115,0.014 -0.12925,0.15578 -0.27857,2.24305 -0.39531,5.52649 -0.10686,3.00481 -0.32234,6.13019 -0.50065,7.26003 -0.22747,1.44138 -0.30806,3.11497 -0.29465,6.12028 0.0105,2.27503 -0.0345,4.2221 -0.0992,4.32682 -0.12819,0.20742 -6.147,0.0621 -6.73239,-0.16259 z"
         id="path1046" />
      <path
         style="fill:#ffffff;stroke-width:0.18894"
         d="m 110.36803,188.13102 c -0.44893,-0.18053 -0.50086,-0.26454 -0.30752,-0.4975 0.17535,-0.21128 0.66878,-0.28026 2.0044,-0.28026 0.97448,0 1.77179,0.0688 1.77179,0.15282 0,0.23529 -0.4397,0.73556 -0.75576,0.85986 -0.41281,0.16232 -2.0853,0.0174 -2.71291,-0.23492 z"
         id="path1048" />
      <path
         style="fill:#ffffff;stroke-width:0.18894"
         d="m 103.43163,189.0073 c -1.20556,-0.95986 -1.13209,-0.99575 1.64984,-0.80613 1.85692,0.12656 1.93826,0.14994 1.74944,0.50273 -0.27125,0.50685 -1.29649,1.10402 -1.89691,1.10486 -0.29876,3.8e-4 -0.8942,-0.31723 -1.50237,-0.80146 z"
         id="path1050" />
      <path
         style="fill:#ffffff;stroke-width:0.18894"
         d="m 106.62392,190.81387 c 0.34552,-0.17025 0.77062,-0.5124 0.9447,-0.76031 0.91494,-1.30309 0.75446,-1.24558 2.01694,-0.72264 0.83265,0.34489 1.48478,0.4707 2.45621,0.47376 1.84108,0.007 2.53225,-0.36565 3.02043,-1.62336 0.24021,-0.6189 0.56382,-1.07509 0.89917,-1.26755 0.28813,-0.16536 0.62471,-0.53798 0.74793,-0.82806 0.39558,-0.93122 0.2704,-22.0295 -0.15178,-25.58063 l -0.10342,-0.86903 0.85068,-0.23817 c 1.12522,-0.31506 1.53245,-0.78914 2.12575,-2.47475 0.45726,-1.29916 0.50902,-1.77266 0.6801,-6.22407 0.22262,-5.79239 0.0708,-14.07301 -0.29446,-16.05982 -3.08478,-6.83456 -19.80187,-7.15132 -23.639732,-0.26861 -0.931002,1.96193 -1.292335,7.52708 -1.118903,17.23291 0.07297,4.08254 0.202067,7.46572 0.286925,7.51814 0.0849,0.0524 0.315935,0.46084 0.513531,0.90751 0.383325,0.86657 1.206436,1.49698 2.239764,1.71539 0.55044,0.11629 0.615481,0.20673 0.728421,1.01231 0.0682,0.48651 0.421068,2.67004 0.784161,4.85228 0.585703,3.52024 0.663363,4.39391 0.688623,7.74651 0.0157,2.07832 -0.0463,5.36481 -0.13764,7.30332 -0.19186,4.07075 -0.11968,4.73541 0.54713,5.03925 0.34265,0.15611 0.46923,0.36159 0.46923,0.76171 0,0.42784 0.21734,0.73281 0.99192,1.3918 0.54556,0.46412 1.17764,0.94209 1.40461,1.0621 0.59807,0.31626 2.3195,0.25985 3.0496,-0.1 z"
         id="path1052" />
      <path
         style="fill:#ffffff;stroke-width:0.18894"
         d="m 106.62392,190.81387 c 0.34552,-0.17025 0.77062,-0.5124 0.9447,-0.76031 0.91494,-1.30309 0.75446,-1.24558 2.01694,-0.72264 0.83265,0.34489 1.48478,0.4707 2.45621,0.47376 1.84108,0.007 2.53225,-0.36565 3.02043,-1.62336 0.24021,-0.6189 0.56382,-1.07509 0.89917,-1.26755 0.28813,-0.16536 0.62471,-0.53798 0.74793,-0.82806 0.39558,-0.93122 0.2704,-22.0295 -0.15178,-25.58063 l -0.10342,-0.86903 0.85068,-0.23817 c 1.12522,-0.31506 1.53245,-0.78914 2.12575,-2.47475 0.45726,-1.29916 0.50902,-1.77266 0.6801,-6.22407 0.22262,-5.79239 0.0708,-14.07301 -0.29446,-16.05982 -3.08478,-6.83456 -19.80187,-7.15132 -23.639732,-0.26861 -0.931002,1.96193 -1.292335,7.52708 -1.118903,17.23291 0.07297,4.08254 0.202067,7.46572 0.286925,7.51814 0.0849,0.0524 0.315935,0.46084 0.513531,0.90751 0.383325,0.86657 1.206436,1.49698 2.239764,1.71539 0.55044,0.11629 0.615481,0.20673 0.728421,1.01231 0.0682,0.48651 0.421068,2.67004 0.784161,4.85228 0.585703,3.52024 0.663363,4.39391 0.688623,7.74651 0.0157,2.07832 -0.0463,5.36481 -0.13764,7.30332 -0.19186,4.07075 -0.11968,4.73541 0.54713,5.03925 0.34265,0.15611 0.46923,0.36159 0.46923,0.76171 0,0.42784 0.21734,0.73281 0.99192,1.3918 0.54556,0.46412 1.17764,0.94209 1.40461,1.0621 0.59807,0.31626 2.3195,0.25985 3.0496,-0.1 z m -3.19229,-1.80657 c -1.20556,-0.95986 -1.13209,-0.99575 1.64984,-0.80613 1.85692,0.12656 1.93826,0.14994 1.74944,0.50273 -0.27125,0.50685 -1.29649,1.10402 -1.89691,1.10486 -0.29876,3.8e-4 -0.8942,-0.31723 -1.50237,-0.80146 z m 6.9364,-0.87628 c -0.44893,-0.18053 -0.50086,-0.26454 -0.30752,-0.4975 0.17535,-0.21128 0.66878,-0.28026 2.0044,-0.28026 0.97448,0 1.77179,0.0688 1.77179,0.15282 0,0.23529 -0.4397,0.73556 -0.75576,0.85986 -0.41281,0.16232 -2.0853,0.0174 -2.71291,-0.23492 z m -8.49383,-1.64064 c -0.31123,-0.11944 -0.32403,-0.57074 -0.20808,-7.33147 l 0.12357,-7.2042 -0.77832,-4.55931 c -0.79637,-4.66514 -0.92183,-5.9268 -0.58935,-5.9268 0.10403,0 0.37305,-0.18411 0.59806,-0.40915 l 0.40913,-0.40912 2.75561,0.301 c 2.60506,0.28454 2.92074,0.28145 5.77861,-0.0563 1.66267,-0.19651 3.51191,-0.52586 4.10945,-0.73191 l 1.08638,-0.37463 v 0.54782 c 0,0.30133 0.13653,3.50636 0.30339,7.12229 0.31915,6.91637 0.27068,16.89785 -0.0867,17.83764 -0.18198,0.47861 -0.24683,0.49599 -2.33081,0.62433 -1.17899,0.0727 -2.28571,0.0775 -2.45938,0.0113 -0.21476,-0.0824 -0.35597,-0.44327 -0.44159,-1.12842 -0.19063,-1.52587 0.0327,-6.90439 0.38838,-9.35289 0.28942,-1.99233 0.68696,-11.47496 0.50496,-12.04487 -0.0999,-0.31247 -0.87811,-0.30283 -1.14115,0.014 -0.12925,0.15578 -0.27857,2.24305 -0.39531,5.52649 -0.10686,3.00481 -0.32234,6.13019 -0.50065,7.26003 -0.22747,1.44138 -0.30806,3.11497 -0.29465,6.12028 0.0105,2.27503 -0.0345,4.2221 -0.0992,4.32682 -0.12819,0.20742 -6.147,0.0621 -6.73239,-0.16259 z m -4.501346,-26.65143 c -0.357907,-0.3239 -0.35955,-0.34726 -0.03341,-0.47584 0.508571,-0.20051 2.378233,-0.18347 2.704726,0.0246 0.21784,0.13885 0.23556,0.2574 0.0766,0.51238 -0.415749,0.66684 -1.981962,0.63194 -2.747882,-0.0611 z m 6.827956,-0.29151 c -1.29897,-0.12308 -2.39512,-0.24927 -2.43592,-0.2804 -0.0409,-0.0311 0.0442,-0.19913 0.18894,-0.37333 0.2133,-0.2568 0.281,-1.96558 0.35757,-9.0264 0.0521,-4.79033 0.0277,-8.85847 -0.0539,-9.04031 -0.0816,-0.18187 -0.31241,-0.33066 -0.51293,-0.33066 -0.79495,0 -0.85297,0.50652 -0.80093,6.99074 0.0271,3.37731 -0.003,7.09187 -0.0652,8.25463 l -0.11439,2.11412 -2.060802,0.0586 -2.060793,0.0586 -8.7e-5,-0.47236 c -3.7e-5,-0.25978 -0.09066,-3.15055 -0.2014,-6.42392 -0.199241,-5.89037 -0.08766,-9.60298 0.40304,-13.41467 0.184963,-1.43657 0.656222,-3.13548 0.913922,-3.29475 8.05642,-5.69925 12.48738,-4.27173 20.56081,0.15625 0.18191,0.18189 0.4256,2.80565 0.54593,5.8781 0.11554,2.9498 -0.20397,14.29894 -0.4242,15.0679 -0.0521,0.18186 -0.22963,0.33064 -0.39456,0.33064 -0.26407,0 -0.28567,-0.27941 -0.18102,-2.34379 0.1129,-2.22679 -0.1033,-10.89264 -0.35516,-14.23816 -0.0919,-1.22172 -0.19032,-1.60023 -0.45215,-1.74037 -0.22492,-0.12043 -0.43804,-0.10351 -0.65018,0.0517 -0.29268,0.214 -0.29753,0.71693 -0.0667,6.93618 0.25615,6.90152 0.13859,11.89712 -0.30212,12.84009 -0.46775,1.00079 -2.52824,1.77876 -5.74631,2.16962 -2.69725,0.32758 -3.31534,0.33486 -6.09148,0.0718 z"
         id="path1054"
         sodipodi:nodetypes="scscsssccsssccscscssscssssssssscssssssscscssccssscsssscsccscscccccsssccsssssssccccsssccscsssccsssss" />
      <path
         id="path1056"
         style="fill:#ffffff;stroke-width:1.25;stroke-miterlimit:4;stroke-dasharray:none"
         d="m 107.63529,106.61468 c -2.7078,0.008 -4.4479,0.34689 -6.81767,1.32808 -1.350959,0.55936 -2.113983,0.99444 -3.325381,1.89498 -1.276577,0.94899 -2.343594,2.02912 -3.395659,3.437 -1.11092,1.48664 -2.204448,3.55765 -2.515609,4.7656 -0.322135,1.25054 -0.394231,1.62514 -0.503327,2.60656 -0.153072,1.37702 -0.0057,3.429 0.346231,4.81624 0.70153,2.76552 2.21701,5.13794 4.518589,7.07399 10.127636,7.82531 18.546786,6.06871 24.513746,-0.21597 1.82095,-1.90658 2.87398,-4.21947 3.4892,-7.6631 0.22067,-1.23502 0.21964,-3.36303 -0.002,-4.5191 -0.30198,-1.5746 -1.02201,-3.35303 -1.98334,-4.89996 -1.02772,-1.65374 -3.10428,-3.99165 -4.593,-5.17023 -1.15252,-0.91242 -2.91013,-2.00081 -3.72071,-2.30425 -2.68942,-1.00673 -3.47477,-1.1568 -6.011,-1.1498 z"
         sodipodi:nodetypes="cssssssccscssccc" />
      <path
         style="fill:#ffffff;stroke-width:1.25;stroke-miterlimit:4;stroke-dasharray:none"
         d="m 109.90154,135.46244 c 1.09143,-0.23205 1.89526,-0.51227 2.23414,-0.77884 0.38319,-0.30142 0.68106,-0.33121 0.97777,-0.0978 0.20645,0.16239 0.26341,0.28984 0.26341,0.5894 0,0.21021 0.0284,0.3822 0.0631,0.3822 0.12908,0 1.76213,-0.92462 2.4671,-1.39685 2.18889,-1.46622 3.55357,-2.61297 4.30197,-3.61493 1.35016,-1.80761 2.26603,-4.43322 2.50913,-7.19316 0.27622,-3.13592 -0.76503,-6.15518 -3.14172,-9.10987 -1.0096,-1.25513 -2.68519,-2.87593 -3.79052,-3.66656 -0.84101,-0.60157 -3.03802,-1.72995 -3.91748,-2.01202 -4.23391,-1.35793 -9.78447,-0.44996 -13.352147,2.18418 -2.639873,1.94911 -4.862832,5.05007 -5.661364,7.89742 -0.551302,1.9658 -0.634795,3.5304 -0.295116,5.53036 0.473569,2.7883 1.838546,5.21698 3.994498,7.10738 2.592988,2.27359 5.724549,3.83999 8.647979,4.32568 1.15141,0.19129 3.44687,0.11969 4.69923,-0.14657 z"
         id="path1058" />
      <path
         style="fill:#ffffff;stroke-width:1.25;stroke-miterlimit:4;stroke-dasharray:none"
         d="m 118.48074,122.9566 c -1.41833,-0.71196 -1.41412,-2.7693 0.007,-3.45728 0.60994,-0.29527 1.42181,-0.24276 1.9824,0.12822 0.69643,0.46087 1.05465,1.52029 0.75586,2.2354 -0.5102,1.22108 -1.61485,1.66114 -2.74534,1.09366 z"
         id="path1060" />
      <path
         style="fill:#ffffff;stroke-width:1.25;stroke-miterlimit:4;stroke-dasharray:none"
         d="m 110.08591,123.92244 c -0.70206,-0.35487 -1.01931,-0.84207 -1.07035,-1.64375 -0.0447,-0.70225 0.16685,-1.22668 0.66344,-1.64454 1.23681,-1.0407 3.21128,-0.11684 3.21128,1.50257 0,0.58523 -0.10117,0.85097 -0.49451,1.29896 -0.39155,0.44595 -0.70744,0.61122 -1.31495,0.68798 -0.39925,0.0504 -0.56223,0.0175 -0.99491,-0.20122 z"
         id="path1062" />
      <path
         style="fill:#ffffff;stroke-width:1.25;stroke-miterlimit:4;stroke-dasharray:none"
         d="m 114.0812,127.76124 c -0.58316,-0.28865 -1.19092,-1.00157 -1.19092,-1.39697 0,-0.36649 0.33913,-0.73314 0.67811,-0.73314 0.13874,0 0.3643,0.14649 0.57762,0.37516 0.19249,0.20633 0.44564,0.4253 0.56255,0.48658 0.27567,0.1445 1.05027,0.14222 1.68799,-0.005 0.41802,-0.0965 0.57242,-0.19719 0.90243,-0.58856 0.36864,-0.43719 0.42709,-0.47 0.78945,-0.44316 0.45987,0.0341 0.7131,0.36032 0.60719,0.78229 -0.0774,0.30848 -0.6033,1.00877 -0.95097,1.26634 -0.63066,0.46725 -2.9146,0.62713 -3.66345,0.25645 z"
         id="path1064" />
    </g>
    <g
       id="g1704"
       transform="matrix(-1.3047461,0,0,1.3047461,303.46795,79.411392)">
      <path
         sodipodi:nodetypes="sssssssssacsaacssccccssssccs"
         id="path1700"
         d="m 151.05998,76.496493 c -0.52993,-0.529937 -0.40176,-0.954909 0.97586,-3.235634 0.7176,-1.188023 1.7235,-3.033879 2.23534,-4.101904 1.39273,-2.906141 2.01414,-3.436019 2.892,-2.466002 0.35841,0.396045 0.23311,0.769302 0.10031,1.124479 -0.14041,0.375537 -0.65965,1.484251 -1.06456,2.502897 -0.40492,1.018646 -1.35434,2.864115 -2.10983,4.101042 -1.06832,1.74911 -1.52104,2.266188 -2.03693,2.326476 -0.36482,0.04263 -0.81131,-0.07048 -0.99219,-0.251354 z m 1.17781,-0.425164 c 0.0187,-0.228971 -0.12872,-0.449283 -0.24842,-0.642879 -0.28179,-0.455946 -1.00018,0.113309 -0.80499,0.621969 0.16274,0.424082 0.53727,0.488131 0.83118,0.398534 0.13971,-0.04259 0.21033,-0.232057 0.22223,-0.377624 z m 2.34703,-3.396588 c 1.30583,-2.38546 1.40529,-2.873134 0.66664,-3.268447 -0.44735,-0.239419 -0.63178,-0.04675 -1.57401,1.644337 -0.58701,1.053542 -1.28485,2.262735 -1.55076,2.687096 -1.18195,2.022809 -0.47077,0.786042 0.0527,1.382481 0.65033,0.741038 -0.16051,2.019199 2.40547,-2.445467 z m 1.98136,-4.239707 c 0.40299,-0.940121 0.45401,-1.308899 0.22008,-1.590762 -0.37675,-0.453955 -0.88239,-0.106161 -1.46162,1.033449 -0.93036,1.830437 -0.47888,0.969214 0.0584,1.276041 0.36059,0.205926 0.44653,0.305569 0.546,0.682285 0.0141,0.05356 0.34856,-0.727903 0.63709,-1.401013 z"
         style="fill:#000000;stroke-width:0.264583" />
      <path
         sodipodi:nodetypes="cscsccssscscccsssssssssss"
         id="path1702"
         d="m 151.46872,70.604473 c 0.14098,-2.514706 0.0896,-3.28296 -0.30029,-4.489129 -0.38106,-1.178838 -0.47821,-2.485319 -0.51158,-6.879167 -0.0275,-3.626992 0.0315,-4.985673 0.17824,-4.101041 0.12069,0.727604 0.20228,2.394479 0.18132,3.704166 -0.021,1.309688 -0.016,3.095625 0.011,3.96875 0.0423,1.366717 0.0871,1.495507 0.32223,0.926042 0.16426,-0.397787 0.21876,-1.927079 0.13671,-3.836458 -0.10197,-2.373005 -0.0752,-2.840836 0.10608,-1.852084 0.13338,0.727604 0.24418,3.049323 0.24623,5.159375 0.002,2.110052 0.0322,4.669896 0.067,5.688542 0.0348,1.018645 -0.0328,2.328333 -0.15037,2.910416 l -0.21367,1.058333 c 0.36017,3.484352 -0.66525,2.980596 -0.0729,-2.257745 z m -0.40489,-1.997636 c 0.0127,-0.308225 -0.42069,-2.071813 -0.33624,-1.860746 0.0764,0.190996 0.56309,2.120092 0.47519,2.208011 -0.0879,0.08792 -0.15045,-0.06835 -0.13897,-0.347265 z m -0.78929,-3.485063 c -0.18161,-0.981505 -0.36621,-2.796586 -0.41023,-4.033513 -0.044,-1.236927 -0.0355,-1.772709 0.0189,-1.190625 0.0544,0.582083 0.24607,2.354546 0.52006,3.923673 0.69405,3.974841 0.38327,4.067653 -0.12874,1.300465 z"
         style="mix-blend-mode:normal;fill:#a6a5a6;fill-opacity:1;stroke:none;stroke-width:0.265;stroke-miterlimit:4;stroke-dasharray:none;stroke-opacity:1;filter:url(#filter1660)" />
    </g>
  </g>
</svg>
