<?xml version="1.0" encoding="UTF-8" standalone="no"?>
<svg
   xmlns:dc="http://purl.org/dc/elements/1.1/"
   xmlns:cc="http://creativecommons.org/ns#"
   xmlns:rdf="http://www.w3.org/1999/02/22-rdf-syntax-ns#"
   xmlns:svg="http://www.w3.org/2000/svg"
   xmlns="http://www.w3.org/2000/svg"
   xmlns:sodipodi="http://sodipodi.sourceforge.net/DTD/sodipodi-0.dtd"
   xmlns:inkscape="http://www.inkscape.org/namespaces/inkscape"
   width="210mm"
   height="297mm"
   viewBox="0 0 210 297"
   version="1.1"
   id="svg3477"
   inkscape:version="1.0 (4035a4fb49, 2020-05-01)"
   sodipodi:docname="utca.svg">
  <defs
     id="defs3471" />
  <sodipodi:namedview
     id="base"
     pagecolor="#ffffff"
     bordercolor="#666666"
     borderopacity="1.0"
     inkscape:pageopacity="0.0"
     inkscape:pageshadow="2"
     inkscape:zoom="1.4"
     inkscape:cx="2319.7722"
     inkscape:cy="697.08848"
     inkscape:document-units="mm"
     inkscape:current-layer="layer1"
     inkscape:document-rotation="0"
     showgrid="false"
     inkscape:window-width="1920"
     inkscape:window-height="1017"
     inkscape:window-x="-8"
     inkscape:window-y="-8"
     inkscape:window-maximized="1" />
  <metadata
     id="metadata3474">
    <rdf:RDF>
      <cc:Work
         rdf:about="">
        <dc:format>image/svg+xml</dc:format>
        <dc:type
           rdf:resource="http://purl.org/dc/dcmitype/StillImage" />
        <dc:title />
      </cc:Work>
    </rdf:RDF>
  </metadata>
  <g
     inkscape:label="Layer 1"
     inkscape:groupmode="layer"
     id="layer1">
    <rect
       inkscape:export-filename="C:\Users\Zoli\rect4077.png"
       style="fill:#ffffff;fill-rule:evenodd;stroke-width:0.1991;stroke-linecap:round;stroke-linejoin:round;paint-order:markers fill stroke"
       id="rect4077"
       width="385.40402"
       height="216.78975"
       x="332.61905"
       y="162.90791"
       inkscape:export-xdpi="67.486588"
       inkscape:export-ydpi="67.486588" />
    <path
       id="path4054"
       style="fill:#000000;stroke-width:0.307026"
       d="m 612.34282,145.40366 c -0.70274,0 -0.75264,0.1216 -0.91034,2.22594 -0.54366,7.25372 -0.53635,36.15083 0.13554,43.84508 0.77781,8.90871 0.91707,18.45339 0.32804,22.50226 -1.21472,8.34863 -4.03916,14.77241 -8.2951,18.86771 -0.6937,0.66752 -1.26114,1.39286 -1.26114,1.61189 0,0.21903 0.33061,0.39818 0.73454,0.39818 0.50362,0 1.271,-0.57996 2.44128,-1.84395 4.92782,-5.32267 7.41169,-12.36297 8.20877,-23.26983 0.33385,-4.56921 0.26457,-6.411 -0.67583,-18.09056 -0.52554,-6.52596 -0.57162,-8.35024 -0.29324,-11.60702 0.18161,-2.12524 0.33038,-32.52418 0.33038,-33.27488 0,-1.23931 -0.0685,-1.36482 -0.7429,-1.36482 z m 17.16879,0 c -0.76357,0 -0.76669,28.05923 -0.75973,30.88583 0.014,5.51911 0.60446,17.63784 1.08777,22.33614 1.16564,11.33153 5.3017,21.72073 12.92574,32.46802 0.74858,1.05539 1.56563,1.91891 1.8157,1.91891 0.98541,0 0.75426,-0.97294 -0.70995,-2.98632 -5.34707,-7.35201 -9.7629,-16.80976 -11.42113,-24.46373 -1.19129,-5.49818 -2.17079,-18.14879 -2.17079,-28.03113 V 145.40366 Z M 441.23026,196.5826 c -1.95662,-0.0481 -4.47288,0.32404 -7.6013,1.11477 -6.63297,1.67649 -15.13585,5.41214 -21.03128,9.23956 -5.02197,3.26034 -8.59673,7.61491 -8.59673,10.47187 0,1.0245 -0.1,1.18073 -0.84432,1.32045 -8.42419,1.581 -14.95995,4.37429 -16.90923,7.2271 -0.64218,0.93981 -0.71092,1.31284 -0.56846,3.08466 0.19213,2.39013 1.05055,4.97625 2.4298,7.32066 1.30205,2.2132 5.76019,6.71047 9.44466,9.5274 1.60421,1.22649 2.96301,2.3542 3.01929,2.50599 0.0562,0.15177 -0.56544,0.28209 -1.38162,0.29023 -1.96433,0.0194 -3.50088,0.80333 -4.18623,2.13478 -0.4611,0.8959 -0.53756,1.68728 -0.45993,4.7589 0.081,3.20363 0.193,3.8844 0.85991,5.21885 0.90177,1.80437 2.17792,2.74041 4.38591,3.21659 2.47887,0.5346 9.26649,0.72752 12.49992,0.35559 1.77912,-0.20469 2.9551,-0.22362 3.0145,-0.0492 0.40007,1.17432 1.56625,2.32973 2.52336,2.50059 1.87593,0.33486 3.52774,0.28231 6.31923,-0.20208 2.78679,-0.4836 22.05092,-5.2181 22.59161,-5.55225 0.16423,-0.10159 0.23208,-0.43958 0.15051,-0.75139 -0.12149,-0.46457 0.16442,-0.65746 1.58491,-1.06859 6.48369,-1.87652 14.18106,-7.59789 18.1643,-13.50076 2.9688,-4.39963 3.95968,-7.75335 3.41324,-11.55605 -0.66155,-4.60383 -2.08039,-5.80168 -7.7902,-6.57587 -1.62006,-0.21967 -1.68435,-0.5598 -0.16304,-0.86352 0.55235,-0.11024 2.26234,-0.81251 3.8,-1.56032 4.95509,-2.40973 7.21127,-5.76924 6.76184,-10.06949 -0.49432,-4.72848 -3.31923,-7.59494 -8.59738,-8.72206 -2.48525,-0.53074 -7.30491,-0.38911 -12.75712,0.37479 -4.40145,0.61666 -5.36893,0.59992 -5.09476,-0.0887 1.12255,-2.81994 0.7497,-7.20898 -0.73878,-8.69748 -0.88924,-0.88923 -2.28598,-1.35702 -4.24261,-1.405 z m -0.68302,1.55071 c 2.11557,-0.0185 3.5999,0.40063 4.17785,1.28267 0.83488,1.27421 0.8831,3.86796 0.11633,6.25266 -0.38052,1.18342 -0.61098,2.36222 -0.5121,2.61993 0.24041,0.6265 2.75341,0.61851 7.13061,-0.0227 4.84611,-0.71008 11.47301,-0.73088 13.69555,-0.0432 3.43181,1.06186 5.69913,3.69784 6.01581,6.99324 0.52927,5.50755 -4.0445,9.06749 -14.7456,11.4775 -0.55839,0.12578 -0.84433,0.38807 -0.84433,0.77416 0,0.66665 -0.0708,0.64735 5.83352,1.57892 2.27964,0.35966 4.53699,0.85602 5.01613,1.10337 2.1275,1.0982 2.91831,6.5997 1.47697,10.27577 -1.47976,3.7739 -5.11035,8.20588 -9.79784,11.96023 -4.10415,3.28713 -8.79547,5.45254 -12.50415,5.77173 -1.74595,0.15027 -2.16553,0.28875 -2.25233,0.74358 -0.0691,0.36181 0.11962,0.61829 0.5343,0.72678 0.35242,0.0921 0.63852,0.25461 0.63505,0.36161 -0.006,0.20825 -18.38235,4.79608 -21.14464,5.27881 -1.85934,0.32493 -4.1047,0.33229 -5.25421,0.0174 -0.58734,-0.16089 -0.94241,-0.65836 -1.51235,-2.1186 -0.80796,-2.07008 -1.51398,-2.46272 -2.10301,-1.16994 -0.30501,0.66941 -0.58895,0.75938 -3.04268,0.96425 -3.58441,0.29926 -9.99233,-0.0304 -11.94343,-0.61465 -1.8247,-0.54641 -2.3956,-1.0935 -3.0355,-2.90715 -0.52506,-1.48822 -0.64618,-6.57791 -0.18528,-7.79019 0.39376,-1.03564 0.96337,-1.21629 4.47527,-1.4194 2.77043,-0.16021 3.07803,-0.23746 3.14882,-0.79154 0.054,-0.42227 -0.32961,-0.90021 -1.22812,-1.52975 -3.10375,-2.17468 -8.89565,-7.04841 -10.72611,-9.02547 -3.00176,-3.24216 -4.85726,-7.26422 -4.85726,-10.53004 0,-2.29445 2.5923,-4.16348 8.59673,-6.19809 3.45358,-1.17024 7.76807,-2.03765 10.13427,-2.03765 2.40708,0 2.91575,-1.41368 0.78555,-2.18396 -1.28083,-0.46316 -1.32064,-0.71325 -0.42036,-2.6553 0.88382,-1.90656 4.08278,-5.07901 7.15455,-7.09519 3.04877,-2.00105 10.65684,-5.74447 14.71686,-7.24149 4.93264,-1.81876 9.37318,-2.78101 12.46513,-2.80821 z m 278.88528,23.51928 c -0.40706,0 -4.14755,2.84239 -5.59249,4.2498 -5.04653,4.91549 -3.7363,11.1304 2.87481,13.63388 2.64957,1.0033 2.91066,1.01717 2.90602,0.1541 0,-0.57544 -0.37632,-0.83086 -2.23681,-1.52792 -7.07354,-2.65028 -6.76254,-8.7262 0.70646,-13.7922 1.19395,-0.80983 1.51968,-1.20898 1.52548,-1.87333 0,-0.46439 -0.0778,-0.84433 -0.18347,-0.84433 z m 0.19125,63.14845 -9.2875,0.20687 c -33.09952,0.7378 -75.61986,2.99516 -127.49257,6.64483 -36.90195,2.59303 -73.88632,3.89377 -110.83644,5.63863 -8.10549,0.28275 -23.37235,0.85325 -33.92641,1.26767 -46.51781,1.82657 -88.44277,3.43142 -96.25269,3.68431 -2.87069,0.0929 -6.49745,0.24792 -8.05943,0.34481 -2.66918,0.16562 -2.84,0.21705 -2.84,0.85272 0,0.65521 0.089,0.67359 2.84,0.58227 8.90362,-0.29546 30.27882,-1.06886 36.61286,-1.32466 4.05275,-0.16366 21.73746,-0.85204 39.29933,-1.52972 17.56191,-0.67769 38.84294,-1.5055 47.29097,-1.83978 83.97659,-3.30912 82.94139,-3.16163 127.71398,-6.29522 52.56743,-3.67891 94.2481,-5.86091 125.03631,-6.49432 l 9.90159,-0.2039 v -0.76695 z m -256.21331,51.16782 c -16.18372,-0.0428 -21.84873,-0.39321 -31.16311,-1.92792 -4.13717,-0.68168 -9.45641,-1.44888 -11.8205,-1.70483 -16.71605,-1.80982 -42.7618,-2.08482 -82.8203,-0.87369 l -6.67782,0.20208 v 0.71899 c 0,0.87372 -1.88894,0.84999 20.11022,0.25845 26.30004,-0.70719 46.63577,-0.50977 61.87655,0.60085 7.24933,0.52829 10.78404,0.96596 21.0049,2.60193 6.88965,1.10277 8.1293,1.20817 18.5007,1.57173 24.49273,0.27014 98.39346,-5.75966 141.32204,-10.00007 4.30593,-0.2508 8.93436,-0.5249 10.28531,-0.60926 11.07558,-0.69192 32.99904,-1.57389 49.58472,-1.99447 6.83901,-0.17342 17.6847,-0.4488 24.10155,-0.61225 6.41686,-0.16344 16.91722,-0.37334 23.33395,-0.46594 6.41686,-0.0926 13.22141,-0.24667 15.12112,-0.34241 3.34907,-0.16887 3.45398,-0.19555 3.45398,-0.88029 v -0.7064 l -6.21727,0.12893 c -3.4195,0.0709 -12.98724,0.26734 -21.26157,0.43655 -102.9106,1.00302 -142.21647,8.83103 -228.73447,13.59802 z m 256.21331,-1.99808 -4.68216,0.17751 c -2.57518,0.0974 -9.86317,0.24968 -16.19555,0.33881 -6.33249,0.0891 -16.55643,0.29587 -22.71997,0.45933 -6.16354,0.16348 -17.14744,0.44065 -24.40861,0.61646 -71.58371,3.10416 -124.90819,9.9891 -183.90863,12.74497 l -4.91237,0.322 c -0.67791,0.0445 -7.03095,-0.0804 -14.12329,-0.34061 -12.58511,-0.46165 -13.10165,-0.50505 -21.49178,-1.82355 -12.16824,-1.91222 -15.10974,-2.21375 -28.3999,-2.90957 -14.15462,-0.74106 -42.17691,-0.66227 -62.8636,0.17691 -4.97874,0.20199 -4.98918,0.2038 -4.98918,0.92587 0,0.86867 -0.80733,0.84203 12.8951,0.42938 33.8837,-1.0204 59.28224,-0.44801 74.91437,1.68804 1.77308,0.24226 6.19426,0.91769 9.82484,1.50095 6.01401,0.96615 7.72055,1.10477 19.18914,1.55911 6.92338,0.27423 13.90048,0.41589 15.50487,0.31842 l 5.67987,-0.3448 c 100.7904,-6.39587 27.63804,-2.89467 189.43522,-12.8693 4.89706,-0.0953 10.14712,-0.23363 11.66691,-0.30703 1.5198,-0.0734 7.73706,-0.22054 13.81624,-0.32683 6.07906,-0.10629 12.02003,-0.23711 13.20215,-0.29084 1.18199,-0.0539 6.22491,-0.11726 11.20645,-0.14151 10.80044,-0.0526 11.35988,-0.10955 11.35988,-1.15015 z"
       sodipodi:nodetypes="sssssssssssssscssscsscssssscssssssssssccssscsssssssssssssssccssssssssssscsssssssssssssssssssssscscsscsccccsssscssccccccccsccsssscccssscsccccccsscccssssssssscccsscsscc" />
  </g>
</svg>
